<?xml version="1.0" encoding="UTF-8"?>
<svg width="24px" height="12px" viewBox="0 0 24 12" version="1.1" xmlns="http://www.w3.org/2000/svg" xmlns:xlink="http://www.w3.org/1999/xlink">
    <!-- Generator: Sketch 50.2 (55047) - http://www.bohemiancoding.com/sketch -->
    <title>Group 39</title>
    <desc>Created with Sketch.</desc>
    <defs></defs>
    <g id="Page-1" stroke="none" stroke-width="1" fill="none" fill-rule="evenodd">
        <g id="Group-29" transform="translate(-63.000000, -4.000000)" fill="#6B6CED">
            <g id="Group-8-Copy-4">
                <g id="Group-4-Copy-5" transform="translate(63.000000, 4.000000)">
                    <g id="Group-39">
                        <path d="M1,7 L4,7 C4.55228475,7 5,6.55228475 5,6 L5,6 C5,5.44771525 4.55228475,5 4,5 L1,5 C0.44771525,5 -6.76353751e-17,5.44771525 0,6 L0,6 C6.76353751e-17,6.55228475 0.44771525,7 1,7 Z" id="Fill-1-Copy"></path>
                        <path d="M17.2090506,0.692172233 L17.0224729,0.874635569 C16.6276192,1.26078194 16.6205605,1.89390757 17.0067069,2.28876125 C17.0119035,2.294075 17.0171591,2.29933065 17.0224729,2.30452722 L19.8329454,5.05302326 L7.95739535,5.05302326 C7.4286405,5.05302326 7,5.48166375 7,6.0104186 L7,6.0104186 C7,6.53917346 7.4286405,6.96781395 7.95739535,6.96781395 L19.8123993,6.96781395 L17.0226441,9.69604955 C16.6277904,10.0821959 16.6207317,10.7153216 17.0068781,11.1101752 C17.0121292,11.1155448 17.0174407,11.120855 17.0228114,11.1261048 L17.209018,11.30812 C17.601101,11.6913772 18.2286754,11.6874519 18.6159335,11.2993202 L22.9376902,6.96781395 L23.1878551,6.7399897 C23.5961862,6.36812395 23.6257472,5.73564941 23.2538815,5.32731829 C23.2328315,5.30420419 23.2107093,5.28208992 23.1875875,5.26104835 L22.9589973,5.05302326 L18.6160973,0.700772135 C18.2287689,0.312609768 17.6010948,0.308773409 17.2090506,0.692172233 Z" id="Fill-2-Copy"></path>
                    </g>
                </g>
            </g>
        </g>
    </g>
</svg>