<?xml version="1.0" encoding="UTF-8"?>
<svg width="16px" height="16px" viewBox="0 0 16 16" version="1.1" xmlns="http://www.w3.org/2000/svg" xmlns:xlink="http://www.w3.org/1999/xlink">
    <!-- Generator: Sketch 50.2 (55047) - http://www.bohemiancoding.com/sketch -->
    <title>Group 40</title>
    <desc>Created with Sketch.</desc>
    <defs></defs>
    <g id="Page-1" stroke="none" stroke-width="1" fill="none" fill-rule="evenodd">
        <g id="Group-30-Copy" transform="translate(0.000000, -1.000000)" fill="#6B6CED">
            <g id="Group-2-Copy" transform="translate(0.000000, 1.000000)">
                <g id="Group-40">
                    <path d="M4.00025,12.00025 C3.74425,12.00025 3.48825,11.90225 3.29325,11.70725 L0.29325,8.70725 C-0.09775,8.31625 -0.09775,7.68425 0.29325,7.29325 L3.29325,4.29325 C3.68425,3.90225 4.31625,3.90225 4.70725,4.29325 C5.09825,4.68425 5.09825,5.31625 4.70725,5.70725 L2.41425,8.00025 L4.70725,10.29325 C5.09825,10.68425 5.09825,11.31625 4.70725,11.70725 C4.51225,11.90225 4.25625,12.00025 4.00025,12.00025" id="Fill-4"></path>
                    <path d="M6.0014534,16.0008874 C5.9094534,16.0008874 5.8174534,15.9878874 5.7264534,15.9618874 C5.1944534,15.8098874 4.8874534,15.2568874 5.0384534,14.7258874 L9.0384534,0.725887417 C9.1904534,0.193887417 9.7494534,-0.113112583 10.2744534,0.0388874171 C10.8064534,0.190887417 11.1134534,0.743887417 10.9624534,1.27488742 L6.9624534,15.2748874 C6.8364534,15.7138874 6.4364534,16.0008874 6.0014534,16.0008874" id="Fill-1"></path>
                    <path d="M12.00025,12.00025 C11.74425,12.00025 11.48825,11.90225 11.29325,11.70725 C10.90225,11.31625 10.90225,10.68425 11.29325,10.29325 L13.58625,8.00025 L11.29325,5.70725 C10.90225,5.31625 10.90225,4.68425 11.29325,4.29325 C11.68425,3.90225 12.31625,3.90225 12.70725,4.29325 L15.70725,7.29325 C16.09825,7.68425 16.09825,8.31625 15.70725,8.70725 L12.70725,11.70725 C12.51225,11.90225 12.25625,12.00025 12.00025,12.00025" id="Fill-7"></path>
                </g>
            </g>
        </g>
    </g>
</svg>