<svg xmlns="http://www.w3.org/2000/svg" xmlns:xlink="http://www.w3.org/1999/xlink" viewBox="0 0 300 300">
    <defs>
        <style>
        	@-webkit-keyframes iframe1 {
                0%{
                    -webkit-transform: translateY(0px);
                    -moz-transform: translateY(0px);
                    -o-transform: translateY(0px);
                }
                50%{
                    -webkit-transform: translateY(10px);
                    -moz-transform: translateY(10px);
                    -o-transform: translateY(10px);
                }
                100%{
                    -webkit-transform: translateY(0px);
                    -moz-transform: translateY(0px);
                    -o-transform: translateY(0px);
                }
            }
            /* Standard syntax */
            @keyframes iframe1 {
                0%{
                    -webkit-transform: translateY(0px);
                    -moz-transform: translateY(0px);
                    -o-transform: translateY(0px);
                }
                50%{
                    -webkit-transform: translateY(10px);
                    -moz-transform: translateY(10px);
                    -o-transform: translateY(10px);
                }
                100%{
                    -webkit-transform: translateY(0px);
                    -moz-transform: translateY(0px);
                    -o-transform: translateY(0px);
                }
            }
            .iframe1 {
                animation: iframe1 5s alternate 0s infinite;
                -webkit-animation: iframe1 5s alternate 0s infinite;
                -moz-animation: iframe1 5s alternate 0s infinite;
                -o-animation: iframe1 5s alternate 0s infinite;
            }

            @-webkit-keyframes iframe2 {
                0%{
                    -webkit-transform: translate(30px,-30px);
                    -moz-transform: translate(30px,-30px);
                    -o-transform: translate(30px,-30px);
                }
                50%{
                    -webkit-transform: translate(30px,-10px);
                    -moz-transform: translate(30px,-10px);
                    -o-transform: translate(30px,-10px);
                }
                100%{
                    -webkit-transform: translate(30px,-30px);
                    -moz-transform: translate(30px,-30px);
                    -o-transform: translate(30px,-30px);
                }
            }
            /* Standard syntax */
            @keyframes iframe2 {
                0%{
                    -webkit-transform: translate(30px,-50px);
                    -moz-transform: translate(30px,-50px);
                    -o-transform: translate(30px,-50px);
                }
                50%{
                    -webkit-transform: translate(0px,-30px);
                    -moz-transform: translate(0px,-30px);
                    -o-transform: translate(0px,-30px);
                }
                100%{
                    -webkit-transform: translate(30px,-50px);
                    -moz-transform: translate(30px,-50px);
                    -o-transform: translate(30px,-50px);
                }
            }
            .iframe2 {
                animation: iframe2 10s alternate 0s infinite;
                -webkit-animation: iframe2 10s alternate 0s infinite;
                -moz-animation: iframe2 10s alternate 0s infinite;
                -o-animation: iframe2 10s alternate 0s infinite;
            }
            @keyframes TomoPlus2 {
                0% {
                    transform: translate(0px,2px);
                }
                50% {
                    transform: translate(0px,0px);
                }
                100% {
                    transform: translate(0px,2px);
                }
            }
            .plus2 {
                animation-name: TomoPlus2;
                animation-iteration-count: infinite;
                animation-duration: 3s;
            }
            @keyframes TomoPlus3 {
                0% {
                    transform: translate(0px,-10px);
                }
                50% {
                    transform: translate(0px,-12px);
                }
                100% {
                    transform: translate(0px,-10px);
                }
            }
            .plus3 {
                animation-name: TomoPlus3;
                animation-iteration-count: infinite;
                animation-duration: 3s;
            }
        	.cls-1,.cls-7{fill:#fff;}.cls-1{opacity:0;}.cls-2{fill:#314a9e;}.cls-3{fill:#283994;}.cls-4{fill:url(#linear-gradient);}.cls-5{fill:url(#linear-gradient-2);}.cls-6{opacity:0.8;}.cls-8{fill:#f7f7f8;}.cls-9{fill:#d75da1;}.cls-10{fill:#cc579f;}.cls-11{fill:#b7499a;}.cls-12{fill:#9a3b92;}.cls-13{fill:#91398f;}.cls-14{fill:url(#linear-gradient-3);}.cls-15{fill:#c22374;}.cls-16{fill:url(#linear-gradient-4);}.cls-17{fill:url(#linear-gradient-5);}</style>
        <linearGradient id="linear-gradient" x1="141.98" y1="88.68" x2="138.35" y2="211.19" gradientUnits="userSpaceOnUse">
            <stop offset="0" stop-color="#7dd2f1"/>
            <stop offset="0.08" stop-color="#7ec6e9"/>
            <stop offset="0.36" stop-color="#80a7d5"/>
            <stop offset="0.78" stop-color="#837cba"/>
            <stop offset="1" stop-color="#846cb0"/>
        </linearGradient>
        <linearGradient id="linear-gradient-2" x1="101.22" y1="76.88" x2="101.22" y2="130.71" gradientUnits="userSpaceOnUse">
            <stop offset="0" stop-color="#7c318f"/>
            <stop offset="1" stop-color="#fed683"/>
        </linearGradient>
        <linearGradient id="linear-gradient-3" x1="108.36" y1="119.58" x2="250" y2="119.58" gradientUnits="userSpaceOnUse">
            <stop offset="0" stop-color="#faa533"/>
            <stop offset="0.47" stop-color="#f0502d"/>
            <stop offset="1" stop-color="#7c318f"/>
        </linearGradient>
        <linearGradient id="linear-gradient-4" x1="94.85" y1="120.33" x2="94.85" y2="164.21" gradientUnits="userSpaceOnUse">
            <stop offset="0" stop-color="#fed683"/>
            <stop offset="1" stop-color="#f0502d"/>
        </linearGradient>
        <linearGradient id="linear-gradient-5" x1="158.63" y1="193.91" x2="222.74" y2="193.91" xlink:href="#linear-gradient-4"/>
    </defs>
    <title>Marketing Support</title>
    <g id="Layer_2" data-name="Layer 2">
        <g id="Layer_1-2" data-name="Layer 1">
            <rect class="cls-1" width="300" height="300"/>
            <path class="cls-2" d="M162.13,222.83C92,244.43,50,210,50,168.56a29.18,29.18,0,0,1,1.69-9.8c10-1.24,25.35-.79,20.2,15-7,21.55,22,2.33,24.77,23.77,3.07,23.42,26.1-13.52,27.42,2.64,1.27,15.82,4,20.49,18.3,10.25C153.47,202.44,156,213.25,162.13,222.83Z"/>
            <path class="cls-3" d="M227,181.79c-1.69-4.75-2.72-11.54-5.94-14.92-8.18-8.53,20.87-16.58-.87-26.94-15.74-7.5,19.25-14.23-2.24-27.2-6.71-4-2.8-10.11,2.64-15.45C246,126,245.9,156.86,227,181.79Z"/>
            <path class="cls-4" d="M221.05,166.87c3.22,3.38,4.25,10.17,5.94,14.92-12.94,17.09-34.64,31.4-63,40.46-.64.21-1.27.4-1.88.58-6.12-9.58-8.66-20.39-19.75-12.46-14.34,10.24-17,5.57-18.3-10.25-1.32-16.16-24.35,20.78-27.42-2.64-2.79-21.44-31.77-2.22-24.77-23.77,5.15-15.74-10.22-16.19-20.2-15,10-29,66.21-42.46,81.71-64.72,0,0,33.57-53,84.3.13,1,1,2,2.08,2.88,3.11-5.44,5.34-9.35,11.41-2.64,15.45,21.49,13-13.5,19.7,2.24,27.2C241.92,150.29,212.87,158.34,221.05,166.87Z"/>
            <g class="iframe2">
                <circle class="cls-5" cx="101.22" cy="103.75" r="28.27"/>
                <g class="cls-6">
                    <path class="cls-7" d="M98.27,110.29a4.74,4.74,0,0,0,5.06-.6l.35-.29a1,1,0,0,0-1.29-1.41l-.26.22a2.81,2.81,0,0,1-3,.35,2.86,2.86,0,0,1-1.67-2.63v-5.09h5.72A.85.85,0,0,0,104,100a.84.84,0,0,0-.84-.83H97.42V97.69a1,1,0,1,0-1.91,0v1.48H94a.84.84,0,0,0-.84.83.85.85,0,0,0,.84.84h1.56v5.09A4.8,4.8,0,0,0,98.27,110.29Z"/>
                    <path class="cls-7" d="M112.65,106.5a.73.73,0,0,0-.71-.89h-.22a.72.72,0,0,0-.71.56A11.41,11.41,0,1,1,89.48,99a10.43,10.43,0,0,1,5.64-5.64,11.49,11.49,0,0,1,14.22,4.07.72.72,0,0,0,1,.21l.13-.08a.79.79,0,0,0,.24-1.11,13.14,13.14,0,0,0-15.41-5A12.38,12.38,0,0,0,87.68,99a13.08,13.08,0,1,0,25,7.52Z"/>
                    <path class="cls-7" d="M99.09,86.34A17.47,17.47,0,0,0,82.48,103a17.18,17.18,0,0,0,.68,5.67.83.83,0,0,0,1.15.51h0a.83.83,0,0,0,.44-1,15.75,15.75,0,1,1,15.13,11.36,15.21,15.21,0,0,1-3.4-.38.79.79,0,0,0-.79.29.85.85,0,0,0,.47,1.36,17.85,17.85,0,0,0,4.35.39,17.43,17.43,0,1,0-1.43-34.83Z"/>
                </g>
            </g>
            <rect class="cls-8" x="93.7" y="103.75" width="104.91" height="92.03" rx="1.42" ry="1.42"/>
            <rect class="cls-9" x="101.76" y="155.3" width="9.83" height="32.49"/>
            <rect class="cls-9" x="117.58" y="156.49" width="9.83" height="31.3"/>
            <rect class="cls-10" x="133.4" y="125.2" width="9.83" height="62.59"/>
            <rect class="cls-11" x="149.22" y="142.78" width="9.83" height="45.01"/>
            <rect class="cls-12" x="165.03" y="149.97" width="9.83" height="37.82"/>
            <rect class="cls-13" x="180.85" y="138.37" width="9.83" height="49.42"/>
            <path id="circle" class="cls-14" d="M130.26,146.27c-10.47,0-21.39-10.82-21.9-11.33l2.81-2.8c.12.13,12.37,12.25,21.54,9.87,4-1,7-4.86,8.86-11.38,3.45-12,8.51-18.7,15-20,8.94-1.74,16.63,7.35,18.08,9.2,2.72,3.44,11.46,9.52,19.26,8,5.52-1.06,9.56-5.81,12-14.09,4-13.62,12.14-18.41,18.25-20,9.86-2.61,20.44,1.23,25.8,6.37L247.26,103c-4.45-4.27-13.69-7.6-22-5.39-7.36,2-12.71,8-15.47,17.33-3.61,12.23-10.18,15.92-15.06,16.86-9.59,1.87-19.79-5.24-23.12-9.45s-9-8.76-14.21-7.76c-4.88,1-9,6.9-12,17.19-2.3,8-6.23,12.72-11.68,14.12A13.71,13.71,0,0,1,130.26,146.27Z"/>
            <g class="" transform="translate(0, -10)">
                <rect class="cls-16" x="69.46" y="119.89" width="50.78" height="45.55" rx="1.56" ry="1.56"/>
                <path class="cls-7" d="M101.22,146.78a4.93,4.93,0,0,0-2.85.9l-8.15-4.51a4.23,4.23,0,0,0,0-1.42l8.15-4.51a4.93,4.93,0,0,0,2.85.9,4.34,4.34,0,1,0-4.68-4.33,4.17,4.17,0,0,0,.06.71L88.45,139a4.92,4.92,0,0,0-2.85-.89,4.33,4.33,0,1,0,0,8.64,4.86,4.86,0,0,0,2.85-.9l8.15,4.52a4.08,4.08,0,0,0-.06.71,4.7,4.7,0,1,0,4.68-4.33Z"/>
            </g>
            <g id="tomo1" transform="translate(-175, -122)">
                <path class="cls-15" d="M173.88,134.57a13,13,0,1,1,13-13A13,13,0,0,1,173.88,134.57Zm0-22a9,9,0,1,0,9,9A9,9,0,0,0,173.88,112.61Z"/>
                <circle class="cls-15" cx="173.88" cy="121.61" r="3.88"/>
                <animateMotion
                    xlink:href="#tomo1"
                    dur="50s"
                    begin="0s"
                    fill="freeze"
                    repeatCount="indefinite">
                    <mpath xlink:href="#circle" />
                </animateMotion>
            </g>
            <path class="cls-17 iframe1" d="M221.61,216l-23.46-17.26a21.22,21.22,0,1,0-3.38,4.38l23.57,17.34a2.77,2.77,0,0,0,3.27-4.46Zm-44.46-43.36a15.67,15.67,0,1,1-12.76,18.12,15.7,15.7,0,0,1,12.76-18.12Z"/>
        </g>
    </g>
</svg>