<svg xmlns="http://www.w3.org/2000/svg" xmlns:xlink="http://www.w3.org/1999/xlink" viewBox="0 0 1062.77 961.25">
    <defs>
        <style>
        	.cls-1{fill:url(#linear-gradient);}.cls-2{fill:url(#linear-gradient-2);}.cls-3{fill:#f1f1f2;}.cls-4{fill:url(#linear-gradient-3);}.cls-5{fill:#201b59;}.cls-6{fill:url(#linear-gradient-4);}.cls-7{fill:url(#linear-gradient-5);}.cls-8{fill:#e1e5f4;}.cls-9{fill:#bcc1e2;}.cls-10{fill:#056068;}.cls-11{fill:#f0502d;}.cls-12{fill:#f47e50;}.cls-13{fill:none;}.cls-14{fill:#2b3382;}.cls-15{fill:#3851a3;}.cls-16{fill:#cfd9f9;}.cls-17{fill:#ffc610;}.cls-18{fill:url(#linear-gradient-6);}.cls-19{fill:#b8c8f2;}.cls-20{fill:#5ac4c1;}.cls-21{fill:#234a9f;}.cls-22{fill:#e0e5f3;}.cls-23{fill:#f04d23;}.cls-24{fill:#efb81c;}.cls-25{fill:#4bbd9a;}.cls-26{fill:#3c449c;}.cls-27{fill:url(#linear-gradient-7);}


        	@keyframes cl_red {
                0% {
                    transform: rotateY(0deg);
                }
                50% {
                    transform: rotateY(50deg);
                }
                100% {
                    transform: rotateY(0deg);
                }
            }
            @keyframes cl_green {
                0% {
                    transform: rotateY(0deg);
                }
                50% {
                    transform: rotateY(50deg);
                }
                100% {
                    transform: rotateY(0deg);
                }
            }
            @keyframes cl_blue {
                0% {
                    transform: rotateY(0deg);
                }
                50% {
                    transform: rotateY(50deg);
                }
                100% {
                    transform: rotateY(0deg);
                }
            }
        	.code_ani .cls-23 {
        		animation-name: cl_red;
                animation-iteration-count: infinite;
                animation-duration: 5s;
        	}
        	.code_ani .cls-26 {
        		animation-name: cl_green;
                animation-iteration-count: infinite;
                animation-duration: 4s;
                animation-delay: 1s;
        	}
        	.code_ani .cls-20 {
        		animation-name: cl_blue;
                animation-iteration-count: infinite;
                animation-duration: 4s;
                animation-delay: 2s;
        	}
        </style>
        <linearGradient id="linear-gradient" x1="78.52" y1="106.41" x2="916.59" y2="582.6" gradientUnits="userSpaceOnUse">
            <stop offset="0" stop-color="#7dd2f1"/>
            <stop offset="0.22" stop-color="#7fbbe3"/>
            <stop offset="1" stop-color="#846cb0"/>
        </linearGradient>
        <linearGradient id="linear-gradient-2" x1="464.63" y1="511.47" x2="789.95" y2="696.31" gradientUnits="userSpaceOnUse">
            <stop offset="0" stop-color="#2b3382"/>
            <stop offset="0.18" stop-color="#2e3b8b"/>
            <stop offset="0.66" stop-color="#354b9d"/>
            <stop offset="1" stop-color="#3851a3"/>
        </linearGradient>
        <linearGradient id="linear-gradient-3" x1="525.25" y1="889.14" x2="602.76" y2="889.14" gradientUnits="userSpaceOnUse">
            <stop offset="0" stop-color="#e669a7"/>
            <stop offset="1" stop-color="#7c318f"/>
        </linearGradient>
        <linearGradient id="linear-gradient-4" x1="711.61" y1="881.43" x2="796.08" y2="881.43" gradientUnits="userSpaceOnUse">
            <stop offset="0" stop-color="#7c318f"/>
            <stop offset="1" stop-color="#e669a7"/>
        </linearGradient>
        <linearGradient id="linear-gradient-5" x1="536.68" y1="693.81" x2="793.92" y2="693.81" xlink:href="#linear-gradient-3"/>
        <linearGradient id="linear-gradient-6" x1="613.31" y1="497.81" x2="668.16" y2="772.05" gradientUnits="userSpaceOnUse">
            <stop offset="0" stop-color="#faa533"/>
            <stop offset="1" stop-color="#f0502d"/>
        </linearGradient>
        <linearGradient id="linear-gradient-7" x1="498.31" y1="418.59" x2="623.86" y2="418.59" xlink:href="#linear-gradient-2"/>
    </defs>
    <title>game 5</title>
    <g id="Layer_2" data-name="Layer 2">
        <g id="Layer_1-2" data-name="Layer 1">
            <path class="cls-1" d="M911.65,111.22c12,27,44,366-109,551s-450,87-531,21-298-156-269-371,202-261,202-261C435.65-13.78,899.65,84.22,911.65,111.22Z"/>
            <path class="cls-2" d="M894.05,473.9C875.8,542,847,608.61,802.65,662.22,680.39,810.05,466.17,777.17,343.7,724.31c97-65.28,186.62,35.64,189.23-30.5,2.85-72.57,142-149.6,168.45-102.75s96.69-32.68,111.79-69.18C821.92,500.75,861.91,484.14,894.05,473.9Z"/>
            <path class="cls-3" d="M522.59,642.33H175.07a5,5,0,0,0,0,10h65.42c-.45,13.45-2.67,80.95-4.67,148.09-4.52,151.63-3.56,153.55-3,154.69,1.65,3.3,4.14,5.25,6.83,5.37h.26c1.93,0,4.67-1,7.28-5.18.84-1.37,2.81-4.58,14.61-155.56,5.25-67.26,10.17-134.66,11.09-147.42H433.82c.92,12.76,5.84,80.16,11.09,147.42,11.8,151,13.77,154.19,14.62,155.56,2.6,4.23,5.35,5.18,7.27,5.18h.26c2.69-.12,5.19-2.07,6.83-5.37.57-1.14,1.53-3.06-3-154.69-2-67.14-4.22-134.64-4.67-148.09h56.36a5,5,0,0,0,0-10ZM242.86,952.81c-1.26,2-2.38,2.68-3,2.68s-1.6-.77-2.45-2.34c-1.25-10.65,5.3-218.15,8.05-300.82h22.4C259.41,769.46,245.91,944,242.86,952.81Zm226.42.34c-.85,1.57-1.83,2.31-2.44,2.34s-1.71-.67-3-2.68c-3.05-8.86-16.55-183.35-25-300.48h22.4C464,735,470.53,942.5,469.28,953.15Z"/>
            <polygon class="cls-4" points="596.34 818.39 525.25 959.89 531.69 959.89 602.76 818.39 596.34 818.39"/>
            <path class="cls-5" d="M588.15,900.56c1.08,1.8,14.08,15.12,18.41,20.19s9.13,17-24.49,39H532.92s2.53-14.08,19.86-14.44c9,0,16.76-12.63,18.49-15.16s5-7.94-2.25-15.88Z"/>
            <path class="cls-5" d="M502.35,912.87s3.94,18-5.06,21.66-15.47,5.9-23.91,7-21.38,3.65-27.85,19.69l87.39-1.49s10.21-17.36-5.82-49.14Z"/>
            <polygon class="cls-6" points="711.61 811.39 791.02 957.95 796.08 955.79 713.77 804.9 711.61 811.39"/>
            <path class="cls-7" d="M735.38,568.53s23.6-26.35,40.62,3.3,31.3,99.91-3.29,185.56-148.78,71.92-153.17,71.37-58.2-11.53-79.61-39,69.73-25.26,69.73-25.26,87.84,1.65,95.52,0,20.86-9.88,14.28-45S707.93,604.77,735.38,568.53Z"/>
            <rect class="cls-3" x="261.76" width="801.01" height="496.79" rx="10.67" ry="10.67"/>
            <g class="code_ani">
	            <rect class="cls-23" x="554.59" y="101.61" width="50.15" height="10.38"/>
	            <rect class="cls-23" x="666.42" y="153.36" width="50.15" height="10.38"/>
	            <rect class="cls-23" x="813.17" y="178.95" width="47.36" height="10.38"/>
	            <rect class="cls-23" x="666.42" y="178.95" width="115.89" height="10.38"/>
	            <rect class="cls-20" x="666.42" y="204.55" width="91.3" height="10.38"/>
	            <rect class="cls-23" x="593.17" y="153.36" width="36.4" height="10.38"/>
	            <rect class="cls-26" x="593.17" y="178.95" width="36.4" height="10.38"/>
	            <rect class="cls-13" x="593.17" y="204.55" width="36.4" height="10.38"/>
	            <rect class="cls-26" x="593.17" y="204.55" width="36.4" height="10.38"/>
	            <rect class="cls-26" x="556.77" y="229.7" width="52.75" height="10.38"/>
	            <rect class="cls-23" x="581.28" y="295.7" width="28.25" height="10.38"/>
	            <rect class="cls-23" x="608.03" y="334.7" width="28.25" height="10.38"/>
	            <rect class="cls-20" x="831.28" y="334.7" width="30.83" height="10.38"/>
	            <rect class="cls-26" x="831.28" y="368.2" width="30.83" height="10.38"/>
	            <rect class="cls-26" x="758.61" y="368.2" width="30.83" height="10.38"/>
	            <rect class="cls-26" x="758.61" y="419.7" width="30.83" height="10.38"/>
	            <rect class="cls-26" x="828.86" y="419.7" width="107.75" height="10.38"/>
	            <rect class="cls-23" x="761.3" y="393.95" width="28.14" height="10.38"/>
	            <rect class="cls-26" x="677.64" y="393.95" width="65.06" height="10.38"/>
	            <rect class="cls-26" x="677.64" y="419.7" width="65.06" height="10.38"/>
	            <rect class="cls-26" x="905.78" y="334.7" width="30.83" height="10.38"/>
	            <rect class="cls-20" x="905.78" y="368.2" width="30.83" height="10.38"/>
	            <rect class="cls-20" x="644.57" y="295.7" width="113.62" height="10.38"/>
	            <rect class="cls-26" x="675.82" y="334.7" width="113.62" height="10.38"/>
	            <rect class="cls-26" x="629.07" y="368.2" width="113.62" height="10.38"/>
	            <rect class="cls-23" x="638.02" y="229.7" width="52.75" height="10.38"/>
	            <rect class="cls-23" x="755.75" y="152.34" width="241.17" height="10.38"/>
	        </g>
            <path class="cls-8" d="M272.43,0H461.25a10.67,10.67,0,0,1,10.67,10.67V496.79a0,0,0,0,1,0,0H272.43a10.67,10.67,0,0,1-10.67-10.67V10.67A10.67,10.67,0,0,1,272.43,0Z"/>
            <rect class="cls-9" x="255.89" y="107" width="52.85" height="303.74"/>
            <path class="cls-10" d="M408,642.33s52-35.09,89,0Z"/>
            <path class="cls-11" d="M260.18,357.82l-14.53-14.25a8.31,8.31,0,0,0-11.7-.35l-13.23,12.45a8.31,8.31,0,0,0-.35,11.7l14.53,14.25,2,27.23,12.66,13,50.17-47.5-16.33-13Z"/>
            <polygon class="cls-12" points="249.56 421.85 245.7 417.89 295.66 371.11 299.73 374.35 249.56 421.85"/>
            <path class="cls-13" d="M539.73,412.33s12-5.33,26,3.5c2.5,1.83-1.23,2.25-2.23,2.25s-9.87-.58-13.93,1.75c-1.62.93-6.11-.19-8.09-1.24C540,417.81,534.9,415.5,539.73,412.33Z"/>
            <path class="cls-14" d="M529.68,912.3l-31,5.9s-37.65-87.37-41.65-96.12-30.25-56.5,6.75-79.75l37.5,88S524.57,893.08,529.68,912.3Z"/>
            <ellipse class="cls-13" cx="549.62" cy="429.67" rx="3.1" ry="4.72" transform="translate(-132.57 283.68) rotate(-25.94)"/>
            <path class="cls-15" d="M610.75,716s-79.88,1.68-94.31,4S444.28,735,458,771.83s18.46,40.18,48.33,72.4,60.41,73.5,61.76,76.52l24.16-18.12s-28.86-43.29-33.22-57.73-26.52-50.34-29.54-58.73c0,0,68.47,25.51,132.23,17.45S705.06,716,705.06,716Z"/>
            <path class="cls-16" d="M634,474.87s-25.14-11.73-25.77-24.51S613.46,403,613.46,403,599,386,594.6,385.2s-24.93-8-24.93-8-14.32-1.46-17.53,1.05-14.44,11.52-14.44,11.52l-7.51,20.92s2.88,17.1,4.38,20,3,5-.63,13.87-5.37,14.88-5.37,14.88l9.13-.88,11.92,5.63,32.57,13.62,4.07,5.32s2.06,21.06,1.81,23.43S634,474.87,634,474.87Z"/>
            <path class="cls-17" d="M578.47,591.06s-10.88-9.73-11.74-10.88,5-7.38,9.53-18.71,12.8-36.1,10.79-54.77L634,471.14s14.59,15.25,23.18,24.86S578.47,591.06,578.47,591.06Z"/>
            <path class="cls-18" d="M581.28,609.88s-15.71-42.3,5.29-84,56.25-40,64-37.25,16,14.75,19,28.25S693.32,646.38,704.4,663c6,9,11.67,64.66,11.67,68.33s5,12-19.34,29.67-36.33,10-45,3-45-44-48-46-7,1-9.33-18S589.16,632.77,581.28,609.88Z"/>
            <path class="cls-19" d="M568.82,579.08s-3.75,14-9,18c-2.5-5-3.25-77-2-80.5s23.5-6.75,12.25-32.75c-7.25-5-24.25-14.25-35.25,0-4,5.25-2.75,18.5,1.75,25.5s-2.5,16-6,36.75-9.75,63.25-7.5,78,64.75-9,64.75-9l8.25-32.75Z"/>
            <path class="cls-20" d="M382.3,642.33H318.58c-7.79,0-13.4-2.61-16.66-7.77-4.83-7.64-2.58-18.4-.81-22.14,2.1-4.41,26.09-57.27,26.33-57.81l3.65,1.66c-1,2.18-24.26,53.42-26.36,57.86-1.64,3.47-3.16,12.39.57,18.29,2.48,3.92,6.95,5.91,13.28,5.91H382.3Z"/>
            <path class="cls-20" d="M334.52,405.77S276.45,517,361.92,608.21Z"/>
            <path class="cls-11" d="M227.05,609.84l-4-.52c.21-1.59-2-8.17-26.93-34.91-16.12-17.29-36.41-37.36-52.71-53.48-13.05-12.91-23.35-23.11-26.9-27.31a13,13,0,0,1-2.93-10.68c2.31-16.31,29.08-35.34,29.35-35.52,2.91-1.95,55.53-43.36,82.95-65l2.48,3.14c-3.24,2.55-79.44,62.66-83.21,65.17-4,2.63-25.78,19.84-27.61,32.76a9.1,9.1,0,0,0,2,7.54c3.44,4.06,13.69,14.2,26.66,27C199.55,570.81,228.21,601.05,227.05,609.84Z"/>
            <rect class="cls-3" x="348.42" y="404.85" width="4" height="203.02" transform="translate(-64.93 51.74) rotate(-7.73)"/>
            <polygon class="cls-21" points="234.45 641.87 215.78 641.87 215.78 611.75 234.45 602.16 234.45 641.87"/>
            <rect class="cls-21" x="193.2" y="635.28" width="63.93" height="6.59"/>
            <circle class="cls-12" cx="230.75" cy="603.15" r="5.79"/>
            <circle class="cls-11" cx="230.75" cy="603.15" r="3.84"/>
            <circle class="cls-12" cx="217.94" cy="613.77" r="5.79"/>
            <circle class="cls-11" cx="217.94" cy="613.77" r="3.84"/>
            <circle class="cls-12" cx="229.89" cy="381.42" r="6.86"/>
            <circle class="cls-11" cx="229.89" cy="381.42" r="4.56"/>
            <path class="cls-22" d="M272.43,0H1052.1a10.67,10.67,0,0,1,10.67,10.67V54a0,0,0,0,1,0,0h-801a0,0,0,0,1,0,0V10.67A10.67,10.67,0,0,1,272.43,0Z"/>
            <rect class="cls-9" x="312.07" y="68.83" width="159.85" height="27"/>
            <rect class="cls-9" x="312.07" y="117.33" width="159.85" height="27"/>
            <rect class="cls-9" x="312.07" y="165.83" width="159.85" height="27"/>
            <circle class="cls-23" cx="292.63" cy="27.02" r="8.5"/>
            <circle class="cls-24" cx="322.12" cy="27.02" r="8.5"/>
            <circle class="cls-25" cx="351.61" cy="27.02" r="8.5"/>
            <rect class="cls-3" x="276.57" y="71.83" width="19.5" height="19.5"/>
            <rect class="cls-3" x="276.57" y="121.08" width="19.5" height="19.5"/>
            <rect class="cls-3" x="276.57" y="170.33" width="19.5" height="19.5"/>
            <rect class="cls-3" x="276.57" y="219.58" width="19.5" height="19.5"/>
            <path class="cls-27" d="M503.63,371.59c1.58-3,4.44-9.09,9.44-11.43s14.33,4.34,24,.84c4.16-1.34.83-9.34,11-17.34s26.66,5.67,29.16,7,7.48,10.45,16.17,13.34c12.71,4.22,32.19,9.94,30.33,29-2.5,25.59-13,51.16-14.83,59.5,0,0-15.33-6.67-10-22.5,1.5-4.34,6.67-4.34,4.17-13.67-1.67-5.5-11-5.83-13.84,1.83C587.9,421.83,592.4,430,594.9,444s6.83,23-7.33,37.83S554.9,501.66,545.73,488s-8.5-23.67-7.66-30c0,0,24.15,5.19,32.5-3.34,8-8.16,20.16-23.5,7.5-54.5-3.34-8.5-14.67-12.16-22.17-5.5s-14.83,16.5-33.83,16.5S498.31,396,498.31,388C498.31,380.32,501.66,375.34,503.63,371.59Z"/>
            <path class="cls-16" d="M588.62,591.06s-7,28.77-17.61,29-66.41,1.06-69,1.06-15.91-8.28-27.36-8.07S454,611.79,428.75,634.9c0,0,58.24-.09,64.18,0,3.76.06,2.14-1.57,47.89,20.18,48.75,20,60.25,6,63,3.75s29.46-36.12,32.85-47.19S588.62,591.06,588.62,591.06Z"/>
            <path class="cls-17" d="M601.64,531.21c4.93-11.38,34-31.87,53-10.36,23.81,27-21.7,96.95-21.7,96.95l-47.16-23.68S584.69,570.29,601.64,531.21Z"/>
        </g>
    </g>
</svg>