<svg xmlns="http://www.w3.org/2000/svg" xmlns:xlink="http://www.w3.org/1999/xlink" viewBox="0 0 300 300">
	<defs>
		<style>
			@keyframes TomoZom {
                0% {
                    transform: scale(1);
                }
                50% {
                    transform: scale(.8);
                    transform-origin: 60% 60%;
                }
                100% {
                    transform: scale(1);
                }
            }
            .tomozom {
                <!-- animation-name: TomoZom;
                animation-iteration-count: infinite;
                animation-duration: 5s; -->
            }
			@keyframes TomoPlus {
                0% {
                    transform: translate(0px,-50px);
                }
                50% {
                    transform: translate(0px,10px);
                }
                100% {
                    transform: translate(0px,-50px);
                }
            }
            .plus {
                animation-name: TomoPlus;
                animation-iteration-count: infinite;
                animation-duration: 5s;
            }
			.cls-1,.cls-15{fill:#fff;}.cls-1{opacity:0;}.cls-2{fill:#23429a;}.cls-3{fill:url(#linear-gradient);}.cls-4{fill:url(#linear-gradient-2);}.cls-5{fill:url(#linear-gradient-3);}.cls-6{fill:#392c79;}.cls-7{fill:#662c85;}.cls-8{fill:url(#linear-gradient-4);}.cls-9{fill:#f16445;}.cls-10{fill:url(#linear-gradient-5);}.cls-11{fill:#dc522b;}.cls-12{fill:url(#linear-gradient-6);}.cls-13{opacity:0.7;fill:url(#linear-gradient-7);}.cls-14{opacity:0.8;}.cls-16{fill:url(#linear-gradient-8);}.cls-17{fill:url(#linear-gradient-9);}</style>
		<linearGradient id="linear-gradient" x1="142.23" y1="121.32" x2="145.68" y2="218.77" gradientUnits="userSpaceOnUse">
			<stop offset="0" stop-color="#7dd2f1"/>
			<stop offset="0.37" stop-color="#80a7d6"/>
			<stop offset="0.79" stop-color="#837cba"/>
			<stop offset="1" stop-color="#846cb0"/>
		</linearGradient>
		<linearGradient id="linear-gradient-2" x1="69.74" y1="200.51" x2="69.74" y2="152.78" gradientUnits="userSpaceOnUse">
			<stop offset="0" stop-color="#f47f4f"/>
			<stop offset="0.21" stop-color="#f48351"/>
			<stop offset="0.43" stop-color="#f69059"/>
			<stop offset="0.65" stop-color="#f8a465"/>
			<stop offset="0.87" stop-color="#fcc177"/>
			<stop offset="1" stop-color="#fed683"/>
		</linearGradient>
		<linearGradient id="linear-gradient-3" x1="74.13" y1="158.96" x2="168.56" y2="102.04" gradientUnits="userSpaceOnUse">
			<stop offset="0" stop-color="#e669a7"/>
			<stop offset="1" stop-color="#7c318f"/>
		</linearGradient>
		<linearGradient id="linear-gradient-4" x1="68.35" y1="88.28" x2="176.76" y2="88.28" xlink:href="#linear-gradient-3"/>
		<linearGradient id="linear-gradient-5" x1="155.49" y1="-161.19" x2="155.49" y2="-197.91" gradientTransform="translate(63.87 279.62) scale(0.9 1)" gradientUnits="userSpaceOnUse">
			<stop offset="0" stop-color="#f37357"/>
			<stop offset="1" stop-color="#faae48"/>
		</linearGradient>
		<linearGradient id="linear-gradient-6" x1="222.96" y1="284.06" x2="222.96" y2="247.34" gradientTransform="matrix(0, 0.9, -1, 0, 441.27, -70.62)" xlink:href="#linear-gradient-5"/>
		<linearGradient id="linear-gradient-7" x1="72.8" y1="134.11" x2="172.31" y2="134.11" gradientUnits="userSpaceOnUse">
			<stop offset="0" stop-color="#e669a7"/>
			<stop offset="1" stop-color="#e669a7" stop-opacity="0"/>
		</linearGradient>
		<linearGradient id="linear-gradient-8" x1="69.2" y1="183.71" x2="235.19" y2="183.71" gradientUnits="userSpaceOnUse">
			<stop offset="0" stop-color="#572c7d"/>
			<stop offset="0.86" stop-color="#77308c"/>
			<stop offset="1" stop-color="#7c318f"/>
		</linearGradient>
		<linearGradient id="linear-gradient-9" x1="73.89" y1="198.5" x2="132.54" y2="161.42" xlink:href="#linear-gradient-7"/>
	</defs>
	<title>Fundraising</title>
	<g id="Layer_2" data-name="Layer 2">
		<g id="Layer_1-2" data-name="Layer 1">
			<rect class="cls-1" width="300" height="300"/>
			<path class="cls-2" d="M158.71,220.63c4.32-8.56,10.47-15.42,21-11.46,13.82,5.18,14,.42,14-12.93s24.14,7.53,20.9-17.91c-1.14-9.1,34.28-4.73,19.2-22.63-9.5-10-8.44-11.7-4.32-14.67,4.84-3.47,8.07-6.47.88-12-9.42-7.27-6.57-14.85-2.62-19.87,8.49,3.6,16.87,11.08,24.4,25.64C257.23,144.55,267.47,216.73,158.71,220.63Z"/>
			<path class="cls-3" d="M214.64,178.33c3.24,25.44-20.9,4.53-20.9,17.91s-.21,18.11-14,12.93c-10.53-4-16.68,2.9-21,11.46-1.27.06-2.56.08-3.86.11-112.83,2.3-109-64-102.68-85.66,6.23-21.43,46.05-46.52,88.4-20.73,19.35,12,35.47-3.23,53-6,10.22-1.61,22.32-4.27,34.22.77-3.95,5-6.8,12.6,2.62,19.87,7.19,5.54,4,8.54-.88,12-4.12,3-5.18,4.65,4.32,14.67C248.92,173.6,213.5,169.23,214.64,178.33Z"/>
			<circle class="cls-4" cx="69.74" cy="177.09" r="24.74"/>
			<rect class="cls-5" x="72.8" y="97.35" width="99.51" height="64.85"/>
			<path class="cls-6" d="M113.28,201.83s26.13-8,49.2-7.41c17.48.42,30.78-.69,33.84-3.45,6.47-5.83,40.16-35.25,41-37.52s-6.8-16.77-25.88-8.2c-25.94,11.65-22.28,24.78-77.29,23.61C134.12,168.86,99.67,198.08,113.28,201.83Z"/>
			<path class="cls-7" d="M227.53,147.74s-2.75-11.64-25.06,4.69c-21.19,15.51-37.71,20.49-61.8,23.08,0,0,41.1,1.66,59.05-11.12S221.23,145,227.53,147.74Z"/>
			<rect class="cls-8" x="68.35" y="79.2" width="108.41" height="18.15"/>
			<g class="plus">
				<ellipse class="cls-9" cx="199.52" cy="102.54" rx="13.93" ry="18.36" transform="translate(-24.17 119.45) rotate(-31.52)"/>
				<ellipse class="cls-10" cx="203.55" cy="100.07" rx="13.93" ry="18.36" transform="translate(-22.28 121.2) rotate(-31.52)"/>
				<path class="cls-11" d="M203.7,104a2.76,2.76,0,0,0,1.12.4,1.61,1.61,0,0,0,1.4-.45c.05,0,.09-.1.14-.15a.64.64,0,0,0-.13-.79c-.23-.25-.54-.3-.7-.12l-.1.12a1.19,1.19,0,0,1-1.51,0,2.55,2.55,0,0,1-1.15-1.67l-.58-3,2.88.41c.23,0,.37-.15.32-.42a.74.74,0,0,0-.52-.56L202,97.32l-.17-.88a.8.8,0,0,0-.59-.64c-.26,0-.42.18-.37.49l.17.88-.78-.11c-.24,0-.38.16-.33.44a.72.72,0,0,0,.51.56l.79.11.57,3A4.27,4.27,0,0,0,203.7,104Z"/>
				<path class="cls-11" d="M210.57,102.66a.61.61,0,0,0-.47-.55H210a.24.24,0,0,0-.29.27c.07,2.8-1.7,4.75-4.37,4.59-4.11-.24-8.21-5.49-7.34-10.35a3.63,3.63,0,0,1,2.2-3c2.59-.93,5.63.85,7.57,3.53.15.21.38.29.52.2l.06,0c.16-.11.15-.39,0-.62-2.13-2.92-5.4-4.91-8.25-4.16a4.27,4.27,0,0,0-3,3.9c-.71,5.38,3.68,11,8.2,11.46C208.52,108.25,210.67,106,210.57,102.66Z"/>
				<path class="cls-11" d="M201.35,89.84c-4.35-.57-7.18,3.22-6.47,8.69a14.82,14.82,0,0,0,.93,3.53c.12.3.42.48.64.38h0c.17-.08.22-.32.12-.57a13.43,13.43,0,0,1-.83-3.12c-.67-4.95,1.89-8.41,5.85-7.9,4.39.58,9,5.36,10.15,10.45s-1.63,8.65-6.14,8.23a7.69,7.69,0,0,1-1.81-.38.31.31,0,0,0-.38.13.66.66,0,0,0,.41.83,8.41,8.41,0,0,0,2.3.43c4.67.23,7.54-3.58,6.55-8.69C211.55,96.07,206.32,90.51,201.35,89.84Z"/>
				<ellipse class="cls-9" cx="171.18" cy="127.95" rx="18.36" ry="13.93" transform="translate(-10.59 240.34) rotate(-68.51)"/>
				<ellipse class="cls-12" cx="175.57" cy="129.68" rx="18.36" ry="13.93" transform="translate(-9.42 245.52) rotate(-68.51)"/>
				<path class="cls-11" d="M174.67,134.1a1.4,1.4,0,0,0,.92,0,3.14,3.14,0,0,0,1.42-1.14c.06-.07.11-.15.17-.23a.74.74,0,0,0,.09-.83c-.14-.18-.41-.1-.61.18l-.13.18a1.39,1.39,0,0,1-1.4.7c-.46-.14-.7-.65-.64-1.36l.23-3.14,2.64-.85a.76.76,0,0,0,.43-.63c0-.28-.13-.45-.35-.38l-2.64.83.07-.92c0-.32-.16-.53-.4-.45a.84.84,0,0,0-.49.72l-.06.92-.73.23a.73.73,0,0,0-.42.64c0,.29.14.47.35.4l.72-.23-.23,3.16C173.53,133,173.93,133.88,174.67,134.1Z"/>
				<path class="cls-11" d="M181.43,129.51c.07-.28-.06-.48-.27-.41l-.11,0a.66.66,0,0,0-.35.45c-.76,3.12-2.93,6.12-5.31,7.14-3.65,1.59-6.2-2.47-4.25-8.32a9.49,9.49,0,0,1,2.86-4.31c2.8-2.24,5.3-1.63,6.4.51.09.17.29.16.45,0l.07-.07a.67.67,0,0,0,.16-.69c-1.21-2.33-3.88-3.07-6.92-.92a11.22,11.22,0,0,0-3.86,5.75c-1.88,6.35.85,10.7,4.8,9.17C177.92,136.74,180.53,133.2,181.43,129.51Z"/>
				<path class="cls-11" d="M176.17,119.25c-4.23,1.36-7.9,6.92-8.42,12.73a14.07,14.07,0,0,0,.1,3.53c.05.29.29.35.5.14h0a.83.83,0,0,0,.24-.7,12.74,12.74,0,0,1-.09-3.12c.46-5.25,3.8-10.31,7.63-11.55,4.25-1.38,7.33,1.92,6.82,7.16s-4.08,10.51-8,12.06a5.67,5.67,0,0,1-1.51.38.52.52,0,0,0-.37.31c-.2.38-.12.79.15.76a6,6,0,0,0,1.93-.55c4.08-1.83,7.81-7.43,8.51-12.77C184.48,121.59,181,117.72,176.17,119.25Z"/>
			</g>
			<path class="cls-13" d="M72.8,150.65s12.1-22.05,52.05-24.83S172.31,106,172.31,106V162.2H72.8Z"/>
			<g class="cls-14 tomozom">
				<path class="cls-15" d="M102.22,132.8a5.14,5.14,0,0,0,2.22.51,5.07,5.07,0,0,0,3.19-1.14l.37-.32a1,1,0,0,0-1.38-1.5l-.27.23a3,3,0,0,1-3.25.38,3.06,3.06,0,0,1-1.78-2.81v-5.44h6.1a.89.89,0,1,0,0-1.78h-6.1v-1.58a1,1,0,0,0-2,0v1.58H97.61a.89.89,0,0,0,0,1.78h1.67v5.44A5.12,5.12,0,0,0,102.22,132.8Z"/>
				<path class="cls-15" d="M117.58,128.75a.78.78,0,0,0-.77-.94h-.23a.78.78,0,0,0-.76.6,12.18,12.18,0,1,1-23-7.68,11.15,11.15,0,0,1,6-6,12.28,12.28,0,0,1,15.18,4.35.78.78,0,0,0,1,.22l.14-.09a.84.84,0,0,0,.25-1.18,14,14,0,0,0-16.44-5.28,13.17,13.17,0,0,0-8.13,8,14,14,0,1,0,26.66,8Z"/>
				<path class="cls-15" d="M103.1,107.24A18.65,18.65,0,0,0,85.37,125a18.35,18.35,0,0,0,.73,6,.87.87,0,0,0,1.22.54h0a.89.89,0,0,0,.47-1,16.53,16.53,0,0,1-.66-5.38,16.82,16.82,0,1,1,16.8,17.5,17.4,17.4,0,0,1-3.63-.39.85.85,0,0,0-.84.3A.9.9,0,0,0,100,144a18.6,18.6,0,1,0,3.11-36.76Z"/>
			</g>
			<path class="cls-16" d="M71.71,181.05s-11.21,25,13.8,39.67c0,0,29.44-21.49,38.05-24.31s12.19-6,62.85-6.65c12.93-.17,40.64-31.67,46.78-35.55s-2.91-10.68-13.26-5.82S196,173,161.4,173.61c-13.91.32-27.81,2.59-34.93,5.5.65-5.18,23.87-9.78,45.92-11.64,12.29-1,9.06-11.65.33-12.62s-20.38,1-34-2.26-19.73-4.2-29.11,7.11S94.89,180.72,71.71,181.05Z"/>
			<path class="cls-17" d="M172.72,154.85c-8.74-1-20.38,1-34-2.26s-19.73-4.2-29.11,7.11-14.76,21-37.94,21.35a34.48,34.48,0,0,0-1.56,20.67s15.09,3.18,34.65-25.64c5.5-8.61,10.19-16.86,31.53-15.89S172.72,154.85,172.72,154.85Z"/>
		</g>
	</g>
</svg>