<svg xmlns="http://www.w3.org/2000/svg" xmlns:xlink="http://www.w3.org/1999/xlink" viewBox="0 0 713.6 471.31">
	<defs>
		<style>
			/* Standard syntax */
			<!-- @keyframes animaUp1 {
				0% {
					transform: translateY(0px);
				}
				50% {
					transform: translateY(9px);
				}
				100% {
					transform: translateY(0px);
				}
			}
			@keyframes animaUp2 {
				0% {
					transform: translateY(0px);
				}
				50% {
					transform: translateY(6px);
				}
				100% {
					transform: translateY(0px);
				}
			}
			@keyframes animaUp3 {
				0% {
					transform: translateY(0px);
				}
				50% {
					transform: translateY(3px);
				}
				100% {
					transform: translateY(0px);
				}
			}
			.animation_up1 {
				animation-name: animaUp1;
				animation-iteration-count: infinite;
				animation-duration: 3s;
			}
			.animation_up2 {
				animation-name: animaUp2;
				animation-iteration-count: infinite;
				animation-duration: 3s;
			}
			.animation_up3 {
				animation-name: animaUp3;
				animation-iteration-count: infinite;
				animation-duration: 3s;
			}
			@keyframes animaDown1 {
				0% {
					transform: translateY(9px);
				}
				50% {
					transform: translateY(0px);
				}
				100% {
					transform: translateY(9px);
				}
			}
			@keyframes animaDown2 {
				0% {
					transform: translateY(6px);
				}
				50% {
					transform: translateY(0px);
				}
				100% {
					transform: translateY(6px);
				}
			}
			@keyframes animaDown3 {
				0% {
					transform: translateY(3px);
				}
				50% {
					transform: translateY(0px);
				}
				100% {
					transform: translateY(3px);
				}
			}
			@keyframes animaDownMax {
				0% {
					transform: translateY(20px);
				}
				50% {
					transform: translateY(0px);
				}
				100% {
					transform: translateY(20px);
				}
			}
			.animation_downMax {
				animation-name: animaDownMax;
				animation-iteration-count: infinite;
				animation-duration: 3s;
			}
			.animation_down1 {
				animation-name: animaDown1;
				animation-iteration-count: infinite;
				animation-duration: 3s;
			}
			.animation_down2 {
				animation-name: animaDown2;
				animation-iteration-count: infinite;
				animation-duration: 3s;
			}
			.animation_down3 {
				animation-name: animaDown3;
				animation-iteration-count: infinite;
				animation-duration: 3s;
			}
			@keyframes animaMotion {
				0% {
					transform: translate(3px,-2px);
				}
				50% {
					transform: translate(0px,2px);
				}
				100% {
					transform: translate(3px,-2px);
				}
			}
			@keyframes animaMotionReverse {
				0% {
					transform: translate(0px,2px);
				}
				50% {
					transform: translate(3px,-2px);
				}
				100% {
					transform: translate(0px,2px);
				}
			}
			.animateMotion {
				animation-name: animaMotion;
				animation-iteration-count: infinite;
				animation-duration: 4s;
			}
			.animateMotion_reverse {
				animation-name: animaMotionReverse;
				animation-iteration-count: infinite;
				animation-duration: 4s;
			} -->

			.cls-1{mask:url(#mask);filter:url(#luminosity-noclip-2);}.cls-2{mix-blend-mode:multiply;fill:url(#_ÂÁ_Ï_ÌÌ_È_ËÂÌÚ_4);}.cls-3{isolation:isolate;}.cls-4{fill:url(#linear-gradient);}.cls-5{fill:url(#linear-gradient-2);}.cls-6{fill:url(#linear-gradient-3);}.cls-7{fill:url(#linear-gradient-4);}.cls-8{fill:url(#linear-gradient-5);}.cls-9{fill:url(#linear-gradient-6);}.cls-10{fill:url(#linear-gradient-7);}.cls-11{fill:#212646;}.cls-12{fill:#262d52;}.cls-13{fill:#0f054c;}.cls-100,.cls-108,.cls-13,.cls-148,.cls-41,.cls-54,.cls-62,.cls-77,.cls-85{opacity:0.2;}.cls-14{fill:url(#linear-gradient-8);}.cls-15,.cls-150,.cls-43{opacity:0.48;}.cls-15{fill:url(#_ÂÁ_Ï_ÌÌ_È_ËÂÌÚ_15);}.cls-16{fill:url(#linear-gradient-9);}.cls-17{fill:url(#linear-gradient-10);}.cls-18{fill:url(#linear-gradient-11);}.cls-19{fill:#312a91;}.cls-20,.cls-40{opacity:0.9;}.cls-21{fill:url(#_ÂÁ_Ï_ÌÌ_È_ËÂÌÚ_3);}.cls-22{fill:url(#_ÂÁ_Ï_ÌÌ_È_ËÂÌÚ_3-2);}.cls-23{fill:url(#_ÂÁ_Ï_ÌÌ_È_ËÂÌÚ_3-3);}.cls-119,.cls-120,.cls-121,.cls-122,.cls-123,.cls-124,.cls-125,.cls-126,.cls-127,.cls-128,.cls-129,.cls-130,.cls-131,.cls-132,.cls-24,.cls-25,.cls-26,.cls-27,.cls-30,.cls-31,.cls-32,.cls-33,.cls-34,.cls-35,.cls-36,.cls-37,.cls-38,.cls-39{opacity:0.7;}.cls-119,.cls-120,.cls-121,.cls-122,.cls-123,.cls-124,.cls-125,.cls-126,.cls-127,.cls-128,.cls-129,.cls-130,.cls-131,.cls-132,.cls-148,.cls-24,.cls-25,.cls-26,.cls-27,.cls-30,.cls-31,.cls-32,.cls-33,.cls-34,.cls-35,.cls-36,.cls-37,.cls-38,.cls-39{mix-blend-mode:lighten;}.cls-24{fill:url(#_ÂÁ_Ï_ÌÌ_È_ËÂÌÚ_3-4);}.cls-25{fill:url(#linear-gradient-12);}.cls-26{fill:url(#linear-gradient-13);}.cls-27{fill:url(#linear-gradient-14);}.cls-28,.cls-29,.cls-40,.cls-41{fill:#42e8e0;}.cls-28{opacity:0.3;}.cls-30{fill:url(#linear-gradient-15);}.cls-31{fill:url(#linear-gradient-16);}.cls-32{fill:url(#linear-gradient-17);}.cls-33{fill:url(#linear-gradient-18);}.cls-34{fill:url(#linear-gradient-19);}.cls-35{fill:url(#linear-gradient-20);}.cls-36{fill:url(#linear-gradient-21);}.cls-37{fill:url(#linear-gradient-22);}.cls-38{fill:url(#linear-gradient-23);}.cls-39{fill:url(#linear-gradient-24);}.cls-42{fill:url(#linear-gradient-25);}.cls-43{fill:url(#_ÂÁ_Ï_ÌÌ_È_ËÂÌÚ_15-3);}.cls-44{fill:url(#linear-gradient-26);}.cls-45{fill:url(#linear-gradient-27);}.cls-46{fill:url(#linear-gradient-28);}.cls-47{fill:url(#linear-gradient-29);}.cls-48{fill:url(#linear-gradient-30);}.cls-49{fill:url(#linear-gradient-31);}.cls-50{fill:url(#linear-gradient-32);}.cls-51{fill:url(#linear-gradient-33);}.cls-52{fill:url(#linear-gradient-34);}.cls-53{fill:url(#linear-gradient-35);}.cls-54{fill:url(#linear-gradient-36);}.cls-55{fill:url(#linear-gradient-37);}.cls-56{fill:url(#linear-gradient-38);}.cls-57{fill:url(#linear-gradient-39);}.cls-58{fill:url(#linear-gradient-40);}.cls-59{fill:url(#linear-gradient-41);}.cls-60{fill:url(#linear-gradient-42);}.cls-61{fill:url(#linear-gradient-43);}.cls-62{fill:url(#linear-gradient-44);}.cls-63{fill:url(#linear-gradient-45);}.cls-64{fill:url(#linear-gradient-46);}.cls-65{fill:url(#linear-gradient-47);}.cls-66{fill:url(#linear-gradient-48);}.cls-67{fill:url(#linear-gradient-49);}.cls-68{fill:url(#linear-gradient-50);}.cls-69{fill:url(#linear-gradient-51);}.cls-70{fill:url(#linear-gradient-52);}.cls-71{fill:url(#linear-gradient-53);}.cls-72{fill:url(#linear-gradient-54);}.cls-73{fill:url(#linear-gradient-55);}.cls-74{fill:url(#linear-gradient-56);}.cls-75{fill:url(#linear-gradient-57);}.cls-76{fill:url(#linear-gradient-58);}.cls-77{fill:url(#linear-gradient-59);}.cls-78{fill:url(#linear-gradient-60);}.cls-79{fill:url(#linear-gradient-61);}.cls-80{fill:url(#linear-gradient-62);}.cls-81{fill:url(#linear-gradient-63);}.cls-82{fill:url(#linear-gradient-64);}.cls-83{fill:url(#linear-gradient-65);}.cls-84{fill:url(#linear-gradient-66);}.cls-85{fill:url(#linear-gradient-67);}.cls-86{fill:url(#linear-gradient-68);}.cls-87{fill:url(#linear-gradient-69);}.cls-88{fill:url(#linear-gradient-70);}.cls-89{fill:url(#linear-gradient-71);}.cls-90{fill:url(#linear-gradient-72);}.cls-91{fill:url(#linear-gradient-73);}.cls-92{fill:url(#linear-gradient-74);}.cls-93{fill:url(#linear-gradient-75);}.cls-94{fill:url(#linear-gradient-76);}.cls-95{fill:url(#linear-gradient-77);}.cls-96{fill:url(#linear-gradient-78);}.cls-97{fill:url(#linear-gradient-79);}.cls-98{fill:url(#linear-gradient-80);}.cls-99{fill:url(#linear-gradient-81);}.cls-100{fill:url(#linear-gradient-82);}.cls-101{fill:url(#linear-gradient-83);}.cls-102{fill:url(#linear-gradient-84);}.cls-103{fill:url(#linear-gradient-85);}.cls-104{fill:url(#linear-gradient-86);}.cls-105{fill:url(#linear-gradient-87);}.cls-106{fill:url(#linear-gradient-88);}.cls-107{fill:url(#linear-gradient-89);}.cls-108{fill:url(#linear-gradient-90);}.cls-109{fill:url(#linear-gradient-91);}.cls-110{fill:url(#linear-gradient-92);}.cls-111{fill:url(#linear-gradient-93);}.cls-112{fill:url(#linear-gradient-94);}.cls-113{fill:url(#linear-gradient-95);}.cls-114{fill:url(#linear-gradient-96);}.cls-115{fill:url(#linear-gradient-97);}.cls-116{fill:url(#_ÂÁ_Ï_ÌÌ_È_ËÂÌÚ_3-5);}.cls-117{fill:url(#_ÂÁ_Ï_ÌÌ_È_ËÂÌÚ_3-6);}.cls-118{fill:url(#_ÂÁ_Ï_ÌÌ_È_ËÂÌÚ_3-7);}.cls-119{fill:url(#_ÂÁ_Ï_ÌÌ_È_ËÂÌÚ_3-8);}.cls-120{fill:url(#linear-gradient-98);}.cls-121{fill:url(#linear-gradient-99);}.cls-122{fill:url(#linear-gradient-100);}.cls-123{fill:url(#linear-gradient-101);}.cls-124{fill:url(#linear-gradient-102);}.cls-125{fill:url(#linear-gradient-103);}.cls-126{fill:url(#linear-gradient-104);}.cls-127{fill:url(#linear-gradient-105);}.cls-128{fill:url(#linear-gradient-106);}.cls-129{fill:url(#linear-gradient-107);}.cls-130{fill:url(#linear-gradient-108);}.cls-131{fill:url(#linear-gradient-109);}.cls-132{fill:url(#linear-gradient-110);}.cls-133{fill:#e6e6e6;}.cls-134{fill:#f2f2f2;}.cls-135{fill:#2b237c;}.cls-135,.cls-137{opacity:0.66;}.cls-136{mask:url(#mask-2);}.cls-137{fill:url(#_ÂÁ_Ï_ÌÌ_È_ËÂÌÚ_12);}.cls-138{fill:url(#linear-gradient-111);}.cls-139{opacity:0.6;}.cls-140{fill:url(#linear-gradient-112);}.cls-141{fill:url(#linear-gradient-113);}.cls-142{fill:url(#linear-gradient-114);}.cls-143{fill:url(#linear-gradient-115);}.cls-144{fill:url(#linear-gradient-116);}.cls-145{fill:url(#linear-gradient-117);}.cls-146{fill:url(#linear-gradient-118);}.cls-147{fill:url(#linear-gradient-119);}.cls-148{fill:url(#linear-gradient-120);}.cls-149{fill:url(#linear-gradient-121);}.cls-150{fill:url(#_ÂÁ_Ï_ÌÌ_È_ËÂÌÚ_15-5);}.cls-151{fill:url(#linear-gradient-122);}.cls-152{fill:url(#linear-gradient-123);}.cls-153{fill:#fff;}.cls-154{filter:url(#luminosity-noclip);}</style>
		<filter id="luminosity-noclip" x="332.77" y="-8423.88" width="144.45" height="32766" filterUnits="userSpaceOnUse" color-interpolation-filters="sRGB">
			<feFlood flood-color="#fff" result="bg"/>
			<feBlend in="SourceGraphic" in2="bg"/>
		</filter>
		<mask id="mask" x="332.77" y="-8423.88" width="144.45" height="32766" maskUnits="userSpaceOnUse">
			<g class="cls-154"/>
		</mask>
		<radialGradient id="_ÂÁ_Ï_ÌÌ_È_ËÂÌÚ_4" cx="404.99" cy="306.58" r="58.97" gradientUnits="userSpaceOnUse">
			<stop offset="0" stop-color="#e6e6e6"/>
			<stop offset="0.1" stop-color="#e0e0e0"/>
			<stop offset="0.23" stop-color="#cdcdcd"/>
			<stop offset="0.39" stop-color="#afafaf"/>
			<stop offset="0.57" stop-color="#868686"/>
			<stop offset="0.75" stop-color="#505050"/>
			<stop offset="0.95" stop-color="#101010"/>
			<stop offset="1"/>
		</radialGradient>
		<linearGradient id="linear-gradient" x1="555.5" y1="225.66" x2="621.5" y2="125" gradientUnits="userSpaceOnUse">
			<stop offset="0" stop-color="#e89bc6"/>
			<stop offset="0.19" stop-color="#bf81c5"/>
			<stop offset="0.46" stop-color="#8b61c3"/>
			<stop offset="0.69" stop-color="#654ac2"/>
			<stop offset="0.88" stop-color="#4d3bc1"/>
			<stop offset="1" stop-color="#4536c1"/>
		</linearGradient>
		<linearGradient id="linear-gradient-2" x1="221.14" y1="118.37" x2="223.81" y2="172.7" gradientUnits="userSpaceOnUse">
			<stop offset="0" stop-color="#f6b08d"/>
			<stop offset="0.24" stop-color="#bf8a9d"/>
			<stop offset="0.49" stop-color="#8b66ad"/>
			<stop offset="0.71" stop-color="#654cb8"/>
			<stop offset="0.89" stop-color="#4e3cbf"/>
			<stop offset="1" stop-color="#4536c1"/>
		</linearGradient>
		<linearGradient id="linear-gradient-3" x1="479.4" y1="330.68" x2="593.4" y2="294.01" gradientUnits="userSpaceOnUse">
			<stop offset="0" stop-color="#f6b08d"/>
			<stop offset="0.65" stop-color="#856fc2"/>
			<stop offset="1" stop-color="#4d4fdc"/>
		</linearGradient>
		<linearGradient id="linear-gradient-4" x1="47.7" y1="318.93" x2="172.7" y2="396.93" gradientUnits="userSpaceOnUse">
			<stop offset="0" stop-color="#93ea82"/>
			<stop offset="0.01" stop-color="#91e781"/>
			<stop offset="0.28" stop-color="#6ba46f"/>
			<stop offset="0.52" stop-color="#4c7061"/>
			<stop offset="0.73" stop-color="#364a57"/>
			<stop offset="0.9" stop-color="#293351"/>
			<stop offset="1" stop-color="#242a4f"/>
		</linearGradient>
		<linearGradient id="linear-gradient-5" x1="114.36" y1="243.94" x2="40.36" y2="289.61" gradientUnits="userSpaceOnUse">
			<stop offset="0" stop-color="#6737f2"/>
			<stop offset="0.25" stop-color="#7b6ad2"/>
			<stop offset="0.77" stop-color="#a2ce92"/>
			<stop offset="1" stop-color="#b2f679"/>
		</linearGradient>
		<linearGradient id="linear-gradient-6" x1="344.11" y1="337.56" x2="235.35" y2="404.68" gradientTransform="translate(4.96 -18.8) rotate(0.31)" gradientUnits="userSpaceOnUse">
			<stop offset="0" stop-color="#474fd1"/>
			<stop offset="0.27" stop-color="#485fde"/>
			<stop offset="1" stop-color="#4987fd"/>
		</linearGradient>
		<linearGradient id="linear-gradient-7" x1="541.92" y1="91.72" x2="615.58" y2="136.39" xlink:href="#linear-gradient"/>
		<linearGradient id="linear-gradient-8" x1="476.94" y1="489.57" x2="483.53" y2="600.81" gradientTransform="matrix(1, -0.58, 0.87, 0.5, -340.26, 271.36)" gradientUnits="userSpaceOnUse">
			<stop offset="0" stop-color="#ed67a1"/>
			<stop offset="0.02" stop-color="#e866a4"/>
			<stop offset="0.27" stop-color="#b35cc4"/>
			<stop offset="0.49" stop-color="#8a54de"/>
			<stop offset="0.7" stop-color="#6c4ff0"/>
			<stop offset="0.87" stop-color="#5a4bfb"/>
			<stop offset="1" stop-color="#544aff"/>
		</linearGradient>
		<linearGradient id="_ÂÁ_Ï_ÌÌ_È_ËÂÌÚ_15" x1="554.68" y1="263.57" x2="653.63" y2="263.57" gradientUnits="userSpaceOnUse">
			<stop offset="0" stop-color="#42e8e0"/>
			<stop offset="0.15" stop-color="#43e3e0"/>
			<stop offset="0.33" stop-color="#45d5df"/>
			<stop offset="0.52" stop-color="#49bddd"/>
			<stop offset="0.72" stop-color="#4e9cdb"/>
			<stop offset="0.93" stop-color="#5472d8"/>
			<stop offset="1" stop-color="#5761d7"/>
		</linearGradient>
		<linearGradient id="linear-gradient-9" x1="562.22" y1="263.57" x2="662.17" y2="263.57" gradientUnits="userSpaceOnUse">
			<stop offset="0" stop-color="#ee68a0"/>
			<stop offset="1" stop-color="#ec3598"/>
		</linearGradient>
		<linearGradient id="linear-gradient-10" x1="554.68" y1="261.1" x2="653.63" y2="261.1" gradientTransform="matrix(1, 0, 0, 1, 0, 0)" xlink:href="#linear-gradient-8"/>
		<linearGradient id="linear-gradient-11" x1="487.31" y1="477.6" x2="493.89" y2="588.83" gradientTransform="matrix(1, -0.58, 0.87, 0.5, -340.26, 271.36)" xlink:href="#linear-gradient-9"/>
		<linearGradient id="_ÂÁ_Ï_ÌÌ_È_ËÂÌÚ_3" x1="704.03" y1="107.57" x2="613.06" y2="88.86" gradientUnits="userSpaceOnUse">
			<stop offset="0" stop-color="#180d5b"/>
			<stop offset="0.09" stop-color="#1a1660"/>
			<stop offset="0.25" stop-color="#1e2d6e"/>
			<stop offset="0.44" stop-color="#255385"/>
			<stop offset="0.66" stop-color="#2f87a5"/>
			<stop offset="0.9" stop-color="#3ccace"/>
			<stop offset="1" stop-color="#42e8e0"/>
		</linearGradient>
		<linearGradient id="_ÂÁ_Ï_ÌÌ_È_ËÂÌÚ_3-2" x1="676.34" y1="130.46" x2="614.55" y2="90.32" xlink:href="#_ÂÁ_Ï_ÌÌ_È_ËÂÌÚ_3"/>
		<linearGradient id="_ÂÁ_Ï_ÌÌ_È_ËÂÌÚ_3-3" x1="-549.78" y1="131.65" x2="-499.8" y2="105" gradientTransform="matrix(-1, 0, 0, 1, 109.25, 0)" xlink:href="#_ÂÁ_Ï_ÌÌ_È_ËÂÌÚ_3"/>
		<linearGradient id="_ÂÁ_Ï_ÌÌ_È_ËÂÌÚ_3-4" x1="683.68" y1="146.01" x2="618.67" y2="110.36" xlink:href="#_ÂÁ_Ï_ÌÌ_È_ËÂÌÚ_3"/>
		<linearGradient id="linear-gradient-12" x1="631.3" y1="134.81" x2="676.51" y2="134.81" gradientUnits="userSpaceOnUse">
			<stop offset="0" stop-color="#524aff"/>
			<stop offset="0.16" stop-color="#5152ff"/>
			<stop offset="0.41" stop-color="#4e6aff"/>
			<stop offset="0.72" stop-color="#488fff"/>
			<stop offset="1" stop-color="#43b6ff"/>
		</linearGradient>
		<linearGradient id="linear-gradient-13" x1="645.12" y1="145.68" x2="603.94" y2="122.27" xlink:href="#linear-gradient-12"/>
		<linearGradient id="linear-gradient-14" x1="662.9" y1="92.83" x2="609.85" y2="58.38" xlink:href="#linear-gradient-12"/>
		<linearGradient id="linear-gradient-15" x1="631.3" y1="90.89" x2="676.51" y2="90.89" xlink:href="#linear-gradient-12"/>
		<linearGradient id="linear-gradient-16" x1="639.85" y1="98.7" x2="602.79" y2="77.81" xlink:href="#linear-gradient-12"/>
		<linearGradient id="linear-gradient-17" x1="617.39" y1="112.85" x2="666.23" y2="112.85" xlink:href="#linear-gradient-12"/>
		<linearGradient id="linear-gradient-18" x1="617.39" y1="112.85" x2="641.81" y2="112.85" xlink:href="#linear-gradient-12"/>
		<linearGradient id="linear-gradient-19" x1="610.18" y1="112.85" x2="673.44" y2="112.85" xlink:href="#linear-gradient-12"/>
		<linearGradient id="linear-gradient-20" x1="610.18" y1="79.14" x2="642.19" y2="79.14" gradientUnits="userSpaceOnUse">
			<stop offset="0" stop-color="#bffa78"/>
			<stop offset="0.01" stop-color="#bdf978"/>
			<stop offset="0.28" stop-color="#7ada85"/>
			<stop offset="0.52" stop-color="#46c190"/>
			<stop offset="0.73" stop-color="#20b097"/>
			<stop offset="0.89" stop-color="#09a59b"/>
			<stop offset="1" stop-color="#00a19d"/>
		</linearGradient>
		<linearGradient id="linear-gradient-21" x1="610.4" y1="85.18" x2="610.4" y2="122.43" xlink:href="#linear-gradient-20"/>
		<linearGradient id="linear-gradient-22" x1="673.22" y1="85.01" x2="673.22" y2="122.31" xlink:href="#linear-gradient-20"/>
		<linearGradient id="linear-gradient-23" x1="641.81" y1="103.36" x2="641.81" y2="140.69" xlink:href="#linear-gradient-20"/>
		<linearGradient id="linear-gradient-24" x1="641.81" y1="85.9" x2="641.81" y2="5.97" gradientUnits="userSpaceOnUse">
			<stop offset="0" stop-color="#bffa78"/>
			<stop offset="0.18" stop-color="#90e481" stop-opacity="0.76"/>
			<stop offset="0.4" stop-color="#5ecd8b" stop-opacity="0.49"/>
			<stop offset="0.6" stop-color="#35ba93" stop-opacity="0.28"/>
			<stop offset="0.78" stop-color="#18ac98" stop-opacity="0.13"/>
			<stop offset="0.91" stop-color="#07a49c" stop-opacity="0.03"/>
			<stop offset="1" stop-color="#00a19d" stop-opacity="0"/>
		</linearGradient>
		<linearGradient id="linear-gradient-25" x1="281.29" y1="163.68" x2="289.19" y2="297.31" gradientTransform="matrix(1, -0.58, 0.87, 0.5, -340.26, 271.36)" gradientUnits="userSpaceOnUse">
			<stop offset="0" stop-color="#3d69da"/>
			<stop offset="0.81" stop-color="#4f2cba"/>
			<stop offset="1" stop-color="#531db2"/>
		</linearGradient>
		<linearGradient id="_ÂÁ_Ï_ÌÌ_È_ËÂÌÚ_15-3" x1="75.59" y1="218.2" x2="194.48" y2="218.2" xlink:href="#_ÂÁ_Ï_ÌÌ_È_ËÂÌÚ_15"/>
		<linearGradient id="linear-gradient-26" x1="84.66" y1="218.2" x2="204.74" y2="218.2" gradientUnits="userSpaceOnUse">
			<stop offset="0" stop-color="#ed695c"/>
			<stop offset="0.51" stop-color="#f3967c"/>
			<stop offset="1" stop-color="#f8be98"/>
		</linearGradient>
		<linearGradient id="linear-gradient-27" x1="75.59" y1="215.22" x2="194.48" y2="215.22" gradientTransform="matrix(1, 0, 0, 1, 0, 0)" xlink:href="#linear-gradient-25"/>
		<linearGradient id="linear-gradient-28" x1="293.74" y1="149.29" x2="301.65" y2="282.93" gradientTransform="matrix(1, -0.58, 0.87, 0.5, -340.26, 271.36)" xlink:href="#linear-gradient-26"/>
		<linearGradient id="linear-gradient-29" x1="196.16" y1="110.35" x2="213.67" y2="95.83" xlink:href="#linear-gradient-26"/>
		<linearGradient id="linear-gradient-30" x1="3948.26" y1="3932.51" x2="3947.05" y2="3891.57" gradientTransform="translate(4106.62 -3864.85) rotate(90)" gradientUnits="userSpaceOnUse">
			<stop offset="0" stop-color="#23b99d"/>
			<stop offset="0.02" stop-color="#26ba9c"/>
			<stop offset="0.69" stop-color="#8ae583"/>
			<stop offset="1" stop-color="#b2f679"/>
		</linearGradient>
		<linearGradient id="linear-gradient-31" x1="196.21" y1="93.48" x2="196.21" y2="72.77" gradientUnits="userSpaceOnUse">
			<stop offset="0" stop-color="#ef8972"/>
			<stop offset="0.24" stop-color="#f1967c"/>
			<stop offset="1" stop-color="#f8be98"/>
		</linearGradient>
		<linearGradient id="linear-gradient-32" x1="3966.72" y1="3931.96" x2="3965.51" y2="3891.02" xlink:href="#linear-gradient-30"/>
		<linearGradient id="linear-gradient-33" x1="3953.89" y1="3932.34" x2="3952.68" y2="3891.4" xlink:href="#linear-gradient-30"/>
		<linearGradient id="linear-gradient-34" x1="185.11" y1="93.48" x2="185.11" y2="72.77" gradientTransform="matrix(1, 0, 0, 1, 0, 0)" xlink:href="#linear-gradient-30"/>
		<linearGradient id="linear-gradient-35" x1="195.6" y1="115.17" x2="179.16" y2="93.5" xlink:href="#linear-gradient-26"/>
		<linearGradient id="linear-gradient-36" x1="195.63" y1="74.85" x2="196.26" y2="40.4" xlink:href="#linear-gradient-26"/>
		<linearGradient id="linear-gradient-37" x1="196.05" y1="65.43" x2="205.08" y2="57.94" xlink:href="#linear-gradient-26"/>
		<linearGradient id="linear-gradient-38" x1="3916.39" y1="3921.93" x2="3915.76" y2="3900.82" gradientTransform="translate(4106.62 -3864.85) rotate(90)" xlink:href="#linear-gradient-26"/>
		<linearGradient id="linear-gradient-39" x1="196.08" y1="56.73" x2="196.08" y2="46.05" xlink:href="#linear-gradient-26"/>
		<linearGradient id="linear-gradient-40" x1="3925.9" y1="3921.65" x2="3925.28" y2="3900.54" gradientTransform="translate(4106.62 -3864.85) rotate(90)" xlink:href="#linear-gradient-26"/>
		<linearGradient id="linear-gradient-41" x1="3919.29" y1="3921.84" x2="3918.67" y2="3900.74" gradientTransform="translate(4106.62 -3864.85) rotate(90)" xlink:href="#linear-gradient-26"/>
		<linearGradient id="linear-gradient-42" x1="190.36" y1="56.73" x2="190.36" y2="46.05" xlink:href="#linear-gradient-26"/>
		<linearGradient id="linear-gradient-43" x1="195.77" y1="67.91" x2="187.29" y2="56.74" xlink:href="#linear-gradient-26"/>
		<linearGradient id="linear-gradient-44" x1="195.76" y1="42.17" x2="196.13" y2="21.82" xlink:href="#linear-gradient-26"/>
		<linearGradient id="linear-gradient-45" x1="196.01" y1="36.61" x2="201.34" y2="32.18" xlink:href="#linear-gradient-26"/>
		<linearGradient id="linear-gradient-46" x1="3893.25" y1="3917.33" x2="3892.88" y2="3904.85" gradientTransform="translate(4106.62 -3864.85) rotate(90)" xlink:href="#linear-gradient-26"/>
		<linearGradient id="linear-gradient-47" x1="196.02" y1="31.47" x2="196.02" y2="25.15" xlink:href="#linear-gradient-26"/>
		<linearGradient id="linear-gradient-48" x1="3898.87" y1="3917.16" x2="3898.5" y2="3904.69" gradientTransform="translate(4106.62 -3864.85) rotate(90)" xlink:href="#linear-gradient-26"/>
		<linearGradient id="linear-gradient-49" x1="3894.97" y1="3917.28" x2="3894.6" y2="3904.8" gradientTransform="translate(4106.62 -3864.85) rotate(90)" xlink:href="#linear-gradient-26"/>
		<linearGradient id="linear-gradient-50" x1="192.64" y1="31.47" x2="192.64" y2="25.15" xlink:href="#linear-gradient-26"/>
		<linearGradient id="linear-gradient-51" x1="195.84" y1="38.07" x2="190.83" y2="31.47" xlink:href="#linear-gradient-26"/>
		<linearGradient id="linear-gradient-52" x1="28.65" y1="314.67" x2="51.01" y2="296.12" gradientTransform="matrix(1, 0, 0, 1, 0, 0)" xlink:href="#linear-gradient-30"/>
		<linearGradient id="linear-gradient-53" x1="4145.1" y1="4106.14" x2="4143.55" y2="4053.84" xlink:href="#linear-gradient-30"/>
		<linearGradient id="linear-gradient-54" x1="28.71" y1="293.11" x2="28.71" y2="266.65" gradientTransform="matrix(1, 0, 0, 1, 0, 0)" xlink:href="#linear-gradient-30"/>
		<linearGradient id="linear-gradient-55" x1="4168.68" y1="4105.44" x2="4167.13" y2="4053.14" xlink:href="#linear-gradient-30"/>
		<linearGradient id="linear-gradient-56" x1="4152.29" y1="4105.92" x2="4150.75" y2="4053.63" xlink:href="#linear-gradient-30"/>
		<linearGradient id="linear-gradient-57" x1="14.52" y1="293.11" x2="14.52" y2="266.65" gradientTransform="matrix(1, 0, 0, 1, 0, 0)" xlink:href="#linear-gradient-30"/>
		<linearGradient id="linear-gradient-58" x1="27.93" y1="320.82" x2="6.93" y2="293.13" gradientTransform="matrix(1, 0, 0, 1, 0, 0)" xlink:href="#linear-gradient-30"/>
		<linearGradient id="linear-gradient-59" x1="27.97" y1="269.31" x2="28.77" y2="225.31" gradientTransform="matrix(1, 0, 0, 1, 0, 0)" xlink:href="#linear-gradient-30"/>
		<linearGradient id="linear-gradient-60" x1="28.51" y1="257.28" x2="40.04" y2="247.71" gradientTransform="matrix(1, 0, 0, 1, 0, 0)" xlink:href="#linear-gradient-30"/>
		<linearGradient id="linear-gradient-61" x1="4104.38" y1="4092.63" x2="4103.59" y2="4065.67" xlink:href="#linear-gradient-30"/>
		<linearGradient id="linear-gradient-62" x1="28.54" y1="246.16" x2="28.54" y2="232.52" gradientTransform="matrix(1, 0, 0, 1, 0, 0)" xlink:href="#linear-gradient-30"/>
		<linearGradient id="linear-gradient-63" x1="4116.54" y1="4092.27" x2="4115.74" y2="4065.31" xlink:href="#linear-gradient-30"/>
		<linearGradient id="linear-gradient-64" x1="4108.09" y1="4092.52" x2="4107.29" y2="4065.56" xlink:href="#linear-gradient-30"/>
		<linearGradient id="linear-gradient-65" x1="21.23" y1="246.16" x2="21.23" y2="232.52" gradientTransform="matrix(1, 0, 0, 1, 0, 0)" xlink:href="#linear-gradient-30"/>
		<linearGradient id="linear-gradient-66" x1="28.14" y1="260.45" x2="17.31" y2="246.17" gradientTransform="matrix(1, 0, 0, 1, 0, 0)" xlink:href="#linear-gradient-30"/>
		<linearGradient id="linear-gradient-67" x1="28.13" y1="227.57" x2="28.6" y2="201.57" gradientTransform="matrix(1, 0, 0, 1, 0, 0)" xlink:href="#linear-gradient-30"/>
		<linearGradient id="linear-gradient-68" x1="28.45" y1="220.46" x2="35.27" y2="214.81" gradientTransform="matrix(1, 0, 0, 1, 0, 0)" xlink:href="#linear-gradient-30"/>
		<linearGradient id="linear-gradient-69" x1="4074.83" y1="4086.75" x2="4074.36" y2="4070.81" xlink:href="#linear-gradient-30"/>
		<linearGradient id="linear-gradient-70" x1="28.47" y1="213.89" x2="28.47" y2="205.83" gradientTransform="matrix(1, 0, 0, 1, 0, 0)" xlink:href="#linear-gradient-30"/>
		<linearGradient id="linear-gradient-71" x1="4082.01" y1="4086.53" x2="4081.54" y2="4070.6" xlink:href="#linear-gradient-30"/>
		<linearGradient id="linear-gradient-72" x1="4077.02" y1="4086.68" x2="4076.55" y2="4070.75" xlink:href="#linear-gradient-30"/>
		<linearGradient id="linear-gradient-73" x1="24.15" y1="213.89" x2="24.15" y2="205.83" gradientTransform="matrix(1, 0, 0, 1, 0, 0)" xlink:href="#linear-gradient-30"/>
		<linearGradient id="linear-gradient-74" x1="28.24" y1="222.33" x2="21.84" y2="213.9" gradientTransform="matrix(1, 0, 0, 1, 0, 0)" xlink:href="#linear-gradient-30"/>
		<linearGradient id="linear-gradient-75" x1="545" y1="72.14" x2="559.12" y2="60.44" gradientUnits="userSpaceOnUse">
			<stop offset="0" stop-color="#e4349b"/>
			<stop offset="0.57" stop-color="#f06ea3"/>
			<stop offset="1" stop-color="#f996a8"/>
		</linearGradient>
		<linearGradient id="linear-gradient-76" x1="3915.27" y1="3579.39" x2="3914.3" y2="3546.38" xlink:href="#linear-gradient-30"/>
		<linearGradient id="linear-gradient-77" x1="545.04" y1="58.54" x2="545.04" y2="41.84" xlink:href="#linear-gradient-75"/>
		<linearGradient id="linear-gradient-78" x1="3930.15" y1="3578.95" x2="3929.18" y2="3545.94" xlink:href="#linear-gradient-30"/>
		<linearGradient id="linear-gradient-79" x1="3919.81" y1="3579.26" x2="3918.83" y2="3546.25" xlink:href="#linear-gradient-30"/>
		<linearGradient id="linear-gradient-80" x1="536.09" y1="58.54" x2="536.09" y2="41.84" gradientTransform="matrix(1, 0, 0, 1, 0, 0)" xlink:href="#linear-gradient-30"/>
		<linearGradient id="linear-gradient-81" x1="544.55" y1="76.03" x2="531.3" y2="58.55" xlink:href="#linear-gradient-75"/>
		<linearGradient id="linear-gradient-82" x1="544.58" y1="43.52" x2="545.08" y2="15.74" xlink:href="#linear-gradient-75"/>
		<linearGradient id="linear-gradient-83" x1="544.92" y1="35.92" x2="552.2" y2="29.88" xlink:href="#linear-gradient-75"/>
		<linearGradient id="linear-gradient-84" x1="3889.57" y1="3570.86" x2="3889.07" y2="3553.84" gradientTransform="translate(4106.62 -3864.85) rotate(90)" xlink:href="#linear-gradient-75"/>
		<linearGradient id="linear-gradient-85" x1="544.94" y1="28.9" x2="544.94" y2="20.29" xlink:href="#linear-gradient-75"/>
		<linearGradient id="linear-gradient-86" x1="3897.24" y1="3570.64" x2="3896.74" y2="3553.62" gradientTransform="translate(4106.62 -3864.85) rotate(90)" xlink:href="#linear-gradient-75"/>
		<linearGradient id="linear-gradient-87" x1="3891.91" y1="3570.79" x2="3891.41" y2="3553.78" gradientTransform="translate(4106.62 -3864.85) rotate(90)" xlink:href="#linear-gradient-75"/>
		<linearGradient id="linear-gradient-88" x1="540.32" y1="28.9" x2="540.32" y2="20.29" xlink:href="#linear-gradient-75"/>
		<linearGradient id="linear-gradient-89" x1="544.69" y1="37.92" x2="537.85" y2="28.91" xlink:href="#linear-gradient-75"/>
		<linearGradient id="linear-gradient-90" x1="544.68" y1="17.17" x2="544.98" y2="0.75" xlink:href="#linear-gradient-75"/>
		<linearGradient id="linear-gradient-91" x1="544.88" y1="12.68" x2="549.18" y2="9.11" xlink:href="#linear-gradient-75"/>
		<linearGradient id="linear-gradient-92" x1="3870.91" y1="3567.15" x2="3870.62" y2="3557.09" gradientTransform="translate(4106.62 -3864.85) rotate(90)" xlink:href="#linear-gradient-75"/>
		<linearGradient id="linear-gradient-93" x1="544.89" y1="8.53" x2="544.89" y2="3.44" xlink:href="#linear-gradient-75"/>
		<linearGradient id="linear-gradient-94" x1="3875.45" y1="3567.02" x2="3875.15" y2="3556.96" gradientTransform="translate(4106.62 -3864.85) rotate(90)" xlink:href="#linear-gradient-75"/>
		<linearGradient id="linear-gradient-95" x1="3872.3" y1="3567.11" x2="3872" y2="3557.05" gradientTransform="translate(4106.62 -3864.85) rotate(90)" xlink:href="#linear-gradient-75"/>
		<linearGradient id="linear-gradient-96" x1="542.17" y1="8.53" x2="542.17" y2="3.44" xlink:href="#linear-gradient-75"/>
		<linearGradient id="linear-gradient-97" x1="544.75" y1="13.86" x2="540.71" y2="8.54" xlink:href="#linear-gradient-75"/>
		<linearGradient id="_ÂÁ_Ï_ÌÌ_È_ËÂÌÚ_3-5" x1="274.34" y1="392.46" x2="157.88" y2="368.51" xlink:href="#_ÂÁ_Ï_ÌÌ_È_ËÂÌÚ_3"/>
		<linearGradient id="_ÂÁ_Ï_ÌÌ_È_ËÂÌÚ_3-6" x1="238.89" y1="421.76" x2="159.78" y2="370.38" xlink:href="#_ÂÁ_Ï_ÌÌ_È_ËÂÌÚ_3"/>
		<linearGradient id="_ÂÁ_Ï_ÌÌ_È_ËÂÌÚ_3-7" x1="-107.47" y1="423.29" x2="-43.49" y2="389.17" gradientTransform="matrix(-1, 0, 0, 1, 109.25, 0)" xlink:href="#_ÂÁ_Ï_ÌÌ_È_ËÂÌÚ_3"/>
		<linearGradient id="_ÂÁ_Ï_ÌÌ_È_ËÂÌÚ_3-8" x1="248.28" y1="441.67" x2="165.05" y2="396.03" xlink:href="#_ÂÁ_Ï_ÌÌ_È_ËÂÌÚ_3"/>
		<linearGradient id="linear-gradient-98" x1="181.23" y1="427.33" x2="239.11" y2="427.33" xlink:href="#linear-gradient-12"/>
		<linearGradient id="linear-gradient-99" x1="198.92" y1="441.25" x2="146.2" y2="411.28" xlink:href="#linear-gradient-12"/>
		<linearGradient id="linear-gradient-100" x1="221.68" y1="373.6" x2="153.77" y2="329.48" xlink:href="#linear-gradient-12"/>
		<linearGradient id="linear-gradient-101" x1="181.23" y1="371.11" x2="239.11" y2="371.11" xlink:href="#linear-gradient-12"/>
		<linearGradient id="linear-gradient-102" x1="192.18" y1="381.11" x2="144.73" y2="354.36" xlink:href="#linear-gradient-12"/>
		<linearGradient id="linear-gradient-103" x1="163.42" y1="399.22" x2="225.95" y2="399.22" xlink:href="#linear-gradient-12"/>
		<linearGradient id="linear-gradient-104" x1="163.42" y1="399.22" x2="194.69" y2="399.22" xlink:href="#linear-gradient-12"/>
		<linearGradient id="linear-gradient-105" x1="154.19" y1="399.22" x2="235.18" y2="399.22" xlink:href="#linear-gradient-12"/>
		<linearGradient id="linear-gradient-106" x1="154.19" y1="356.06" x2="195.16" y2="356.06" xlink:href="#linear-gradient-20"/>
		<linearGradient id="linear-gradient-107" x1="154.47" y1="363.8" x2="154.47" y2="411.48" xlink:href="#linear-gradient-20"/>
		<linearGradient id="linear-gradient-108" x1="234.9" y1="363.57" x2="234.9" y2="411.33" xlink:href="#linear-gradient-20"/>
		<linearGradient id="linear-gradient-109" x1="194.69" y1="387.07" x2="194.69" y2="434.87" xlink:href="#linear-gradient-20"/>
		<linearGradient id="linear-gradient-110" x1="194.68" y1="364.71" x2="194.68" y2="262.38" xlink:href="#linear-gradient-24"/>
		<filter id="luminosity-noclip-2" x="332.77" y="232.1" width="144.45" height="83.4" filterUnits="userSpaceOnUse" color-interpolation-filters="sRGB">
			<feFlood flood-color="#fff" result="bg"/>
			<feBlend in="SourceGraphic" in2="bg"/>
		</filter>
		<mask id="mask-2" x="332.77" y="232.1" width="144.45" height="83.4" maskUnits="userSpaceOnUse">
			<g class="cls-1">
				<path class="cls-2" d="M400.18,314.46l-65.62-37.89c-2.66-1.53-2.32-4.21.74-6l64.14-37c3.06-1.77,7.7-2,10.36-.42L475.42,271c2.66,1.54,2.32,4.21-.74,6l-64.14,37C407.48,315.8,402.84,316,400.18,314.46Z"/>
			</g>
		</mask>
		<radialGradient id="_ÂÁ_Ï_ÌÌ_È_ËÂÌÚ_12" cx="404.99" cy="306.58" r="58.97" gradientUnits="userSpaceOnUse">
			<stop offset="0" stop-color="#42e8e0"/>
			<stop offset="0.14" stop-color="#43e2e0"/>
			<stop offset="0.33" stop-color="#46cfde"/>
			<stop offset="0.55" stop-color="#4ab1dc"/>
			<stop offset="0.8" stop-color="#5188da"/>
			<stop offset="1" stop-color="#5761d7"/>
		</radialGradient>
		<linearGradient id="linear-gradient-111" x1="332.77" y1="256" x2="477.21" y2="256" gradientUnits="userSpaceOnUse">
			<stop offset="0" stop-color="#05a4a0"/>
			<stop offset="1" stop-color="#c8fe75"/>
		</linearGradient>
		<linearGradient id="linear-gradient-112" x1="414.49" y1="400.13" x2="414.49" y2="17.23" gradientUnits="userSpaceOnUse">
			<stop offset="0" stop-color="#00ad93"/>
			<stop offset="0.04" stop-color="#0eb390"/>
			<stop offset="0.49" stop-color="#aff069"/>
			<stop offset="0.58" stop-color="#8ce371"/>
			<stop offset="0.87" stop-color="#28bc89"/>
			<stop offset="1" stop-color="#00ad93"/>
		</linearGradient>
		<linearGradient id="linear-gradient-113" x1="433.49" y1="331.48" x2="433.49" y2="-58.73" xlink:href="#linear-gradient-112"/>
		<linearGradient id="linear-gradient-114" x1="452.49" y1="353.96" x2="452.49" y2="178.86" xlink:href="#linear-gradient-112"/>
		<linearGradient id="linear-gradient-115" x1="471.49" y1="307.47" x2="471.49" y2="187.36" xlink:href="#linear-gradient-112"/>
		<linearGradient id="linear-gradient-116" x1="395.49" y1="103.55" x2="395.49" y2="396.9" xlink:href="#linear-gradient-112"/>
		<linearGradient id="linear-gradient-117" x1="376.49" y1="120.88" x2="376.49" y2="396.89" xlink:href="#linear-gradient-112"/>
		<linearGradient id="linear-gradient-118" x1="357.49" y1="354.03" x2="357.49" y2="178.93" xlink:href="#linear-gradient-112"/>
		<linearGradient id="linear-gradient-119" x1="338.49" y1="307.48" x2="338.49" y2="187.37" xlink:href="#linear-gradient-112"/>
		<linearGradient id="linear-gradient-120" x1="404.99" y1="315.5" x2="404.99" y2="88.56" gradientUnits="userSpaceOnUse">
			<stop offset="0" stop-color="#bffa78"/>
			<stop offset="0.94" stop-color="#11ac9f"/>
			<stop offset="1" stop-color="#06a7a2"/>
		</linearGradient>
		<linearGradient id="linear-gradient-121" x1="523.75" y1="166.38" x2="533.6" y2="332.79" gradientTransform="matrix(1, -0.58, 0.87, 0.5, -340.26, 271.36)" gradientUnits="userSpaceOnUse">
			<stop offset="0" stop-color="#4e65ff"/>
			<stop offset="0.05" stop-color="#4e63fc"/>
			<stop offset="1" stop-color="#453cc6"/>
		</linearGradient>
		<linearGradient id="_ÂÁ_Ï_ÌÌ_È_ËÂÌÚ_15-5" x1="318.65" y1="86.27" x2="466.69" y2="86.27" xlink:href="#_ÂÁ_Ï_ÌÌ_È_ËÂÌÚ_15"/>
		<linearGradient id="linear-gradient-122" x1="318.65" y1="82.57" x2="466.69" y2="82.57" gradientUnits="userSpaceOnUse">
			<stop offset="0" stop-color="#4987fd"/>
			<stop offset="0.06" stop-color="#4b7cfd"/>
			<stop offset="0.21" stop-color="#4f66fe"/>
			<stop offset="0.37" stop-color="#5256ff"/>
			<stop offset="0.56" stop-color="#534dff"/>
			<stop offset="0.82" stop-color="#544aff"/>
		</linearGradient>
		<linearGradient id="linear-gradient-123" x1="539.27" y1="148.47" x2="549.11" y2="314.88" gradientTransform="matrix(1, -0.58, 0.87, 0.5, -340.26, 271.36)" gradientUnits="userSpaceOnUse">
			<stop offset="0" stop-color="#43b6ff"/>
			<stop offset="0.54" stop-color="#4b7fff"/>
			<stop offset="1" stop-color="#524dff"/>
		</linearGradient>
	</defs>
	<title>Layer 1 (4)</title>
	<g class="cls-3">
		<g id="Layer_2" data-name="Layer 2">
			<g id="Layer_1-2" data-name="Layer 1">
				<polygon class="cls-4" points="586.74 239.04 529.78 203.88 652.48 129.46 653 130.31 531.69 203.89 587.26 238.19 586.74 239.04"/>
				<polygon class="cls-5" points="185.04 196.04 263 147.88 183.3 99.45 182.78 100.31 261.08 147.89 184.51 195.19 185.04 196.04"/>
				<polygon class="cls-6" points="599.04 286.04 507 341.88 464.3 315.45 463.78 316.31 505.08 341.89 598.51 285.19 599.04 286.04"/>
				<polyline class="cls-7" points="207 415.88 43.3 317.45 42.78 318.31 205.08 415.89"/>
				<polyline class="cls-8" points="115.08 242.89 38.51 290.19 39.04 291.04 117 242.88"/>
				<polyline class="cls-9" points="349.21 319.09 235.39 387.98 235.91 388.83 351.13 319.09"/>
				<polygon class="cls-10" points="589.04 145.04 629 119.88 549.3 71.45 548.78 72.31 627.08 119.89 588.51 144.19 589.04 145.04"/>
				<path class="cls-11" d="M708.19,122.06,647.92,86.24a11.06,11.06,0,0,0-11.35,0L577,122.17a11.06,11.06,0,0,0,0,18.93l53.85,32.6a21,21,0,0,0,21.51.14l55.78-32.75A11.05,11.05,0,0,0,708.19,122.06Z"/>
				<path class="cls-12" d="M708.19,119.19,647.92,83.37a11.06,11.06,0,0,0-11.35,0L577,119.31a11,11,0,0,0,0,18.92l53.85,32.6a21,21,0,0,0,21.51.14l55.78-32.74A11.06,11.06,0,0,0,708.19,119.19Z"/>
				<path class="cls-11" d="M270.61,410.74,200.37,369A11,11,0,0,0,189,369l-69.38,41.82a11.05,11.05,0,0,0,0,18.92l63.6,38.5a21,21,0,0,0,21.51.15l65.83-38.65A11.05,11.05,0,0,0,270.61,410.74Z"/>
				<path class="cls-12" d="M270.61,407.52l-70.24-41.75a11,11,0,0,0-11.35,0l-69.38,41.82a11.06,11.06,0,0,0,0,18.93l63.6,38.5a21,21,0,0,0,21.51.14l65.83-38.65A11.05,11.05,0,0,0,270.61,407.52Z"/>
				<g class="animateMotion_reverse">
					<ellipse class="cls-13" cx="612.2" cy="278.29" rx="49.97" ry="28.85"/>
					<ellipse class="cls-14" cx="612.2" cy="266.71" rx="49.97" ry="28.85"/>
					<path class="cls-15" d="M662.17,257.21h-1.23c-2-5.14-6.48-10-13.41-14-19.51-11.27-51.16-11.27-70.67,0-6.55,3.78-10.89,8.35-13.05,13.17h-1.56v6.39c-.39,7.67,4.48,15.41,14.61,21.26,19.52,11.26,51.16,11.26,70.67,0,9.76-5.64,14.64-13,14.64-20.41h0Z"/>
					<path class="cls-15" d="M662.17,257.21h-1.23c-2-5.14-6.48-10-13.41-14-19.51-11.27-51.16-11.27-70.67,0-6.55,3.78-10.89,8.35-13.05,13.17h-1.56v6.39c-.39,7.67,4.48,15.41,14.61,21.26,19.52,11.26,51.16,11.26,70.67,0,9.76-5.64,14.64-13,14.64-20.41h0Z"/>
					<path class="cls-16" d="M662.17,257.21h-1.23c-2-5.14-6.48-10-13.41-14-19.51-11.27-51.16-11.27-70.67,0-6.55,3.78-10.89,8.35-13.05,13.17h-1.56v6.39c-.39,7.67,4.48,15.41,14.61,21.26,19.52,11.26,51.16,11.26,70.67,0,9.76-5.64,14.64-13,14.64-20.41h0Z"/>
					<path class="cls-17" d="M662.17,254.74l-1.23,0c-2-5.14-6.48-10-13.41-14-19.51-11.27-51.16-11.27-70.67,0-6.55,3.78-10.89,8.34-13.05,13.17l-1.56,0v6.4c-.39,7.67,4.48,15.4,14.61,21.25,19.52,11.27,51.16,11.27,70.67,0,9.76-5.63,14.64-13,14.64-20.4h0Z"/>
					<ellipse class="cls-18" cx="612.2" cy="254.74" rx="49.97" ry="28.85"/>
					<g class="cls-20">
						<path class="cls-133" d="M635.5,257.28c.1-.54-.59-1-1.43-1h-.4a1.15,1.15,0,0,0-1.2.67c-1.35,5.92-9.19,10.43-19.18,10.69-15.44.41-26.31-9.15-19-19.12a18.41,18.41,0,0,1,10-6.73c9.53-2.89,18.88-.29,24.1,4.73a1.66,1.66,0,0,0,1.72.24l.21-.09a.76.76,0,0,0,.26-1.32c-5.76-5.47-15.68-8.41-25.93-5.77-5.92,1.48-10.88,4.76-13.5,8.95-7.3,10.9,4.28,21.12,21.2,21.11C624.5,269.58,634,264.3,635.5,257.28Z"/>
						<path class="cls-133" d="M610.93,233.38c-14.2.57-27.1,9.25-29.52,19.86a13.11,13.11,0,0,0,.15,6.71c.17.57,1.14.85,2,.59h0c.71-.21,1.12-.7,1-1.16a11.78,11.78,0,0,1-.24-6c2-9.64,13.68-17.53,26.73-18,14.37-.56,27.63,8,29.33,18.62,1.65,10.37-10.91,18.81-28,18.81a50,50,0,0,1-6.68-.44,2.28,2.28,0,0,0-1.56.34c-.79.58-.32,1.46.89,1.61a55.06,55.06,0,0,0,8.62.46c17.9-.38,31-9.09,29.84-19.88C642.11,242.68,627,232.73,610.93,233.38Z"/>
						<path class="cls-134" d="M626.87,253.38l-7-4.53a1.81,1.81,0,0,0-1.9,0l-12.56,8.48-4.76-3.23,5-3.25,2.89,2a1.88,1.88,0,0,0,1.94,0,.73.73,0,0,0,0-1.3l-3.82-2.61a1.62,1.62,0,0,0-.94-.27,1.77,1.77,0,0,0-1,.27l-7,4.56a.91.91,0,0,0-.45.65.72.72,0,0,0,.36.65l6.67,4.52a1.76,1.76,0,0,0,1,.27,1.92,1.92,0,0,0,1-.27L619,250.81l5,3.23-4.72,3.26-3.08-2a1.85,1.85,0,0,0-1-.26,1.73,1.73,0,0,0-1,.27.8.8,0,0,0-.4.65.83.83,0,0,0,.42.65l4.1,2.62a1.89,1.89,0,0,0,1,.27,1.74,1.74,0,0,0,1-.27l6.63-4.57a.74.74,0,0,0,.35-.65A.89.89,0,0,0,626.87,253.38Z"/>
					</g>
				</g>
				<polygon class="cls-19" points="641.81 146.56 610.18 128.3 641.81 110.04 673.44 128.3 641.81 146.56"/>
				<polygon class="cls-19" points="641.81 141.31 610.18 123.05 641.81 104.79 673.44 123.05 641.81 141.31"/>
				<g class="cls-20">
					<polygon class="cls-21" points="641.81 108.87 617.39 94.77 641.81 80.68 666.23 94.77 641.81 108.87"/>
					<polygon class="cls-22" points="666.23 94.77 666.23 123.05 641.81 137.15 641.81 108.87 666.23 94.77"/>
					<polygon class="cls-23" points="617.39 94.77 617.39 123.05 641.81 137.15 641.81 108.87 617.39 94.77"/>
				</g>
				<polygon class="cls-24" points="641.81 137.15 617.39 123.05 641.81 108.95 666.23 123.05 641.81 137.15"/>
				<polygon class="cls-25" points="673.44 123.05 673.44 128.3 641.81 146.56 641.81 141.31 673.44 123.05"/>
				<polygon class="cls-19" points="610.18 123.05 610.18 128.3 641.81 146.56 641.81 141.31 610.18 123.05"/>
				<polygon class="cls-26" points="610.18 123.05 610.18 128.3 641.81 146.56 641.81 141.31 610.18 123.05"/>
				<polygon class="cls-19" points="641.81 102.65 610.18 84.39 641.81 66.13 673.44 84.39 641.81 102.65"/>
				<polygon class="cls-19" points="641.81 97.4 610.18 79.14 641.81 60.88 673.44 79.14 641.81 97.4"/>
				<polygon class="cls-27" points="641.81 97.4 610.18 79.14 641.81 60.88 673.44 79.14 641.81 97.4"/>
				<polygon class="cls-28" points="641.81 85.9 630.1 79.14 641.81 72.38 653.52 79.14 641.81 85.9"/>
				<polygon class="cls-28" points="641.81 76.97 649.55 81.43 653.52 79.14 641.81 72.38 630.1 79.14 634.08 81.43 641.81 76.97"/>
				<polygon class="cls-29" points="641.81 76.97 649.55 81.43 653.52 79.14 641.81 72.38 630.1 79.14 634.08 81.43 641.81 76.97"/>
				<polygon class="cls-30" points="673.44 79.14 673.44 84.39 641.81 102.65 641.81 97.4 673.44 79.14"/>
				<polygon class="cls-19" points="610.18 79.14 610.18 84.39 641.81 102.65 641.81 97.4 610.18 79.14"/>
				<polygon class="cls-31" points="610.18 79.14 610.18 84.39 641.81 102.65 641.81 97.4 610.18 79.14"/>
				<polygon class="cls-28" points="641.81 102.65 641.81 141.31 610.18 123.05 610.18 84.39 641.81 102.65"/>
				<polygon class="cls-32" points="617.39 88.55 617.39 123.05 641.81 137.15 666.23 123.05 666.23 88.55 641.81 102.65 617.39 88.55"/>
				<polygon class="cls-33" points="641.81 102.65 641.81 137.15 617.39 123.05 617.39 88.55 641.81 102.65"/>
				<polygon class="cls-34" points="610.18 84.39 610.18 123.05 641.81 141.31 673.44 123.05 673.44 84.39 641.81 102.65 610.18 84.39"/>
				<polygon class="cls-35" points="610.93 79.14 642.18 61.09 641.81 60.88 610.18 79.14 641.81 97.4 642.19 97.18 610.93 79.14"/>
				<polygon class="cls-36" points="610.18 84.39 610.18 123.05 610.62 123.3 610.62 84.64 610.18 84.39"/>
				<polygon class="cls-37" points="673.44 84.39 673.44 123.05 673 123.3 673 84.64 673.44 84.39"/>
				<polygon class="cls-38" points="641.81 102.65 641.81 102.65 641.07 102.22 641.07 140.88 641.81 141.31 641.81 141.31 641.81 141.31 641.81 141.31 641.81 141.31 642.56 140.88 642.56 102.22 641.81 102.65"/>
				<polygon class="cls-39" points="653.52 79.14 653.52 5.97 630.17 5.97 630.1 79.14 641.81 85.9 653.52 79.14"/>

				<!-- begin bb2 -->
				<g>
					<path class="cls-41" d="M635.15,36.41a.35.35,0,1,1-.69,0,.35.35,0,0,1,.69,0Z"/>
				</g>
				<g>
					<circle class="cls-28" cx="634.2" cy="53.23" r="0.53"/>
				</g>
				<g>
					<path class="cls-41" d="M638.45,47.22a.54.54,0,1,1-1.08,0,.54.54,0,1,1,1.08,0Z"/>
					<path class="cls-41" d="M636.78,46.13a.35.35,0,1,1-.35-.35A.35.35,0,0,1,636.78,46.13Z"/>
				</g>
				<g>
					<path class="cls-40" d="M641.46,41.77a.76.76,0,1,0,.55-.93A.76.76,0,0,0,641.46,41.77Z"/>
				</g>
				<g>
					<path class="cls-28" d="M649.58,33.44a.47.47,0,0,0,.57.34.47.47,0,0,0,.34-.58.47.47,0,0,0-.57-.34A.48.48,0,0,0,649.58,33.44Z"/>
				</g>
				<g>
					<path class="cls-41" d="M645.06,29.08a.47.47,0,0,0,.58.34.48.48,0,0,0,.35-.58.49.49,0,0,0-.59-.35A.49.49,0,0,0,645.06,29.08Z"/>
				</g>
				<g>
					<path class="cls-41" d="M631.12,30.83a.3.3,0,0,0,.37.22.31.31,0,0,0,.22-.37.31.31,0,0,0-.37-.22A.29.29,0,0,0,631.12,30.83Z"/>
				</g>
				<g>
					<path class="cls-41" d="M631.49,29.09a.62.62,0,0,0,.77.46.63.63,0,1,0-.77-.46Z"/>
				</g>
				<g>
					<path class="cls-41" d="M646.25,27.78a.31.31,0,0,0,.38.22.31.31,0,0,0-.15-.6A.31.31,0,0,0,646.25,27.78Z"/>
					<path class="cls-41" d="M650,53.56a.34.34,0,0,1-.49,0,.35.35,0,0,1,0-.48.36.36,0,0,1,.49,0A.34.34,0,0,1,650,53.56Z"/>
				</g>
				<g>
					<path class="cls-41" d="M650.75,51.73a.72.72,0,1,1,.08-1A.71.71,0,0,1,650.75,51.73Z"/>
				</g>
				<g>
					<circle class="cls-28" cx="650.04" cy="50.25" r="0.47" transform="translate(211.55 532.74) rotate(-52.16)"/>
				</g>
				<g>
					<path class="cls-41" d="M650.05,43.7a.48.48,0,0,0,.11.67.48.48,0,0,0,.56-.78A.49.49,0,0,0,650.05,43.7Z"/>
				</g>
				<g>
					<path class="cls-41" d="M651.81,43.78a.31.31,0,0,0,.08.43.32.32,0,0,0,.43-.08.31.31,0,1,0-.51-.35Z"/>
				</g>
				<g>
					<path class="cls-29" d="M639.38,59.07a.76.76,0,1,0,1.48-.38.76.76,0,0,0-.93-.55A.76.76,0,0,0,639.38,59.07Z"/>
					<path class="cls-29" d="M641.59,54.93a.54.54,0,1,0,.39-.65A.54.54,0,0,0,641.59,54.93Z"/>
				</g>
				<g>
					<path class="cls-40" d="M644.28,29.75a.86.86,0,1,1-.86-.86A.86.86,0,0,1,644.28,29.75Z"/>
				</g>
				<g>
					<circle class="cls-28" cx="632.57" cy="22.92" r="0.53"/>
					<circle class="cls-41" cx="636.28" cy="16.9" r="0.54"/>
				</g>
				<g>
					<path class="cls-41" d="M652.52,14.93a.35.35,0,1,1-.35-.34A.35.35,0,0,1,652.52,14.93Z"/>
				</g>
				<g>
					<circle class="cls-41" cx="650.91" cy="13.14" r="0.72"/>
				</g>
				<g>
					<path class="cls-41" d="M635.15,15.82a.35.35,0,1,1-.35-.35A.35.35,0,0,1,635.15,15.82Z"/>
				</g>
				<g class="cls-20">
					<circle class="cls-28" cx="634.2" cy="32.64" r="0.53"/>
					<path class="cls-41" d="M638.45,26.62a.54.54,0,1,1-.54-.54A.54.54,0,0,1,638.45,26.62Z"/>
				</g>
				<g>
					<path class="cls-41" d="M636.78,25.54a.35.35,0,1,1-.35-.35A.34.34,0,0,1,636.78,25.54Z"/>
				</g>
				<!-- end bb2 -->

				<g class="animateMotion">
					<ellipse class="cls-13" cx="144.7" cy="235.87" rx="60.04" ry="34.66"/>
					<ellipse class="cls-42" cx="144.7" cy="221.96" rx="60.04" ry="34.66"/>
					<path class="cls-43" d="M204.74,210.55l-1.49,0c-2.41-6.17-7.77-12-16.1-16.85-23.45-13.53-61.46-13.53-84.91,0-7.86,4.54-13.08,10-15.67,15.82H84.69v7.68c-.47,9.21,5.38,18.51,17.55,25.54,23.45,13.53,61.46,13.53,84.91,0,11.72-6.77,17.59-15.64,17.59-24.51h0Z"/>
					<path class="cls-43" d="M204.74,210.55l-1.49,0c-2.41-6.17-7.77-12-16.1-16.85-23.45-13.53-61.46-13.53-84.91,0-7.86,4.54-13.08,10-15.67,15.82H84.69v7.68c-.47,9.21,5.38,18.51,17.55,25.54,23.45,13.53,61.46,13.53,84.91,0,11.72-6.77,17.59-15.64,17.59-24.51h0Z"/>
					<path class="cls-44" d="M204.74,210.55l-1.49,0c-2.41-6.17-7.77-12-16.1-16.85-23.45-13.53-61.46-13.53-84.91,0-7.86,4.54-13.08,10-15.67,15.82H84.69v7.68c-.47,9.21,5.38,18.51,17.55,25.54,23.45,13.53,61.46,13.53,84.91,0,11.72-6.77,17.59-15.64,17.59-24.51h0Z"/>
					<path class="cls-45" d="M204.74,207.58l-1.49,0c-2.41-6.17-7.77-12-16.1-16.85-23.45-13.53-61.46-13.53-84.91,0-7.86,4.54-13.08,10-15.67,15.82H84.69v7.68c-.47,9.21,5.38,18.51,17.55,25.53,23.45,13.54,61.46,13.54,84.91,0,11.72-6.77,17.59-15.64,17.59-24.52h0Z"/>
					<ellipse class="cls-46" cx="144.7" cy="207.58" rx="60.04" ry="34.66"/>
					<path class="cls-153" d="M173.1,211.21c.11-.65-.76-1.25-1.78-1.25h-.49c-.74,0-1.34.33-1.44.79-1.49,7-11.08,12.33-23.46,12.63-19.14.47-32.05-10.93-22.61-22.79a23.05,23.05,0,0,1,12.22-8c11.31-3.36,22.36-.22,28.68,5.75a2,2,0,0,0,2.06.3l.25-.12a.88.88,0,0,0,.26-1.56c-7-6.5-18.67-10.05-30.75-7-7,1.73-13.09,5.6-16.45,10.58-9.54,13,4.19,25.17,25.21,25.17C159.84,225.76,171.53,219.51,173.1,211.21Z"/>
					<path class="cls-153" d="M143.23,182.75c-16.55.57-32.29,10.82-36,23.47a15.26,15.26,0,0,0-.34,8c.17.68,1.34,1,2.43.71h0c.89-.25,1.42-.83,1.28-1.39a13.69,13.69,0,0,1,.13-7.12c3.09-11.48,17.38-20.81,32.63-21.31,16.78-.56,32.72,9.63,35.27,22.22,2.48,12.26-12.86,22.24-34.18,22.24a64.21,64.21,0,0,1-8.33-.53,2.91,2.91,0,0,0-2,.41c-1,.69-.44,1.72,1.06,1.91a74.25,74.25,0,0,0,10.78.55c22.4-.46,38.38-10.76,36.43-23.5C180.08,194,161.94,182.11,143.23,182.75Z"/>
					<path class="cls-153" d="M161.55,215.35a1.74,1.74,0,0,0-.48-.8,6.27,6.27,0,0,0-1.35-1c-1-.61-2.09-1.25-3-1.82l-1.55-1,.2-.3,0,0a12,12,0,0,0,.79-1.26c1.27-2.56.7-5.4-1.46-7.79a15.12,15.12,0,0,0-9.31-4.55c-.42-.06-.85-.1-1.24-.13l-.58,0H142l-.49,0-1.12.12a16.32,16.32,0,0,0-8.73,3.69,8.71,8.71,0,0,0-3.07,4.77l0,0,0,.07,0,.08-.1,1.06v0l0,.34a7.76,7.76,0,0,0,.1.79c.38,2.06,1.76,3.83,4.12,5.24a18.38,18.38,0,0,0,7.71,2.3,22.24,22.24,0,0,0,9.73-1.22c.65.41,1.31.81,2,1.21l2.63,1.6a7.35,7.35,0,0,0,2,.89,5.48,5.48,0,0,0,2.67,0,3.85,3.85,0,0,0,1.42-.62A1.7,1.7,0,0,0,161.55,215.35Zm-8.8-3.22.49.31L156,214.1l2.7,1.61c.15.1.22.21.18.32s-.19.16-.31.18a.71.71,0,0,1-.51-.12l-5.41-3.28-.38-.23-.08-.05Zm.89-6.11c.21,4-4.79,7.27-11.14,7.28h0a14.68,14.68,0,0,1-7.94-2.11c-2-1.37-3.08-3.21-2.92-5.16.34-4,5.31-7.22,11.1-7.23h0a13.56,13.56,0,0,1,7.51,2.12A6.71,6.71,0,0,1,153.64,206Z"/>
					<path class="cls-153" d="M142.46,199.65h-.13c-1,0-1.68.41-1.71,1s.63,1,1.62,1.07a10.69,10.69,0,0,1,1.27.09c3.27.47,5.55,2.3,5.68,4.56,0,.63.72,1.09,1.63,1.09h0a2,2,0,0,0,1.12-.33.85.85,0,0,0,.4-.82,5.42,5.42,0,0,0-.23-1.15C151.21,202.09,147.06,199.71,142.46,199.65Z"/>
				</g>
				<g class="animation_down3">
					<path class="cls-47" d="M217.62,83.08,195.94,95.19V120a5.07,5.07,0,0,0,2.56-.69l17.09-9.86a5.13,5.13,0,0,0,2.56-4.44V85.33A5.07,5.07,0,0,0,217.62,83.08Z"/>
					<path class="cls-48" d="M217.62,83.08a5.16,5.16,0,0,0-2-2.19L198.5,71a5.09,5.09,0,0,0-5.12,0L176.3,80.89a5,5,0,0,0-1.5,1.34l21.14,13Z"/>
					<path class="cls-49" d="M217.62,83.08a5.16,5.16,0,0,0-2-2.19L198.5,71a5.09,5.09,0,0,0-5.12,0L176.3,80.89a5,5,0,0,0-1.5,1.34l21.14,13Z"/>
					<path class="cls-50" d="M174.27,83.07a5.14,5.14,0,0,0-.53,2.26v19.72a5.11,5.11,0,0,0,2.56,4.44l17.08,9.86a5.1,5.1,0,0,0,2.56.69V95.19Z"/>
					<path class="cls-51" d="M195.94,95.19l-21.14-13a6.22,6.22,0,0,0-.53.84Z"/>
					<path class="cls-52" d="M195.94,95.19l-21.14-13a6.22,6.22,0,0,0-.53.84Z"/>
					<path class="cls-53" d="M174.8,82.23a6.22,6.22,0,0,0-.53.84,5.14,5.14,0,0,0-.53,2.26v19.72a5.11,5.11,0,0,0,2.56,4.44l17.08,9.86a5.1,5.1,0,0,0,2.56.69V95.19Z"/>
				</g>
				<g class="animation_down2">
					<path class="cls-54" d="M212.33,48.45a3.86,3.86,0,0,0-1.53-1.65l-12.92-7.46a3.9,3.9,0,0,0-3.88,0L181.09,46.8a3.78,3.78,0,0,0-1.13,1,3.31,3.31,0,0,0-.41.64,3.93,3.93,0,0,0-.4,1.7V65.07a3.87,3.87,0,0,0,1.94,3.35L194,75.88a3.88,3.88,0,0,0,3.88,0l12.92-7.46a3.86,3.86,0,0,0,1.93-3.35V50.15A3.8,3.8,0,0,0,212.33,48.45Z"/>
					<path class="cls-55" d="M207.12,51.36l-11.18,6.25V70.42a2.69,2.69,0,0,0,1.32-.35L206.07,65a2.63,2.63,0,0,0,1.32-2.29V52.52A2.71,2.71,0,0,0,207.12,51.36Z"/>
					<path class="cls-56" d="M207.12,51.36a2.64,2.64,0,0,0-1.05-1.12l-8.81-5.09a2.65,2.65,0,0,0-2.64,0l-8.81,5.09a2.54,2.54,0,0,0-.77.69l10.9,6.68Z"/>
					<path class="cls-57" d="M207.12,51.36a2.64,2.64,0,0,0-1.05-1.12l-8.81-5.09a2.65,2.65,0,0,0-2.64,0l-8.81,5.09a2.54,2.54,0,0,0-.77.69l10.9,6.68Z"/>
					<path class="cls-58" d="M184.77,51.36a2.58,2.58,0,0,0-.28,1.16V62.69A2.65,2.65,0,0,0,185.81,65l8.81,5.09a2.72,2.72,0,0,0,1.32.35V57.61Z"/>
					<path class="cls-59" d="M195.94,57.61,185,50.93a2.8,2.8,0,0,0-.27.43Z"/>
					<path class="cls-60" d="M195.94,57.61,185,50.93a2.8,2.8,0,0,0-.27.43Z"/>
					<path class="cls-61" d="M185,50.93a2.8,2.8,0,0,0-.27.43,2.58,2.58,0,0,0-.28,1.16V62.69A2.65,2.65,0,0,0,185.81,65l8.81,5.09a2.72,2.72,0,0,0,1.32.35V57.61Z"/>
				</g>
				<g class="animation_down1">
					<path class="cls-62" d="M205.63,26.57a2.3,2.3,0,0,0-.91-1l-7.63-4.41a2.29,2.29,0,0,0-2.29,0l-7.64,4.41a2.23,2.23,0,0,0-.66.6,1.81,1.81,0,0,0-.24.37,2.31,2.31,0,0,0-.24,1v8.81a2.31,2.31,0,0,0,1.14,2l7.64,4.4a2.22,2.22,0,0,0,1.14.31,2.26,2.26,0,0,0,1.15-.31l7.63-4.4a2.3,2.3,0,0,0,1.15-2V27.58A2.31,2.31,0,0,0,205.63,26.57Z"/>
					<path class="cls-63" d="M202.55,28.29,195.94,32v7.57a1.55,1.55,0,0,0,.78-.21l5.21-3a1.56,1.56,0,0,0,.78-1.35V29A1.66,1.66,0,0,0,202.55,28.29Z"/>
					<path class="cls-64" d="M202.55,28.29a1.64,1.64,0,0,0-.62-.66l-5.21-3a1.6,1.6,0,0,0-1.56,0l-5.2,3a1.51,1.51,0,0,0-.46.41L195.94,32Z"/>
					<path class="cls-65" d="M202.55,28.29a1.64,1.64,0,0,0-.62-.66l-5.21-3a1.6,1.6,0,0,0-1.56,0l-5.2,3a1.51,1.51,0,0,0-.46.41L195.94,32Z"/>
					<path class="cls-66" d="M189.34,28.29a1.66,1.66,0,0,0-.16.69v6a1.54,1.54,0,0,0,.78,1.35l5.2,3a1.55,1.55,0,0,0,.78.21V32Z"/>
					<path class="cls-67" d="M195.94,32,189.5,28a1.32,1.32,0,0,0-.16.25Z"/>
					<path class="cls-68" d="M195.94,32,189.5,28a1.32,1.32,0,0,0-.16.25Z"/>
					<path class="cls-69" d="M189.5,28a1.32,1.32,0,0,0-.16.25,1.66,1.66,0,0,0-.16.69v6a1.54,1.54,0,0,0,.78,1.35l5.2,3a1.55,1.55,0,0,0,.78.21V32Z"/>
				</g>
				<g class="animation_up3">
					<path class="cls-70" d="M56.05,279.82,28.37,295.3V327a6.47,6.47,0,0,0,3.27-.88l21.82-12.6a6.53,6.53,0,0,0,3.28-5.66V282.7A6.43,6.43,0,0,0,56.05,279.82Z"/>
					<path class="cls-71" d="M56.05,279.82A6.45,6.45,0,0,0,53.46,277l-21.82-12.6a6.55,6.55,0,0,0-6.55,0L3.27,277a6.4,6.4,0,0,0-1.91,1.71l27,16.56Z"/>
					<path class="cls-72" d="M56.05,279.82A6.45,6.45,0,0,0,53.46,277l-21.82-12.6a6.55,6.55,0,0,0-6.55,0L3.27,277a6.4,6.4,0,0,0-1.91,1.71l27,16.56Z"/>
					<path class="cls-73" d="M.68,279.82A6.56,6.56,0,0,0,0,282.7v25.2a6.54,6.54,0,0,0,3.27,5.66l21.82,12.6a6.54,6.54,0,0,0,3.28.88V295.3Z"/>
					<path class="cls-74" d="M28.37,295.3l-27-16.56a6.76,6.76,0,0,0-.68,1.08Z"/>
					<path class="cls-75" d="M28.37,295.3l-27-16.56a6.76,6.76,0,0,0-.68,1.08Z"/>
					<path class="cls-76" d="M1.36,278.74a6.76,6.76,0,0,0-.68,1.08A6.56,6.56,0,0,0,0,282.7v25.2a6.54,6.54,0,0,0,3.27,5.66l21.82,12.6a6.54,6.54,0,0,0,3.28.88V295.3Z"/>
				</g>
				<g class="animation_up2">
					<path class="cls-77" d="M49.3,235.59a4.86,4.86,0,0,0-2-2.11L30.84,224a4.92,4.92,0,0,0-4.95,0l-16.5,9.53a5.3,5.3,0,0,0-2,2.11,4.85,4.85,0,0,0-.51,2.17v19.06a4.94,4.94,0,0,0,2.47,4.28l16.5,9.53a5,5,0,0,0,4.95,0l16.5-9.53a4.93,4.93,0,0,0,2.48-4.28V237.76A4.85,4.85,0,0,0,49.3,235.59Z"/>
					<path class="cls-78" d="M42.64,239.31l-14.27,8v16.37a3.44,3.44,0,0,0,1.69-.46l11.25-6.49A3.38,3.38,0,0,0,43,253.79v-13A3.29,3.29,0,0,0,42.64,239.31Z"/>
					<path class="cls-79" d="M42.64,239.31a3.36,3.36,0,0,0-1.33-1.44l-11.25-6.49a3.35,3.35,0,0,0-3.38,0l-11.25,6.49a3.37,3.37,0,0,0-1,.89l13.93,8.53Z"/>
					<path class="cls-80" d="M42.64,239.31a3.36,3.36,0,0,0-1.33-1.44l-11.25-6.49a3.35,3.35,0,0,0-3.38,0l-11.25,6.49a3.37,3.37,0,0,0-1,.89l13.93,8.53Z"/>
					<path class="cls-81" d="M14.09,239.31a3.43,3.43,0,0,0-.35,1.48v13a3.39,3.39,0,0,0,1.69,2.92l11.25,6.49a3.38,3.38,0,0,0,1.69.46V247.29Z"/>
					<path class="cls-82" d="M28.37,247.29l-13.93-8.53a3.43,3.43,0,0,0-.35.55Z"/>
					<path class="cls-83" d="M28.37,247.29l-13.93-8.53a3.43,3.43,0,0,0-.35.55Z"/>
					<path class="cls-84" d="M14.44,238.76a3.27,3.27,0,0,0-.7,2v13a3.39,3.39,0,0,0,1.69,2.92l11.25,6.49a3.38,3.38,0,0,0,1.69.46V247.29Z"/>
				</g>
				<g class="animation_up1">
					<path class="cls-85" d="M40.74,207.64a3,3,0,0,0-1.16-1.25l-9.75-5.62a2.88,2.88,0,0,0-2.92,0l-9.75,5.62a2.9,2.9,0,0,0-.86.77,3,3,0,0,0-.3.48,2.85,2.85,0,0,0-.31,1.29v11.26a2.92,2.92,0,0,0,1.47,2.53l9.75,5.63a2.93,2.93,0,0,0,2.92,0l9.75-5.63A2.91,2.91,0,0,0,41,220.19V208.93A3,3,0,0,0,40.74,207.64Z"/>
					<path class="cls-86" d="M36.8,209.84l-8.43,4.72v9.67a1.94,1.94,0,0,0,1-.27L36,220.12a2,2,0,0,0,1-1.72v-7.68A2,2,0,0,0,36.8,209.84Z"/>
					<path class="cls-87" d="M36.8,209.84A2,2,0,0,0,36,209l-6.65-3.84a2,2,0,0,0-2,0L20.72,209a2.23,2.23,0,0,0-.58.52l8.23,5.05Z"/>
					<path class="cls-88" d="M36.8,209.84A2,2,0,0,0,36,209l-6.65-3.84a2,2,0,0,0-2,0L20.72,209a2.23,2.23,0,0,0-.58.52l8.23,5.05Z"/>
					<path class="cls-89" d="M19.93,209.84a2,2,0,0,0-.2.88v7.68a2,2,0,0,0,1,1.72L27.37,224a2,2,0,0,0,1,.27v-9.67Z"/>
					<path class="cls-90" d="M28.37,214.56l-8.23-5.05a3,3,0,0,0-.21.33Z"/>
					<path class="cls-91" d="M28.37,214.56l-8.23-5.05a3,3,0,0,0-.21.33Z"/>
					<path class="cls-92" d="M20.14,209.51a3,3,0,0,0-.21.33,2,2,0,0,0-.2.88v7.68a2,2,0,0,0,1,1.72L27.37,224a2,2,0,0,0,1,.27v-9.67Z"/>
				</g>
				<path class="cls-11" d="M395,349.48,280.5,283.38a6,6,0,0,1,0-10.4L395,206.88a20,20,0,0,1,20,0L529.48,273a6,6,0,0,1,0,10.39L415,349.48A20,20,0,0,1,395,349.48Z"/>
				<path class="cls-12" d="M395,345.48,280.5,279.38a6,6,0,0,1,0-10.4L395,202.88a20,20,0,0,1,20,0L529.48,269a6,6,0,0,1,0,10.39L415,345.48A20,20,0,0,1,395,345.48Z"/>
				<g class="animation_up3">
					<path class="cls-93" d="M562.31,50.15l-17.48,9.77V80a4.14,4.14,0,0,0,2.07-.55l13.77-8a4.13,4.13,0,0,0,2.07-3.58V52A4.16,4.16,0,0,0,562.31,50.15Z"/>
					<path class="cls-94" d="M562.31,50.15a4.1,4.1,0,0,0-1.64-1.76l-13.77-8a4.19,4.19,0,0,0-4.14,0l-13.77,8a4,4,0,0,0-1.21,1.08l17.05,10.45Z"/>
					<path class="cls-95" d="M562.31,50.15a4.1,4.1,0,0,0-1.64-1.76l-13.77-8a4.19,4.19,0,0,0-4.14,0l-13.77,8a4,4,0,0,0-1.21,1.08l17.05,10.45Z"/>
					<path class="cls-96" d="M527.35,50.15a4.16,4.16,0,0,0-.43,1.81V67.87A4.13,4.13,0,0,0,529,71.45l13.77,8a4.14,4.14,0,0,0,2.07.55v-20Z"/>
					<path class="cls-97" d="M544.83,59.92,527.78,49.47a4.34,4.34,0,0,0-.43.68Z"/>
					<path class="cls-98" d="M544.83,59.92,527.78,49.47a4.34,4.34,0,0,0-.43.68Z"/>
					<path class="cls-99" d="M527.78,49.47a4.34,4.34,0,0,0-.43.68,4.16,4.16,0,0,0-.43,1.81V67.87A4.13,4.13,0,0,0,529,71.45l13.77,8a4.14,4.14,0,0,0,2.07.55v-20Z"/>
				</g>
				<g class="animation_up2">
					<path class="cls-100" d="M558,22.23a3.12,3.12,0,0,0-1.23-1.34l-10.42-6a3.11,3.11,0,0,0-3.12,0l-10.42,6a3.26,3.26,0,0,0-.91.82,3.51,3.51,0,0,0-.33.52,3.2,3.2,0,0,0-.32,1.37v12a3.1,3.1,0,0,0,1.56,2.7l10.42,6a3.11,3.11,0,0,0,3.12,0l10.42-6a3.12,3.12,0,0,0,1.56-2.7v-12A3.07,3.07,0,0,0,558,22.23Z"/>
					<path class="cls-101" d="M553.84,24.58l-9,5V39.94a2.1,2.1,0,0,0,1.06-.28l7.11-4.1a2.12,2.12,0,0,0,1.06-1.85v-8.2A2.12,2.12,0,0,0,553.84,24.58Z"/>
					<path class="cls-102" d="M553.84,24.58a2.05,2.05,0,0,0-.84-.91l-7.11-4.1a2.13,2.13,0,0,0-2.13,0l-7.1,4.1a2.08,2.08,0,0,0-.62.56l8.79,5.38Z"/>
					<path class="cls-103" d="M553.84,24.58a2.05,2.05,0,0,0-.84-.91l-7.11-4.1a2.13,2.13,0,0,0-2.13,0l-7.1,4.1a2.08,2.08,0,0,0-.62.56l8.79,5.38Z"/>
					<path class="cls-104" d="M535.82,24.58a2.09,2.09,0,0,0-.22.93v8.2a2.12,2.12,0,0,0,1.06,1.85l7.1,4.1a2.14,2.14,0,0,0,1.07.28V29.61Z"/>
					<path class="cls-105" d="M544.83,29.61,536,24.23a2.07,2.07,0,0,0-.22.35Z"/>
					<path class="cls-106" d="M544.83,29.61,536,24.23a2.07,2.07,0,0,0-.22.35Z"/>
					<path class="cls-107" d="M536,24.23a2.1,2.1,0,0,0-.44,1.28v8.2a2.12,2.12,0,0,0,1.06,1.85l7.1,4.1a2.14,2.14,0,0,0,1.07.28V29.61Z"/>
				</g>
				<g class="animation_up1">
					<path class="cls-108" d="M552.64,4.59a1.85,1.85,0,0,0-.73-.79L545.75.25a1.83,1.83,0,0,0-1.84,0L537.75,3.8a2.07,2.07,0,0,0-.54.48,2,2,0,0,0-.19.31,1.86,1.86,0,0,0-.19.81v7.11a1.85,1.85,0,0,0,.92,1.6l6.16,3.55a1.82,1.82,0,0,0,1.84,0l6.16-3.55a1.85,1.85,0,0,0,.92-1.6V5.4A1.86,1.86,0,0,0,552.64,4.59Z"/>
					<path class="cls-109" d="M550.15,6l-5.32,3v6.11a1.29,1.29,0,0,0,.63-.17l4.2-2.42a1.28,1.28,0,0,0,.62-1.09V6.53A1.14,1.14,0,0,0,550.15,6Z"/>
					<path class="cls-110" d="M550.15,6a1.21,1.21,0,0,0-.49-.54L545.46,3a1.24,1.24,0,0,0-1.26,0L540,5.44a1.14,1.14,0,0,0-.36.33L544.83,9Z"/>
					<path class="cls-111" d="M550.15,6a1.21,1.21,0,0,0-.49-.54L545.46,3a1.24,1.24,0,0,0-1.26,0L540,5.44a1.14,1.14,0,0,0-.36.33L544.83,9Z"/>
					<path class="cls-112" d="M539.51,6a1.15,1.15,0,0,0-.14.55v4.85a1.26,1.26,0,0,0,.63,1.09l4.2,2.42a1.27,1.27,0,0,0,.63.17V9Z"/>
					<path class="cls-113" d="M544.83,9l-5.19-3.18a.92.92,0,0,0-.13.21Z"/>
					<path class="cls-114" d="M544.83,9l-5.19-3.18a.92.92,0,0,0-.13.21Z"/>
					<path class="cls-115" d="M539.64,5.77a.92.92,0,0,0-.13.21,1.15,1.15,0,0,0-.14.55v4.85a1.26,1.26,0,0,0,.63,1.09l4.2,2.42a1.27,1.27,0,0,0,.63.17V9Z"/>
				</g>
				<polygon class="cls-19" points="194.69 442.38 154.19 419 194.68 395.63 235.18 419 194.69 442.38"/>
				<polygon class="cls-19" points="194.69 435.66 154.19 412.28 194.68 388.9 235.18 412.28 194.69 435.66"/>
				<g class="cls-20">
					<polygon class="cls-116" points="194.69 394.13 163.42 376.08 194.68 358.03 225.95 376.08 194.69 394.13"/>
					<polygon class="cls-117" points="225.95 376.08 225.95 412.28 194.69 430.33 194.69 394.13 225.95 376.08"/>
					<polygon class="cls-118" points="163.42 376.08 163.42 412.28 194.69 430.33 194.69 394.13 163.42 376.08"/>
				</g>
				<polygon class="cls-119" points="194.69 430.33 163.42 412.28 194.68 394.23 225.95 412.28 194.69 430.33"/>
				<polygon class="cls-120" points="235.18 412.28 235.18 419 194.69 442.38 194.69 435.66 235.18 412.28"/>
				<polygon class="cls-19" points="154.19 412.28 154.19 419 194.69 442.38 194.69 435.66 154.19 412.28"/>
				<polygon class="cls-121" points="154.19 412.28 154.19 419 194.69 442.38 194.69 435.66 154.19 412.28"/>
				<polygon class="cls-19" points="194.69 386.16 154.19 362.78 194.68 339.41 235.18 362.79 194.69 386.16"/>
				<polygon class="cls-19" points="194.69 379.44 154.19 356.06 194.68 332.68 235.18 356.06 194.69 379.44"/>
				<polygon class="cls-122" points="194.69 379.44 154.19 356.06 194.68 332.68 235.18 356.06 194.69 379.44"/>
				<polygon class="cls-28" points="194.69 364.71 179.69 356.06 194.68 347.4 209.68 356.06 194.69 364.71"/>
				<polygon class="cls-28" points="194.68 353.28 204.59 359 209.68 356.06 194.68 347.4 179.69 356.06 184.78 359 194.68 353.28"/>
				<polygon class="cls-29" points="194.68 353.28 204.59 359 209.68 356.06 194.68 347.4 179.69 356.06 184.78 359 194.68 353.28"/>
				<polygon class="cls-123" points="235.18 356.06 235.18 362.79 194.69 386.16 194.69 379.44 235.18 356.06"/>
				<polygon class="cls-19" points="154.19 356.06 154.19 362.78 194.69 386.16 194.69 379.44 154.19 356.06"/>
				<polygon class="cls-124" points="154.19 356.06 154.19 362.78 194.69 386.16 194.69 379.44 154.19 356.06"/>
				<polygon class="cls-28" points="194.69 386.16 194.69 435.66 154.19 412.28 154.19 362.78 194.69 386.16"/>
				<polygon class="cls-125" points="163.42 368.11 163.42 412.28 194.69 430.33 225.95 412.28 225.95 368.11 194.69 386.16 163.42 368.11"/>
				<polygon class="cls-126" points="194.69 386.16 194.69 430.33 163.42 412.28 163.42 368.11 194.69 386.16"/>
				<polygon class="cls-127" points="154.19 362.78 154.19 412.28 194.69 435.66 235.18 412.28 235.18 362.79 194.69 386.16 154.19 362.78"/>
				<polygon class="cls-128" points="155.15 356.06 195.16 332.96 194.68 332.68 154.19 356.06 194.69 379.44 195.16 379.16 155.15 356.06"/>
				<polygon class="cls-129" points="154.19 362.78 154.19 412.28 154.75 412.6 154.75 363.11 154.19 362.78"/>
				<polygon class="cls-130" points="235.18 362.78 235.18 412.28 234.62 412.6 234.62 363.11 235.18 362.78"/>
				<polygon class="cls-131" points="194.69 386.16 194.69 386.16 193.73 385.61 193.73 435.11 194.69 435.66 194.69 435.66 194.69 435.66 194.69 435.66 194.69 435.66 195.64 435.11 195.64 385.61 194.69 386.16"/>
				<polygon class="cls-132" points="209.68 356.06 209.68 262.38 179.78 262.38 179.69 356.06 194.69 364.71 209.68 356.06"/>

				<!-- begin bb1 -->
				<g>
					<path class="cls-41" d="M181,319.26a.4.4,0,0,0,.48.28.41.41,0,0,0,.28-.48.4.4,0,0,0-.48-.28A.39.39,0,0,0,181,319.26Z"/>
				</g>
				<g>
					<path class="cls-41" d="M181.46,317a.82.82,0,1,0,.59-1A.83.83,0,0,0,181.46,317Z"/>
				</g>
				<g>
					<path class="cls-41" d="M200.37,315.35a.39.39,0,0,0,.48.28.4.4,0,0,0,.29-.48.4.4,0,0,0-.77.2Z"/>
				</g>
				<g>
					<path class="cls-41" d="M205.11,348.36a.43.43,0,0,1-.62-.05.44.44,0,0,1,.06-.62.44.44,0,0,1,.61.05A.43.43,0,0,1,205.11,348.36Z"/>
				</g>
				<g>
					<path class="cls-41" d="M206.13,346a.92.92,0,0,1-1.19-1.41.91.91,0,0,1,1.29.11A.93.93,0,0,1,206.13,346Z"/>
				</g>
				<g>
					<path class="cls-28" d="M204.72,343.77a.61.61,0,0,0,.14.84.61.61,0,1,0,.7-1A.6.6,0,0,0,204.72,343.77Z"/>
				</g>
				<g>
					<path class="cls-41" d="M205.23,335.74a.61.61,0,1,0,.86-.15A.62.62,0,0,0,205.23,335.74Z"/>
				</g>
				<g>
					<path class="cls-41" d="M207.49,335.83a.4.4,0,0,0,.09.55.39.39,0,1,0-.09-.55Z"/>
				</g>
				<g class="cls-20">
					<path class="cls-29" d="M191.57,355.41a1,1,0,1,0,.71-1.19A1,1,0,0,0,191.57,355.41Z"/>
					<path class="cls-29" d="M194.4,350.12a.68.68,0,0,0,.84.49.69.69,0,0,0-.34-1.34A.71.71,0,0,0,194.4,350.12Z"/>
				</g>
				<g>
					<path class="cls-40" d="M197.85,331.72a1.11,1.11,0,1,1-1.11-1.1A1.11,1.11,0,0,1,197.85,331.72Z"/>
				</g>
				<g>
					<circle class="cls-28" cx="182.85" cy="322.98" r="0.68"/>
				</g>
				<g>
					<circle class="cls-41" cx="187.6" cy="315.27" r="0.69"/>
				</g>
				<g>
					<path class="cls-41" d="M208.39,312.75a.44.44,0,1,1-.44-.44A.44.44,0,0,1,208.39,312.75Z"/>
				</g>
				<g>
					<circle class="cls-41" cx="206.34" cy="310.46" r="0.92"/>
				</g>
				<g>
					<path class="cls-41" d="M186.16,313.88a.45.45,0,1,1-.45-.44A.45.45,0,0,1,186.16,313.88Z"/>
				</g>
				<g>
					<circle class="cls-28" cx="184.93" cy="335.42" r="0.68"/>
				</g>
				<g>
					<path class="cls-41" d="M190.38,327.71a.7.7,0,1,1-.69-.69A.69.69,0,0,1,190.38,327.71Z"/>
				</g>
				<g>
					<circle class="cls-41" cx="187.8" cy="326.33" r="0.44"/>
				</g>
				<g>
					<path class="cls-40" d="M194.23,320.74a1,1,0,1,0,.71-1.19A1,1,0,0,0,194.23,320.74Z"/>
				</g>
				<g>
					<path class="cls-28" d="M204.63,310.07a.6.6,0,1,0,1.17-.3.59.59,0,0,0-.73-.43A.6.6,0,0,0,204.63,310.07Z"/>
				</g>
				<!-- and bb1 -->

				<path class="cls-135" d="M400.18,314.46l-65.62-37.89c-2.66-1.53-2.32-4.21.74-6l64.14-37c3.06-1.77,7.7-2,10.36-.42L475.42,271c2.66,1.54,2.32,4.21-.74,6l-64.14,37C407.48,315.8,402.84,316,400.18,314.46Z"/>
				<g class="cls-136">
					<path class="cls-137" d="M400.18,314.46l-65.62-37.89c-2.66-1.53-2.32-4.21.74-6l64.14-37c3.06-1.77,7.7-2,10.36-.42L475.42,271c2.66,1.54,2.32,4.21-.74,6l-64.14,37C407.48,315.8,402.84,316,400.18,314.46Z"/>
				</g>
				<path class="cls-138" d="M334.56,276.57l5.76,3.33,59.12-34.13c3.06-1.77,7.7-2,10.36-.43l59.86,34.56,5-2.9c3.06-1.77,3.4-4.44.74-6L409.8,233.14c-2.66-1.54-7.3-1.35-10.36.42l-64.14,37C332.24,272.36,331.9,275,334.56,276.57Z"/>
				<g class="cls-139">
					<path class="cls-140" d="M414.83,91.12l-.68-.4c-2.5-1.44-4.54.09-4.54,3.43V314.48a8.89,8.89,0,0,0,.93-.45l8.83-5.09V99.78C419.37,96.44,417.33,92.56,414.83,91.12Z"/>
					<path class="cls-141" d="M433.83,158.62l-.68-.4c-2.5-1.44-4.54.09-4.54,3.43v142l9.76-5.63V167.28C438.37,163.94,436.33,160.06,433.83,158.62Z"/>
					<path class="cls-142" d="M452.83,229.12l-.68-.4c-2.5-1.44-4.54.09-4.54,6.43v57.48l9.76-5.63V237.78C457.37,234.44,455.33,230.56,452.83,229.12Z"/>
					<path class="cls-143" d="M471.83,245.12l-.68-.4c-2.5-1.44-4.54.09-4.54,3.43v33.51l8.07-4.66a6.45,6.45,0,0,0,1.69-1.36V253.78C476.37,250.44,474.33,246.56,471.83,245.12Z"/>
					<path class="cls-144" d="M395.83,90.72l-.68.4c-2.5,1.44-4.54,5.32-4.54,8.66V308.94l9.57,5.52a1.63,1.63,0,0,1,.19.09V94.15C400.37,90.81,398.33,89.28,395.83,90.72Z"/>
					<path class="cls-145" d="M376.83,158.22l-.68.4c-2.5,1.44-4.54,5.32-4.54,8.66V298l9.76,5.63v-142C381.37,158.31,379.33,156.78,376.83,158.22Z"/>
					<path class="cls-146" d="M357.83,228.77l-.68.39c-2.5,1.44-4.54,5.33-4.54,8.67V287l9.76,5.63V232.2C362.37,228.86,360.33,227.32,357.83,228.77Z"/>
					<path class="cls-147" d="M338.83,244.72l-.68.4c-2.5,1.44-4.54,5.32-4.54,8.66v22.07a4.23,4.23,0,0,0,.95.72l8.81,5.09V248.15C343.37,244.81,341.33,243.28,338.83,244.72Z"/>
				</g>
				<path class="cls-148" d="M477.2,88.56H332.77V273.8h0a3,3,0,0,0,1.77,2.77l65.62,37.89c2.66,1.53,7.3,1.34,10.37-.43l64.13-37c1.59-.92,2.43-2.08,2.51-3.2h0Z"/>
				<g class="animation_downMax">
					<ellipse class="cls-149" cx="404.7" cy="90.96" rx="74.76" ry="43.16"/>
					<path class="cls-150" d="M479.46,76.75l-1.85,0c-3-7.69-9.68-15-20.05-21-29.2-16.86-76.53-16.86-105.73,0-9.79,5.65-16.29,12.48-19.52,19.7l-2.34,0V85c-.58,11.46,6.7,23,21.86,31.79,29.2,16.86,76.54,16.86,105.73,0,14.6-8.43,21.9-19.47,21.9-30.52h0Z"/>
					<path class="cls-150" d="M479.46,76.75l-1.85,0c-3-7.69-9.68-15-20.05-21-29.2-16.86-76.53-16.86-105.73,0-9.79,5.65-16.29,12.48-19.52,19.7l-2.34,0V85c-.58,11.46,6.7,23,21.86,31.79,29.2,16.86,76.54,16.86,105.73,0,14.6-8.43,21.9-19.47,21.9-30.52h0Z"/>
					<path class="cls-28" d="M479.46,76.75l-1.85,0c-3-7.69-9.68-15-20.05-21-29.2-16.86-76.53-16.86-105.73,0-9.79,5.65-16.29,12.48-19.52,19.7l-2.34,0V85c-.58,11.46,6.7,23,21.86,31.79,29.2,16.86,76.54,16.86,105.73,0,14.6-8.43,21.9-19.47,21.9-30.52h0Z"/>
					<path class="cls-151" d="M479.46,73.05l-1.85,0c-3-7.69-9.68-15-20.05-21-29.2-16.86-76.53-16.86-105.73,0-9.79,5.65-16.29,12.48-19.52,19.7l-2.34,0V81.3c-.58,11.46,6.7,23,21.86,31.79,29.2,16.86,76.54,16.86,105.73,0,14.6-8.42,21.9-19.47,21.9-30.52h0Z"/>
					<ellipse class="cls-152" cx="404.7" cy="73.05" rx="74.76" ry="43.16"/>
					<g class="cls-20">
						<path class="cls-153" d="M400.16,83a22.41,22.41,0,0,0,6.17.85,20.13,20.13,0,0,0,8.82-1.9c.33-.16.67-.34,1-.53a1.29,1.29,0,0,0,.07-2.41,4.19,4.19,0,0,0-4-.11c-.25.14-.5.28-.75.4a12.69,12.69,0,0,1-8.92.63c-3.06-.89-4.86-2.65-4.82-4.7l.14-9.08H414c1.3,0,2.32-.67,2.29-1.5s-1.11-1.49-2.4-1.49l-15.94,0,0-2.64c0-.94-1.15-1.7-2.6-1.7s-2.65.77-2.68,1.71l-.09,2.63h-4.36c-1.28,0-2.36.67-2.41,1.49s1,1.49,2.27,1.49h4.4l-.3,9.07C392.13,78.6,395.15,81.58,400.16,83Z"/>
						<path class="cls-153" d="M442,76.27c.19-.81-.92-1.58-2.26-1.58h-.64c-1,0-1.79.42-1.94,1-2.29,8.87-14.84,15.61-30.72,16-24.53.54-42.09-13.83-30.6-28.76,3.29-4.54,9.1-8.17,16.08-10.06,15.47-4.3,30.63-.37,39,7.18a2.84,2.84,0,0,0,2.77.36l.34-.14c1-.43,1.2-1.33.45-2-9.21-8.23-25.32-12.66-42-8.73-9.6,2.21-17.55,7.1-21.67,13.38C359.47,79.23,378.19,94.6,405,94.66,424.26,94.7,439.5,86.81,442,76.27Z"/>
						<path class="cls-153" d="M402.63,40.32c-23.2.83-43.88,13.79-47.35,29.69a18.4,18.4,0,0,0,.48,10.06c.3.86,1.86,1.28,3.26.9l0,0c1.14-.31,1.77-1,1.53-1.74a16.71,16.71,0,0,1-.6-8.95c2.86-14.43,21.62-26.24,42.88-27,23.45-.81,44.76,12,47.12,28.05,2.29,15.58-17.86,28.2-44.92,28.13a84.32,84.32,0,0,1-10.58-.69,3.68,3.68,0,0,0-2.47.5c-1.24.87-.49,2.18,1.42,2.42a94.72,94.72,0,0,0,13.64.73C435.41,102,456.4,88.92,455,72.71,453.16,54.37,429,39.38,402.63,40.32Z"/>
					</g>
				</g>
			</g>
		</g>
	</g>
</svg>