<?xml version="1.0" encoding="UTF-8"?>
<svg width="12px" height="14px" viewBox="0 0 12 14" version="1.1" xmlns="http://www.w3.org/2000/svg" xmlns:xlink="http://www.w3.org/1999/xlink">
    <!-- Generator: Sketch 50.2 (55047) - http://www.bohemiancoding.com/sketch -->
    <title>Group</title>
    <desc>Created with Sketch.</desc>
    <defs>
        <polygon id="path-1" points="3.15468827e-07 0.0191603519 11.9946397 0.0191603519 11.9946397 11 3.15468827e-07 11"></polygon>
    </defs>
    <g id="Page-1" stroke="none" stroke-width="1" fill="none" fill-rule="evenodd">
        <g id="Home" transform="translate(-200.000000, -2233.000000)">
            <g id="Group" transform="translate(200.000000, 2233.000000)">
                <g id="Group-3" transform="translate(0.000000, 3.000000)">
                    <mask id="mask-2" fill="white">
                        <use xlink:href="#path-1"></use>
                    </mask>
                    <g id="Clip-2"></g>
                    <path d="M11.6148529,1.51188625 C9.30778676,2.90449921 9.57319853,6.08276444 11.9946397,7.10656405 C11.9209632,7.30344028 11.8520515,7.50340688 11.7719559,7.69898644 C11.3904044,8.63072318 10.8421544,9.46246582 10.1712794,10.2168843 C9.88526471,10.5385208 9.54639706,10.7963617 9.11695588,10.9145955 C8.70622059,11.0276642 8.30088971,10.9920925 7.90444853,10.851513 C7.70790441,10.7818175 7.51718382,10.6963244 7.32370588,10.6183519 C6.63494118,10.3408018 5.94368382,10.3418607 5.25044118,10.6014953 C4.96938971,10.7067625 4.69347794,10.8279138 4.40688971,10.9156544 C3.82003676,11.0952635 3.28334559,10.985847 2.80215441,10.6082811 C2.37511765,10.2732026 2.05164706,9.85008075 1.73353676,9.42131847 C0.852088235,8.23325363 0.315838235,6.90616523 0.0914117647,5.45896287 C-0.0634852941,4.46014558 -0.0443382353,3.46638527 0.327573529,2.50878016 C0.790323529,1.31717112 1.62661765,0.506175049 2.90038235,0.16303556 C3.60344118,-0.0263632613 4.28265441,0.0632791749 4.94761765,0.332422593 C5.19522794,0.43265442 5.44784559,0.521108251 5.69911765,0.612436346 C5.95367647,0.704953045 6.20852206,0.704391159 6.46407353,0.611247741 C6.85972059,0.467037525 7.25384559,0.318310609 7.65304412,0.18417112 C8.94906618,-0.251247348 10.6624412,0.183220236 11.5298382,1.39075658 C11.5570588,1.42864067 11.5834632,1.46712986 11.6148529,1.51188625" id="Fill-1" fill="#FFFFFF" mask="url(#mask-2)"></path>
                </g>
                <path d="M8.97871823,0 C9.19824792,1.51577867 7.68520508,3.12738853 6.0177763,2.99202271 C5.92430823,2.25231741 6.20508085,1.61151506 6.72696773,1.04881493 C7.302816,0.427903143 8.05706194,0.0798466848 8.97871823,0" id="Fill-4" fill="#FFFFFF"></path>
            </g>
        </g>
    </g>
</svg>