<?xml version="1.0" encoding="UTF-8"?>
<svg width="111px" height="97px" viewBox="0 0 111 97" version="1.1" xmlns="http://www.w3.org/2000/svg" xmlns:xlink="http://www.w3.org/1999/xlink">
    <!-- Generator: Sketch 55.1 (78136) - https://sketchapp.com -->
    <title>Group 13</title>
    <desc>Created with Sketch.</desc>
    <g id="Page-1" stroke="none" stroke-width="1" fill="none" fill-rule="evenodd">
        <g id="Staking-Copy-2" transform="translate(-665.000000, -1203.000000)" fill="#350D98" fill-rule="nonzero">
            <g id="Group-13" transform="translate(663.169873, 1203.500000)">
                <path d="M57.830127,8.97253561 L57.830127,55 L56.830127,55 L56.830127,8.97253561 C54.5801518,8.72381347 52.830127,6.81627683 52.830127,4.5 C52.830127,2.01471863 54.8448456,0 57.330127,0 C59.8154084,0 61.830127,2.01471863 61.830127,4.5 C61.830127,6.81627683 60.0801022,8.72381347 57.830127,8.97253561 L57.830127,8.97253561 Z" id="Line-2"></path>
                <path d="M88.660254,61.4725356 L88.660254,107.5 L87.660254,107.5 L87.660254,61.4725356 C85.4102788,61.2238135 83.660254,59.3162768 83.660254,57 C83.660254,54.5147186 85.6749727,52.5 88.160254,52.5 C90.6455354,52.5 92.660254,54.5147186 92.660254,57 C92.660254,59.3162768 90.9102293,61.2238135 88.660254,61.4725356 L88.660254,61.4725356 Z" id="Line-2-Copy" transform="translate(88.160254, 80.000000) rotate(120.000000) translate(-88.160254, -80.000000) "></path>
                <path d="M27,61.4725356 L27,107.5 L26,107.5 L26,61.4725356 C23.7500248,61.2238135 22,59.3162768 22,57 C22,54.5147186 24.0147186,52.5 26.5,52.5 C28.9852814,52.5 31,54.5147186 31,57 C31,59.3162768 29.2499752,61.2238135 27,61.4725356 L27,61.4725356 Z" id="Line-2-Copy-2" transform="translate(26.500000, 80.000000) rotate(-120.000000) translate(-26.500000, -80.000000) "></path>
            </g>
        </g>
    </g>
</svg>