<?xml version="1.0" encoding="UTF-8"?>
<svg width="72px" height="91px" viewBox="0 0 72 91" version="1.1" xmlns="http://www.w3.org/2000/svg" xmlns:xlink="http://www.w3.org/1999/xlink">
    <!-- Generator: Sketch 57.1 (83088) - https://sketch.com -->
    <title>icon-tomox-2</title>
    <desc>Created with Sketch.</desc>
    <g id="Page-1" stroke="none" stroke-width="1" fill="none" fill-rule="evenodd">
        <g id="tomox-1" transform="translate(-934.000000, -2117.000000)" fill="#00A99D" fill-rule="nonzero" stroke="#00A99D" stroke-width="0.3">
            <g id="Group-6" transform="translate(235.000000, 2118.000000)">
                <g id="icon-tomox-2" transform="translate(700.000000, 0.000000)">
                    <path d="M69.0393749,18.1790626 L35.2940626,0.19781256 C34.7934374,-0.06937488 34.1934374,-0.06562512 33.6965626,0.20718744 L0.885,18.1884374 C0.34687488,18.48375 0.013125,19.0481251 0.013125,19.6621874 L0.013125,43.1503126 C0.03281256,62.4581251 11.4721874,79.9256251 29.1628126,87.6609374 L33.7171874,89.6456251 C34.1428126,89.83125 34.6275,89.8321874 35.0540626,89.6475 L40.1859374,87.43125 C58.2046874,79.86375 69.9271874,62.2275 69.9290626,42.6843749 L69.9290626,19.6621874 C69.9290626,19.0415626 69.5868749,18.4706251 69.0393749,18.1790626 L69.0393749,18.1790626 Z M66.5690626,42.6843749 C66.5653126,60.8803126 55.6481251,77.29875 38.8706251,84.3403126 L38.8593749,84.3459374 L34.3903126,86.2753126 L30.5071874,84.58125 C14.04,77.38125 3.39093744,61.1231251 3.37218744,43.1503126 L3.37218744,20.6568749 L34.515,3.58875 L66.5690626,20.6690626 L66.5690626,42.6843749 Z" id="Shape"></path>
                    <path d="M22.1203126,42.0609374 C21.5175,41.355 20.4571874,41.2715626 19.75125,41.8743749 C19.0453126,42.47625 18.9618749,43.5375 19.5646874,44.2425 L28.4390626,54.6346874 C29.0315626,55.3284374 30.0693749,55.4231251 30.77625,54.8475 L51.4443749,38.0325 C52.1643749,37.4475 52.2731251,36.3890626 51.6871874,35.6690626 C51.1021874,34.95 50.04375,34.8403126 49.32375,35.42625 L29.92875,51.2043749 L22.1203126,42.0609374 Z" id="Path"></path>
                </g>
            </g>
        </g>
    </g>
</svg>