<?xml version="1.0" encoding="UTF-8"?>
<svg width="100px" height="120px" viewBox="0 0 100 120" version="1.1" xmlns="http://www.w3.org/2000/svg" xmlns:xlink="http://www.w3.org/1999/xlink">
    <!-- Generator: Sketch 55.1 (78136) - https://sketchapp.com -->
    <title>blockchain (10) copy</title>
    <desc>Created with Sketch.</desc>
    <g id="Page-1" stroke="none" stroke-width="1" fill="none" fill-rule="evenodd">
        <g id="blockchain-(10)-copy">
            <rect id="Rectangle-Copy-10" fill="#161B28" x="0" y="0" width="100" height="120"></rect>
            <path d="M99.1666732,46.4461291 C99.6833613,46.1478207 100.001184,45.5960805 100.000003,44.9994625 L100.000003,31.6661291 C100.001184,31.0695111 99.6833613,30.5177709 99.1666732,30.2194625 L87.5000032,23.5527958 C86.9877371,23.2601792 86.3589425,23.2601792 85.8466732,23.5527958 L74.1800065,30.2194625 C73.6581826,30.5143585 73.3348965,31.0667449 73.3333398,31.6661291 L73.3333398,35.6361291 L63.3333398,30.6361291 L63.3333398,18.3327958 C63.3345172,17.7361777 63.0166946,17.1844376 62.5000032,16.8861291 L50.8333398,10.2194625 C50.3210705,9.92684584 49.6922759,9.92684584 49.1800065,10.2194625 L37.5133398,16.8861291 C36.9915159,17.1810251 36.6682298,17.7334116 36.6666732,18.3327958 L36.6666732,30.6361291 L26.6666732,35.6361291 L26.6666732,31.6661291 C26.6678506,31.0695111 26.3500279,30.5177709 25.8333398,30.2194625 L14.1666732,23.5527958 C13.6544038,23.2601792 13.0256092,23.2601792 12.5133398,23.5527958 L0.846673169,30.2194625 C0.324849252,30.5143585 0.00156317088,31.0667449 3.24207744e-06,31.6661291 L3.24207744e-06,44.9994625 C-0.00117090917,45.5960805 0.316651751,46.1478207 0.833339835,46.4461291 L11.6666732,52.6327958 L11.6666732,67.3661291 L0.833339835,73.5527958 C0.316651751,73.8511043 -0.00117090917,74.4028444 3.24207744e-06,74.9994625 L3.24207744e-06,88.3327958 C-0.00117090917,88.9294139 0.316651751,89.481154 0.833339835,89.7794625 L12.5000032,96.4461291 C13.0122759,96.7387458 13.6410705,96.7387458 14.1533398,96.4461291 L24.9550065,90.2794625 L36.6666732,97.5911291 L36.6666732,101.666129 C36.6654958,102.262747 36.9833184,102.814487 37.5000032,103.112796 L49.1666732,109.779462 C49.6789425,110.072079 50.3077371,110.072079 50.8200065,109.779462 L62.4866732,103.112796 C63.0084971,102.8179 63.3317832,102.265513 63.3333398,101.666129 L63.3333398,97.5911291 L75.0383398,90.2744625 L85.8400065,96.4411291 C86.3522759,96.7337458 86.9810705,96.7337458 87.4933398,96.4411291 L99.1600065,89.7744625 C99.6777134,89.4787442 99.9980237,88.9290053 100.000003,88.3327958 L100.000003,74.9994625 C100.001184,74.4028444 99.6833613,73.8511043 99.1666732,73.5527958 L88.3333398,67.3661291 L88.3333398,52.6327958 L99.1666732,46.4461291 Z M88.3333398,48.7944625 L88.3333398,39.2944625 L96.6666732,34.5327958 L96.6666732,44.0327958 L88.3333398,48.7944625 Z M86.6666732,79.7461291 L78.3583398,74.9994625 L86.6666732,70.2527958 L94.9750065,74.9994625 L86.6666732,79.7461291 Z M76.6666732,34.5377958 L85.0000065,39.2994625 L85.0000065,48.7994625 L76.6666732,44.0327958 L76.6666732,34.5377958 Z M86.6666732,26.9194625 L94.9750065,31.6661291 L86.6666732,36.4127958 L78.3583398,31.6661291 L86.6666732,26.9194625 Z M50.0000065,93.0861291 L41.6916732,88.3327958 L50.0000065,83.5861291 L58.3083398,88.3327958 L50.0000065,93.0861291 Z M40.0000065,56.2044625 L48.3333398,60.9661291 L48.3333398,70.4661291 L40.0000065,65.6994625 L40.0000065,56.2044625 Z M51.6666732,60.9661291 L60.0000065,56.2044625 L60.0000065,65.7044625 L51.6666732,70.4661291 L51.6666732,60.9661291 Z M50.0000065,58.0794625 L41.6916732,53.3327958 L50.0000065,48.5861291 L58.3083398,53.3327958 L50.0000065,58.0794625 Z M40.0000065,21.2044625 L48.3333398,25.9661291 L48.3333398,35.4661291 L40.0000065,30.6994625 L40.0000065,21.2044625 Z M51.6666732,25.9661291 L60.0000065,21.2044625 L60.0000065,30.7044625 L51.6666732,35.4661291 L51.6666732,25.9661291 Z M50.0000065,13.5861291 L58.3083398,18.3327958 L50.0000065,23.0794625 L41.6916732,18.3327958 L50.0000065,13.5861291 Z M15.0000065,39.2994625 L23.3333398,34.5377958 L23.3333398,44.0377958 L15.0000065,48.7994625 L15.0000065,39.2994625 Z M13.3333398,26.9194625 L21.6416732,31.6661291 L13.3333398,36.4127958 L5.0250065,31.6661291 L13.3333398,26.9194625 Z M3.33333984,34.5377958 L11.6666732,39.2994625 L11.6666732,48.7994625 L3.33333984,44.0327958 L3.33333984,34.5377958 Z M13.3333398,79.7461291 L5.0250065,74.9994625 L13.3333398,70.2527958 L21.6416732,74.9994625 L13.3333398,79.7461291 Z M3.33333984,77.8711291 L11.6666732,82.6327958 L11.6666732,92.1327958 L3.33333984,87.3661291 L3.33333984,77.8711291 Z M15.0000065,92.1277958 L15.0000065,82.6277958 L23.3333398,77.8661291 L23.3333398,87.3661291 L15.0000065,92.1277958 Z M26.6666732,87.4077958 L26.6666732,74.9994625 C26.6678506,74.4028444 26.3500279,73.8511043 25.8333398,73.5527958 L15.0000065,67.3661291 L15.0000065,52.6327958 L25.8333398,46.4461291 C26.3500279,46.1478207 26.6678506,45.5960805 26.6666732,44.9994625 L26.6666732,39.3627958 L38.2816732,33.5561291 L48.3333398,39.2994625 L48.3333398,45.6994625 L37.5000065,51.8861291 C36.9833184,52.1844376 36.6654958,52.7361777 36.6666732,53.3327958 L36.6666732,66.6661291 C36.6654958,67.2627472 36.9833184,67.8144873 37.5000065,68.1127958 L48.3333398,74.2994625 L48.3333398,80.6994625 L37.5000065,86.8861291 C36.9833184,87.1844376 36.6654958,87.7361777 36.6666732,88.3327958 L36.6666732,93.6661291 L26.6666732,87.4077958 Z M40.0000065,91.2044625 L48.3333398,95.9661291 L48.3333398,105.466129 L40.0000065,100.699462 L40.0000065,91.2044625 Z M51.6666732,105.461129 L51.6666732,95.9611291 L60.0000065,91.1994625 L60.0000065,100.699462 L51.6666732,105.461129 Z M62.5000065,86.8861291 L51.6666732,80.6994625 L51.6666732,74.2994625 L62.5000065,68.1127958 C63.0166946,67.8144873 63.3345172,67.2627472 63.3333398,66.6661291 L63.3333398,53.3327958 C63.3345172,52.7361777 63.0166946,52.1844376 62.5000065,51.8861291 L51.6666732,45.6994625 L51.6666732,39.2994625 L61.7183398,33.5561291 L73.3333398,39.3627958 L73.3333398,44.9994625 C73.3321624,45.5960805 73.6499851,46.1478207 74.1666732,46.4461291 L85.0000065,52.6327958 L85.0000065,67.3661291 L74.1666732,73.5527958 C73.6499851,73.8511043 73.3321624,74.4028444 73.3333398,74.9994625 L73.3333398,87.4077958 L63.3333398,93.6661291 L63.3333398,88.3327958 C63.3345172,87.7361777 63.0166946,87.1844376 62.5000065,86.8861291 Z M76.6666732,77.8711291 L85.0000065,82.6327958 L85.0000065,92.1327958 L76.6666732,87.3661291 L76.6666732,77.8711291 Z M88.3333398,92.1277958 L88.3333398,82.6277958 L96.6666732,77.8661291 L96.6666732,87.3661291 L88.3333398,92.1277958 Z" id="Shape" fill="#00A99D" fill-rule="nonzero"></path>
        </g>
    </g>
</svg>