<?xml version="1.0" encoding="utf-8"?>
<!-- Generator: Adobe Illustrator 22.0.0, SVG Export Plug-In . SVG Version: 6.00 Build 0)  -->
<svg version="1.1" id="Layer_1" xmlns="http://www.w3.org/2000/svg" xmlns:xlink="http://www.w3.org/1999/xlink" x="0px" y="0px"
	 viewBox="0 0 166 100" style="enable-background:new 0 0 166 100;" xml:space="preserve">
<style type="text/css">
	.st0{fill:#1E86FF;}
	.st1{fill:#B74896;}
	.st2{fill:#FFFFFF;}
	.st3{fill:none;}
	@keyframes TomoPlus1 {
		0% {
			transform: translateY(0px);
		}
		50% {
			transform: translateY(-15px);
		}
		100% {
			transform: translateY(0px);
		}
	}
	.plus1 {
		animation-name: TomoPlus1;
		animation-iteration-count: infinite;
		animation-duration: 3s;
	}
	@keyframes TomoPlus2 {
		0% {
			transform: translateY(0px);
		}
		50% {
			transform: translateY(15px);
		}
		100% {
			transform: translateY(0px);
		}
	}
	.plus2 {
		animation-name: TomoPlus2;
		animation-iteration-count: infinite;
		animation-duration: 3s;
	}
</style>
<title>Reward tracking</title>
<desc>Created with Sketch.</desc>
<g id="Page-1">
	<g id="ld-game-1-copy" transform="translate(-318.000000, -1501.000000)">
		<g id="Group-15" transform="translate(318.000000, 1501.000000)">
			<g class="plus1">
				<g id="Group-9-Copy" transform="translate(142.057692, 56.451613)">
					<ellipse id="Oval" class="st0" cx="12" cy="12.1" rx="12" ry="12.1"/>
				</g>
				<path id="trophy---anticon" class="st2" d="M157.5,68.8c-0.2,0.7-0.5,1.3-1.1,1.8c-0.5,0.5-1.2,0.8-1.9,0.9v2.6h4.4
					c0.1,0,0.3,0,0.4,0.1c0.1,0.1,0.1,0.2,0.1,0.4c0,0.1,0,0.3-0.1,0.4c-0.1,0.1-0.2,0.1-0.4,0.1h-9.8c-0.1,0-0.3,0-0.4-0.1
					c-0.1-0.1-0.1-0.2-0.1-0.4c0-0.1,0-0.3,0.1-0.4c0.1-0.1,0.2-0.1,0.4-0.1h4.4v-2.6c-0.7-0.1-1.4-0.4-1.9-0.9
					c-0.5-0.5-0.9-1.1-1.1-1.8h-0.1c-0.5,0-0.9-0.2-1.3-0.5c-0.4-0.4-0.5-0.8-0.5-1.3v-3.6h1.8c0-0.3,0.1-0.5,0.3-0.6
					c0.2-0.2,0.4-0.3,0.7-0.3h5.2c0.3,0,0.5,0.1,0.7,0.3c0.2,0.2,0.3,0.4,0.3,0.6h1.8v3.6c0,0.5-0.2,0.9-0.5,1.3
					c-0.4,0.4-0.8,0.5-1.3,0.5H157.5z M157.6,64.3v3.4c0.2,0,0.4-0.1,0.6-0.2c0.2-0.2,0.2-0.3,0.2-0.6v-2.6H157.6z M150.4,67.7v-3.4
					h-0.8v2.6c0,0.2,0.1,0.4,0.2,0.6C150,67.7,150.2,67.7,150.4,67.7z M155.9,69.7c0.5-0.5,0.8-1.1,0.8-1.8v-4.4h-5.2v4.4
					c0,0.7,0.3,1.3,0.8,1.8c0.5,0.5,1.1,0.8,1.8,0.8C154.7,70.5,155.3,70.2,155.9,69.7z"
				/>
			</g>
			<g id="Group-12">
				<g class="plus2">
					<g id="Group-4-Copy">
						<ellipse id="Oval-Copy-9" class="st1" cx="16" cy="16.1" rx="16" ry="16.1"/>
					</g>
					<path id="bar-chart---anticon" class="st2" d="M9.5,22.7h13.7c0.2,0,0.4,0.1,0.5,0.2c0.1,0.1,0.2,0.3,0.2,0.5
						c0,0.2-0.1,0.4-0.2,0.5c-0.1,0.1-0.3,0.2-0.5,0.2H8.8c-0.2,0-0.4-0.1-0.5-0.2C8.1,23.9,8,23.7,8,23.5V8.9c0-0.2,0.1-0.4,0.2-0.5
						c0.1-0.1,0.3-0.2,0.5-0.2s0.4,0.1,0.5,0.2s0.2,0.3,0.2,0.5V22.7z M13.5,12.9v7.8c0,0.2-0.1,0.4-0.2,0.5
						c-0.1,0.1-0.3,0.2-0.5,0.2s-0.4-0.1-0.5-0.2c-0.1-0.1-0.2-0.3-0.2-0.5v-7.8c0-0.2,0.1-0.4,0.2-0.5c0.1-0.1,0.3-0.2,0.5-0.2
						s0.4,0.1,0.5,0.2C13.4,12.5,13.5,12.7,13.5,12.9z M21.5,10.2v10.5c0,0.2-0.1,0.4-0.2,0.5c-0.1,0.1-0.3,0.2-0.5,0.2
						s-0.4-0.1-0.5-0.2C20,21.1,20,20.9,20,20.7V10.2c0-0.2,0.1-0.4,0.2-0.5c0.1-0.1,0.3-0.2,0.5-0.2s0.4,0.1,0.5,0.2
						C21.4,9.8,21.5,10,21.5,10.2z M17.5,15.6v5.1c0,0.2-0.1,0.4-0.2,0.5c-0.1,0.1-0.3,0.2-0.5,0.2c-0.2,0-0.4-0.1-0.5-0.2
						c-0.1-0.1-0.2-0.3-0.2-0.5v-5.1c0-0.2,0.1-0.4,0.2-0.5s0.3-0.2,0.5-0.2c0.2,0,0.4,0.1,0.5,0.2C17.4,15.2,17.5,15.4,17.5,15.6z"
					/>
				</g>
			</g>
			<g id="_x23_035" transform="translate(35.115385, 3.225806)">
				<rect id="矩形" x="0" y="0" class="st3" width="95.8" height="96.8"/>
				<path id="路径" class="st2" d="M14.4,68.5c0,1.3-1.1,2.4-2.4,2.4s-2.4-1.1-2.4-2.4V16.1c0-3.6,2.9-6.5,6.4-6.5h63.8
					c3.5,0,6.4,2.9,6.4,6.5v64.5c0,3.6-2.9,6.5-6.4,6.5H20c-1.3,0-2.4-1.1-2.4-2.4s1.1-2.4,2.4-2.4h59.9c0.9,0,1.6-0.7,1.6-1.6V16.1
					c0-0.9-0.7-1.6-1.6-1.6H16c-0.9,0-1.6,0.7-1.6,1.6V68.5z"/>
				<path id="直线" class="st0" d="M27.5,52.4c0-1.3,1.1-2.4,2.4-2.4c1.3,0,2.4,1.1,2.4,2.4v12.1c0,1.3-1.1,2.4-2.4,2.4
					c-1.3,0-2.4-1.1-2.4-2.4V52.4z"/>
				<path id="直线_1_" class="st0" d="M63.4,44.4c0-1.3,1.1-2.4,2.4-2.4s2.4,1.1,2.4,2.4v20.2c0,1.3-1.1,2.4-2.4,2.4
					s-2.4-1.1-2.4-2.4V44.4z"/>
				<path id="直线_2_" class="st2" d="M45.5,32.3c0-1.3,1.1-2.4,2.4-2.4c1.3,0,2.4,1.1,2.4,2.4v32.3c0,1.3-1.1,2.4-2.4,2.4
					c-1.3,0-2.4-1.1-2.4-2.4V32.3z"/>
				<path id="椭圆形" class="st0" d="M65.8,36.3c2.2,0,4-1.8,4-4s-1.8-4-4-4c-2.2,0-4,1.8-4,4S63.6,36.3,65.8,36.3z"/>
			</g>
		</g>
	</g>
</g>
</svg>
