<?xml version="1.0" encoding="UTF-8"?>
<svg width="125px" height="122px" viewBox="0 0 125 122" version="1.1" xmlns="http://www.w3.org/2000/svg" xmlns:xlink="http://www.w3.org/1999/xlink">
    <!-- Generator: Sketch 55.1 (78136) - https://sketchapp.com -->
    <title>icon_es_st_7</title>
    <desc>Created with Sketch.</desc>
    <defs>
        <filter x="-87.9%" y="-92.1%" width="275.8%" height="284.1%" filterUnits="objectBoundingBox" id="filter-1">
            <feOffset dx="0" dy="0" in="SourceAlpha" result="shadowOffsetOuter1"></feOffset>
            <feGaussianBlur stdDeviation="15" in="shadowOffsetOuter1" result="shadowBlurOuter1"></feGaussianBlur>
            <feColorMatrix values="0 0 0 0 0.698039216   0 0 0 0 0.596078431   0 0 0 0 0.933333333  0 0 0 0.398410184 0" type="matrix" in="shadowBlurOuter1" result="shadowMatrixOuter1"></feColorMatrix>
            <feMerge>
                <feMergeNode in="shadowMatrixOuter1"></feMergeNode>
                <feMergeNode in="SourceGraphic"></feMergeNode>
            </feMerge>
        </filter>
        <linearGradient x1="85.1612209%" y1="0%" x2="14.8387791%" y2="100%" id="linearGradient-2">
            <stop stop-color="#A088FF" offset="0%"></stop>
            <stop stop-color="#8163FF" offset="100%"></stop>
        </linearGradient>
        <linearGradient x1="100%" y1="9.78216631%" x2="1.11022302e-14%" y2="90.2178337%" id="linearGradient-3">
            <stop stop-color="#A088FF" offset="0%"></stop>
            <stop stop-color="#8163FF" offset="100%"></stop>
        </linearGradient>
        <linearGradient x1="0%" y1="22.7034989%" x2="100%" y2="77.2965011%" id="linearGradient-4">
            <stop stop-color="#A088FF" offset="0%"></stop>
            <stop stop-color="#8163FF" offset="100%"></stop>
        </linearGradient>
        <linearGradient x1="100%" y1="50%" x2="0%" y2="50%" id="linearGradient-5">
            <stop stop-color="#AD91F6" offset="0%"></stop>
            <stop stop-color="#D1B2FB" offset="100%"></stop>
        </linearGradient>
        <linearGradient x1="30.4206358%" y1="11.9135753%" x2="71.4581097%" y2="86.4735176%" id="linearGradient-6">
            <stop stop-color="#FD7DB3" offset="0%"></stop>
            <stop stop-color="#FF9E98" offset="100%"></stop>
        </linearGradient>
    </defs>
    <g id="Page-1" stroke="none" stroke-width="1" fill="none" fill-rule="evenodd">
        <g id="TomoZ-1-Copy-5" transform="translate(-926.000000, -1120.000000)">
            <g id="icon_es_st_7" transform="translate(931.000000, 1120.000000)">
                <circle id="Oval" fill="#F8F5FF" cx="60" cy="60" r="60"></circle>
                <g id="Group-18" filter="url(#filter-1)" transform="translate(24.764706, 31.352941)">
                    <g id="Group-17" transform="translate(5.470588, 0.882353)">
                        <path d="M13.1988307,5.85513199 L42.7501936,5.79296405 C43.8547606,5.79064034 44.7520729,6.68418512 44.7543966,7.78875218 C44.7544025,7.79155374 44.7544025,7.79435531 44.7543966,7.79715687 L44.6787639,43.8362869 C44.6764527,44.9375731 43.784262,45.8297684 42.6829758,45.8320852 L13.1316129,45.8942531 C12.0270458,45.8965769 11.1297336,45.0030321 11.1274099,43.898465 C11.127404,43.8956635 11.127404,43.8928619 11.1274098,43.8900603 L11.2030426,7.85093032 C11.2053537,6.74964406 12.0975445,5.8574488 13.1988307,5.85513199 Z" id="Rectangle-Copy-36" fill="url(#linearGradient-2)" transform="translate(27.940903, 25.843609) rotate(-30.000000) translate(-27.940903, -25.843609) "></path>
                        <polygon id="Rectangle-Copy-39" fill="#000000" opacity="0.05" transform="translate(21.563944, 28.217070) rotate(-9.000000) translate(-21.563944, -28.217070) " points="7.30057337 13.813959 38.6971379 7.19683575 39.9542089 10.5453745 39.4106092 45.78882 3.17367813 49.2373046"></polygon>
                        <path d="M9.87616308,10.1647361 L50.5715643,10.115264 C51.676133,10.1139213 52.5726513,11.0082625 52.5739941,12.1128312 C52.5739961,12.1144487 52.5739961,12.1160662 52.5739941,12.1176837 L52.5303233,48.1923455 C52.5289884,49.2950196 51.6354302,50.1885824 50.5327561,50.1899229 L9.83735487,50.2393949 C8.73278618,50.2407377 7.8362678,49.3463964 7.83492501,48.2418277 C7.83492305,48.2402102 7.83492304,48.2385928 7.834925,48.2369753 L7.87859588,12.1623135 C7.87993074,11.0596393 8.77348893,10.1660766 9.87616308,10.1647361 Z" id="Rectangle-Copy-37" fill="url(#linearGradient-3)" transform="translate(30.204460, 30.177329) rotate(-15.000000) translate(-30.204460, -30.177329) "></path>
                        <polygon id="Rectangle-Copy-38" fill="#000000" opacity="0.049865" transform="translate(28.700691, 32.490189) rotate(-9.000000) translate(-28.700691, -32.490189) " points="8.05690169 12.7501349 51.418374 15.3279048 51.879586 19.6909662 51.8039009 52.1954638 5.5217965 52.2302438"></polygon>
                        <rect id="Rectangle" fill="url(#linearGradient-4)" x="3.20686069" y="16.2225679" width="54.2553191" height="40.0876697" rx="2"></rect>
                        <path d="M5.20686069,16.2225679 C13.8344791,16.2225679 22.4620975,16.2225679 31.0897159,16.2225679 C20.2501382,16.2225679 10.9558531,20.2285064 3.20686069,28.2403836 L3.20686069,18.2225679 C3.20686069,17.1179984 4.10229119,16.2225679 5.20686069,16.2225679 Z" id="Rectangle-Copy-34" fill="#FFFFFF" opacity="0.200000003"></path>
                        <rect id="Rectangle-Copy-30" fill="#FFFFFF" opacity="0.200000003" x="3.20686069" y="24.2401018" width="54.2553191" height="1.60350679"></rect>
                        <rect id="Rectangle-Copy-32" fill="#FFFFFF" opacity="0.200000003" x="3.20686069" y="35.4646493" width="54.2553191" height="1.60350679"></rect>
                        <path d="M47.8995078,33.8611425 L57.4468085,33.8611425 L57.4468085,45.08569 L47.8995078,45.08569 C44.7999346,45.08569 42.287234,42.5729895 42.287234,39.4734163 C42.287234,36.3738431 44.7999346,33.8611425 47.8995078,33.8611425 Z" id="Rectangle-Copy-35" fill="#000000" opacity="0.05"></path>
                        <path d="M47.9148791,30.654129 L58.8557969,30.654129 C59.4080816,30.654129 59.8557969,31.1018442 59.8557969,31.654129 L59.8557969,40.8786765 C59.8557969,41.4309612 59.4080816,41.8786765 58.8557969,41.8786765 L47.9148791,41.8786765 C44.8153059,41.8786765 42.3026054,39.3659759 42.3026054,36.2664027 C42.3026054,33.1668295 44.8153059,30.654129 47.9148791,30.654129 Z" id="Rectangle-Copy-33" fill="url(#linearGradient-5)"></path>
                        <rect id="Rectangle-Copy-31" fill="#FFFFFF" opacity="0.200000003" x="3.20686069" y="46.6891968" width="54.2553191" height="1.60350679"></rect>
                        <ellipse id="Oval" fill="#FFFFFF" opacity="0.5" cx="47.8877117" cy="36.2664027" rx="1.59574468" ry="1.60350679"></ellipse>
                    </g>
                    <g id="Group-22" transform="translate(0.529412, 30.529412)">
                        <path d="M8.47058824,0.382352941 L24.8235294,0.382352941 C25.9280989,0.382352941 26.8235294,1.27778344 26.8235294,2.38235294 L26.8235294,26.5 L8.47058824,26.5 L8.47058824,0.382352941 Z" id="Rectangle-Copy-40" fill="#000000" opacity="0.05"></path>
                        <rect id="Rectangle" fill="url(#linearGradient-6)" x="-9.09494702e-13" y="4.23529412" width="21.1764706" height="26.8235294" rx="2"></rect>
                        <path d="M2,4.23529412 C6.50980392,4.23529412 11.0196078,4.23529412 15.5294118,4.23529412 C9.49228738,4.23529412 4.31581679,7.76470588 -9.09494702e-13,14.8235294 L-9.09494702e-13,6.23529412 C-9.09629973e-13,5.13072462 0.8954305,4.23529412 2,4.23529412 Z" id="Rectangle-Copy-34" fill="#FFFFFF" opacity="0.200000003"></path>
                    </g>
                    <path d="M15.7286171,43.4786633 C15.7776936,43.7078312 15.8022316,44.0147477 15.8022316,44.3994223 C15.8022316,44.9641572 15.7367971,45.5861748 15.6059262,46.2654937 C15.4668759,47.0184737 15.276707,47.6875518 15.0354139,48.2727482 C14.7941207,48.8579445 14.530338,49.2937661 14.244058,49.5802258 C14.0395723,49.78484 13.6387862,50.0508343 13.0416879,50.3782169 C12.910817,50.4436934 12.7594998,50.5214456 12.5877318,50.6114758 C12.4486815,51.0943652 12.1624057,51.6795528 11.728896,52.3670562 C11.2381302,53.1691435 10.8046269,53.7093167 10.4283732,53.9875919 C10.3465789,54.0448839 10.2566065,54.0735294 10.1584533,54.0735294 C10.1175562,54.0735294 10.0766596,54.0694372 10.0357625,54.0612526 C9.8967122,54.0203298 9.80265017,53.9303009 9.75357359,53.7911633 C9.71267644,53.7011331 9.67586956,53.6151965 9.64315184,53.5333508 C9.39776895,52.8867702 9.20964489,52.4284415 9.07877402,52.1583508 L6.72311006,49.7889312 C6.46136832,49.6579782 6.00741678,49.469736 5.36124184,49.2241991 C5.32852412,49.2160145 5.28149311,49.1996456 5.22014738,49.1750919 C5.15880166,49.1505382 5.1158603,49.1341693 5.09132201,49.1259848 C4.95227171,49.0768774 4.86229933,48.9807102 4.82140218,48.8374803 C4.78050503,48.6942504 4.80504296,48.5653455 4.89501668,48.4507616 C5.18129672,48.0742716 5.72113098,47.6364039 6.51453565,47.1371455 C7.19342831,46.7115481 7.77824876,46.4250926 8.26901453,46.2777705 C8.35080883,46.1222638 8.42851225,45.9749438 8.50212711,45.8358062 C8.8293043,45.2465175 9.09513177,44.8495721 9.29961752,44.644958 C9.52864154,44.4157902 9.84763452,44.1989025 10.256606,43.9942883 C10.657398,43.8060434 11.1154392,43.6382623 11.6307433,43.4909401 C12.6449926,43.2126649 13.6060611,43.0735294 14.5139778,43.0735294 C14.8820522,43.0735294 15.1765072,43.102175 15.3973518,43.1594669 L15.6550026,43.2208508 L15.7286171,43.4786633 Z M7.61875313,47.6773241 C7.64329142,47.6200321 7.67191899,47.5504643 7.70463671,47.4686187 C7.47561268,47.5913872 7.23432313,47.7305227 6.98076081,47.8860294 C6.62904533,48.1070127 6.31823167,48.3279926 6.04831049,48.5489758 C6.48182026,48.7126671 6.81717185,48.8518026 7.05437531,48.9663866 C7.25886105,48.4916818 7.44698511,48.0619986 7.61875313,47.6773241 Z M10.992751,51.9005383 C11.1481601,51.6468168 11.2831187,51.4053758 11.3976307,51.176208 C11.2831187,51.2334999 11.2217739,51.2621455 11.2135945,51.2621455 C10.7964436,51.4503905 10.3629403,51.6386326 9.91307167,51.8268776 C10.0275837,52.0805991 10.1666319,52.4161613 10.3302205,52.8335741 C10.5510651,52.5634834 10.7719064,52.2524746 10.992751,51.9005383 Z M14.9188576,44.3871455 C14.9188576,44.2398233 14.9147679,44.1006878 14.9065885,43.9697348 C14.7920765,43.9615502 14.6652972,43.957458 14.5262469,43.957458 C13.6837657,43.957458 12.8004005,44.0884091 11.876125,44.3503151 C11.4098975,44.4730836 11.0009321,44.6204036 10.6492167,44.7922794 C10.3220395,44.9477861 10.0807499,45.1032905 9.92534075,45.2587973 C9.78629045,45.4061194 9.57362847,45.7416816 9.28734843,46.2654937 C9.02560668,46.7401985 8.73524129,47.3294783 8.41624353,48.0333508 C8.19539893,48.5326093 7.97455764,49.0482291 7.75371304,49.5802258 L9.29961752,51.1271008 C9.87217759,50.8897485 10.3874739,50.6687685 10.845522,50.4641544 C11.5489529,50.1449564 12.137863,49.8544087 12.61227,49.5925026 C13.1439329,49.3060429 13.4792845,49.0932474 13.6183348,48.9541098 C13.8309999,48.7413111 14.0354836,48.3852879 14.2317889,47.8860294 C14.4444541,47.3622173 14.6162195,46.7688452 14.7470904,46.1058955 C14.8616024,45.4838686 14.9188576,44.9109576 14.9188576,44.3871455 Z M6.29369216,51.519958 C6.58815162,51.519958 6.83966531,51.6243096 7.04824077,51.833016 C7.25681622,52.0417224 7.36110239,52.2893018 7.36110239,52.5757616 C7.36110239,52.8131139 7.28953345,53.0259094 7.14639343,53.2141544 C7.00325341,53.4023994 6.82126383,53.5333505 6.60041923,53.6070116 L5.07905293,54.0612526 C5.06269407,54.0694372 5.0422458,54.0735294 5.01770751,54.0735294 C4.96045151,54.0735294 4.91137566,54.0530683 4.87047852,54.0121455 C4.82958137,53.9712227 4.8091331,53.922116 4.8091331,53.8648241 C4.8091331,53.8402704 4.81322275,53.8198093 4.82140218,53.8034401 L5.27535826,52.2688419 C5.34897312,52.0478587 5.47779721,51.8678009 5.66183438,51.7286633 C5.84587154,51.5895257 6.0564887,51.519958 6.29369216,51.519958 Z M11.0909036,47.0021008 C11.0909036,46.7811176 11.1665622,46.5949215 11.3178817,46.4435071 C11.4692011,46.2920926 11.6552804,46.2163866 11.876125,46.2163866 C12.0969696,46.2163866 12.2830488,46.2920926 12.4343682,46.4435071 C12.5856877,46.5949215 12.6613463,46.7811176 12.6613463,47.0021008 C12.6613463,47.2230841 12.5856877,47.4092801 12.4343682,47.5606946 C12.2830488,47.712109 12.0969696,47.7878151 11.876125,47.7878151 C11.6552804,47.7878151 11.4692011,47.712109 11.3178817,47.5606946 C11.1665622,47.4092801 11.0909036,47.2230841 11.0909036,47.0021008 Z" id="î¤" fill="#FFFFFF" fill-rule="nonzero"></path>
                </g>
                <circle id="Oval-Copy-76" fill="#F8C3A7" cx="38.7692308" cy="18.7692308" r="2.76923077"></circle>
                <circle id="Oval-Copy-77" fill="#B9A8F8" cx="35.239819" cy="107.239819" r="2.76923077"></circle>
                <circle id="Oval-Copy-75" fill="#97DCFD" cx="108.846154" cy="63.8461538" r="1.84615385"></circle>
            </g>
        </g>
    </g>
</svg>