<?xml version="1.0" encoding="UTF-8"?>
<svg width="9px" height="14px" viewBox="0 0 9 14" version="1.1" xmlns="http://www.w3.org/2000/svg" xmlns:xlink="http://www.w3.org/1999/xlink">
    <!-- Generator: Sketch 50.2 (55047) - http://www.bohemiancoding.com/sketch -->
    <title>Group 10 Copy</title>
    <desc>Created with Sketch.</desc>
    <defs></defs>
    <g id="Page-1" stroke="none" stroke-width="1" fill="none" fill-rule="evenodd">
        <g id="Home" transform="translate(-393.000000, -2233.000000)" fill="#FFFFFF">
            <g id="Group-26" transform="translate(357.000000, 2221.000000)">
                <g id="Group-10-Copy" transform="translate(36.000000, 12.000000)">
                    <path d="M6.72199275,2.7725009 C6.72087539,2.58611311 6.57217161,2.43538779 6.38833048,2.4342675 C6.2019218,2.43312388 6.04216331,2.59124776 6.04290029,2.77614183 C6.0436135,2.96187612 6.20460822,3.11831957 6.39163501,3.1150754 C6.57333652,3.1119246 6.7231101,2.95662478 6.72199275,2.7725009 Z M2.95649463,2.77065709 C2.95416482,2.58471275 2.79243312,2.43015978 2.60547765,2.43517774 C2.41992482,2.44017235 2.27509614,2.59143447 2.27744973,2.7778456 C2.27977954,2.96252962 2.43357086,3.11708259 2.6130852,3.11514542 C2.80203765,3.11309156 2.95882444,2.9558079 2.95649463,2.77065709 Z M7.11477992,0 C7.19073652,0.073005386 7.18964293,0.148228007 7.13888633,0.238667864 C6.95002897,0.575384201 6.76965878,0.916721724 6.57897086,1.25248115 C6.53634482,1.32756373 6.55018105,1.35902513 6.62074105,1.39601795 C7.24203992,1.72185817 7.73557954,2.18175943 8.10689916,2.76885996 C8.44046633,3.29625853 8.60578784,3.87264632 8.62989426,4.49078815 C8.63229539,4.55308079 8.61541614,4.58806643 8.54528407,4.58384201 C8.50584369,4.58148474 8.46611803,4.58388869 8.42651124,4.58388869 C5.79655841,4.58384201 3.16660558,4.58377199 0.536676519,4.58372531 C0.360870859,4.58372531 0.357518784,4.58356194 0.365839538,4.41395512 C0.407490859,3.56412388 0.741438406,2.83383662 1.31495237,2.20477199 C1.61854105,1.87174327 1.97581048,1.60383124 2.37860633,1.39564452 C2.44987954,1.35879174 2.46309765,1.32688689 2.42054293,1.2520377 C2.23168558,0.919779174 2.05286067,0.582035907 1.86573878,0.248820467 C1.81417388,0.156933573 1.79988595,0.0773231598 1.88459124,0 L2.00345916,0 C2.05412067,0.0828779174 2.10746859,0.164308797 2.15499199,0.248890485 C2.31921992,0.541168761 2.48370935,0.833330341 2.64289727,1.12824596 C2.68614143,1.20841652 2.72299048,1.22258348 2.81687237,1.19123878 C3.1007052,1.09650449 3.38610709,0.994628366 3.67952067,0.941718133 C4.48494595,0.79643088 5.27853199,0.852165171 6.05050784,1.13818851 C6.30681086,1.23313285 6.30448105,1.22545422 6.43682859,0.985666068 C6.61929086,0.655041293 6.80919426,0.328360862 6.99591199,0 L7.11477992,0 Z" id="Fill-1"></path>
                    <path d="M4.6545283,14 L4.3454717,14 C2.1593717,14 0.387169811,12.2601706 0.387169811,10.1140036 L0.387169811,5.92459605 L8.61283019,5.92459605 L8.61283019,10.1140036 C8.61283019,12.2601706 6.8406283,14 4.6545283,14" id="Fill-8"></path>
                </g>
            </g>
        </g>
    </g>
</svg>