<?xml version="1.0" encoding="UTF-8"?>
<svg width="10px" height="11px" viewBox="0 0 10 11" version="1.1" xmlns="http://www.w3.org/2000/svg" xmlns:xlink="http://www.w3.org/1999/xlink">
    <!-- Generator: Sketch 50.2 (55047) - http://www.bohemiancoding.com/sketch -->
    <title>Shape</title>
    <desc>Created with Sketch.</desc>
    <defs></defs>
    <g id="Page-1" stroke="none" stroke-width="1" fill="none" fill-rule="evenodd">
        <g id="Blog-Detail" transform="translate(-1262.000000, -522.000000)" fill="#808AA9">
            <g id="Search" transform="translate(1262.000000, 522.000000)">
                <path d="M9.7575,9.95376984 L7.4475,7.58333333 C9.06607229,5.90305001 9.11539266,3.20579011 7.55939943,1.46371462 C6.0034062,-0.278360869 3.39382088,-0.447549694 1.63869927,1.07985428 C-0.116422352,2.60725826 -0.394752143,5.28967065 1.00721685,7.16578655 C2.40918584,9.04190246 4.99434577,9.4464918 6.8725,8.08373016 L9.2275,10.5134921 C9.37525488,10.6555423 9.60550486,10.6513508 9.7483109,10.5040112 C9.89111694,10.3566717 9.89517943,10.1191122 9.7575,9.96666667 L9.7575,9.95376984 Z M0.93,4.48809524 C0.93,2.49373364 2.49700338,0.876984127 4.43,0.876984127 C6.36299662,0.876984127 7.93,2.49373364 7.93,4.48809524 C7.93,6.48245683 6.36299662,8.09920635 4.43,8.09920635 C2.49700338,8.09920635 0.93,6.48245683 0.93,4.48809524 Z" id="Shape"></path>
            </g>
        </g>
    </g>
</svg>