<?xml version="1.0" encoding="UTF-8"?>
<svg width="87px" height="100px" viewBox="0 0 87 100" version="1.1" xmlns="http://www.w3.org/2000/svg" xmlns:xlink="http://www.w3.org/1999/xlink">
    <!-- Generator: Sketch 57.1 (83088) - https://sketch.com -->
    <title>icon-tomox-6</title>
    <desc>Created with Sketch.</desc>
    <defs>
        <polygon id="path-1" points="0 0.0769747899 86.0504202 0.0769747899 86.0504202 99.8318992 0 99.8318992"></polygon>
    </defs>
    <g id="Page-1" stroke="none" stroke-width="1" fill="none" fill-rule="evenodd">
        <g id="tomox-4" transform="translate(-618.000000, -1408.000000)">
            <g id="icon-tomox-6" transform="translate(618.000000, 1408.000000)">
                <g id="Group-3" transform="translate(0.000000, 0.091092)">
                    <mask id="mask-2" fill="white">
                        <use xlink:href="#path-1"></use>
                    </mask>
                    <g id="Clip-2"></g>
                    <path d="M82.7394958,66.7361008 L3.3092437,66.7361008 L3.3092437,63.4268571 L13.2369748,63.4268571 C14.1512605,63.4268571 14.892437,62.6856807 14.892437,61.771395 C14.892437,60.8571092 14.1512605,60.1159328 13.2369748,60.1159328 L3.3092437,60.1159328 L3.3092437,31.1562689 C3.3092437,27.9629916 5.90756303,25.3646723 9.10084034,25.3646723 L31.5731092,25.3646723 C31.5445378,26.6991261 31.589916,28.0369412 31.7109244,29.371395 C29.0453782,32.2386218 27.5815126,35.9361008 27.5815126,39.873916 C27.5815126,43.8470252 29.0941176,47.6285378 31.8420168,50.5108908 C32.5142857,51.2184538 34.2319328,50.894084 33.9563025,49.3344202 C33.8117647,48.5176134 33.6319328,47.7260168 33.6319328,46.9445042 C33.6319328,44.9999664 34.2201681,43.1512269 35.3109244,41.5898824 C35.492437,41.6873613 35.6957983,41.7461849 35.9109244,41.7461849 L50.1361345,41.7461849 C50.3546218,41.7461849 50.5563025,41.6873613 50.7378151,41.5898824 C51.8285714,43.1512269 52.4168067,44.9999664 52.4168067,46.9445042 C52.4168067,47.7260168 52.2134454,48.5041681 52.0941176,49.3344202 C51.8403361,51.0621513 53.6420168,51.1209748 54.2067227,50.5108908 C56.9445378,47.6167731 58.4672269,43.8470252 58.4672269,39.873916 C58.4554622,35.9361008 57.0033613,32.2268571 54.3378151,29.371395 C54.4588235,28.0369412 54.5042017,26.6991261 54.4756303,25.3646723 L76.9478992,25.3646723 C80.1411765,25.3646723 82.7394958,27.9629916 82.7394958,31.1562689 L82.7394958,66.7361008 Z M82.7394958,74.181479 C82.7394958,77.376437 80.1411765,79.9747563 76.9478992,79.9747563 L9.10084034,79.9747563 C5.90756303,79.9747563 3.3092437,77.376437 3.3092437,74.181479 L3.3092437,70.0453445 L82.7394958,70.0453445 L82.7394958,74.181479 Z M31.805042,96.5226555 L34.4521008,83.284 L51.5966387,83.284 L54.2436975,96.5226555 L31.805042,96.5226555 Z M43.0184874,3.11761345 C45.2504202,5.51761345 47.0756303,8.21845378 48.492437,11.089042 L37.5563025,11.089042 C38.9596639,8.20668908 40.7865546,5.51761345 43.0184874,3.11761345 L43.0184874,3.11761345 Z M53.8588235,32.8033277 C55.2268908,34.8806387 55.9579832,37.3176134 55.9579832,39.873916 C55.9579832,41.7579496 55.5512605,43.5831597 54.794958,45.2520672 C54.4705882,43.0083697 53.5226891,40.9192941 52.0336134,39.1898824 C52.7294118,37.4016471 53.8470588,32.8755966 53.8588235,32.8033277 L53.8588235,32.8033277 Z M34.0151261,39.1898824 C32.5142857,40.9192941 31.5663866,43.0083697 31.2537815,45.2520672 C30.4857143,43.5831597 30.0907563,41.7579496 30.0907563,39.873916 C30.0907563,37.3293782 30.8218487,34.8924034 32.1915966,32.8033277 C32.2016807,32.9008067 33.512605,37.9058487 34.0151261,39.1898824 L34.0151261,39.1898824 Z M34.2907563,25.3646723 C34.3142857,24.2604706 34.3915966,23.1545882 34.5243697,22.0554286 C34.8571429,19.2369412 35.5445378,16.4520672 36.5848739,13.7831597 L49.4537815,13.7831597 C50.4941176,16.4520672 51.1798319,19.2369412 51.5142857,22.0554286 C51.6453782,23.1545882 51.7226891,24.2604706 51.7462185,25.3646723 C51.8453782,30.0403025 50.9848739,34.7176134 49.1697479,39.0285378 L36.8689076,39.0285378 C35.0537815,34.7176134 34.1932773,30.0386218 34.2907563,25.3646723 L34.2907563,25.3646723 Z M76.9478992,22.0554286 L54.2571429,22.0554286 C53.3630252,14.0403025 49.8252101,6.34618487 43.907563,0.428537815 C43.4386555,-0.0403697479 42.610084,-0.0403697479 42.1428571,0.428537815 C36.2235294,6.34618487 32.6840336,14.0369412 31.789916,22.0554286 L9.10084034,22.0554286 C4.08235294,22.0554286 0,26.1377815 0,31.1562689 L0,74.181479 C0,79.1999664 4.08235294,83.284 9.10084034,83.284 L31.0773109,83.284 L28.4285714,96.5226555 L19.8571429,96.5226555 C18.9428571,96.5226555 18.2016807,97.2638319 18.2016807,98.176437 C18.2016807,99.0907227 18.9428571,99.8318992 19.8571429,99.8318992 L66.1915966,99.8318992 C67.1058824,99.8318992 67.8470588,99.0907227 67.8470588,98.176437 C67.8470588,97.2638319 67.1058824,96.5226555 66.1915966,96.5226555 L57.6201681,96.5226555 L54.9714286,83.284 L76.9478992,83.284 C81.9663866,83.284 86.0504202,79.2016471 86.0504202,74.181479 L86.0504202,31.1562689 C86.0504202,26.1377815 81.9663866,22.0554286 76.9478992,22.0554286 L76.9478992,22.0554286 Z" id="Fill-1" fill="#00A99D" mask="url(#mask-2)"></path>
                </g>
                <path d="M37.9646891,43.7163193 C37.1596471,43.7163193 36.5058655,44.3717815 36.5058655,45.1751429 L36.5058655,51.4541345 C36.5058655,52.2574958 37.1596471,52.9112773 37.9646891,52.9112773 C38.7680504,52.9112773 39.4235126,52.2574958 39.4235126,51.4541345 L39.4235126,45.1751429 C39.4235126,44.3717815 38.7680504,43.7163193 37.9646891,43.7163193" id="Fill-4" fill="#00A99D"></path>
                <path d="M43.018437,43.7163193 C42.628521,43.7163193 42.2604538,43.8709412 41.9814622,44.1516134 L41.9696975,44.1616975 C41.7999496,44.3314454 41.6738992,44.5549748 41.6016303,44.8171597 C41.5764202,44.9297647 41.5478487,45.0558151 41.5478487,45.1986723 L41.5478487,57.7432101 C41.5478487,57.8558151 41.5612941,57.9701008 41.5898655,58.0810252 C41.7478487,58.7415294 42.3293613,59.2020336 43.0066723,59.2020336 C43.6823025,59.2020336 44.2654958,58.7415294 44.423479,58.0827059 C44.4505378,57.9701008 44.4654958,57.8558151 44.4654958,57.7432101 L44.4654958,45.1751429 C44.4654958,45.020521 44.4470084,44.8927899 44.4100336,44.7885882 C44.2520504,44.1566555 43.6806218,43.7163193 43.018437,43.7163193" id="Fill-6" fill="#00A99D"></path>
                <path d="M48.0722689,43.7163193 C47.2672269,43.7163193 46.6134454,44.3717815 46.6134454,45.1751429 L46.6134454,51.4541345 C46.6134454,52.2574958 47.2672269,52.9112773 48.0722689,52.9112773 C48.8756303,52.9112773 49.5310924,52.2574958 49.5310924,51.4541345 L49.5310924,45.1785042 C49.5378151,44.7919496 49.3915966,44.4272437 49.1226891,44.1532941 C48.8453782,43.8726218 48.4722689,43.7163193 48.0722689,43.7163193" id="Fill-8" fill="#00A99D"></path>
            </g>
        </g>
    </g>
</svg>