<?xml version="1.0" encoding="UTF-8"?>
<svg width="90px" height="80px" viewBox="0 0 90 80" version="1.1" xmlns="http://www.w3.org/2000/svg" xmlns:xlink="http://www.w3.org/1999/xlink">
    <!-- Generator: Sketch 57.1 (83088) - https://sketch.com -->
    <title>icon-tomox-9</title>
    <desc>Created with Sketch.</desc>
    <g id="Page-1" stroke="none" stroke-width="1" fill="none" fill-rule="evenodd">
        <g id="tomox-4" transform="translate(-635.000000, -2629.000000)" fill="#703DB5" fill-rule="nonzero">
            <g id="icon-tomox-9" transform="translate(635.000000, 2629.000000)">
                <path d="M28.8695652,8.69565217 C28.8695652,9.65625009 28.0910327,10.4347826 27.1304348,10.4347826 C26.1698369,10.4347826 25.3913043,9.65625009 25.3913043,8.69565217 C25.3913043,7.73505426 26.1698369,6.95652174 27.1304348,6.95652174 C28.0910327,6.95652174 28.8695652,7.73505426 28.8695652,8.69565217 Z" id="Path"></path>
                <path d="M21.9130435,8.69565217 C21.9130435,9.65625009 21.134511,10.4347826 20.173913,10.4347826 C19.2133151,10.4347826 18.4347826,9.65625009 18.4347826,8.69565217 C18.4347826,7.73505426 19.2133151,6.95652174 20.173913,6.95652174 C21.134511,6.95652174 21.9130435,7.73505426 21.9130435,8.69565217 Z" id="Path"></path>
                <path d="M14.9565217,8.69565217 C14.9565217,9.65625009 14.1779892,10.4347826 13.2173913,10.4347826 C12.2567934,10.4347826 11.4782609,9.65625009 11.4782609,8.69565217 C11.4782609,7.73505426 12.2567934,6.95652174 13.2173913,6.95652174 C14.1779892,6.95652174 14.9565217,7.73505426 14.9565217,8.69565217 Z" id="Path"></path>
                <path d="M75.826087,24.3478261 L13.2173913,24.3478261 C12.2567934,24.3478261 11.4782609,25.1263586 11.4782609,26.0869565 L11.4782609,36.5217391 C11.4782609,37.482337 12.2567934,38.2608696 13.2173913,38.2608696 L75.826087,38.2608696 C76.7866849,38.2608696 77.5652174,37.482337 77.5652174,36.5217391 L77.5652174,26.0869565 C77.5652174,25.1263586 76.7866849,24.3478261 75.826087,24.3478261 Z M74.0869565,34.7826087 L14.9565217,34.7826087 L14.9565217,27.826087 L74.0869565,27.826087 L74.0869565,34.7826087 Z" id="Shape"></path>
                <path d="M44.5217391,45.2173913 L13.2173913,45.2173913 C12.2567934,45.2173913 11.4782609,45.9959238 11.4782609,46.9565217 L11.4782609,67.826087 C11.4782609,68.7866849 12.2567934,69.5652174 13.2173913,69.5652174 L44.5217391,69.5652174 C45.482337,69.5652174 46.2608696,68.7866849 46.2608696,67.826087 L46.2608696,46.9565217 C46.2608696,45.9959238 45.482337,45.2173913 44.5217391,45.2173913 Z M42.7826087,66.0869565 L14.9565217,66.0869565 L14.9565217,48.6956522 L42.7826087,48.6956522 L42.7826087,66.0869565 Z" id="Shape"></path>
                <path d="M75.826087,45.2173913 L54.9565217,45.2173913 C53.9959238,45.2173913 53.2173913,45.9959238 53.2173913,46.9565217 L53.2173913,67.826087 C53.2173913,68.7866849 53.9959238,69.5652174 54.9565217,69.5652174 L75.826087,69.5652174 C76.7866849,69.5652174 77.5652174,68.7866849 77.5652174,67.826087 L77.5652174,46.9565217 C77.5652174,45.9959238 76.7866849,45.2173913 75.826087,45.2173913 Z M74.0869565,66.0869565 L56.6956522,66.0869565 L56.6956522,48.6956522 L74.0869565,48.6956522 L74.0869565,66.0869565 Z" id="Shape"></path>
                <path d="M46.2608696,1.73913043 C46.2608696,2.69972835 45.482337,3.47826087 44.5217391,3.47826087 C43.5611412,3.47826087 42.7826087,2.69972835 42.7826087,1.73913043 C42.7826087,0.778532522 43.5611412,0 44.5217391,0 C45.482337,0 46.2608696,0.778532522 46.2608696,1.73913043 Z" id="Path"></path>
                <path d="M83.826087,0 L52.3478261,0 C51.3872282,0 50.6086957,0.778532522 50.6086957,1.73913043 C50.6086957,2.69972835 51.3872282,3.47826087 52.3478261,3.47826087 L83.826087,3.47826087 C84.7853261,3.47826087 85.5652174,4.25815217 85.5652174,5.2173913 L85.5652174,13.9130435 L3.47826087,13.9130435 L3.47826087,5.2173913 C3.47826087,4.25815217 4.25815217,3.47826087 5.2173913,3.47826087 L60.6956522,3.47826087 C61.6562501,3.47826087 62.4347826,2.69972835 62.4347826,1.73913043 C62.4347826,0.778532522 61.6562501,0 60.6956522,0 L5.2173913,0 C2.34035322,0 0,2.34035322 0,5.2173913 L0,74.7826087 C0,77.6596468 2.34035322,80 5.2173913,80 L83.826087,80 C86.703125,80 89.0434783,77.6596468 89.0434783,74.7826087 L89.0434783,5.2173913 C89.0434783,2.34035322 86.703125,0 83.826087,0 Z M83.826087,76.5217391 L5.2173913,76.5217391 C4.25815217,76.5217391 3.47826087,75.7418478 3.47826087,74.7826087 L3.47826087,17.3913043 L85.5652174,17.3913043 L85.5652174,74.7826087 C85.5652174,75.7418478 84.7853261,76.5217391 83.826087,76.5217391 Z" id="Shape"></path>
            </g>
        </g>
    </g>
</svg>