<?xml version="1.0" encoding="UTF-8"?>
<svg width="27px" height="8px" viewBox="0 0 27 8" version="1.1" xmlns="http://www.w3.org/2000/svg" xmlns:xlink="http://www.w3.org/1999/xlink">
    <!-- Generator: Sketch 55.1 (78136) - https://sketchapp.com -->
    <title>icon-right</title>
    <desc>Created with Sketch.</desc>
    <g id="Page-1" stroke="none" stroke-width="1" fill="none" fill-rule="evenodd">
        <g id="Staking-Copy-2" transform="translate(-205.000000, -453.000000)">
            <g id="icon-right" transform="translate(205.000000, 453.000000)">
                <path d="M18.5253685,3.46341463 L25.2164806,3.46341463 L22.6985708,0.926829268 C22.5897717,0.821137683 22.5353729,0.695122683 22.5353729,0.548780488 C22.5353729,0.402438293 22.5839432,0.274390793 22.6810853,0.164634146 C22.7782274,0.0548775 22.8967389,0 23.0366235,0 C23.1765081,0 23.3008481,0.04878 23.4096472,0.146341463 L26.8368021,3.6097561 C26.9456013,3.71544768 27,3.84349518 27,3.99390244 C27,4.1443097 26.9456013,4.2723572 26.8368021,4.37804878 L23.3863332,7.85365854 C23.2853054,7.95122 23.1687367,8 23.0366235,8 C22.8889676,8 22.7646276,7.94309 22.6635998,7.82926829 C22.5625721,7.72357671 22.5140018,7.59756171 22.5178875,7.45121951 C22.5217731,7.30487732 22.5742291,7.17886232 22.6752568,7.07317073 L25.1931666,4.53658537 L18.5137115,4.53658537 C18.3815983,4.53658537 18.2650295,4.48780537 18.1640018,4.3902439 C18.0629741,4.29268244 18.0085753,4.17479744 18.0008039,4.03658537 C17.9930326,3.88211305 18.0416029,3.74796805 18.1465163,3.63414634 C18.2514297,3.52032463 18.3777125,3.46341463 18.5253685,3.46341463 Z" id="" fill="#FFAF00" fill-rule="nonzero"></path>
                <path d="M9.5,4 L14.5,4" id="Line" stroke="#FFAF00" stroke-linecap="round"></path>
                <path d="M0.5,4 L5.5,4" id="Line-Copy" stroke="#FFAF00" stroke-linecap="round"></path>
            </g>
        </g>
    </g>
</svg>