<?xml version="1.0" encoding="UTF-8"?>
<svg width="111px" height="93px" viewBox="0 0 111 93" version="1.1" xmlns="http://www.w3.org/2000/svg" xmlns:xlink="http://www.w3.org/1999/xlink">
    <!-- Generator: Sketch 57.1 (83088) - https://sketch.com -->
    <title>icon-tomox-4</title>
    <desc>Created with Sketch.</desc>
    <g id="Page-1" stroke="none" stroke-width="1" fill="none" fill-rule="evenodd">
        <g id="tomox-1" transform="translate(-935.000000, -2465.000000)" fill="#00A99D" fill-rule="nonzero" stroke="#00A99D" stroke-width="0.5">
            <g id="Group-6" transform="translate(235.000000, 2118.000000)">
                <g id="icon-tomox-4" transform="translate(755.983135, 391.128102) rotate(-345.000000) translate(-755.983135, -391.128102) translate(704.983135, 341.128102)">
                    <path d="M53.3100165,60.2684156 C52.6306305,60.2684156 52.0747691,60.8239358 52.0747691,61.5029048 C52.0953566,65.1652227 50.6954096,68.6012176 48.1425651,71.2142197 C45.5897206,73.8272218 42.1516154,75.2674592 38.4870483,75.288034 C34.8224811,75.3086088 31.384376,73.9095211 28.7697691,71.3582435 C26.1551622,68.8069658 24.7140403,65.3709709 24.6934529,61.708653 C24.6728654,58.0463351 26.0728124,54.6103402 28.6256569,51.9973381 C31.1785014,49.384336 34.6166066,47.9440986 38.2811737,47.9235238 C38.9605598,47.9235238 39.5164211,47.3680037 39.5164211,46.6890346 C39.5164211,46.0100656 38.9605598,45.4545455 38.2811737,45.4545455 C33.957808,45.4956951 29.9226666,47.2034051 26.8963106,50.2690533 C23.8699546,53.3347014 22.1817832,57.4496653 22.2229581,61.7498027 C22.2641331,66.0705148 23.9728919,70.1031795 27.0404228,73.127678 C30.1079537,76.1521764 34.18427,77.798162 38.5076357,77.7777778 C42.8310015,77.7364376 46.8661428,76.0287275 49.8924988,72.9630794 C52.9188548,69.8974313 54.5658513,65.823617 54.5454545,61.5029048 C54.5454545,60.8239358 53.9891967,60.2684156 53.3100165,60.2684156 Z" id="Path"></path>
                    <path d="M73.9791861,68.4670543 L69.2765694,66.5118386 C68.6454823,66.2470698 67.9329646,66.5525722 67.6886728,67.1635771 C67.4240234,67.7949489 67.7293881,68.507788 68.3401176,68.7521899 L73.0427343,70.7074057 C74.101332,71.155476 74.6102732,72.357119 74.1624049,73.4161942 L72.0452095,78.5282687 C71.6176989,79.5873439 70.39624,80.0965147 69.3376423,79.6484444 L64.6350256,77.6932286 C64.1057268,77.4691935 63.4746397,77.652495 63.1489173,78.1412989 C60.9706489,81.3999918 58.2020088,84.1698808 54.9651428,86.3287649 C54.4765592,86.6546342 54.2933404,87.2656391 54.5172745,87.8155435 L56.4716087,92.5202814 C56.6751852,93.0294522 56.6751852,93.5997234 56.4716087,94.1088942 C56.2680322,94.618065 55.8608793,95.0254016 55.3519381,95.2290699 L50.2218108,97.3472203 C49.7128696,97.5508886 49.1428554,97.5508886 48.6339142,97.3472203 C48.124973,97.143552 47.71782,96.7362154 47.5142436,96.2270446 L45.5599093,91.5223067 C45.3359752,90.9927691 44.7659611,90.6872666 44.1959469,90.7891008 C40.3483514,91.5630404 36.4600406,91.5630404 32.6124451,90.7891008 C32.042431,90.6668998 31.4724169,90.9724023 31.2484827,91.5223067 L29.2941485,96.2270446 C28.8462803,97.2861198 27.645179,97.7952906 26.5865813,97.3472203 L21.4768116,95.2290699 C20.4182139,94.7809996 19.9092727,93.5793566 20.357141,92.5202814 L22.3114752,87.8155435 C22.5354093,87.2860059 22.3521905,86.6546342 21.863607,86.3287649 C18.6063833,84.149514 15.8377431,81.379625 13.6798324,78.1412989 C13.35411,77.652495 12.7433806,77.4691935 12.1937241,77.6932286 L7.4911074,79.6484444 C6.98216619,79.8521127 6.41215205,79.8521127 5.90321084,79.6484444 C5.39426964,79.4447761 4.98711668,79.0374395 4.7835402,78.5282687 L2.6663448,73.3958273 C2.46276832,72.8866566 2.46276832,72.3163853 2.6663448,71.8072145 C2.86992128,71.2980438 3.27707424,70.8907072 3.78601544,70.6870389 L8.48863215,68.7318231 C9.017931,68.507788 9.32329572,67.9375167 9.22150748,67.3672454 C8.44791686,63.5179144 8.4682745,59.6278498 9.22150748,55.7785188 C9.34365337,55.2082475 9.03828865,54.6379762 8.48863215,54.4139411 L3.76565779,52.4790922 C2.70706009,52.0310219 2.19811889,50.8293789 2.64598715,49.7703037 L4.76318255,44.6582292 C5.21105081,43.599154 6.41215205,43.0899832 7.47074975,43.5380535 L12.1733665,45.4932692 C12.7026653,45.7173044 13.3337524,45.5340029 13.6594748,45.045199 C15.8377431,41.786506 18.6063833,39.0166171 21.8432493,36.857733 C22.3318329,36.5318637 22.5150517,35.9208588 22.2911176,35.3709544 L20.3367833,30.6662165 C20.1332069,30.1570457 20.1332069,29.5867744 20.3367833,29.0776037 C20.5403598,28.5684329 20.9475128,28.1610963 21.456454,27.957428 L26.5865813,25.8392776 C27.0955225,25.6356093 27.6655367,25.6356093 28.1744779,25.8392776 C28.6834191,26.0429459 29.090572,26.4502825 29.2941485,26.9594533 L31.2484827,31.6641912 C31.5131322,32.2955629 32.2256498,32.5806985 32.8363793,32.3159297 C33.4674664,32.0511609 33.7524734,31.3383219 33.487824,30.7273169 L31.5334898,26.022579 C31.0652639,24.9024034 30.2102427,24.0469965 29.090572,23.5785594 C28.5409155,23.3545242 27.9505437,23.2323232 27.3601719,23.2323232 C26.7698001,23.2323232 26.1794283,23.3545242 25.6297719,23.5785594 L20.4996445,25.6967098 C19.3799739,26.1651469 18.5249527,27.0205538 18.0567268,28.1407294 C17.5885009,29.2609051 17.5885009,30.482915 18.0567268,31.6030907 L19.6242657,35.3913212 C16.7334796,37.4483711 14.2294889,39.9534913 12.1530088,42.8659481 L8.36648626,41.2977021 C7.24681562,40.829265 6.02535673,40.829265 4.90568609,41.2977021 C3.78601544,41.7661392 2.93099422,42.6215461 2.46276832,43.7417218 L0.345572913,48.8537963 C-0.611236547,51.1552482 0.48807645,53.8029362 2.78849068,54.7601772 L6.57501323,56.3284232 C5.98464144,59.8518849 5.98464144,63.3957135 6.57501323,66.8988083 L2.78849068,68.4670543 C1.70953534,68.9151246 0.834156468,69.7705315 0.386288209,70.8907072 C-0.0819376969,72.0108829 -0.0819376969,73.2328927 0.386288209,74.3530684 L2.50348361,79.4855097 C2.97170952,80.6056854 3.82673074,81.4610923 4.94640138,81.9295294 C6.06607203,82.3979665 7.28753091,82.3979665 8.40720156,81.9295294 L12.1937241,80.3612835 C14.2498466,83.2533734 16.7538373,85.7584936 19.664981,87.8359103 L18.0770844,91.6241409 C17.1202749,93.9255927 18.2195879,96.5732807 20.5200022,97.5305218 L25.6297719,99.6486722 C27.9301861,100.605913 30.5766803,99.5061044 31.5334898,97.2046525 L33.1010287,93.416422 C36.6229018,94.0070601 40.1651326,94.0070601 43.6666481,93.416422 L45.234187,97.2046525 C45.7024129,98.3248282 46.5574341,99.1802351 47.6771047,99.6486722 C48.7967754,100.117109 50.0182343,100.117109 51.1379049,99.6486722 L56.2680322,97.5305218 C57.3877029,97.0620847 58.2427241,96.2066778 58.71095,95.0865021 C59.1791759,93.9663264 59.1791759,92.7443165 58.71095,91.6241409 L57.1434111,87.8359103 C60.0341971,85.7788604 62.5381879,83.2737403 64.614668,80.3612835 L68.4011905,81.9295294 C69.5208611,82.3979665 70.74232,82.3979665 71.8619907,81.9295294 C72.9816613,81.4610923 73.8366825,80.6056854 74.3049085,79.4855097 L76.4221039,74.3734352 C77.3789133,72.0719833 76.2796003,69.4242954 73.9791861,68.4670543 Z" id="Path"></path>
                    <path d="M71.2121212,18.1818182 C64.8046299,18.1818182 59.5959596,23.3904885 59.5959596,29.7979798 C59.5959596,36.2054711 64.8046299,41.4141414 71.2121212,41.4141414 C77.6196125,41.4141414 82.8282828,36.2054711 82.8282828,29.7979798 C82.8282828,23.3904885 77.6196125,18.1818182 71.2121212,18.1818182 Z M71.2121212,38.9131529 C66.1688055,38.9131529 62.0762788,34.8206262 62.0762788,29.7773105 C62.0762788,24.7339948 66.1688055,20.6414681 71.2121212,20.6414681 C76.2554369,20.6414681 80.3479636,24.7339948 80.3479636,29.7773105 C80.3479636,34.8206262 76.2556436,38.9131529 71.2121212,38.9131529 Z" id="Shape"></path>
                    <path d="M97.3445582,24.0731433 L94.6056976,24.0731433 C94.0290954,21.6637697 93.0818203,19.3985466 91.7844652,17.2774741 L93.7202013,15.341738 C94.4203612,14.6415782 94.791034,13.735489 94.791034,12.747028 C94.791034,11.7791599 94.4203612,10.8524778 93.7202013,10.1523179 L90.8371901,7.26930675 C90.1370303,6.56914689 89.2309411,6.19847403 88.2424801,6.19847403 C87.2746121,6.19847403 86.3479299,6.56914689 85.64777,7.26930675 L83.712034,9.20504283 C81.5909614,7.9076878 79.3257384,6.98100563 76.9163648,6.38381046 L76.9163648,3.66554278 C76.9163648,1.64743496 75.2689298,0 73.250822,0 L69.1734205,0 C67.1553126,0 65.5078777,1.64743496 65.5078777,3.66554278 L65.5078777,6.4044034 C63.098504,6.98100563 60.833281,7.92828073 58.7122085,9.22563576 L56.7764724,7.28989969 C56.0763125,6.58973983 55.1702233,6.21906697 54.1817623,6.21906697 C53.1933014,6.21906697 52.2872121,6.58973983 51.5870523,7.28989969 L48.7040411,10.1729109 C48.0038812,10.8730707 47.6332084,11.7791599 47.6332084,12.7676209 C47.6332084,13.735489 48.0038812,14.6621711 48.7040411,15.362331 L50.6397772,17.2980671 C49.3424221,19.4191396 48.41574,21.6843626 47.8185448,24.0937363 L45.0796842,24.0937363 C43.0615764,24.0937363 41.4141414,25.7411712 41.4141414,27.759279 L41.4141414,31.8366806 C41.4141414,33.8547884 43.0615764,35.5022233 45.0796842,35.5022233 L47.8185448,35.5022233 C48.395147,37.911597 49.3424221,40.17682 50.6397772,42.2978925 L48.7040411,44.2336286 C48.0038812,44.9337885 47.6332084,45.8398777 47.6332084,46.8283387 C47.6332084,47.7962067 48.0038812,48.7228889 48.7040411,49.4230487 L51.5870523,52.3060599 C52.2872121,53.0062198 53.1933014,53.3768926 54.1817623,53.3768926 C55.1702233,53.3768926 56.0763125,53.0062198 56.7764724,52.3060599 L58.7122085,50.3703238 C60.833281,51.6676789 63.098504,52.594361 65.5078777,53.1915562 L65.5078777,55.9304168 C65.5078777,57.9485246 67.1553126,59.5959596 69.1734205,59.5959596 L73.250822,59.5959596 C75.2689298,59.5959596 76.9163648,57.9485246 76.9163648,55.9304168 L76.9163648,53.1915562 C79.3257384,52.614954 81.5909614,51.6676789 83.712034,50.3703238 L85.64777,52.3060599 C86.3479299,53.0062198 87.2540191,53.3768926 88.2424801,53.3768926 C89.2103481,53.3768926 90.1370303,53.0062198 90.8371901,52.3060599 L93.7202013,49.4230487 C94.4203612,48.7228889 94.791034,47.8167996 94.791034,46.8283387 C94.791034,45.8604706 94.4203612,44.9337885 93.7202013,44.2336286 L91.7844652,42.2978925 C93.0818203,40.17682 94.0085024,37.911597 94.6056976,35.5022233 L97.3445582,35.5022233 C99.3626661,35.5022233 101.010101,33.8547884 101.010101,31.8366806 L101.010101,27.759279 C100.989302,25.6999853 99.3626661,24.0731433 97.3445582,24.0731433 Z M97.3237594,32.989885 L93.5758448,32.989885 C92.9786497,32.989885 92.4844192,33.4017438 92.3608616,33.978346 C91.8048523,36.7583925 90.7340195,39.3736955 89.1483634,41.7212903 C88.8188764,42.2155208 88.8806552,42.8744948 89.2925139,43.2863535 L91.9490028,45.9428424 C92.1755251,46.1693647 92.2990827,46.4576658 92.2990827,46.7871528 C92.2990827,47.0960469 92.1755251,47.4049409 91.9490028,47.6314632 L89.0659916,50.5144744 C88.8394693,50.7409967 88.5511682,50.8645543 88.2216812,50.8645543 C87.9127872,50.8645543 87.6038931,50.7409967 87.3773708,50.5144744 L84.7208819,47.8579855 C84.3090232,47.4461268 83.6500492,47.384348 83.1558187,47.713835 C80.787631,49.2994911 78.1929209,50.3703238 75.4128744,50.9263331 C74.8362722,51.0498908 74.4244135,51.5441212 74.4244135,52.1413164 L74.4244135,55.8892309 C74.4244135,56.5482049 73.8889971,57.0836213 73.2300231,57.0836213 L69.1526216,57.0836213 C68.4936476,57.0836213 67.9582312,56.5482049 67.9582312,55.8892309 L67.9582312,52.1207235 C67.9582312,51.5235283 67.5463725,51.0292978 66.9697703,50.9057402 C64.1897238,50.3497309 61.5744208,49.2788982 59.226826,47.693242 C58.7325955,47.363755 58.0736215,47.4255338 57.6617628,47.8373926 L55.0052739,50.4938815 C54.7787516,50.7204038 54.4904505,50.8439614 54.1609635,50.8439614 C53.8314765,50.8439614 53.5431754,50.7204038 53.3166531,50.4938815 L50.4336419,47.6108703 C50.2071196,47.384348 50.0835619,47.0960469 50.0835619,46.7665599 C50.0835619,46.4576658 50.2071196,46.1487718 50.4336419,45.9222494 L53.0901307,43.2657606 C53.5019895,42.8539018 53.5637683,42.1949279 53.2342813,41.7006974 C51.6486252,39.3325096 50.5777924,36.7377996 50.0217831,33.9577531 C49.8982255,33.3811508 49.403995,32.9692921 48.8067999,32.9692921 L45.0588853,32.9692921 C44.3999113,32.9692921 43.864495,32.4338757 43.864495,31.7749017 L43.864495,27.6975002 C43.864495,27.0385262 44.3999113,26.5031099 45.0588853,26.5031099 L48.8067999,26.5031099 C49.403995,26.5031099 49.8982255,26.0912511 50.0217831,25.5146489 C50.5777924,22.7346024 51.6486252,20.1192994 53.2342813,17.7717046 C53.5637683,17.2774741 53.5019895,16.6185001 53.0901307,16.2066414 L50.4336419,13.5501525 C50.2071196,13.3236302 50.0835619,13.0353291 50.0835619,12.7058421 C50.0835619,12.3969481 50.2071196,12.088054 50.4336419,11.8615317 L53.3166531,8.97852052 C53.5431754,8.75199821 53.8314765,8.62844059 54.1609635,8.62844059 C54.4904505,8.62844059 54.7787516,8.75199821 55.0052739,8.97852052 L57.6617628,11.6350094 C58.0736215,12.0468681 58.7325955,12.1086469 59.226826,11.7791599 C61.5950137,10.1935038 64.1897238,9.12267108 66.9697703,8.56666178 C67.5463725,8.44310416 67.9582312,7.94887367 67.9582312,7.3516785 L67.9582312,3.66554278 C67.9582312,3.0065688 68.4936476,2.47115244 69.1526216,2.47115244 L73.2300231,2.47115244 C73.8889971,2.47115244 74.4244135,3.0065688 74.4244135,3.66554278 L74.4244135,7.41345731 C74.4244135,8.01065248 74.8362722,8.50488297 75.4128744,8.62844059 C78.1929209,9.18444989 80.8082239,10.2552826 83.1558187,11.8409388 C83.3617481,11.9850893 83.6088633,12.0468681 83.8353856,12.0468681 C84.1442797,12.0468681 84.4737667,11.9233105 84.700289,11.6761953 L87.3567779,9.01970639 C87.5833002,8.79318409 87.8716013,8.66962647 88.2010883,8.66962647 C88.5099823,8.66962647 88.8188764,8.79318409 89.0453987,9.01970639 L91.9284099,11.9027176 C92.1549322,12.1292399 92.2784898,12.417541 92.2784898,12.747028 C92.2784898,13.055922 92.1549322,13.3648161 91.9284099,13.5913384 L89.271921,16.2478273 C88.8600623,16.659686 88.7982835,17.31866 89.1277704,17.8128905 C90.7134266,20.1810782 91.7842593,22.7757883 92.3402686,25.5558348 C92.4638262,26.132437 92.9580567,26.5442958 93.5552519,26.5442958 L97.3031664,26.5442958 C97.9621404,26.5442958 98.4975568,27.0797121 98.4975568,27.7386861 L98.4975568,31.7954947 L98.5181497,31.7954947 C98.5181497,32.4544687 97.9829393,32.989885 97.3237594,32.989885 Z" id="Shape"></path>
                </g>
            </g>
        </g>
    </g>
</svg>