<?xml version="1.0" encoding="UTF-8"?>
<svg width="100px" height="100px" viewBox="0 0 100 100" version="1.1" xmlns="http://www.w3.org/2000/svg" xmlns:xlink="http://www.w3.org/1999/xlink">
    <!-- Generator: Sketch 55.1 (78136) - https://sketchapp.com -->
    <title>icon-money</title>
    <desc>Created with Sketch.</desc>
    <defs>
        <linearGradient x1="16.9042696%" y1="15.6830774%" x2="86.7338024%" y2="84.2900984%" id="linearGradient-1">
            <stop stop-color="#BDD7FF" offset="0%"></stop>
            <stop stop-color="#6888E5" offset="100%"></stop>
        </linearGradient>
    </defs>
    <g id="Page-1" stroke="none" stroke-width="1" fill="none" fill-rule="evenodd">
        <g id="-g-TomoZ-1-Copy-7" transform="translate(-671.000000, -1516.000000)">
            <g id="icon-money" transform="translate(671.000000, 1516.000000)">
                <circle id="Oval-Copy-63" fill="url(#linearGradient-1)" cx="50" cy="50" r="50"></circle>
                <path d="M46.013155,27.9120704 L46.9425273,29.3704293 C50.3574301,27.231503 54.6908985,27.231503 58.1058013,29.3704293 L59.0351736,27.9120704 C55.0691314,25.3626432 49.9791972,25.3626432 46.013155,27.9120704 Z" id="Path" fill="#FFFFFF" fill-rule="nonzero"></path>
                <path d="M42.1551794,38.0989768 L40.4261147,38.0989768 C40.4261147,39.6977702 40.7395077,41.2857609 41.355487,42.7549223 L42.9548718,42.0851576 C42.4253458,40.8212466 42.1551794,39.4709144 42.1551794,38.0989768 Z" id="Path" fill="#FFFFFF" fill-rule="nonzero"></path>
                <path d="M56.5172231,47.6701317 C55.2528445,48.1994619 53.9020127,48.4695284 52.5295676,48.4695284 L52.5295676,50.1979536 C54.1289525,50.1979536 55.706724,49.8846765 57.1872357,49.268925 L56.5172231,47.6701317 Z" id="Path" fill="#FFFFFF" fill-rule="nonzero"></path>
                <path d="M62.9039559,38.0989768 C62.9039559,39.4709144 62.6337895,40.8212466 62.1042634,42.0851576 L63.7036483,42.7549223 C64.3196276,41.2857609 64.6330206,39.6977702 64.6330206,38.0989768 C64.6330206,38.0989768 62.9039559,38.0989768 62.9039559,38.0989768 Z" id="Path" fill="#FFFFFF" fill-rule="nonzero"></path>
                <path d="M52.5295676,29.4568505 C47.7530264,29.4568505 43.8842441,33.324202 43.8842441,38.0989768 C43.8842441,42.8737516 47.7530264,46.7411031 52.5295676,46.7411031 C57.3061089,46.7411031 61.1748912,42.8737516 61.1748912,38.0989768 C61.1748912,33.324202 57.3061089,29.4568505 52.5295676,29.4568505 Z M52.5295676,45.0126778 C48.7148186,45.0126778 45.6133088,41.912315 45.6133088,38.0989768 C45.6133088,34.2856386 48.7148186,31.1852758 52.5295676,31.1852758 C56.3443166,31.1852758 59.4458264,34.2856386 59.4458264,38.0989768 C59.4458264,41.912315 56.3443166,45.0126778 52.5295676,45.0126778 Z" id="Shape" fill="#FFFFFF" fill-rule="nonzero"></path>
                <path d="M52.5295676,32.8145866 C55.4479482,32.8145866 57.8159085,35.1816755 57.8159085,38.1010654 C57.8039385,41.0206576 55.4440482,43.383367 52.5295676,43.383367 C49.611187,43.383367 47.2432225,41.0162781 47.2432225,38.0989768 C47.2432225,35.1816755 49.611187,32.8145866 52.5295676,32.8145866 Z M52.5295676,41.4026996 C54.3553083,41.4026996 55.8345127,39.9240423 55.8345127,38.0989768 C55.8345127,36.2739113 54.3553083,34.795254 52.5295676,34.795254 C50.703827,34.795254 49.2246225,36.2739113 49.2246225,38.0989768 C49.2246225,39.9240423 50.703827,41.4026996 52.5295676,41.4026996 Z" id="Shape" fill="#FFFFFF" fill-rule="nonzero"></path>
                <path d="M75.6233881,61.6811789 L72.7704313,58.8400799 L75.6125814,55.9989809 C75.9475877,55.6640985 75.9475877,55.1131629 75.6125814,54.7782805 L64.3736609,43.5435164 C64.0386546,43.208634 63.4875152,43.208634 63.1525089,43.5435164 L52.0973015,54.5946354 L40.1775616,42.6685011 C39.8425554,42.3336187 39.291416,42.3336187 38.9564097,42.6685011 L27.7174891,53.9032653 C27.3824828,54.2381476 27.3824828,54.7890832 27.7174891,55.1239656 L34.0177686,61.4327178 L24,61.4327178 L24,63.161143 L35.2389206,63.161143 C35.3577938,63.161143 35.476667,63.1395377 35.5847335,63.0963271 L41.4743602,60.5685052 L54.2586323,60.5685052 L54.2586323,64.0253557 L44.7487765,64.0253557 C44.2732837,64.0253557 43.8842441,64.4142514 43.8842441,64.8895683 C43.8842441,65.2244507 44.0787639,65.5377278 44.3813502,65.6781623 L55.6202708,70.8634381 C55.9012438,70.99307 56.2362501,70.960662 56.4848031,70.7770168 L71.4628261,59.974359 L73.7430302,62.2537198 L56.5280298,76.9885451 L51.8163284,76.9885451 L35.5307003,70.99307 C35.4334404,70.960662 35.3361805,70.9390567 35.2281139,70.9390567 L24,70.9390567 L24,72.667482 L35.0876274,72.667482 L51.3732556,78.6629571 C51.4705155,78.695365 51.5677754,78.7169704 51.6758419,78.7169704 L56.863036,78.7169704 C57.0683625,78.7169704 57.2736889,78.6413518 57.4249821,78.5117199 L75.5801615,62.9558925 C75.9475877,62.6426155 75.9800077,62.1024826 75.6774214,61.7351922 C75.6450014,61.7135869 75.6341947,61.7027842 75.6233881,61.6811789 Z M41.290647,58.8400799 C41.1717738,58.8400799 41.0529007,58.8616852 40.9448341,58.9048958 L40.7395077,58.9913171 C41.5932334,56.7767722 44.0787639,55.6749011 46.294128,56.5283111 C47.3747935,56.9388121 48.2393258,57.7706168 48.6932053,58.8400799 L41.290647,58.8400799 Z M50.5411432,58.8400799 C49.7846774,56.2690473 47.4180201,54.5082141 44.7487765,54.5190168 C41.6904933,54.5406221 39.1185095,56.8199829 38.7402766,59.8555297 L36.038613,61.0114141 L29.5438137,54.5190168 L39.5615823,44.5049529 L53.9020127,58.8400799 L50.5411432,58.8400799 Z M55.8904371,69.0809996 L48.6823987,65.7537809 L55.1231647,65.7537809 C55.5986575,65.7537809 55.987697,65.3648852 55.987697,64.8895683 L55.987697,60.9249929 L60.6777851,65.6133464 L55.8904371,69.0809996 Z M56.0633436,58.5592108 C56.3875433,56.7119563 57.9977348,55.3724267 59.867286,55.3831645 C62.0070035,55.3831645 63.7468749,57.1116546 63.7576816,59.2613836 C63.7576816,61.141046 62.4176564,62.750642 60.5805252,63.0855244 L56.0633436,58.5592108 Z M61.9853902,64.4790673 C62.3312032,64.3386328 62.6662095,64.1657902 62.9796024,63.9605397 L62.1042634,64.5978965 L61.9853902,64.4790673 Z M70.9873334,58.1811178 L63.368642,63.6796706 C65.8001392,61.7459949 66.1999855,58.2135257 64.2655943,55.7829277 C62.3312032,53.3523297 58.7974272,52.9526314 56.3659299,54.8863071 C55.6094641,55.4804533 55.0259048,56.2690473 54.6692852,57.1548653 L53.3184534,55.8153357 L63.7684882,45.3691655 L73.7862568,55.3832294 L70.9873334,58.1811178 Z" id="Shape" fill="#FFFFFF" fill-rule="nonzero"></path>
            </g>
        </g>
    </g>
</svg>