<?xml version="1.0" encoding="UTF-8"?>
<svg width="75px" height="103px" viewBox="0 0 75 103" version="1.1" xmlns="http://www.w3.org/2000/svg" xmlns:xlink="http://www.w3.org/1999/xlink">
    <!-- Generator: Sketch 57.1 (83088) - https://sketch.com -->
    <title>icon-tomox-5</title>
    <desc>Created with Sketch.</desc>
    <g id="Page-1" stroke="none" stroke-width="1" fill="none" fill-rule="evenodd">
        <g id="tomox-4" transform="translate(-119.000000, -1405.000000)" fill="#00A99D" fill-rule="nonzero">
            <g id="icon-tomox-5" transform="translate(119.000000, 1405.000000)">
                <path d="M31.25,62.5 C48.4822266,62.5 62.5,48.4822266 62.5,31.25 C62.5,14.0177734 48.4822266,0 31.25,0 C14.0177734,0 0,14.0177734 0,31.25 C0,48.4822266 14.0177734,62.5 31.25,62.5 Z M31.25,4.16660156 C46.1832031,4.16660156 58.3333984,16.3166016 58.3333984,31.25 C58.3333984,46.1833984 46.1832031,58.3333984 31.25,58.3333984 C16.3167969,58.3333984 4.16660156,46.1832031 4.16660156,31.25 C4.16660156,16.3167969 16.3167969,4.16660156 31.25,4.16660156 Z" id="Shape"></path>
                <path d="M32.2916016,39.5833984 L25,39.5833984 C23.8484375,39.5833984 22.9166016,40.5152344 22.9166016,41.6667969 C22.9166016,42.8183594 23.8484375,43.7501953 25,43.7501953 L29.1666016,43.7501953 L29.1666016,45.8335938 C29.1666016,46.9851563 30.0984375,47.9169922 31.25,47.9169922 C32.4015625,47.9169922 33.3333984,46.9851563 33.3333984,45.8335938 L33.3333984,43.6449219 C36.8580078,43.1341797 39.5833984,40.1222656 39.5833984,36.4585938 C39.5833984,32.4384766 36.3119141,29.1669922 32.2917969,29.1669922 L30.2083984,29.1669922 C28.4851563,29.1669922 27.0833984,27.7652344 27.0833984,26.0419922 C27.0833984,24.31875 28.4851563,22.9169922 30.2083984,22.9169922 L37.5,22.9169922 C38.6515625,22.9169922 39.5833984,21.9851563 39.5833984,20.8335938 C39.5833984,19.6818359 38.6515625,18.75 37.5,18.75 L33.3333984,18.75 L33.3333984,16.6666016 C33.3333984,15.5150391 32.4015625,14.5832031 31.25,14.5832031 C30.0984375,14.5832031 29.1666016,15.5150391 29.1666016,16.6666016 L29.1666016,18.8552734 C25.6419922,19.3660156 22.9166016,22.3779297 22.9166016,26.0416016 C22.9166016,30.0617188 26.1880859,33.3332031 30.2082031,33.3332031 L32.2916016,33.3332031 C34.0148438,33.3332031 35.4166016,34.7349609 35.4166016,36.4582031 C35.4166016,38.1816406 34.0148438,39.5833984 32.2916016,39.5833984 Z" id="Path"></path>
                <path d="M72.9166016,82.1666016 C71.7650391,82.1666016 70.8332031,83.0984375 70.8332031,84.25 L70.8332031,95.8931641 L43.1396484,68.19375 C42.7490234,67.803125 42.2201172,67.5833984 41.6666016,67.5833984 C41.1132812,67.5833984 40.5841797,67.803125 40.1935547,68.19375 L25,83.3873047 L3.55625,61.94375 C2.74238281,61.1298828 1.42402344,61.1298828 0.610351562,61.94375 C-0.203515625,62.7576172 -0.203515625,64.0759766 0.610351562,64.8896484 L23.5269531,87.80625 C24.3408203,88.6201172 25.6591797,88.6201172 26.4728516,87.80625 L41.6666016,72.6125 L67.8814453,98.8332031 L56.25,98.8332031 C55.0984375,98.8332031 54.1666016,99.7650391 54.1666016,100.916602 C54.1666016,102.068164 55.0984375,103 56.25,103 L72.9166016,103 C74.0681641,103 75,102.068164 75,100.916602 L75,84.25 C75,83.0984375 74.0681641,82.1666016 72.9166016,82.1666016 Z" id="Path"></path>
            </g>
        </g>
    </g>
</svg>