<?xml version="1.0" encoding="UTF-8"?>
<svg width="155px" height="40px" viewBox="0 0 155 40" version="1.1" xmlns="http://www.w3.org/2000/svg" xmlns:xlink="http://www.w3.org/1999/xlink">
    <!-- Generator: Sketch 50.2 (55047) - http://www.bohemiancoding.com/sketch -->
    <title>Group 27 Copy</title>
    <desc>Created with Sketch.</desc>
    <defs>
        <linearGradient x1="50%" y1="0%" x2="50%" y2="100%" id="linearGradient-1">
            <stop stop-color="#48A5FF" offset="0%"></stop>
            <stop stop-color="#534BFF" offset="100%"></stop>
        </linearGradient>
    </defs>
    <g id="Page-1" stroke="none" stroke-width="1" fill="none" fill-rule="evenodd">
        <g id="Home" transform="translate(-357.000000, -2353.000000)">
            <g id="Group-27-Copy" transform="translate(357.000000, 2353.000000)">
                <rect id="Rectangle-21-Copy-5" fill="url(#linearGradient-1)" x="0" y="0" width="155" height="40" rx="8"></rect>
                <path d="M62.712,15.858 C63.3373365,16.2966689 63.8086651,16.8869963 64.126,17.629 C64.4433349,18.3710037 64.602,19.1946621 64.602,20.1 C64.602,21.0146712 64.4433349,21.8429963 64.126,22.585 C63.8086651,23.3270037 63.3373365,23.9149978 62.712,24.349 C62.0866635,24.7830022 61.3353377,25 60.458,25 L57.014,25 C56.8273324,25 56.6686673,24.9346673 56.538,24.804 C56.4073327,24.6733327 56.342,24.5146676 56.342,24.328 L56.342,15.872 C56.342,15.6853324 56.4073327,15.5266673 56.538,15.396 C56.6686673,15.2653327 56.8273324,15.2 57.014,15.2 L60.458,15.2 C61.3353377,15.2 62.0866635,15.4193311 62.712,15.858 Z M62.46,22.697 C62.9360024,22.02033 63.174,21.1546719 63.174,20.1 C63.174,19.0546614 62.9336691,18.1913367 62.453,17.51 C61.9723309,16.8286633 61.2606714,16.488 60.318,16.488 L57.728,16.488 L57.728,23.712 L60.318,23.712 C61.2700048,23.712 61.9839976,23.3736701 62.46,22.697 Z M72.666,23.292 C72.3393317,23.8706696 71.8936695,24.3233317 71.329,24.65 C70.7643305,24.9766683 70.1413367,25.14 69.46,25.14 C68.7786633,25.14 68.1556695,24.9766683 67.591,24.65 C67.0263305,24.3233317 66.5806683,23.8706696 66.254,23.292 C65.9273317,22.7133304 65.764,22.0600036 65.764,21.332 C65.764,20.6039964 65.9273317,19.9460029 66.254,19.358 C66.5806683,18.7699971 67.0263305,18.3126683 67.591,17.986 C68.1556695,17.6593317 68.7786633,17.496 69.46,17.496 C70.1413367,17.496 70.7643305,17.6593317 71.329,17.986 C71.8936695,18.3126683 72.3393317,18.7699971 72.666,19.358 C72.9926683,19.9460029 73.156,20.6039964 73.156,21.332 C73.156,22.0600036 72.9926683,22.7133304 72.666,23.292 Z M71.511,19.981 C71.300999,19.5843313 71.0163351,19.2763344 70.657,19.057 C70.2976649,18.8376656 69.8986689,18.728 69.46,18.728 C69.0213311,18.728 68.6223351,18.8376656 68.263,19.057 C67.9036649,19.2763344 67.619001,19.5843313 67.409,19.981 C67.198999,20.3776687 67.094,20.8279975 67.094,21.332 C67.094,21.8266691 67.198999,22.269998 67.409,22.662 C67.619001,23.054002 67.9036649,23.3596656 68.263,23.579 C68.6223351,23.7983344 69.0213311,23.908 69.46,23.908 C69.8986689,23.908 70.2976649,23.7983344 70.657,23.579 C71.0163351,23.3596656 71.300999,23.054002 71.511,22.662 C71.721001,22.269998 71.826,21.8266691 71.826,21.332 C71.826,20.8279975 71.721001,20.3776687 71.511,19.981 Z M83.719,17.783 C83.8450006,17.9090006 83.908,18.069999 83.908,18.266 C83.908,18.3313337 83.8893335,18.4199994 83.852,18.532 L81.71,24.58 C81.6539997,24.7293341 81.5606673,24.841333 81.43,24.916 C81.2993327,24.990667 81.1593341,25.0186668 81.01,25 C80.7579987,24.9813332 80.5666673,24.8413346 80.436,24.58 L78.98,20.772 L77.636,24.58 C77.5799997,24.7106673 77.5006672,24.8109996 77.398,24.881 C77.2953328,24.9510004 77.1833339,24.9906666 77.062,25 C76.9219993,25.0186668 76.784334,24.9883337 76.649,24.909 C76.513666,24.8296663 76.4226669,24.7200007 76.376,24.58 L74.206,18.532 C74.1779999,18.4479996 74.164,18.3593338 74.164,18.266 C74.164,18.0793324 74.2246661,17.9206673 74.346,17.79 C74.4673339,17.6593327 74.625999,17.594 74.822,17.594 C75.1393349,17.594 75.3446662,17.7339986 75.438,18.014 L77.104,22.732 L78.434,19.246 C78.5460006,18.9659986 78.7513318,18.826 79.05,18.826 C79.3300014,18.826 79.5213328,18.9659986 79.624,19.246 L80.982,22.676 L82.62,18.014 C82.7226672,17.7339986 82.9373317,17.594 83.264,17.594 C83.4413342,17.594 83.5929994,17.6569994 83.719,17.783 Z M91.608,20.52 L91.608,24.328 C91.608,24.5146676 91.5450006,24.6733327 91.419,24.804 C91.2929994,24.9346673 91.132001,25 90.936,25 C90.7493324,25 90.5930006,24.9346673 90.467,24.804 C90.3409994,24.6733327 90.278,24.5146676 90.278,24.328 L90.278,20.534 C90.278,19.9833306 90.1520013,19.5446683 89.9,19.218 C89.6479987,18.8913317 89.2373362,18.728 88.668,18.728 C88.2946648,18.728 87.9563348,18.8096659 87.653,18.973 C87.3496651,19.1363341 87.1116675,19.3556653 86.939,19.631 C86.7663325,19.9063347 86.68,20.2073317 86.68,20.534 L86.68,24.328 C86.68,24.5146676 86.6170006,24.6733327 86.491,24.804 C86.3649994,24.9346673 86.204001,25 86.008,25 C85.811999,25 85.6533339,24.9370006 85.532,24.811 C85.4106661,24.6849994 85.35,24.524001 85.35,24.328 L85.35,18.336 C85.35,18.1493324 85.4129994,17.9906673 85.539,17.86 C85.6650006,17.7293327 85.8213324,17.664 86.008,17.664 C86.204001,17.664 86.3649994,17.7293327 86.491,17.86 C86.6170006,17.9906673 86.68,18.1493324 86.68,18.336 L86.68,18.826 C86.9226679,18.4526648 87.2609978,18.137668 87.695,17.881 C88.1290022,17.624332 88.5933309,17.496 89.088,17.496 C90.7680084,17.496 91.608,18.5039899 91.608,20.52 Z M94.842,24.804 C94.7113327,24.9346673 94.5526676,25 94.366,25 C94.1793324,25 94.0230006,24.9346673 93.897,24.804 C93.7709994,24.6733327 93.708,24.5146676 93.708,24.328 L93.708,15.312 C93.708,15.1253324 93.7733327,14.9666673 93.904,14.836 C94.0346673,14.7053327 94.1933324,14.64 94.38,14.64 C94.5666676,14.64 94.7229994,14.7053327 94.849,14.836 C94.9750006,14.9666673 95.038,15.1253324 95.038,15.312 L95.038,24.328 C95.038,24.5146676 94.9726673,24.6733327 94.842,24.804 Z M103.592,23.292 C103.265332,23.8706696 102.819669,24.3233317 102.255,24.65 C101.690331,24.9766683 101.067337,25.14 100.386,25.14 C99.7046633,25.14 99.0816695,24.9766683 98.517,24.65 C97.9523305,24.3233317 97.5066683,23.8706696 97.18,23.292 C96.8533317,22.7133304 96.69,22.0600036 96.69,21.332 C96.69,20.6039964 96.8533317,19.9460029 97.18,19.358 C97.5066683,18.7699971 97.9523305,18.3126683 98.517,17.986 C99.0816695,17.6593317 99.7046633,17.496 100.386,17.496 C101.067337,17.496 101.690331,17.6593317 102.255,17.986 C102.819669,18.3126683 103.265332,18.7699971 103.592,19.358 C103.918668,19.9460029 104.082,20.6039964 104.082,21.332 C104.082,22.0600036 103.918668,22.7133304 103.592,23.292 Z M102.437,19.981 C102.226999,19.5843313 101.942335,19.2763344 101.583,19.057 C101.223665,18.8376656 100.824669,18.728 100.386,18.728 C99.9473311,18.728 99.5483351,18.8376656 99.189,19.057 C98.8296649,19.2763344 98.545001,19.5843313 98.335,19.981 C98.1249989,20.3776687 98.02,20.8279975 98.02,21.332 C98.02,21.8266691 98.1249989,22.269998 98.335,22.662 C98.545001,23.054002 98.8296649,23.3596656 99.189,23.579 C99.5483351,23.7983344 99.9473311,23.908 100.386,23.908 C100.824669,23.908 101.223665,23.7983344 101.583,23.579 C101.942335,23.3596656 102.226999,23.054002 102.437,22.662 C102.647001,22.269998 102.752,21.8266691 102.752,21.332 C102.752,20.8279975 102.647001,20.3776687 102.437,19.981 Z M112.055,17.755 C112.181001,17.8810006 112.244,18.0466656 112.244,18.252 L112.244,24.328 C112.244,24.5146676 112.181001,24.6733327 112.055,24.804 C111.928999,24.9346673 111.768001,25 111.572,25 C111.375999,25 111.217334,24.9370006 111.096,24.811 C110.974666,24.6849994 110.914,24.524001 110.914,24.328 L110.914,23.964 C110.671332,24.2906683 110.340002,24.5683322 109.92,24.797 C109.499998,25.0256678 109.047336,25.14 108.562,25.14 C107.92733,25.14 107.351003,24.9766683 106.833,24.65 C106.314997,24.3233317 105.909001,23.8683362 105.615,23.285 C105.320999,22.7016638 105.174,22.0460036 105.174,21.318 C105.174,20.5899964 105.320999,19.9343363 105.615,19.351 C105.909001,18.7676637 106.312664,18.3126683 106.826,17.986 C107.339336,17.6593317 107.903997,17.496 108.52,17.496 C109.014669,17.496 109.474331,17.5986656 109.899,17.804 C110.323669,18.0093344 110.661999,18.2706651 110.914,18.588 L110.914,18.252 C110.914,18.055999 110.974666,17.8926673 111.096,17.762 C111.217334,17.6313327 111.375999,17.566 111.572,17.566 C111.768001,17.566 111.928999,17.6289994 112.055,17.755 Z M109.885,23.572 C110.225668,23.3479989 110.491666,23.040002 110.683,22.648 C110.874334,22.255998 110.97,21.8126691 110.97,21.318 C110.97,20.8326642 110.874334,20.394002 110.683,20.002 C110.491666,19.609998 110.225668,19.2996678 109.885,19.071 C109.544332,18.8423322 109.154669,18.728 108.716,18.728 C108.277331,18.728 107.887668,18.8399989 107.547,19.064 C107.206332,19.2880011 106.940334,19.595998 106.749,19.988 C106.557666,20.380002 106.462,20.8233309 106.462,21.318 C106.462,21.8126691 106.557666,22.255998 106.749,22.648 C106.940334,23.040002 107.206332,23.3479989 107.547,23.572 C107.887668,23.7960011 108.277331,23.908 108.716,23.908 C109.154669,23.908 109.544332,23.7960011 109.885,23.572 Z M120.651,14.829 C120.777001,14.9550006 120.84,15.115999 120.84,15.312 L120.84,24.328 C120.84,24.5146676 120.777001,24.6733327 120.651,24.804 C120.524999,24.9346673 120.364001,25 120.168,25 C119.971999,25 119.813334,24.9370006 119.692,24.811 C119.570666,24.6849994 119.51,24.524001 119.51,24.328 L119.51,23.936 C119.276666,24.2720017 118.947669,24.5566655 118.523,24.79 C118.098331,25.0233345 117.643336,25.14 117.158,25.14 C116.52333,25.14 115.949336,24.9766683 115.436,24.65 C114.922664,24.3233317 114.516668,23.8683362 114.218,23.285 C113.919332,22.7016638 113.77,22.0460036 113.77,21.318 C113.77,20.5899964 113.916999,19.9343363 114.211,19.351 C114.505001,18.7676637 114.908664,18.3126683 115.422,17.986 C115.935336,17.6593317 116.499997,17.496 117.116,17.496 C117.610669,17.496 118.067998,17.5986656 118.488,17.804 C118.908002,18.0093344 119.248665,18.2753317 119.51,18.602 L119.51,15.312 C119.51,15.115999 119.570666,14.9550006 119.692,14.829 C119.813334,14.7029994 119.971999,14.64 120.168,14.64 C120.364001,14.64 120.524999,14.7029994 120.651,14.829 Z M118.481,23.572 C118.821668,23.3479989 119.087666,23.040002 119.279,22.648 C119.470334,22.255998 119.566,21.8126691 119.566,21.318 C119.566,20.8326642 119.470334,20.3916686 119.279,19.995 C119.087666,19.5983313 118.821668,19.2880011 118.481,19.064 C118.140332,18.8399989 117.750669,18.728 117.312,18.728 C116.873331,18.728 116.483668,18.8399989 116.143,19.064 C115.802332,19.2880011 115.536334,19.5983313 115.345,19.995 C115.153666,20.3916686 115.058,20.8326642 115.058,21.318 C115.058,21.8126691 115.153666,22.255998 115.345,22.648 C115.536334,23.040002 115.802332,23.3479989 116.143,23.572 C116.483668,23.7960011 116.873331,23.908 117.312,23.908 C117.750669,23.908 118.140332,23.7960011 118.481,23.572 Z" id="Download-Copy-3" fill="#FFFFFF"></path>
                <g id="Group-10-Copy-2" transform="translate(36.000000, 12.000000)" fill="#FFFFFF">
                    <path d="M6.72199275,2.7725009 C6.72087539,2.58611311 6.57217161,2.43538779 6.38833048,2.4342675 C6.2019218,2.43312388 6.04216331,2.59124776 6.04290029,2.77614183 C6.0436135,2.96187612 6.20460822,3.11831957 6.39163501,3.1150754 C6.57333652,3.1119246 6.7231101,2.95662478 6.72199275,2.7725009 Z M2.95649463,2.77065709 C2.95416482,2.58471275 2.79243312,2.43015978 2.60547765,2.43517774 C2.41992482,2.44017235 2.27509614,2.59143447 2.27744973,2.7778456 C2.27977954,2.96252962 2.43357086,3.11708259 2.6130852,3.11514542 C2.80203765,3.11309156 2.95882444,2.9558079 2.95649463,2.77065709 Z M7.11477992,0 C7.19073652,0.073005386 7.18964293,0.148228007 7.13888633,0.238667864 C6.95002897,0.575384201 6.76965878,0.916721724 6.57897086,1.25248115 C6.53634482,1.32756373 6.55018105,1.35902513 6.62074105,1.39601795 C7.24203992,1.72185817 7.73557954,2.18175943 8.10689916,2.76885996 C8.44046633,3.29625853 8.60578784,3.87264632 8.62989426,4.49078815 C8.63229539,4.55308079 8.61541614,4.58806643 8.54528407,4.58384201 C8.50584369,4.58148474 8.46611803,4.58388869 8.42651124,4.58388869 C5.79655841,4.58384201 3.16660558,4.58377199 0.536676519,4.58372531 C0.360870859,4.58372531 0.357518784,4.58356194 0.365839538,4.41395512 C0.407490859,3.56412388 0.741438406,2.83383662 1.31495237,2.20477199 C1.61854105,1.87174327 1.97581048,1.60383124 2.37860633,1.39564452 C2.44987954,1.35879174 2.46309765,1.32688689 2.42054293,1.2520377 C2.23168558,0.919779174 2.05286067,0.582035907 1.86573878,0.248820467 C1.81417388,0.156933573 1.79988595,0.0773231598 1.88459124,0 L2.00345916,0 C2.05412067,0.0828779174 2.10746859,0.164308797 2.15499199,0.248890485 C2.31921992,0.541168761 2.48370935,0.833330341 2.64289727,1.12824596 C2.68614143,1.20841652 2.72299048,1.22258348 2.81687237,1.19123878 C3.1007052,1.09650449 3.38610709,0.994628366 3.67952067,0.941718133 C4.48494595,0.79643088 5.27853199,0.852165171 6.05050784,1.13818851 C6.30681086,1.23313285 6.30448105,1.22545422 6.43682859,0.985666068 C6.61929086,0.655041293 6.80919426,0.328360862 6.99591199,0 L7.11477992,0 Z" id="Fill-1"></path>
                    <path d="M4.6545283,14 L4.3454717,14 C2.1593717,14 0.387169811,12.2601706 0.387169811,10.1140036 L0.387169811,5.92459605 L8.61283019,5.92459605 L8.61283019,10.1140036 C8.61283019,12.2601706 6.8406283,14 4.6545283,14" id="Fill-8"></path>
                </g>
            </g>
        </g>
    </g>
</svg>