<?xml version="1.0" encoding="UTF-8"?>
<svg width="100px" height="100px" viewBox="0 0 100 100" version="1.1" xmlns="http://www.w3.org/2000/svg" xmlns:xlink="http://www.w3.org/1999/xlink">
    <!-- Generator: Sketch 55.1 (78136) - https://sketchapp.com -->
    <title>icon-token</title>
    <desc>Created with Sketch.</desc>
    <defs>
        <linearGradient x1="84.4283449%" y1="86.4735176%" x2="18.585998%" y2="11.9135753%" id="linearGradient-1">
            <stop stop-color="#FD7DB3" offset="0%"></stop>
            <stop stop-color="#FF9898" offset="100%"></stop>
        </linearGradient>
    </defs>
    <g id="Page-1" stroke="none" stroke-width="1" fill="none" fill-rule="evenodd">
        <g id="-g-TomoZ-1-Copy-7" transform="translate(-260.000000, -1516.000000)">
            <g id="icon-token" transform="translate(260.000000, 1516.000000)">
                <circle id="Oval" fill="url(#linearGradient-1)" cx="50" cy="50" r="50"></circle>
                <path d="M69.005848,52.9161793 C67.7290448,50.9278752 65.9356725,49.3489279 63.8206628,48.3255361 C63.3333333,48.0916179 62.748538,48.2962963 62.5243665,48.7836257 C62.2904483,49.2709552 62.4951267,49.8557505 62.9824561,50.079922 C66.6666667,51.8538012 69.0545809,55.6549708 69.0545809,59.748538 C69.0545809,61.502924 68.625731,63.2378168 67.8070175,64.7777778 C67.5536062,65.2553606 67.7387914,65.8401559 68.2066277,66.0935673 C68.3528265,66.17154 68.5087719,66.2105263 68.6647173,66.2105263 C69.0155945,66.2105263 69.3469786,66.0253411 69.5224172,65.6939571 C70.4873294,63.8810916 71.0038986,61.8245614 71.0038986,59.748538 C71.0038986,57.3118908 70.3118908,54.9532164 69.005848,52.9161793 Z" id="Path" fill="#FFFFFF" fill-rule="nonzero"></path>
                <path d="M59.8635478,47.0779727 L59.7953216,47.0779727 C59.2592593,47.0779727 58.8206628,47.5165692 58.8206628,48.0526316 C58.8206628,48.588694 59.2592593,49.0272904 59.7953216,49.0272904 L59.8538012,49.0272904 C59.8538012,49.0272904 59.8538012,49.0272904 59.8538012,49.0272904 C60.3898635,49.0272904 60.82846,48.5984405 60.82846,48.0526316 C60.8382066,47.5165692 60.3996101,47.0779727 59.8635478,47.0779727 Z" id="Path" fill="#FFFFFF" fill-rule="nonzero"></path>
                <path d="M53.6939571,69.417154 C50,67.6432749 47.6120858,63.8421053 47.6120858,59.748538 C47.6120858,57.994152 48.0409357,56.2592593 48.8596491,54.7192982 C49.1130604,54.2417154 48.9278752,53.6569201 48.460039,53.4035088 C47.9824561,53.1500975 47.3976608,53.3352827 47.1442495,53.8031189 C46.1793372,55.6159844 45.662768,57.6725146 45.662768,59.748538 C45.662768,62.1851852 46.3547758,64.5438596 47.6608187,66.5808967 C48.9376218,68.5692008 50.7309942,70.1481481 52.8460039,71.17154 C52.9824561,71.2397661 53.128655,71.2690058 53.2651072,71.2690058 C53.625731,71.2690058 53.9766082,71.0643275 54.1423002,70.7134503 C54.3859649,70.2358674 54.1812865,69.6510721 53.6939571,69.417154 Z" id="Path" fill="#FFFFFF" fill-rule="nonzero"></path>
                <path d="M56.871345,70.4697856 L56.8128655,70.4697856 C56.2768031,70.4697856 55.8382066,70.8986355 55.8382066,71.4444444 C55.8382066,71.9805068 56.2670565,72.4191033 56.8128655,72.4191033 L56.8810916,72.4191033 C57.417154,72.4191033 57.8557505,71.9805068 57.8557505,71.4444444 C57.8557505,70.9083821 57.4074074,70.4697856 56.871345,70.4697856 Z" id="Path" fill="#FFFFFF" fill-rule="nonzero"></path>
                <path d="M62.7582846,43.7836257 C62.6413255,43.5009747 62.4951267,43.2378168 62.3294347,42.9844055 L64.8635478,42.9844055 C67.3391813,42.9844055 69.3469786,40.9766082 69.3469786,38.5009747 C69.3469786,36.0253411 67.3391813,34.0175439 64.8635478,34.0175439 L57.0565302,34.0175439 C57.5536062,33.2962963 57.8460039,32.4191033 57.8460039,31.4834308 C57.8460039,29.0077973 55.8382066,27 53.3625731,27 L29.4834308,27 C27.0077973,27 25,29.0077973 25,31.4834308 C25,33.9590643 27.0077973,35.9668616 29.4834308,35.9668616 L37.2904483,35.9668616 C36.7933723,36.6881092 36.5009747,37.5653021 36.5009747,38.5009747 C36.5009747,39.4366472 36.7933723,40.3138402 37.2904483,41.0350877 L34.7465887,41.0350877 C32.2709552,41.0350877 30.2631579,43.042885 30.2631579,45.5185185 C30.2631579,46.9415205 30.9259259,48.208577 31.9590643,49.0272904 C30.9259259,49.8460039 30.2631579,51.1130604 30.2631579,52.5360624 C30.2631579,53.9590643 30.9259259,55.2261209 31.9590643,56.0448343 C30.9259259,56.8635478 30.2631579,58.1306043 30.2631579,59.5536062 C30.2631579,60.9766082 30.9259259,62.2436647 31.9590643,63.0623782 C30.9259259,63.8810916 30.2631579,65.1481481 30.2631579,66.5711501 C30.2631579,69.0467836 32.2709552,71.0545809 34.7465887,71.0545809 L46.2378168,71.0545809 C49.2592593,74.2904483 53.5672515,76.3177388 58.3430799,76.3177388 C67.4756335,76.3177388 74.9122807,68.8810916 74.9122807,59.748538 C74.9025341,52.1461988 69.7563353,45.7231969 62.7582846,43.7836257 Z M64.8635478,35.9668616 C66.2573099,35.9668616 67.3976608,37.1072125 67.3976608,38.5009747 C67.3976608,39.8947368 66.2573099,41.0350877 64.8635478,41.0350877 L58.625731,41.0350877 L40.9844055,41.0350877 C39.5906433,41.0350877 38.4502924,39.8947368 38.4502924,38.5009747 C38.4502924,37.1072125 39.5906433,35.9668616 40.9844055,35.9668616 L64.8635478,35.9668616 Z M29.4834308,34.0175439 C28.0896686,34.0175439 26.9493177,32.877193 26.9493177,31.4834308 C26.9493177,30.0896686 28.0896686,28.9493177 29.4834308,28.9493177 L53.3625731,28.9493177 C54.7563353,28.9493177 55.8966862,30.0896686 55.8966862,31.4834308 C55.8966862,32.877193 54.7563353,34.0175439 53.3625731,34.0175439 L29.4834308,34.0175439 Z M34.7465887,42.9844055 L58.625731,42.9844055 C59.0155945,42.9844055 59.3957115,43.0721248 59.7270955,43.2378168 C59.2690058,43.1988304 58.8011696,43.1793372 58.3333333,43.1793372 C53.7621832,43.1793372 49.6101365,45.0409357 46.6081871,48.0526316 L34.7465887,48.0526316 C33.3528265,48.0526316 32.2124756,46.9122807 32.2124756,45.5185185 C32.2124756,44.1247563 33.3528265,42.9844055 34.7465887,42.9844055 Z M34.7465887,50.0019493 L44.9415205,50.0019493 C43.8304094,51.5224172 42.9824561,53.2280702 42.4366472,55.0701754 L34.7465887,55.0701754 C33.3528265,55.0701754 32.2124756,53.9298246 32.2124756,52.5360624 C32.2124756,51.1423002 33.3528265,50.0019493 34.7465887,50.0019493 Z M34.7465887,57.0194932 L41.9883041,57.0194932 C41.8421053,57.9064327 41.7641326,58.8226121 41.7641326,59.748538 C41.7641326,60.5380117 41.8226121,61.3274854 41.9298246,62.0877193 L34.7465887,62.0877193 C33.3528265,62.0877193 32.2124756,60.9473684 32.2124756,59.5536062 C32.2124756,58.1598441 33.3528265,57.0194932 34.7465887,57.0194932 Z M34.7465887,69.1052632 C33.3528265,69.1052632 32.2124756,67.9649123 32.2124756,66.5711501 C32.2124756,65.1773879 33.3528265,64.037037 34.7465887,64.037037 L42.3294347,64.037037 C42.8167641,65.8693957 43.6159844,67.5750487 44.668616,69.1052632 L34.7465887,69.1052632 Z M58.3333333,74.3684211 C50.2729045,74.3684211 43.7134503,67.8089669 43.7134503,59.748538 C43.7134503,51.6881092 50.2729045,45.128655 58.3333333,45.128655 C66.3937622,45.128655 72.9532164,51.6881092 72.9532164,59.748538 C72.9532164,67.8089669 66.3937622,74.3684211 58.3333333,74.3684211 Z" id="Shape" fill="#FFFFFF" fill-rule="nonzero"></path>
            </g>
        </g>
    </g>
</svg>