<?xml version="1.0" encoding="UTF-8"?>
<svg width="85px" height="80px" viewBox="0 0 85 80" version="1.1" xmlns="http://www.w3.org/2000/svg" xmlns:xlink="http://www.w3.org/1999/xlink">
    <!-- Generator: Sketch 57.1 (83088) - https://sketch.com -->
    <title>icon-tomox-10</title>
    <desc>Created with Sketch.</desc>
    <g id="Page-1" stroke="none" stroke-width="1" fill="none" fill-rule="evenodd">
        <g id="tomox-4" transform="translate(-1035.000000, -2629.000000)" fill="#703DB5" fill-rule="nonzero">
            <g id="icon-tomox-10" transform="translate(1035.000000, 2629.000000)">
                <path d="M66.8225108,-1.42108547e-13 L18.0606061,-1.42108547e-13 C13.1774892,-1.42108547e-13 9.21212121,3.96536797 9.21212121,8.84848485 L9.21212121,49.2121212 L3.61904762,43.6190476 C2.78787879,42.7878788 1.45454545,42.7878788 0.623376623,43.6190476 C-0.207792208,44.4502165 -0.207792208,45.7835498 0.623376623,46.6147186 L9.85281385,55.8441558 C10.2683983,56.2597403 10.8051948,56.4675325 11.3593074,56.4675325 C11.9134199,56.4675325 12.4502165,56.2597403 12.8658009,55.8441558 L22.0952381,46.6147186 C22.9264069,45.7835498 22.9264069,44.4502165 22.0952381,43.6190476 C21.2640693,42.7878788 19.9307359,42.7878788 19.0995671,43.6190476 L13.4891775,49.2294372 L13.4891775,8.84848485 C13.4891775,6.3030303 15.5497835,4.24242424 18.0952381,4.24242424 L66.8398268,4.24242424 C69.3852814,4.24242424 71.4458874,6.3030303 71.4458874,8.84848485 L71.4458874,14.7359307 C71.4458874,15.9134199 72.3982684,16.8658009 73.5757576,16.8658009 C74.7532468,16.8658009 75.7056277,15.9134199 75.7056277,14.7359307 L75.7056277,8.84848485 C75.6536797,3.98268398 71.6883117,-1.42108547e-13 66.8225108,-1.42108547e-13 Z" id="Path"></path>
                <path d="M72.034632,24.1212121 L62.8051948,33.3506494 C61.974026,34.1818182 61.974026,35.5151515 62.8051948,36.3463203 C63.2207792,36.7619048 63.7575758,36.969697 64.3116883,36.969697 C64.8658009,36.969697 65.4025974,36.7619048 65.8181818,36.3463203 L71.4285714,30.7359307 L71.4285714,71.0995671 C71.4285714,73.6450216 69.3679654,75.7056277 66.8225108,75.7056277 L18.0606061,75.7056277 C15.5151515,75.7056277 13.4545455,73.6450216 13.4545455,71.0995671 L13.4545455,65.2121212 C13.4545455,64.034632 12.5021645,63.0822511 11.3246753,63.0822511 C10.1471861,63.0822511 9.19480519,64.034632 9.19480519,65.2121212 L9.19480519,71.0995671 C9.19480519,75.982684 13.1601732,79.9480519 18.04329,79.9480519 L66.7878788,79.9480519 C71.6709957,79.9480519 75.6363636,75.982684 75.6363636,71.0995671 L75.6363636,30.7359307 L81.2467532,36.3463203 C82.0779221,37.1774892 83.4112554,37.1774892 84.2424242,36.3463203 C85.0735931,35.5151515 85.0735931,34.1818182 84.2424242,33.3506494 L75.012987,24.1212121 C74.2510823,23.3246753 72.8311688,23.3246753 72.034632,24.1212121 Z" id="Path"></path>
                <path d="M42.4415584,21.2121212 C41.2640693,21.2121212 40.3116883,22.1645022 40.3116883,23.3419913 L40.3116883,26.5974026 L40.034632,26.5974026 C35.982684,26.5974026 32.6753247,30.0779221 32.6753247,34.3376623 C32.6753247,38.5974026 35.982684,42.0779221 40.034632,42.0779221 L44.8138528,42.0779221 C46.5281385,42.0779221 47.9307359,43.6536797 47.9307359,45.5757576 C47.9307359,47.5151515 46.5281385,49.0735931 44.8138528,49.0735931 L36.2251082,49.0735931 C35.047619,49.0735931 34.0952381,50.025974 34.0952381,51.2034632 C34.0952381,52.3809524 35.047619,53.3333333 36.2251082,53.3333333 L40.3116883,53.3333333 L40.3116883,56.6406926 C40.3116883,57.8181818 41.2640693,58.7705628 42.4415584,58.7705628 C43.6190476,58.7705628 44.5714286,57.8181818 44.5714286,56.6406926 L44.5714286,53.3160173 L44.8831169,53.3160173 C44.9004329,53.3160173 44.9177489,53.3160173 44.9350649,53.3160173 C48.952381,53.2640693 52.1904762,49.8008658 52.1904762,45.5757576 C52.1904762,41.2987013 48.8831169,37.8354978 44.8311688,37.8354978 L40.0519481,37.8354978 C38.3376623,37.8354978 36.9350649,36.2597403 36.9350649,34.3376623 C36.9350649,32.4155844 38.3376623,30.8398268 40.0519481,30.8398268 L48.4848485,30.8398268 C49.6623377,30.8398268 50.6147186,29.8874459 50.6147186,28.7099567 C50.6147186,27.5324675 49.6623377,26.5800866 48.4848485,26.5800866 L44.5714286,26.5800866 L44.5714286,23.3246753 C44.5541126,22.1645022 43.6190476,21.2121212 42.4415584,21.2121212 Z" id="Path"></path>
            </g>
        </g>
    </g>
</svg>