<?xml version="1.0" encoding="UTF-8"?>
<svg width="65px" height="65px" viewBox="0 0 65 65" version="1.1" xmlns="http://www.w3.org/2000/svg" xmlns:xlink="http://www.w3.org/1999/xlink">
    <!-- Generator: Sketch 55.1 (78136) - https://sketchapp.com -->
    <title>icon-ecosystem</title>
    <desc>Created with Sketch.</desc>
    <g id="Page-1" stroke="none" stroke-width="1" fill="none" fill-rule="evenodd">
        <g id="Staking-Copy" transform="translate(-805.000000, -2581.000000)">
            <g id="icon-ecosystem" transform="translate(805.000000, 2581.000000)">
                <circle id="Oval-Copy-2" fill="#2F364C" cx="32.5" cy="32.5" r="32.5"></circle>
                <g id="success" transform="translate(17.000000, 17.000000)" fill="#FFAF00" fill-rule="nonzero">
                    <path d="M24.8569459,9.11038431 L22.1306134,9.11038431 L22.1306134,6.26533519 L27.1276414,6.26533519 C27.5971054,6.26533519 27.9766955,5.88552422 27.9766955,5.41738512 C27.9766955,5.16984555 27.8707018,4.94725866 27.7017742,4.79224281 L26.0562211,3.14668966 L27.7271686,1.47574227 C27.9696293,1.23328152 28.0422792,0.868707204 27.9111119,0.551609154 C27.7797238,0.23495283 27.4705753,0.0282650021 27.1276414,0.0282650021 L21.2826633,0.0282650021 C20.8145242,0.0282650021 20.4347133,0.407855162 20.4347133,0.876215067 L20.4347133,9.11038431 L19.4661953,9.11038431 C17.7466674,9.11038431 16.3477706,10.5092811 16.3477706,12.228809 L16.3477706,28.1225731 C16.3477706,28.590933 16.7275816,28.9705231 17.1957207,28.9705231 L27.1276414,28.9705231 C27.5960013,28.9705231 27.9755914,28.590933 27.9755914,28.1225731 L27.9755914,12.2290298 C27.9755914,10.5095019 26.5764738,9.11038431 24.8569459,9.11038431 Z" id="Path"></path>
                    <path d="M0,25.8520984 L0,28.1225731 C0,28.590933 0.37959016,28.9705231 0.847950064,28.9705231 L3.75328312,28.9705231 L3.75328312,22.7336737 L3.11842466,22.7336737 C1.3988968,22.7336737 0,24.1325705 0,25.8520984 Z" id="Path"></path>
                    <path d="M5.44918325,21.3109283 L5.44918325,28.1225731 C5.44918325,28.590933 5.82877341,28.9705231 6.29713332,28.9705231 L9.20268724,28.9705231 L9.20268724,18.1927245 L8.56760797,18.1927245 C6.84808005,18.1927245 5.44918325,19.5916212 5.44918325,21.3109283 Z" id="Path"></path>
                    <path d="M10.8985874,16.7699791 L10.8985874,28.1225731 C10.8985874,28.590933 11.2781775,28.9705231 11.7463166,28.9705231 L14.6518705,28.9705231 L14.6518705,13.6515544 L14.017012,13.6515544 C12.2974841,13.6515544 10.8985874,15.0504512 10.8985874,16.7699791 Z" id="Path"></path>
                </g>
            </g>
        </g>
    </g>
</svg>