<?xml version="1.0" encoding="UTF-8"?>
<svg width="87px" height="120px" viewBox="0 0 87 120" version="1.1" xmlns="http://www.w3.org/2000/svg" xmlns:xlink="http://www.w3.org/1999/xlink">
    <!-- Generator: Sketch 55.1 (78136) - https://sketchapp.com -->
    <title>Accessibility Copy</title>
    <desc>Created with Sketch.</desc>
    <defs>
        <polygon id="path-1" points="-1.56319402e-13 0.90902521 86.0504202 0.90902521 86.0504202 100.66395 -1.56319402e-13 100.66395"></polygon>
    </defs>
    <g id="Page-1" stroke="none" stroke-width="1" fill="none" fill-rule="evenodd">
        <g id="Accessibility-Copy">
            <rect id="Rectangle-Copy-9" fill="#161B28" x="0" y="0" width="87" height="120"></rect>
            <g id="Group-3" transform="translate(0.000000, 9.091092)">
                <mask id="mask-2" fill="white">
                    <use xlink:href="#path-1"></use>
                </mask>
                <g id="Clip-2"></g>
                <path d="M82.7394958,67.5681513 L3.3092437,67.5681513 L3.3092437,64.2589076 L13.2369748,64.2589076 C14.1512605,64.2589076 14.892437,63.5177311 14.892437,62.6034454 C14.892437,61.6891597 14.1512605,60.9479832 13.2369748,60.9479832 L3.3092437,60.9479832 L3.3092437,31.9883193 C3.3092437,28.795042 5.90756303,26.1967227 9.10084034,26.1967227 L31.5731092,26.1967227 C31.5445378,27.5311765 31.589916,28.8689916 31.7109244,30.2034454 C29.0453782,33.0706723 27.5815126,36.7681513 27.5815126,40.7059664 C27.5815126,44.6790756 29.0941176,48.4605882 31.8420168,51.3429412 C32.5142857,52.0505042 34.2319328,51.7261345 33.9563025,50.1664706 C33.8117647,49.3496639 33.6319328,48.5580672 33.6319328,47.7765546 C33.6319328,45.8320168 34.2201681,43.9832773 35.3109244,42.4219328 C35.492437,42.5194118 35.6957983,42.5782353 35.9109244,42.5782353 L50.1361345,42.5782353 C50.3546218,42.5782353 50.5563025,42.5194118 50.7378151,42.4219328 C51.8285714,43.9832773 52.4168067,45.8320168 52.4168067,47.7765546 C52.4168067,48.5580672 52.2134454,49.3362185 52.0941176,50.1664706 C51.8403361,51.8942017 53.6420168,51.9530252 54.2067227,51.3429412 C56.9445378,48.4488235 58.4672269,44.6790756 58.4672269,40.7059664 C58.4554622,36.7681513 57.0033613,33.0589076 54.3378151,30.2034454 C54.4588235,28.8689916 54.5042017,27.5311765 54.4756303,26.1967227 L76.9478992,26.1967227 C80.1411765,26.1967227 82.7394958,28.795042 82.7394958,31.9883193 L82.7394958,67.5681513 Z M82.7394958,75.0135294 C82.7394958,78.2084874 80.1411765,80.8068067 76.9478992,80.8068067 L9.10084034,80.8068067 C5.90756303,80.8068067 3.3092437,78.2084874 3.3092437,75.0135294 L3.3092437,70.877395 L82.7394958,70.877395 L82.7394958,75.0135294 Z M31.805042,97.3547059 L34.4521008,84.1160504 L51.5966387,84.1160504 L54.2436975,97.3547059 L31.805042,97.3547059 Z M43.0184874,3.94966387 C45.2504202,6.34966387 47.0756303,9.0505042 48.492437,11.9210924 L37.5563025,11.9210924 C38.9596639,9.0387395 40.7865546,6.34966387 43.0184874,3.94966387 L43.0184874,3.94966387 Z M53.8588235,33.6353782 C55.2268908,35.7126891 55.9579832,38.1496639 55.9579832,40.7059664 C55.9579832,42.59 55.5512605,44.4152101 54.794958,46.0841176 C54.4705882,43.8404202 53.5226891,41.7513445 52.0336134,40.0219328 C52.7294118,38.2336975 53.8470588,33.7076471 53.8588235,33.6353782 L53.8588235,33.6353782 Z M34.0151261,40.0219328 C32.5142857,41.7513445 31.5663866,43.8404202 31.2537815,46.0841176 C30.4857143,44.4152101 30.0907563,42.59 30.0907563,40.7059664 C30.0907563,38.1614286 30.8218487,35.7244538 32.1915966,33.6353782 C32.2016807,33.7328571 33.512605,38.7378992 34.0151261,40.0219328 L34.0151261,40.0219328 Z M34.2907563,26.1967227 C34.3142857,25.092521 34.3915966,23.9866387 34.5243697,22.887479 C34.8571429,20.0689916 35.5445378,17.2841176 36.5848739,14.6152101 L49.4537815,14.6152101 C50.4941176,17.2841176 51.1798319,20.0689916 51.5142857,22.887479 C51.6453782,23.9866387 51.7226891,25.092521 51.7462185,26.1967227 C51.8453782,30.8723529 50.9848739,35.5496639 49.1697479,39.8605882 L36.8689076,39.8605882 C35.0537815,35.5496639 34.1932773,30.8706723 34.2907563,26.1967227 L34.2907563,26.1967227 Z M76.9478992,22.887479 L54.2571429,22.887479 C53.3630252,14.8723529 49.8252101,7.17823529 43.907563,1.26058824 C43.4386555,0.791680672 42.610084,0.791680672 42.1428571,1.26058824 C36.2235294,7.17823529 32.6840336,14.8689916 31.789916,22.887479 L9.10084034,22.887479 C4.08235294,22.887479 -1.56319402e-13,26.9698319 -1.56319402e-13,31.9883193 L-1.56319402e-13,75.0135294 C-1.56319402e-13,80.0320168 4.08235294,84.1160504 9.10084034,84.1160504 L31.0773109,84.1160504 L28.4285714,97.3547059 L19.8571429,97.3547059 C18.9428571,97.3547059 18.2016807,98.0958824 18.2016807,99.0084874 C18.2016807,99.9227731 18.9428571,100.66395 19.8571429,100.66395 L66.1915966,100.66395 C67.1058824,100.66395 67.8470588,99.9227731 67.8470588,99.0084874 C67.8470588,98.0958824 67.1058824,97.3547059 66.1915966,97.3547059 L57.6201681,97.3547059 L54.9714286,84.1160504 L76.9478992,84.1160504 C81.9663866,84.1160504 86.0504202,80.0336975 86.0504202,75.0135294 L86.0504202,31.9883193 C86.0504202,26.9698319 81.9663866,22.887479 76.9478992,22.887479 L76.9478992,22.887479 Z" id="Fill-1" fill="#00A99D" mask="url(#mask-2)"></path>
            </g>
            <path d="M37.9646891,53.5483697 C37.1596471,53.5483697 36.5058655,54.2038319 36.5058655,55.0071933 L36.5058655,61.2861849 C36.5058655,62.0895462 37.1596471,62.7433277 37.9646891,62.7433277 C38.7680504,62.7433277 39.4235126,62.0895462 39.4235126,61.2861849 L39.4235126,55.0071933 C39.4235126,54.2038319 38.7680504,53.5483697 37.9646891,53.5483697" id="Fill-4" fill="#00A99D"></path>
            <path d="M43.018437,53.5483697 C42.628521,53.5483697 42.2604538,53.7029916 41.9814622,53.9836639 L41.9696975,53.9937479 C41.7999496,54.1634958 41.6738992,54.3870252 41.6016303,54.6492101 C41.5764202,54.7618151 41.5478487,54.8878655 41.5478487,55.0307227 L41.5478487,67.5752605 C41.5478487,67.6878655 41.5612941,67.8021513 41.5898655,67.9130756 C41.7478487,68.5735798 42.3293613,69.034084 43.0066723,69.034084 C43.6823025,69.034084 44.2654958,68.5735798 44.423479,67.9147563 C44.4505378,67.8021513 44.4654958,67.6878655 44.4654958,67.5752605 L44.4654958,55.0071933 C44.4654958,54.8525714 44.4470084,54.7248403 44.4100336,54.6206387 C44.2520504,53.9887059 43.6806218,53.5483697 43.018437,53.5483697" id="Fill-6" fill="#00A99D"></path>
            <path d="M48.0722689,53.5483697 C47.2672269,53.5483697 46.6134454,54.2038319 46.6134454,55.0071933 L46.6134454,61.2861849 C46.6134454,62.0895462 47.2672269,62.7433277 48.0722689,62.7433277 C48.8756303,62.7433277 49.5310924,62.0895462 49.5310924,61.2861849 L49.5310924,55.0105546 C49.5378151,54.624 49.3915966,54.2592941 49.1226891,53.9853445 C48.8453782,53.7046723 48.4722689,53.5483697 48.0722689,53.5483697" id="Fill-8" fill="#00A99D"></path>
        </g>
    </g>
</svg>