<?xml version="1.0" encoding="UTF-8"?>
<svg width="86px" height="13px" viewBox="0 0 86 13" version="1.1" xmlns="http://www.w3.org/2000/svg" xmlns:xlink="http://www.w3.org/1999/xlink">
    <!-- Generator: Sketch 50.2 (55047) - http://www.bohemiancoding.com/sketch -->
    <title>Group 8 Copy 5</title>
    <desc>Created with Sketch.</desc>
    <defs>
        <linearGradient x1="100%" y1="50%" x2="0%" y2="74.3124892%" id="linearGradient-1">
            <stop stop-color="#42B8FF" offset="0%"></stop>
            <stop stop-color="#475DE2" offset="100%"></stop>
        </linearGradient>
    </defs>
    <g id="Page-1" stroke="none" stroke-width="1" fill="none" fill-rule="evenodd">
        <g id="Home" transform="translate(-616.000000, -2299.000000)">
            <g id="Group-8-Copy-5" transform="translate(616.000000, 2299.000000)">
                <path d="M7.686,8.9723334 C7.74200028,9.07033389 7.77,9.17066622 7.77,9.2733334 C7.77,9.46933438 7.70700063,9.6139996 7.581,9.7073334 C7.45499937,9.8006672 7.30333422,9.8473334 7.126,9.8473334 C6.94866578,9.8473334 6.79933394,9.81000044 6.678,9.7353334 C6.3979986,9.57666594 6.16933422,9.32000184 5.992,8.9653334 C5.81466578,8.61066496 5.726,8.08800352 5.726,7.3973334 C5.726,6.9306644 5.5860014,6.58533452 5.306,6.3613334 C5.0259986,6.13733228 4.66200224,6.0253334 4.214,6.0253334 L1.386,6.0253334 L1.386,9.1753334 C1.386,9.37133438 1.33000056,9.53233277 1.218,9.6583334 C1.10599944,9.78433403 0.96133422,9.8473334 0.784,9.8473334 C0.56933226,9.8473334 0.38500077,9.78200072 0.231,9.6513334 C0.07699923,9.52066608 0,9.362001 0,9.1753334 L0,0.719333403 C0,0.532665803 0.06533268,0.374000723 0.196,0.243333403 C0.32666732,0.112666083 0.4853324,0.0473334032 0.672,0.0473334032 L4.606,0.0473334032 C5.11000252,0.0473334032 5.5719979,0.170998833 5.992,0.418333403 C6.4120021,0.665667973 6.74799874,1.00633123 7,1.4403334 C7.25200126,1.87433557 7.378,2.36199736 7.378,2.9033334 C7.378,3.42600268 7.2380014,3.91366447 6.958,4.3663334 C6.6779986,4.81900233 6.31866886,5.15733228 5.88,5.3813334 C6.22533506,5.55866762 6.49833233,5.80599848 6.699,6.1233334 C6.89966767,6.44066832 7.00933324,6.8093313 7.028,7.2293334 C7.06533352,7.76133606 7.1073331,8.12299911 7.154,8.3143334 C7.2006669,8.50566769 7.30333254,8.64333298 7.462,8.7273334 C7.5553338,8.79266706 7.62999972,8.87433291 7.686,8.9723334 Z M5.243,4.5833334 C5.45300105,4.41533256 5.62333268,4.18900149 5.754,3.9043334 C5.88466732,3.61966531 5.95,3.30000184 5.95,2.9453334 C5.95,2.49733116 5.81233471,2.11700163 5.537,1.8043334 C5.26166529,1.49166517 4.92800196,1.3353334 4.536,1.3353334 L1.386,1.3353334 L1.386,4.8633334 L4.578,4.8633334 C4.8113345,4.84466664 5.03299895,4.75133424 5.243,4.5833334 Z M15.295,2.7073334 C15.4210006,2.83800072 15.484,2.9966658 15.484,3.1833334 L15.484,6.9073334 C15.484,7.87800492 15.2156694,8.63166405 14.679,9.1683334 C14.1423307,9.70500275 13.3840049,9.9733334 12.404,9.9733334 C11.4333285,9.9733334 10.6820027,9.70500275 10.15,9.1683334 C9.61799734,8.63166405 9.352,7.87800492 9.352,6.9073334 L9.352,3.1833334 C9.352,2.9966658 9.41499937,2.83800072 9.541,2.7073334 C9.66700063,2.57666608 9.8233324,2.5113334 10.01,2.5113334 C10.206001,2.5113334 10.3669994,2.57666608 10.493,2.7073334 C10.6190006,2.83800072 10.682,2.9966658 10.682,3.1833334 L10.682,6.9073334 C10.682,8.13000618 11.2559943,8.7413334 12.404,8.7413334 C12.9733362,8.7413334 13.4073318,8.58733494 13.706,8.2793334 C14.0046682,7.97133186 14.154,7.5140031 14.154,6.9073334 L14.154,3.1833334 C14.154,2.9966658 14.2169994,2.83800072 14.343,2.7073334 C14.4690006,2.57666608 14.6253324,2.5113334 14.812,2.5113334 C15.008001,2.5113334 15.1689994,2.57666608 15.295,2.7073334 Z M23.73,5.3673334 L23.73,9.1753334 C23.73,9.362001 23.6670006,9.52066608 23.541,9.6513334 C23.4149994,9.78200072 23.254001,9.8473334 23.058,9.8473334 C22.8713324,9.8473334 22.7150006,9.78200072 22.589,9.6513334 C22.4629994,9.52066608 22.4,9.362001 22.4,9.1753334 L22.4,5.3813334 C22.4,4.83066398 22.2740013,4.3920017 22.022,4.0653334 C21.7699987,3.7386651 21.3593362,3.5753334 20.79,3.5753334 C20.4166648,3.5753334 20.0783349,3.65699925 19.775,3.8203334 C19.4716651,3.98366755 19.2336675,4.20299869 19.061,4.4783334 C18.8883325,4.75366811 18.802,5.0546651 18.802,5.3813334 L18.802,9.1753334 C18.802,9.362001 18.7390006,9.52066608 18.613,9.6513334 C18.4869994,9.78200072 18.326001,9.8473334 18.13,9.8473334 C17.933999,9.8473334 17.7753339,9.78433403 17.654,9.6583334 C17.5326661,9.53233277 17.472,9.37133438 17.472,9.1753334 L17.472,3.1833334 C17.472,2.9966658 17.5349994,2.83800072 17.661,2.7073334 C17.7870006,2.57666608 17.9433324,2.5113334 18.13,2.5113334 C18.326001,2.5113334 18.4869994,2.57666608 18.613,2.7073334 C18.7390006,2.83800072 18.802,2.9966658 18.802,3.1833334 L18.802,3.6733334 C19.0446679,3.2999982 19.3829978,2.98500135 19.817,2.7283334 C20.2510022,2.47166545 20.7153309,2.3433334 21.21,2.3433334 C22.8900084,2.3433334 23.73,3.35132332 23.73,5.3673334 Z M37.338,9.2453334 C37.338,9.432001 37.2750006,9.58599946 37.149,9.7073334 C37.0229994,9.82866734 36.8760008,9.8893334 36.708,9.8893334 C36.5773327,9.8893334 36.4583339,9.84966713 36.351,9.7703334 C36.2436661,9.69099967 36.1573337,9.5813341 36.092,9.4413334 L35.224,7.3833334 L30.898,7.3833334 L30.044,9.4553334 C29.9973331,9.5953341 29.9203339,9.70266636 29.813,9.7773334 C29.7056661,9.85200044 29.5866673,9.8893334 29.456,9.8893334 C29.259999,9.8893334 29.1106672,9.83800058 29.008,9.7353334 C28.9053328,9.63266622 28.854,9.49266762 28.854,9.3153334 C28.854,9.27799988 28.8633332,9.20333396 28.882,9.0913334 L32.452,0.439333403 C32.5173337,0.289999323 32.6083328,0.175667133 32.725,0.0963334032 C32.8416673,0.0169996732 32.9746659,-0.0133333568 33.124,0.00533340324 C33.2640007,0.00533340324 33.3899994,0.0426663632 33.502,0.117333403 C33.6140006,0.192000443 33.6933331,0.299332703 33.74,0.439333403 L37.296,8.9793334 C37.3240001,9.06333382 37.338,9.1519996 37.338,9.2453334 Z M31.43,6.1093334 L34.692,6.1093334 L33.054,2.1893334 L31.43,6.1093334 Z M43.988,2.8683334 C44.5013359,3.19033501 44.9049985,3.64066384 45.199,4.2193334 C45.4930015,4.79800296 45.64,5.45132976 45.64,6.1793334 C45.64,6.90733704 45.4930015,7.55833053 45.199,8.1323334 C44.9049985,8.70633627 44.5013359,9.1566651 43.988,9.4833334 C43.4746641,9.8100017 42.9100031,9.9733334 42.294,9.9733334 C41.8086642,9.9733334 41.3560021,9.86600114 40.936,9.6513334 C40.5159979,9.43666566 40.1753346,9.17533494 39.914,8.8673334 L39.914,11.9753334 C39.914,12.162001 39.8510006,12.3206661 39.725,12.4513334 C39.5989994,12.5820007 39.438001,12.6473334 39.242,12.6473334 C39.0553324,12.6473334 38.8990006,12.584334 38.773,12.4583334 C38.6469994,12.3323328 38.584,12.1713344 38.584,11.9753334 L38.584,3.1693334 C38.584,2.97333242 38.6446661,2.81000072 38.766,2.6793334 C38.8873339,2.54866608 39.045999,2.4833334 39.242,2.4833334 C39.438001,2.4833334 39.5989994,2.54866608 39.725,2.6793334 C39.8510006,2.81000072 39.914,2.97333242 39.914,3.1693334 L39.914,3.5753334 C40.1380011,3.2486651 40.4646645,2.9686679 40.894,2.7353334 C41.3233355,2.5019989 41.7806642,2.3853334 42.266,2.3853334 C42.9006698,2.3853334 43.4746641,2.54633179 43.988,2.8683334 Z M43.274,8.4053334 C43.6193351,8.18133228 43.8876657,7.87566867 44.079,7.4883334 C44.2703343,7.10099813 44.366,6.66466916 44.366,6.1793334 C44.366,5.69399764 44.2703343,5.25766867 44.079,4.8703334 C43.8876657,4.48299813 43.6193351,4.17733452 43.274,3.9533334 C42.9286649,3.72933228 42.5413355,3.6173334 42.112,3.6173334 C41.6733311,3.6173334 41.2813351,3.72699897 40.936,3.9463334 C40.5906649,4.16566783 40.3223343,4.47133144 40.131,4.8633334 C39.9396657,5.25533536 39.844,5.69399764 39.844,6.1793334 C39.844,6.66466916 39.9396657,7.10333144 40.131,7.4953334 C40.3223343,7.88733536 40.5906649,8.19299897 40.936,8.4123334 C41.2813351,8.63166783 41.6733311,8.7413334 42.112,8.7413334 C42.5413355,8.7413334 42.9286649,8.62933452 43.274,8.4053334 Z M52.584,2.8683334 C53.0973359,3.19033501 53.5009985,3.64066384 53.795,4.2193334 C54.0890015,4.79800296 54.236,5.45132976 54.236,6.1793334 C54.236,6.90733704 54.0890015,7.55833053 53.795,8.1323334 C53.5009985,8.70633627 53.0973359,9.1566651 52.584,9.4833334 C52.0706641,9.8100017 51.5060031,9.9733334 50.89,9.9733334 C50.4046642,9.9733334 49.9520021,9.86600114 49.532,9.6513334 C49.1119979,9.43666566 48.7713346,9.17533494 48.51,8.8673334 L48.51,11.9753334 C48.51,12.162001 48.4470006,12.3206661 48.321,12.4513334 C48.1949994,12.5820007 48.034001,12.6473334 47.838,12.6473334 C47.6513324,12.6473334 47.4950006,12.584334 47.369,12.4583334 C47.2429994,12.3323328 47.18,12.1713344 47.18,11.9753334 L47.18,3.1693334 C47.18,2.97333242 47.2406661,2.81000072 47.362,2.6793334 C47.4833339,2.54866608 47.641999,2.4833334 47.838,2.4833334 C48.034001,2.4833334 48.1949994,2.54866608 48.321,2.6793334 C48.4470006,2.81000072 48.51,2.97333242 48.51,3.1693334 L48.51,3.5753334 C48.7340011,3.2486651 49.0606645,2.9686679 49.49,2.7353334 C49.9193355,2.5019989 50.3766642,2.3853334 50.862,2.3853334 C51.4966698,2.3853334 52.0706641,2.54633179 52.584,2.8683334 Z M51.87,8.4053334 C52.2153351,8.18133228 52.4836657,7.87566867 52.675,7.4883334 C52.8663343,7.10099813 52.962,6.66466916 52.962,6.1793334 C52.962,5.69399764 52.8663343,5.25766867 52.675,4.8703334 C52.4836657,4.48299813 52.2153351,4.17733452 51.87,3.9533334 C51.5246649,3.72933228 51.1373355,3.6173334 50.708,3.6173334 C50.2693311,3.6173334 49.8773351,3.72699897 49.532,3.9463334 C49.1866649,4.16566783 48.9183343,4.47133144 48.727,4.8633334 C48.5356657,5.25533536 48.44,5.69399764 48.44,6.1793334 C48.44,6.66466916 48.5356657,7.10333144 48.727,7.4953334 C48.9183343,7.88733536 49.1866649,8.19299897 49.532,8.4123334 C49.8773351,8.63166783 50.2693311,8.7413334 50.708,8.7413334 C51.1373355,8.7413334 51.5246649,8.62933452 51.87,8.4053334 Z" id="Run-App" fill="#4A7AFE"></path>
                <g id="Group-4-Copy-5" transform="translate(62.000000, 0.000000)">
                    <path d="M1,7 L4,7 C4.55228475,7 5,6.55228475 5,6 L5,6 C5,5.44771525 4.55228475,5 4,5 L1,5 C0.44771525,5 -6.76353751e-17,5.44771525 0,6 L0,6 C6.76353751e-17,6.55228475 0.44771525,7 1,7 Z" id="Fill-1-Copy" fill="#5538FB"></path>
                    <path d="M17.2090506,0.692172233 L17.0224729,0.874635569 C16.6276192,1.26078194 16.6205605,1.89390757 17.0067069,2.28876125 C17.0119035,2.294075 17.0171591,2.29933065 17.0224729,2.30452722 L19.8329454,5.05302326 L7.95739535,5.05302326 C7.4286405,5.05302326 7,5.48166375 7,6.0104186 L7,6.0104186 C7,6.53917346 7.4286405,6.96781395 7.95739535,6.96781395 L19.8123993,6.96781395 L17.0226441,9.69604955 C16.6277904,10.0821959 16.6207317,10.7153216 17.0068781,11.1101752 C17.0121292,11.1155448 17.0174407,11.120855 17.0228114,11.1261048 L17.209018,11.30812 C17.601101,11.6913772 18.2286754,11.6874519 18.6159335,11.2993202 L22.9376902,6.96781395 L23.1878551,6.7399897 C23.5961862,6.36812395 23.6257472,5.73564941 23.2538815,5.32731829 C23.2328315,5.30420419 23.2107093,5.28208992 23.1875875,5.26104835 L22.9589973,5.05302326 L18.6160973,0.700772135 C18.2287689,0.312609768 17.6010948,0.308773409 17.2090506,0.692172233 Z" id="Fill-2-Copy" fill="url(#linearGradient-1)"></path>
                </g>
            </g>
        </g>
    </g>
</svg>