<?xml version="1.0" encoding="UTF-8"?>
<svg width="120px" height="120px" viewBox="0 0 120 120" version="1.1" xmlns="http://www.w3.org/2000/svg" xmlns:xlink="http://www.w3.org/1999/xlink">
    <!-- Generator: Sketch 55.1 (78136) - https://sketchapp.com -->
    <title>icon_es_st_6</title>
    <desc>Created with Sketch.</desc>
    <defs>
        <linearGradient x1="0%" y1="36.6230678%" x2="100%" y2="63.3769322%" id="linearGradient-1">
            <stop stop-color="#A088FF" offset="0%"></stop>
            <stop stop-color="#8163FF" offset="100%"></stop>
        </linearGradient>
        <path d="M9.23076923,17.5384615 L62.7692308,17.5384615 L62.7692308,44.2307692 C62.7692308,44.783054 62.3215155,45.2307692 61.7692308,45.2307692 L10.2307692,45.2307692 C9.67848448,45.2307692 9.23076923,44.783054 9.23076923,44.2307692 L9.23076923,17.5384615 Z" id="path-2"></path>
        <filter x="-44.8%" y="-86.7%" width="189.7%" height="273.3%" filterUnits="objectBoundingBox" id="filter-3">
            <feOffset dx="0" dy="0" in="SourceAlpha" result="shadowOffsetOuter1"></feOffset>
            <feGaussianBlur stdDeviation="8" in="shadowOffsetOuter1" result="shadowBlurOuter1"></feGaussianBlur>
            <feColorMatrix values="0 0 0 0 0.725490196   0 0 0 0 0.658823529   0 0 0 0 0.97254902  0 0 0 0.5 0" type="matrix" in="shadowBlurOuter1"></feColorMatrix>
        </filter>
        <linearGradient x1="0%" y1="46.712689%" x2="100%" y2="53.287311%" id="linearGradient-4">
            <stop stop-color="#D7C4FF" offset="0%"></stop>
            <stop stop-color="#8163FF" offset="100%"></stop>
        </linearGradient>
        <linearGradient x1="18.585998%" y1="11.9135753%" x2="84.4283449%" y2="86.4735176%" id="linearGradient-5">
            <stop stop-color="#FD7DB3" offset="0%"></stop>
            <stop stop-color="#FF9E98" offset="100%"></stop>
        </linearGradient>
    </defs>
    <g id="Page-1" stroke="none" stroke-width="1" fill="none" fill-rule="evenodd">
        <g id="TomoZ-1-Copy-5" transform="translate(-736.000000, -1120.000000)">
            <g id="icon_es_st_6" transform="translate(736.000000, 1120.000000)">
                <circle id="Oval" fill="#F5F2FB" cx="60" cy="60" r="60"></circle>
                <g id="Group-13" transform="translate(22.153846, 22.153846)">
                    <g id="piggy-bank" transform="translate(16.615385, 12.923077)" fill-rule="nonzero">
                        <circle id="Oval" fill="#FFD978" cx="11.5384615" cy="11.5384615" r="11.5384615"></circle>
                        <circle id="Oval" fill="#FEC364" cx="11.5384615" cy="11.5384615" r="8.76923077"></circle>
                    </g>
                    <g id="piggy-bank-copy" transform="translate(42.461538, 0.000000)" fill-rule="nonzero">
                        <circle id="Oval" fill="#FFD978" cx="9.23076923" cy="9.23076923" r="9.23076923"></circle>
                        <circle id="Oval" fill="#FEC364" cx="9.23076923" cy="9.23076923" r="7.01538462"></circle>
                    </g>
                    <g id="Group-12" transform="translate(0.000000, 26.769231)">
                        <g id="Rectangle">
                            <use fill="black" fill-opacity="1" filter="url(#filter-3)" xlink:href="#path-2"></use>
                            <use fill="url(#linearGradient-1)" fill-rule="evenodd" xlink:href="#path-2"></use>
                        </g>
                        <rect id="Rectangle-Copy-24" fill="#000000" opacity="0.05" x="9.23076923" y="18.4615385" width="53.5384615" height="7.38461538"></rect>
                        <rect id="Rectangle-Copy-20" fill="#FFFFFF" opacity="0.200000003" x="21.2307692" y="17.5384615" width="1" height="27.6923077"></rect>
                        <rect id="Rectangle-Copy-21" fill="#FFFFFF" opacity="0.200000003" x="35.0769231" y="17.5384615" width="1" height="27.6923077"></rect>
                        <rect id="Rectangle-Copy-22" fill="#FFFFFF" opacity="0.200000003" x="48.9230769" y="17.5384615" width="1" height="27.6923077"></rect>
                        <path d="M1.61803399,3.41060513e-12 L70.381966,3.41060513e-12 C70.9342508,3.4136123e-12 71.381966,0.44771525 71.381966,1 C71.381966,1.1552451 71.3458209,1.30835816 71.2763932,1.4472136 L63.045624,17.9087521 C62.876232,18.2475361 62.5299688,18.4615385 62.1511968,18.4615385 L9.84880322,18.4615385 C9.47003116,18.4615385 9.12376804,18.2475361 8.95437603,17.9087521 L0.723606798,1.4472136 C0.476617549,0.953235098 0.676841896,0.352562058 1.17082039,0.105572809 C1.30967583,0.0361450918 1.46278889,3.40996752e-12 1.61803399,3.41060513e-12 Z" id="Rectangle-Copy-23" fill="url(#linearGradient-4)" transform="translate(36.000000, 9.230769) scale(1, -1) translate(-36.000000, -9.230769) "></path>
                        <path d="M0.674960048,2.27373675e-13 C10.9577661,8.26280546 22.1173948,13.9452884 34.1538462,17.0474488 C31.1313588,17.0474488 22.8236665,17.0474488 9.23076923,17.0474488 L0.674960048,2.27373675e-13 Z" id="Rectangle-Copy-25" fill="#FFEEE7" opacity="0.200000003" transform="translate(17.414403, 8.523724) scale(1, -1) translate(-17.414403, -8.523724) "></path>
                    </g>
                    <path d="M55.78201,55.5774209 C55.2952565,55.5217953 54.8002874,55.4932127 54.2986425,55.4932127 C47.1614242,55.4932127 41.3755656,61.2790713 41.3755656,68.4162896 C41.3755656,69.7322756 41.567801,70.9122944 41.9334104,72.1085973 C42.942718,72.1085973 45.3814547,72.1085973 46.8788999,72.1085973 C49.1700167,75.7230239 62.2206053,56.3132156 55.78201,55.5774209 Z" id="Oval-Copy-73" fill="#000000" opacity="0.05"></path>
                    <circle id="Oval-Copy-78" fill="url(#linearGradient-5)" cx="59.0769231" cy="68.3076923" r="12.9230769"></circle>
                    <path d="M65.2600999,56.9570335 C63.4235031,55.9544409 61.316758,55.3846154 59.0769231,55.3846154 C51.9397048,55.3846154 46.1538462,61.170474 46.1538462,68.3076923 C46.1538462,69.5173331 46.320043,70.6881565 46.6308479,71.7985738 C46.9788365,73.0418382 47.508104,74.2093783 48.1883492,75.270893 C48.5729891,63.5160836 54.6681685,57.2894148 65.2600999,56.9570335 Z" id="Oval-Copy-74" fill="#FFEEE7" opacity="0.200000003"></path>
                    <path d="M62.2067308,69 C62.0468742,69.6310128 61.7229592,70.1652622 61.234976,70.6027644 C60.7469928,71.0402666 60.1790898,71.305288 59.53125,71.3978365 L59.53125,73.7451923 L61.6225962,73.7451923 C61.7487987,73.7451923 61.8560693,73.7893625 61.9444111,73.8777043 C62.0327528,73.9660461 62.0769231,74.0733167 62.0769231,74.1995192 C62.0769231,74.3257218 62.0327528,74.4329923 61.9444111,74.5213341 C61.8560693,74.6096759 61.7487987,74.6538462 61.6225962,74.6538462 L56.53125,74.6538462 C56.4050474,74.6538462 56.2977769,74.6096759 56.2094351,74.5213341 C56.1210933,74.4329923 56.0769231,74.3257218 56.0769231,74.1995192 C56.0769231,74.0733167 56.1210933,73.9660461 56.2094351,73.8777043 C56.2977769,73.7893625 56.4050474,73.7451923 56.53125,73.7451923 L58.6225962,73.7451923 L58.6225962,71.3978365 C57.9747564,71.305288 57.4068534,71.0402666 56.9188702,70.6027644 C56.430887,70.1652622 56.106972,69.6310128 55.9471154,69 L55.8461538,69 C55.4002382,69 55.0195328,68.8422492 54.7040264,68.5267428 C54.3885201,68.2112364 54.2307692,67.8305311 54.2307692,67.3846154 L54.2307692,64.1538462 L55.8461538,64.1538462 C55.8713944,63.9266816 55.9702515,63.7352772 56.1427284,63.5796274 C56.3152052,63.4239776 56.5192296,63.3461538 56.7548077,63.3461538 L61.3990385,63.3461538 C61.6346166,63.3461538 61.8365376,63.4239776 62.0048077,63.5796274 C62.1730778,63.7352772 62.2740383,63.9266816 62.3076923,64.1538462 L63.9230769,64.1538462 L63.9230769,67.3846154 C63.9230769,67.8305311 63.7653261,68.2112364 63.4498197,68.5267428 C63.1343133,68.8422492 62.753608,69 62.3076923,69 L62.2067308,69 Z M62.3076923,65.0625 L62.3076923,68.0913462 C62.5012029,68.0913462 62.6673671,68.0219358 62.8061899,67.883113 C62.9450127,67.7442902 63.0144231,67.578126 63.0144231,67.3846154 L63.0144231,65.0625 L62.3076923,65.0625 Z M55.8461538,68.0913462 L55.8461538,65.0625 L55.1394231,65.0625 L55.1394231,67.3846154 C55.1394231,67.578126 55.2088334,67.7442902 55.3476562,67.883113 C55.4864791,68.0219358 55.6526433,68.0913462 55.8461538,68.0913462 Z M60.7175481,69.8329327 C61.1718773,69.3786035 61.3990385,68.831734 61.3990385,68.1923077 L61.3990385,64.2548077 L56.7548077,64.2548077 L56.7548077,68.1923077 C56.7548077,68.831734 56.9819689,69.3786035 57.4362981,69.8329327 C57.8906273,70.2872619 58.4374968,70.5144231 59.0769231,70.5144231 C59.7163494,70.5144231 60.2632189,70.2872619 60.7175481,69.8329327 Z" id="" fill="#FFFFFF" fill-rule="nonzero"></path>
                </g>
                <circle id="Oval-Copy-75" fill="#97DCFD" cx="69.2307692" cy="11.0769231" r="1.84615385"></circle>
                <circle id="Oval-Copy-76" fill="#F8C3A7" cx="10.7692308" cy="54.7692308" r="2.76923077"></circle>
                <circle id="Oval-Copy-77" fill="#B9A8F8" cx="105.230769" cy="84.9230769" r="2.76923077"></circle>
            </g>
        </g>
    </g>
</svg>