<?xml version="1.0" encoding="UTF-8"?>
<svg width="92px" height="79px" viewBox="0 0 92 79" version="1.1" xmlns="http://www.w3.org/2000/svg" xmlns:xlink="http://www.w3.org/1999/xlink">
    <!-- Generator: Sketch 57.1 (83088) - https://sketch.com -->
    <title>icon-tomox-3</title>
    <desc>Created with Sketch.</desc>
    <g id="Page-1" stroke="none" stroke-width="1" fill="none" fill-rule="evenodd">
        <g id="tomox-1" transform="translate(-234.000000, -2479.000000)" fill="#00A99D" fill-rule="nonzero" stroke="#00A99D" stroke-width="0.5">
            <g id="Group-6" transform="translate(235.000000, 2118.000000)">
                <g id="icon-tomox-3" transform="translate(0.000000, 362.000000)">
                    <path d="M76.3359677,12.877621 C67.9391129,4.73044355 56.6992742,0.174012097 44.9994556,0.174012097 C20.1465726,0.174012097 0,20.3218548 0,45.1747379 C0,56.9533065 4.6184879,68.2624597 12.8636492,76.6741935 C13.4167137,77.2546573 14.3355847,77.2767944 14.9158669,76.7237298 C15.4963306,76.1706653 15.5184677,75.2517944 14.9654032,74.6715121 C14.9559677,74.6615323 14.9461694,74.6517339 14.936371,74.6419355 C-1.33820565,58.0385685 -1.07183468,31.3856855 15.5313508,15.1109274 C32.1345363,-1.16383065 58.7874194,-0.897459677 75.0621774,15.7059073 C82.7756855,23.5751008 87.0960484,34.155 87.0960484,45.1740121 C87.1196371,56.1233468 82.8533468,66.6462702 75.2116935,74.4878831 C74.6533669,75.0634476 74.6673387,75.9828629 75.2429032,76.5411895 C75.8184677,77.0995161 76.7378831,77.0855444 77.2962097,76.5099798 C94.6027016,58.6732863 94.1726613,30.1841129 76.3359677,12.877621 Z" id="Path"></path>
                    <path d="M46.9418952,39.6983468 C46.3180645,39.4778831 45.6610282,39.3661089 44.9994556,39.3675605 C43.6100806,39.3731855 42.2696976,39.8810685 41.2252621,40.7973992 L31.5096169,31.0832056 C30.9329637,30.5263306 30.0139113,30.5422984 29.4570363,31.1189516 C28.9137702,31.6814516 28.9137702,32.5732863 29.4570363,33.1357863 L39.5515524,43.2303024 C38.4860685,46.2463911 40.0674194,49.5551613 43.0835081,50.6206452 C46.0995968,51.686129 49.4083669,50.1047782 50.4738508,47.0886895 C51.5393347,44.0726008 49.9579839,40.7638306 46.9418952,39.6983468 Z M44.9994556,48.0772379 C43.3959677,48.0772379 42.0962298,46.7775 42.0962298,45.1740121 C42.0962298,43.5705242 43.3959677,42.2707863 44.9994556,42.2707863 C46.6029435,42.2707863 47.9026815,43.5705242 47.9026815,45.1740121 C47.9026815,46.7775 46.6027621,48.0772379 44.9994556,48.0772379 Z" id="Shape"></path>
                    <path d="M46.4510685,12.7869153 L46.4510685,6.98046371 C46.4510685,6.17881048 45.8011089,5.52885081 44.9994556,5.52885081 C44.1978024,5.52885081 43.5478427,6.17881048 43.5478427,6.98046371 L43.5478427,12.7869153 C43.5478427,13.5885685 44.1978024,14.2385282 44.9994556,14.2385282 C45.8011089,14.2385282 46.4510685,13.5885685 46.4510685,12.7869153 Z" id="Path"></path>
                    <path d="M6.80590726,43.7223992 C6.00425403,43.7223992 5.35429435,44.3723589 5.35429435,45.1740121 C5.35429435,45.9756653 6.00425403,46.625625 6.80590726,46.625625 L12.6123589,46.625625 C13.4140121,46.625625 14.0639718,45.9756653 14.0639718,45.1740121 C14.0639718,44.3723589 13.4140121,43.7223992 12.6123589,43.7223992 L6.80590726,43.7223992 Z" id="Path"></path>
                    <path d="M83.193004,46.625625 C83.9946573,46.625625 84.6446169,45.9756653 84.6446169,45.1740121 C84.6446169,44.3723589 83.9946573,43.7223992 83.193004,43.7223992 L77.3865524,43.7223992 C76.5848992,43.7223992 75.9349395,44.3723589 75.9349395,45.1740121 C75.9349395,45.9756653 76.5848992,46.625625 77.3865524,46.625625 L83.193004,46.625625 Z" id="Path"></path>
                    <path d="M22.9492944,21.0712702 L18.8441331,16.9661089 C18.2872581,16.3894556 17.3682056,16.3734879 16.7915524,16.9303629 C16.2148992,17.4872379 16.1989315,18.4062903 16.7558065,18.9829435 C16.7674194,18.9951008 16.7793952,19.0068952 16.7915524,19.0186895 L20.8967137,23.1238508 C21.4535887,23.700504 22.3726411,23.7164718 22.9492944,23.1595968 C23.5259476,22.6027218 23.5419153,21.6836694 22.9850403,21.1070161 C22.973246,21.0948589 22.9612702,21.0830645 22.9492944,21.0712702 Z" id="Path"></path>
                    <path d="M71.1903427,16.9305444 C71.1781855,16.9421573 71.1663911,16.9541331 71.1547782,16.9661089 L67.0496169,21.0712702 C66.4729637,21.6283266 66.456996,22.5471976 67.0140524,23.1238508 C67.5711089,23.700504 68.4899798,23.7164718 69.0666331,23.1594153 C69.0787903,23.1478024 69.0905847,23.1358266 69.1021976,23.1238508 L73.2073589,19.0186895 C73.7840121,18.4616331 73.7999798,17.5427621 73.2429234,16.9661089 C72.6858669,16.3894556 71.766996,16.3734879 71.1903427,16.9305444 Z" id="Path"></path>
                    <path d="M69.1021976,67.2241734 C68.5255444,66.6671169 67.6066734,66.6830847 67.0496169,67.2597379 C66.5061694,67.8222379 66.5061694,68.714254 67.0496169,69.276754 L71.1547782,73.3819153 C71.7314315,73.9389718 72.6503024,73.923004 73.2073589,73.3463508 C73.7508065,72.7838508 73.7508065,71.8918347 73.2073589,71.3293347 L69.1021976,67.2241734 Z" id="Path"></path>
                    <path d="M20.8967137,67.2241734 L16.7915524,71.3293347 C16.2148992,71.8862097 16.1989315,72.8052621 16.7559879,73.3819153 C17.3128629,73.9585685 18.2319153,73.9745363 18.8085685,73.4174798 C18.8207258,73.4058669 18.8325202,73.3938911 18.8441331,73.3819153 L22.9492944,69.276754 C23.5061694,68.7001008 23.4903831,67.7812298 22.9137298,67.2241734 C22.3510484,66.6809073 21.4592137,66.6809073 20.8967137,67.2241734 Z" id="Path"></path>
                </g>
            </g>
        </g>
    </g>
</svg>