<?xml version="1.0" encoding="UTF-8"?>
<svg width="95px" height="85px" viewBox="0 0 95 85" version="1.1" xmlns="http://www.w3.org/2000/svg" xmlns:xlink="http://www.w3.org/1999/xlink">
    <!-- Generator: Sketch 57.1 (83088) - https://sketch.com -->
    <title>icon-tomox-1</title>
    <desc>Created with Sketch.</desc>
    <g id="Page-1" stroke="none" stroke-width="1" fill="none" fill-rule="evenodd">
        <g id="tomox-1" transform="translate(-235.000000, -2123.000000)" fill="#00A99D" fill-rule="nonzero">
            <g id="Group-6" transform="translate(235.000000, 2118.000000)">
                <g id="icon-tomox-1" transform="translate(0.000000, 5.000000)">
                    <path d="M83.4259259,59.8148148 L83.4259259,41.9259259 C83.4259259,41.3736412 82.9782107,40.9259259 82.4259259,40.9259259 L48.7962963,40.9259259 L48.7962963,40.9259259 L48.7962963,25.1851852 L58.8148148,25.1851852 C59.3670996,25.1851852 59.8148148,24.7374699 59.8148148,24.1851852 L59.8148148,1 C59.8148148,0.44771525 59.3670996,-1.01453063e-16 58.8148148,0 L35.6296296,0 C35.0773449,1.01453063e-16 34.6296296,0.44771525 34.6296296,1 L34.6296296,24.1851852 C34.6296296,24.7374699 35.0773449,25.1851852 35.6296296,25.1851852 L45.6481481,25.1851852 L45.6481481,25.1851852 L45.6481481,40.9259259 L12.0185185,40.9259259 C11.4662338,40.9259259 11.0185185,41.3736412 11.0185185,41.9259259 L11.0185185,59.8148148 L11.0185185,59.8148148 L1,59.8148148 C0.44771525,59.8148148 -6.76353751e-17,60.2625301 0,60.8148148 L0,84 C6.76353751e-17,84.5522847 0.44771525,85 1,85 L24.1851852,85 C24.7374699,85 25.1851852,84.5522847 25.1851852,84 L25.1851852,60.8148148 C25.1851852,60.2625301 24.7374699,59.8148148 24.1851852,59.8148148 L14.1666667,59.8148148 L14.1666667,59.8148148 L14.1666667,45.0740741 C14.1666667,44.5217893 14.6143819,44.0740741 15.1666667,44.0740741 L45.6481481,44.0740741 L45.6481481,44.0740741 L45.6481481,59.8148148 L35.6296296,59.8148148 C35.0773449,59.8148148 34.6296296,60.2625301 34.6296296,60.8148148 L34.6296296,84 C34.6296296,84.5522847 35.0773449,85 35.6296296,85 L58.8148148,85 C59.3670996,85 59.8148148,84.5522847 59.8148148,84 L59.8148148,60.8148148 C59.8148148,60.2625301 59.3670996,59.8148148 58.8148148,59.8148148 L48.7962963,59.8148148 L48.7962963,59.8148148 L48.7962963,44.0740741 L79.2777778,44.0740741 C79.8300625,44.0740741 80.2777778,44.5217893 80.2777778,45.0740741 L80.2777778,59.8148148 L80.2777778,59.8148148 L70.2592593,59.8148148 C69.7069745,59.8148148 69.2592593,60.2625301 69.2592593,60.8148148 L69.2592593,84 C69.2592593,84.5522847 69.7069745,85 70.2592593,85 L93.4444444,85 C93.9967292,85 94.4444444,84.5522847 94.4444444,84 L94.4444444,60.8148148 C94.4444444,60.2625301 93.9967292,59.8148148 93.4444444,59.8148148 L83.4259259,59.8148148 L83.4259259,59.8148148 Z M38.7777778,3.14814815 L55.6666667,3.14814815 C56.2189514,3.14814815 56.6666667,3.5958634 56.6666667,4.14814815 L56.6666667,21.037037 C56.6666667,21.5893218 56.2189514,22.037037 55.6666667,22.037037 L38.7777778,22.037037 C38.225493,22.037037 37.7777778,21.5893218 37.7777778,21.037037 L37.7777778,4.14814815 C37.7777778,3.5958634 38.225493,3.14814815 38.7777778,3.14814815 Z M21.037037,81.8518519 L4.14814815,81.8518519 C3.5958634,81.8518519 3.14814815,81.4041366 3.14814815,80.8518519 L3.14814815,63.962963 C3.14814815,63.4106782 3.5958634,62.962963 4.14814815,62.962963 L21.037037,62.962963 C21.5893218,62.962963 22.037037,63.4106782 22.037037,63.962963 L22.037037,80.8518519 C22.037037,81.4041366 21.5893218,81.8518519 21.037037,81.8518519 Z M55.6666667,81.8518519 L38.7777778,81.8518519 C38.225493,81.8518519 37.7777778,81.4041366 37.7777778,80.8518519 L37.7777778,63.962963 C37.7777778,63.4106782 38.225493,62.962963 38.7777778,62.962963 L55.6666667,62.962963 C56.2189514,62.962963 56.6666667,63.4106782 56.6666667,63.962963 L56.6666667,80.8518519 C56.6666667,81.4041366 56.2189514,81.8518519 55.6666667,81.8518519 Z M90.2962963,81.8518519 L73.4074074,81.8518519 C72.8551227,81.8518519 72.4074074,81.4041366 72.4074074,80.8518519 L72.4074074,63.962963 C72.4074074,63.4106782 72.8551227,62.962963 73.4074074,62.962963 L90.2962963,62.962963 C90.848581,62.962963 91.2962963,63.4106782 91.2962963,63.962963 L91.2962963,80.8518519 C91.2962963,81.4041366 90.848581,81.8518519 90.2962963,81.8518519 Z" id="Shape"></path>
                </g>
            </g>
        </g>
    </g>
</svg>