<?xml version="1.0" encoding="UTF-8"?>
<svg width="100px" height="100px" viewBox="0 0 100 100" version="1.1" xmlns="http://www.w3.org/2000/svg" xmlns:xlink="http://www.w3.org/1999/xlink">
    <!-- Generator: Sketch 57.1 (83088) - https://sketch.com -->
    <title>icon-tomox-7</title>
    <desc>Created with Sketch.</desc>
    <g id="Page-1" stroke="none" stroke-width="1" fill="none" fill-rule="evenodd">
        <g id="tomox-4" transform="translate(-1018.000000, -1408.000000)" fill="#00A99D" fill-rule="nonzero">
            <g id="icon-tomox-7" transform="translate(1018.000000, 1408.000000)">
                <path d="M99.1666667,36.4466667 C99.6833548,36.1483582 100.001177,35.5966181 99.9999967,35 L99.9999967,21.6666667 C100.001177,21.0700486 99.6833548,20.5183085 99.1666667,20.22 L87.4999967,13.5533333 C86.9877306,13.2607167 86.358936,13.2607167 85.8466667,13.5533333 L74.18,20.22 C73.6581761,20.514896 73.33489,21.0672825 73.3333333,21.6666667 L73.3333333,25.6366667 L63.3333333,20.6366667 L63.3333333,8.33333333 C63.3345107,7.73671526 63.0166881,7.18497512 62.4999967,6.88666667 L50.8333333,0.22 C50.321064,-0.0726166206 49.6922694,-0.0726166206 49.18,0.22 L37.5133333,6.88666667 C36.9915094,7.18156267 36.6682233,7.73394912 36.6666667,8.33333333 L36.6666667,20.6366667 L26.6666667,25.6366667 L26.6666667,21.6666667 C26.6678441,21.0700486 26.3500214,20.5183085 25.8333333,20.22 L14.1666667,13.5533333 C13.6543973,13.2607167 13.0256027,13.2607167 12.5133333,13.5533333 L0.846666667,20.22 C0.324842749,20.514896 0.00155666873,21.0672825 -3.26007469e-06,21.6666667 L-3.26007469e-06,35 C-0.00117741132,35.5966181 0.316645249,36.1483582 0.833333333,36.4466667 L11.6666667,42.6333333 L11.6666667,57.3666667 L0.833333333,63.5533333 C0.316645249,63.8516418 -0.00117741132,64.4033819 -3.26007469e-06,65 L-3.26007469e-06,78.3333333 C-0.00117741132,78.9299514 0.316645249,79.4816915 0.833333333,79.78 L12.4999967,86.4466667 C13.0122694,86.7392833 13.641064,86.7392833 14.1533333,86.4466667 L24.955,80.28 L36.6666667,87.5916667 L36.6666667,91.6666667 C36.6654893,92.2632847 36.9833119,92.8150249 37.4999967,93.1133333 L49.1666667,99.78 C49.678936,100.072617 50.3077306,100.072617 50.82,99.78 L62.4866667,93.1133333 C63.0084906,92.8184373 63.3317767,92.2660509 63.3333333,91.6666667 L63.3333333,87.5916667 L75.0383333,80.275 L85.84,86.4416667 C86.3522694,86.7342833 86.981064,86.7342833 87.4933333,86.4416667 L99.16,79.775 C99.6777069,79.4792817 99.9980172,78.9295429 99.9999967,78.3333333 L99.9999967,65 C100.001177,64.4033819 99.6833548,63.8516418 99.1666667,63.5533333 L88.3333333,57.3666667 L88.3333333,42.6333333 L99.1666667,36.4466667 Z M88.3333333,38.795 L88.3333333,29.295 L96.6666667,24.5333333 L96.6666667,34.0333333 L88.3333333,38.795 Z M86.6666667,69.7466667 L78.3583333,65 L86.6666667,60.2533333 L94.975,65 L86.6666667,69.7466667 Z M76.6666667,24.5383333 L85,29.3 L85,38.8 L76.6666667,34.0333333 L76.6666667,24.5383333 Z M86.6666667,16.92 L94.975,21.6666667 L86.6666667,26.4133333 L78.3583333,21.6666667 L86.6666667,16.92 Z M50,83.0866667 L41.6916667,78.3333333 L50,73.5866667 L58.3083333,78.3333333 L50,83.0866667 Z M40,46.205 L48.3333333,50.9666667 L48.3333333,60.4666667 L40,55.7 L40,46.205 Z M51.6666667,50.9666667 L60,46.205 L60,55.705 L51.6666667,60.4666667 L51.6666667,50.9666667 Z M50,48.08 L41.6916667,43.3333333 L50,38.5866667 L58.3083333,43.3333333 L50,48.08 Z M40,11.205 L48.3333333,15.9666667 L48.3333333,25.4666667 L40,20.7 L40,11.205 Z M51.6666667,15.9666667 L60,11.205 L60,20.705 L51.6666667,25.4666667 L51.6666667,15.9666667 Z M50,3.58666667 L58.3083333,8.33333333 L50,13.08 L41.6916667,8.33333333 L50,3.58666667 Z M15,29.3 L23.3333333,24.5383333 L23.3333333,34.0383333 L15,38.8 L15,29.3 Z M13.3333333,16.92 L21.6416667,21.6666667 L13.3333333,26.4133333 L5.025,21.6666667 L13.3333333,16.92 Z M3.33333333,24.5383333 L11.6666667,29.3 L11.6666667,38.8 L3.33333333,34.0333333 L3.33333333,24.5383333 Z M13.3333333,69.7466667 L5.025,65 L13.3333333,60.2533333 L21.6416667,65 L13.3333333,69.7466667 Z M3.33333333,67.8716667 L11.6666667,72.6333333 L11.6666667,82.1333333 L3.33333333,77.3666667 L3.33333333,67.8716667 Z M15,82.1283333 L15,72.6283333 L23.3333333,67.8666667 L23.3333333,77.3666667 L15,82.1283333 Z M26.6666667,77.4083333 L26.6666667,65 C26.6678441,64.4033819 26.3500214,63.8516418 25.8333333,63.5533333 L15,57.3666667 L15,42.6333333 L25.8333333,36.4466667 C26.3500214,36.1483582 26.6678441,35.5966181 26.6666667,35 L26.6666667,29.3633333 L38.2816667,23.5566667 L48.3333333,29.3 L48.3333333,35.7 L37.5,41.8866667 C36.9833119,42.1849751 36.6654893,42.7367153 36.6666667,43.3333333 L36.6666667,56.6666667 C36.6654893,57.2632847 36.9833119,57.8150249 37.5,58.1133333 L48.3333333,64.3 L48.3333333,70.7 L37.5,76.8866667 C36.9833119,77.1849751 36.6654893,77.7367153 36.6666667,78.3333333 L36.6666667,83.6666667 L26.6666667,77.4083333 Z M40,81.205 L48.3333333,85.9666667 L48.3333333,95.4666667 L40,90.7 L40,81.205 Z M51.6666667,95.4616667 L51.6666667,85.9616667 L60,81.2 L60,90.7 L51.6666667,95.4616667 Z M62.5,76.8866667 L51.6666667,70.7 L51.6666667,64.3 L62.5,58.1133333 C63.0166881,57.8150249 63.3345107,57.2632847 63.3333333,56.6666667 L63.3333333,43.3333333 C63.3345107,42.7367153 63.0166881,42.1849751 62.5,41.8866667 L51.6666667,35.7 L51.6666667,29.3 L61.7183333,23.5566667 L73.3333333,29.3633333 L73.3333333,35 C73.3321559,35.5966181 73.6499786,36.1483582 74.1666667,36.4466667 L85,42.6333333 L85,57.3666667 L74.1666667,63.5533333 C73.6499786,63.8516418 73.3321559,64.4033819 73.3333333,65 L73.3333333,77.4083333 L63.3333333,83.6666667 L63.3333333,78.3333333 C63.3345107,77.7367153 63.0166881,77.1849751 62.5,76.8866667 Z M76.6666667,67.8716667 L85,72.6333333 L85,82.1333333 L76.6666667,77.3666667 L76.6666667,67.8716667 Z M88.3333333,82.1283333 L88.3333333,72.6283333 L96.6666667,67.8666667 L96.6666667,77.3666667 L88.3333333,82.1283333 Z" id="Shape"></path>
            </g>
        </g>
    </g>
</svg>