<?xml version="1.0" encoding="UTF-8"?>
<svg width="65px" height="65px" viewBox="0 0 65 65" version="1.1" xmlns="http://www.w3.org/2000/svg" xmlns:xlink="http://www.w3.org/1999/xlink">
    <!-- Generator: Sketch 55.1 (78136) - https://sketchapp.com -->
    <title>icon-masternode</title>
    <desc>Created with Sketch.</desc>
    <g id="Page-1" stroke="none" stroke-width="1" fill="none" fill-rule="evenodd">
        <g id="Staking-Copy" transform="translate(-805.000000, -2329.000000)">
            <g id="icon-masternode" transform="translate(805.000000, 2329.000000)">
                <circle id="Oval" fill="#2F364C" cx="32.5" cy="32.5" r="32.5"></circle>
                <g id="blockchain-(4)" transform="translate(18.000000, 19.000000)" fill="#FFAF00" fill-rule="nonzero">
                    <path d="M23.4112867,5.71376975 C23.3607223,5.71376975 23.310158,5.76433409 23.2595937,5.76433409 L23.2595937,7.68577878 L23.461851,7.78690745 C23.9674944,8.03972912 24.2708804,8.54537246 24.2708804,9.15214447 L24.2708804,11.2758465 L28.0126411,9.40496614 C28.1643341,9.30383747 28.3160271,9.15214447 28.3160271,8.94988713 L28.3160271,3.28668172 L23.4112867,5.71376975 Z" id="Path"></path>
                    <path d="M22.9562077,4.80361174 L27.6586907,2.42708804 L22.9562077,0.0505643341 C22.8045147,4.47558657e-16 22.6528217,4.47558657e-16 22.5011287,0.0505643341 L17.7986456,2.42708804 L22.5011287,4.80361174 C22.6528217,4.90474041 22.855079,4.90474041 22.9562077,4.80361174 Z" id="Path"></path>
                    <path d="M22.248307,5.81489842 C22.1977427,5.81489842 22.1471783,5.76433409 22.096614,5.76433409 L17.1918736,3.28668172 L17.1918736,4.50022573 L22.248307,7.18013544 L22.248307,5.81489842 Z" id="Path"></path>
                    <path d="M14.4108352,4.19683973 C14.2591422,4.09571106 14.1074492,4.09571106 13.9557562,4.19683973 L5.66320542,8.54537246 L13.9557562,12.8939052 C14.1074492,12.9950339 14.2591422,12.9950339 14.4108352,12.8939052 L22.703386,8.54537246 L14.4108352,4.19683973 Z" id="Path"></path>
                    <path d="M6.06772009,5.81489842 L6.06772009,7.18013544 L11.1241535,4.50022573 L11.1241535,3.28668172 L6.21941309,5.71376975 C6.16884876,5.76433409 6.11828442,5.76433409 6.06772009,5.81489842 L6.06772009,5.81489842 Z" id="Path"></path>
                    <path d="M5.76433409,4.80361174 L10.4668172,2.42708804 L5.76433409,0.0505643341 C5.61264108,4.45823933e-16 5.46094808,4.45823933e-16 5.30925508,0.0505643341 L0.606772009,2.47765237 L5.30925508,4.85417607 C5.46094808,4.90474041 5.66320542,4.90474041 5.76433409,4.80361174 L5.76433409,4.80361174 Z" id="Path"></path>
                    <path d="M0.303386005,9.35440181 L4.04514673,11.2252822 L4.04514673,9.10158014 C4.04514673,8.54537246 4.34853273,8.03972912 4.85417607,7.73634312 L5.05643341,7.63521445 L5.05643341,5.71376975 C5.00586907,5.71376975 4.95530474,5.66320542 4.90474041,5.66320542 L0,3.28668172 L0,8.8993228 C0,9.10158014 0.101128668,9.30383747 0.303386005,9.35440181 Z" id="Path"></path>
                    <path d="M7.58465011,17.1918736 L7.58465011,18.6582393 L6.57336343,18.6582393 L6.57336343,16.6862302 L5.76433409,16.2817156 C5.71376975,16.2311512 5.61264108,16.2311512 5.56207675,16.2311512 C5.46094808,16.2311512 5.41038375,16.2311512 5.35981941,16.2817156 L0.657336343,18.6582393 L5.61264108,21.1358916 L10.5679458,18.6582393 L7.58465011,17.1918736 Z" id="Path"></path>
                    <path d="M0,25.0799097 C0,25.282167 0.101128668,25.43386 0.303386005,25.5349887 L5.05643341,27.9115124 L5.05643341,21.9954853 L0,19.4672686 L0,25.0799097 Z" id="Path"></path>
                    <path d="M6.06772009,27.9620767 L10.8207675,25.585553 C10.9724605,25.4844244 11.1241535,25.3327314 11.1241535,25.130474 L11.1241535,19.4672686 L6.06772009,21.9954853 L6.06772009,27.9620767 Z" id="Path"></path>
                    <path d="M5.05643341,9.35440181 L5.05643341,15.3209932 C5.46094808,15.1693002 5.86546275,15.2198646 6.21941309,15.3715576 L6.57336343,15.5232506 L6.57336343,15.0681716 C6.57336343,14.5119639 6.87674944,14.0063205 7.38239278,13.7029345 L9.35440181,12.6410835 L9.80948081,13.5512415 L7.83747178,14.6130926 C7.68577878,14.7142212 7.58465011,14.8659142 7.58465011,15.0681716 L7.58465011,16.0288939 L11.2758465,17.8997743 C11.7814898,18.1525959 12.1354402,18.6582393 12.1354402,19.2650113 L12.1354402,23.0573363 L13.6523702,23.8663657 L13.6523702,13.8546275 C13.6018059,13.8546275 13.5006772,13.8040632 13.4501129,13.7534989 L5.05643341,9.35440181 Z" id="Path"></path>
                    <path d="M20.731377,15.0681716 C20.731377,14.8659142 20.6302483,14.7142212 20.4785553,14.6130926 L18.5065463,13.5512415 L18.9616253,12.6410835 L20.9336343,13.7029345 C21.4392777,13.9557562 21.7426637,14.4613995 21.7426637,15.0681716 L21.7426637,15.5232506 L22.096614,15.3715576 C22.4505643,15.1693002 22.9056433,15.1693002 23.2595937,15.3209932 L23.2595937,9.35440181 L14.8659142,13.7534989 C14.8153499,13.8040632 14.7142212,13.8040632 14.6636569,13.8546275 L14.6636569,23.8663657 L16.1805869,23.0573363 L16.1805869,19.2650113 C16.1805869,18.7088036 16.4839729,18.1525959 17.0401806,17.8997743 L20.731377,16.0288939 L20.731377,15.0681716 Z" id="Path"></path>
                    <path d="M22.9562077,16.2817156 C22.9056433,16.2311512 22.8045147,16.2311512 22.7539503,16.2311512 C22.6528217,16.2311512 22.6022573,16.2311512 22.551693,16.2817156 L21.7426637,16.6862302 L21.7426637,18.6582393 L20.731377,18.6582393 L20.731377,17.1918736 L17.7986456,18.6582393 L22.7539503,21.1358916 L27.7092551,18.6582393 L22.9562077,16.2817156 Z" id="Path"></path>
                    <path d="M17.1918736,25.0799097 C17.1918736,25.282167 17.2930023,25.43386 17.4952596,25.5349887 L22.248307,27.9115124 L22.248307,21.9954853 L17.1918736,19.4672686 L17.1918736,25.0799097 Z" id="Path"></path>
                    <path d="M23.2595937,27.9620767 L28.0126411,25.585553 C28.1643341,25.4844244 28.3160271,25.3327314 28.3160271,25.130474 L28.3160271,19.4672686 L23.2595937,21.9954853 L23.2595937,27.9620767 Z" id="Path"></path>
                </g>
            </g>
        </g>
    </g>
</svg>