<?xml version="1.0" encoding="UTF-8"?>
<svg width="65px" height="65px" viewBox="0 0 65 65" version="1.1" xmlns="http://www.w3.org/2000/svg" xmlns:xlink="http://www.w3.org/1999/xlink">
    <!-- Generator: Sketch 55.1 (78136) - https://sketchapp.com -->
    <title>icon-candicates</title>
    <desc>Created with Sketch.</desc>
    <g id="Page-1" stroke="none" stroke-width="1" fill="none" fill-rule="evenodd">
        <g id="Staking-Copy" transform="translate(-805.000000, -2460.000000)">
            <g id="icon-candicates" transform="translate(805.000000, 2460.000000)">
                <circle id="Oval-Copy" fill="#2F364C" cx="32.5" cy="32.5" r="32.5"></circle>
                <g id="support" transform="translate(17.000000, 18.000000)" fill="#FFAF00" fill-rule="nonzero">
                    <path d="M10.3337406,3.23901639 L11.8347876,4.74006349 L13.463426,6.36893296 C13.8184627,6.72373853 14.2902269,6.91905498 14.7920399,6.91905498 C14.792271,6.91905498 14.792271,6.91905498 14.792271,6.91905498 C15.294084,6.91905498 15.7658482,6.7235074 16.121116,6.36870183 C16.8536103,5.63597639 16.8538415,4.44350613 16.121116,3.7105495 L12.990506,0.580170669 C12.6354693,0.225133975 12.1637051,0.0295863912 11.6614299,0.0295863912 C11.1596169,0.0295863912 10.6876216,0.225133975 10.3325849,0.579939481 C9.60240196,1.31035351 9.6000905,2.49727633 10.3254194,3.23092635 C10.3281931,3.23370013 10.3309668,3.23624267 10.3337406,3.23901639 Z" id="Path"></path>
                    <path d="M6.42024689,7.15227894 L7.39960265,8.1316347 L9.55016346,10.2819644 C9.55108804,10.2826578 9.55178148,10.2835823 9.55270606,10.284507 L10.3221834,11.0539843 C10.3256505,11.0574515 10.3293488,11.0609186 10.332816,11.0643857 C10.6876216,11.4194224 11.1596169,11.61497 11.661661,11.61497 C12.163474,11.61497 12.6354693,11.4194224 12.9907371,11.0646169 C13.3455427,10.7095802 13.5410903,10.2375848 13.5410903,9.73577185 C13.5410903,9.23372778 13.3455427,8.76150122 12.990506,8.40669566 L12.2154813,7.63143978 C12.2124764,7.62866605 12.2097027,7.62612346 12.2071601,7.62334973 L10.413254,5.82921251 L9.07909267,4.49528231 C9.07839922,4.49458887 9.07793691,4.49412661 9.07724352,4.49343316 C9.07724352,4.49343316 9.07724352,4.49320203 9.07701239,4.49320203 C8.7219757,4.13839647 8.25044259,3.94284888 7.74862964,3.94284888 C7.24658556,3.94284888 6.77435901,4.13839647 6.41932231,4.49343316 C5.68821484,5.22477177 5.686828,6.41400599 6.4151617,7.14719375 C6.41701085,7.14881177 6.41862887,7.15066092 6.42024689,7.15227894 Z" id="Path"></path>
                    <path d="M2.51253184,11.0708578 L5.62742403,14.1855189 C5.63066007,14.1887549 5.63389612,14.1919909 5.6371321,14.1949957 C5.99193766,14.5500324 6.4637019,14.74558 6.96574598,14.74558 C7.46779005,14.74558 7.94001661,14.5500324 8.2950533,14.1952269 C9.02685417,13.4629637 9.02754761,12.2721115 8.29667132,11.5391548 L6.31923712,9.5619518 L5.16421215,8.40669566 C4.80917546,8.05165896 4.33694891,7.85611144 3.83513596,7.85611144 C3.33309188,7.85611144 2.86132764,8.05165896 2.50652208,8.40646453 C2.15125426,8.76173235 1.95570667,9.23372778 1.95570667,9.73554072 C1.95570667,10.2375848 2.15125426,10.7095802 2.50629095,11.0643857 C2.50837123,11.0666972 2.51045151,11.0687775 2.51253184,11.0708578 Z" id="Path"></path>
                    <path d="M2.90408921,19.288709 C3.18631563,19.5681617 3.54181464,19.7472981 3.92689999,19.8085512 C3.9347589,19.8099381 3.94238663,19.8110938 3.95001435,19.8124806 C4.04085381,19.825887 4.13331128,19.8325901 4.22692451,19.8325901 C4.7287374,19.8325901 5.20073283,19.6372737 5.55576952,19.282237 C6.28826383,18.5495116 6.28826383,17.3570413 5.55553839,16.6243158 L3.20781204,14.2765895 C2.85254415,13.9215528 2.38054879,13.7260052 1.87850471,13.7260052 C1.37646064,13.7260052 0.90446521,13.9215528 0.549428515,14.2763583 C-0.183065796,15.0090838 -0.183296924,16.201554 0.549659644,16.9340484 C0.552895685,16.9375155 0.556131727,16.9407516 0.559367708,16.9442187 L2.89692374,19.2815436 C2.89923521,19.283855 2.90177774,19.2861665 2.90408921,19.288709 Z" id="Path"></path>
                    <path d="M29.7468049,14.2761272 C29.1377413,13.6672947 28.1962931,13.5494115 27.4573267,13.9892778 C27.073166,14.2183412 26.5787496,14.1256526 26.3034575,13.7731585 L26.2509878,13.7056646 C25.9750023,13.352477 26.0057444,12.848815 26.3228735,12.5319169 L27.7894802,11.064848 C27.7943342,11.0602251 27.7991883,11.0556023 27.8040423,11.0507482 C28.1502955,10.6973296 28.3407579,10.2311128 28.3407579,9.73554072 C28.3407579,9.23372778 28.1452103,8.76150122 27.7901736,8.40646453 C27.4351369,8.05142783 26.9631416,7.85611144 26.4613286,7.85611144 C25.9592845,7.85611144 25.4872891,8.05165896 25.1320213,8.40669566 C24.785537,8.75341124 24.2233955,8.75341124 23.87668,8.40669566 C23.7035533,8.23333792 23.6168745,8.00612367 23.6168745,7.77890948 C23.6168745,7.55192635 23.7035533,7.3247121 23.8769111,7.15135437 C24.6096366,6.41862887 24.6096366,5.2261586 23.8769111,4.49320203 C23.1441856,3.76070772 21.9517154,3.76070772 21.2189899,4.49320203 C20.8725055,4.83991756 20.3103641,4.83991756 19.9636486,4.49320203 C19.790522,4.31984424 19.703612,4.09262999 19.703612,3.86564692 C19.703612,3.63843267 19.790522,3.41121848 19.9638797,3.23786069 C20.3189164,2.88305512 20.514464,2.41105975 20.514464,1.90901568 C20.514464,1.4069716 20.3189164,0.935207364 19.9638797,0.580170669 C19.2311543,-0.152785958 18.038684,-0.15255483 17.3057274,0.580170669 L16.4035736,1.48232441 L17.3764574,2.45543934 C18.801227,3.88044012 18.8009959,6.1990424 17.3762262,7.62381205 C16.7736347,8.22663477 15.9979165,8.59276636 15.1609452,8.67597809 C15.2631107,9.01506582 15.3162738,9.37125828 15.3162738,9.73554072 C15.3162738,10.7118916 14.9360424,11.629532 14.2456162,12.3199582 C13.55519,13.0101533 12.6373185,13.3901534 11.6614299,13.3901534 C11.296454,13.3901534 10.9397993,13.3369904 10.6000181,13.2343626 C10.5186555,14.0438278 10.1691663,14.8315655 9.55039465,15.4505682 C9.00327754,15.9969919 8.31400705,16.3480992 7.56625729,16.4710676 C8.15937195,17.8121632 7.90834994,19.439877 6.81111087,20.5375784 C6.12022242,21.2280046 5.20281311,21.6077736 4.22692451,21.6077736 C4.22669338,21.6077736 4.22669338,21.6077736 4.22669338,21.6077736 C4.18670548,21.6077736 4.14694877,21.6061556 4.10719206,21.6049999 L2.65376059,23.0584314 C2.36876044,23.3436627 2.22406453,23.7451592 2.24671658,24.1891862 C2.27121778,24.6671914 2.48248314,25.128323 2.8421427,25.4877514 L6.79562423,29.4414641 C7.51725477,30.1630947 8.69169586,30.1630947 9.4133264,29.4414641 L11.6547267,27.2000638 L12.5113452,26.9700759 C16.0159456,27.9059766 19.7849745,26.8961099 22.3472022,24.3341133 L27.3877525,19.2933319 C27.3916819,19.2894025 27.3956114,19.2854731 27.3995408,19.2813124 L29.7468049,16.9340484 C30.4795304,16.201554 30.4795304,15.0090838 29.7468049,14.2761272 Z" id="Path"></path>
                    <path d="M26.888251,22.3039784 L23.6025436,25.5896858 C22.469015,26.7229833 21.1239899,27.6135799 19.6536849,28.2120109 L20.8831382,29.4414641 C21.6047687,30.1630947 22.7792098,30.1630947 23.5008404,29.4414641 L27.454553,25.4879826 C28.1641641,24.7786026 28.3340548,23.7497821 27.8257698,23.2414972 C27.4748937,22.890621 27.1499057,22.565633 26.888251,22.3039784 Z" id="Path"></path>
                </g>
            </g>
        </g>
    </g>
</svg>