<?xml version="1.0" encoding="UTF-8"?>
<svg width="100px" height="100px" viewBox="0 0 100 100" version="1.1" xmlns="http://www.w3.org/2000/svg" xmlns:xlink="http://www.w3.org/1999/xlink">
    <!-- Generator: Sketch 55.1 (78136) - https://sketchapp.com -->
    <title>icon-clock</title>
    <desc>Created with Sketch.</desc>
    <defs>
        <linearGradient x1="18.585998%" y1="11.9135753%" x2="84.4283449%" y2="86.4735176%" id="linearGradient-1">
            <stop stop-color="#50E4F0" offset="0%"></stop>
            <stop stop-color="#00ACC2" offset="100%"></stop>
        </linearGradient>
    </defs>
    <g id="Page-1" stroke="none" stroke-width="1" fill="none" fill-rule="evenodd">
        <g id="-g-TomoZ-1-Copy-7" transform="translate(-1080.000000, -1516.000000)">
            <g id="icon-clock" transform="translate(1080.000000, 1516.000000)">
                <circle id="Oval-Copy-64" fill="url(#linearGradient-1)" cx="50" cy="50" r="50"></circle>
                <path d="M54.4,49.5263158 C54.4,49.0631579 54.0210526,48.6842105 53.5578947,48.6842105 L48.0526316,48.6842105 L48.0526316,40.7894737 C48.0526316,40.3263158 47.6736842,39.9473684 47.2105263,39.9473684 C46.7473684,39.9473684 46.3684211,40.3263158 46.3684211,40.7894737 L46.3684211,49.5052632 C46.3684211,49.9684211 46.7052632,50.3684211 47.1684211,50.3684211 L53.5578947,50.3684211 C54.0210526,50.3684211 54.4,49.9894737 54.4,49.5263158 Z" id="Path" stroke="#FFFFFF" stroke-width="0.3" fill="#FFFFFF" fill-rule="nonzero"></path>
                <path d="M70.7578947,52.1052632 C70.9894737,50.7789474 71.1052632,49.4421053 71.1052632,48.1052632 C71.1052632,38.8 65.5052632,30.4105263 56.9052632,26.8526316 C48.3052632,23.2947368 38.4105263,25.2631579 31.8315789,31.8421053 C25.2526316,38.4210526 23.2842105,48.3157895 26.8526316,56.9157895 C30.4210526,65.5157895 38.8,71.1157895 48.1052632,71.1157895 C49.4421053,71.1157895 50.7894737,71 52.1052632,70.7684211 C55.3894737,74.3157895 60.3578947,75.7894737 65.0421053,74.6 C69.7263158,73.4105263 73.3894737,69.7473684 74.5894737,65.0526316 C75.7789474,60.3578947 74.3052632,55.4 70.7578947,52.1052632 Z M48.1052632,69.4315789 C36.3473684,69.4315789 26.7789474,59.8631579 26.7789474,48.1052632 C26.7789474,36.3473684 36.3473684,26.7894737 48.1052632,26.7894737 C59.8631579,26.7894737 69.4210526,36.3473684 69.4210526,48.1052632 C69.4210526,49.0421053 69.3578947,49.9684211 69.2421053,50.8947368 C68.1368421,50.1368421 66.9157895,49.5473684 65.6315789,49.1578947 C65.6526316,48.8105263 65.6631579,48.4526316 65.6631579,48.1052632 C65.6631579,38.4210526 57.7789474,30.5368421 48.0947368,30.5368421 C38.4105263,30.5368421 30.5263158,38.4210526 30.5263158,48.1052632 C30.5263158,57.7894737 38.4105263,65.6736842 48.0947368,65.6736842 C48.4421053,65.6736842 48.8,65.6631579 49.1473684,65.6421053 C49.5368421,66.9263158 50.1263158,68.1473684 50.8842105,69.2526316 C49.9684211,69.3684211 49.0315789,69.4315789 48.1052632,69.4315789 Z M48.5789474,61.8 C48.5789474,62.5263158 48.6421053,63.2631579 48.7578947,63.9789474 C48.5368421,63.9894737 48.3157895,63.9894737 48.0947368,63.9894737 C39.3368421,63.9894737 32.2105263,56.8631579 32.2105263,48.1052632 C32.2105263,39.3473684 39.3473684,32.2210526 48.1052632,32.2210526 C56.8631579,32.2210526 63.9894737,39.3473684 63.9894737,48.1052632 C63.9894737,48.3263158 63.9789474,48.5473684 63.9789474,48.7684211 C60.1473684,48.1263158 56.2315789,49.2 53.2631579,51.7157895 C50.2947368,54.2315789 48.5789474,57.9157895 48.5789474,61.8 Z M61.7894737,73.3263158 C55.4210526,73.3263158 50.2631579,68.1578947 50.2631579,61.8 C50.2631579,55.4421053 55.4210526,50.2736842 61.7894737,50.2736842 C68.1578947,50.2736842 73.3157895,55.4315789 73.3157895,61.8 C73.3052632,68.1578947 68.1473684,73.3157895 61.7894737,73.3263158 Z" id="Shape" stroke="#FFFFFF" stroke-width="0.3" fill="#FFFFFF" fill-rule="nonzero"></path>
                <path d="M62.7894737,63.6526316 C63.9789474,62.8421053 65.4736842,61.8210526 65.4736842,60.0736842 C65.4736842,58.2842105 63.8842105,57.3157895 62.3789474,57.3157895 C60.9263158,57.3157895 59.3789474,58.2105263 59.3789474,59.8842105 C59.3789474,60.6421053 59.6947368,61 60.3578947,61 C61.0947368,61 61.4947368,60.5789474 61.4947368,60.1894737 C61.4947368,59.4 62.0631579,59.2736842 62.4105263,59.2736842 C63.0947368,59.2736842 63.3368421,59.7368421 63.3368421,60.1368421 C63.3368421,60.8842105 62.4315789,61.5473684 61.4736842,62.2526316 C60.3684211,63.0631579 59.2315789,63.8947368 59.2315789,65 L59.2315789,66.2631579 C59.2315789,66.6842105 59.8,66.9263158 60.1894737,66.9263158 L64.8210526,66.9263158 C65.1789474,66.9263158 65.4947368,66.5157895 65.4947368,66 C65.4947368,65.4947368 65.1894737,65.1052632 64.8210526,65.1052632 L61.4210526,65.1052632 L61.4210526,65 C61.4210526,64.5684211 62.0631579,64.1473684 62.7894737,63.6526316 Z" id="Path" stroke="#FFFFFF" stroke-width="0.3" fill="#FFFFFF" fill-rule="nonzero"></path>
            </g>
        </g>
    </g>
</svg>