<?xml version="1.0" encoding="UTF-8"?>
<svg width="90px" height="120px" viewBox="0 0 90 120" version="1.1" xmlns="http://www.w3.org/2000/svg" xmlns:xlink="http://www.w3.org/1999/xlink">
    <!-- Generator: Sketch 55.1 (78136) - https://sketchapp.com -->
    <title>browser copy</title>
    <desc>Created with Sketch.</desc>
    <g id="Page-1" stroke="none" stroke-width="1" fill="none" fill-rule="evenodd">
        <g id="browser-copy">
            <rect id="Rectangle-Copy-12" fill="#161B28" x="0" y="0" width="89" height="120"></rect>
            <path d="M28.8695652,28.6956522 C28.8695652,29.6562501 28.0910327,30.4347826 27.1304348,30.4347826 C26.1698369,30.4347826 25.3913043,29.6562501 25.3913043,28.6956522 C25.3913043,27.7350543 26.1698369,26.9565217 27.1304348,26.9565217 C28.0910327,26.9565217 28.8695652,27.7350543 28.8695652,28.6956522 Z" id="Path" fill="#703DB5" fill-rule="nonzero"></path>
            <path d="M21.9130435,28.6956522 C21.9130435,29.6562501 21.134511,30.4347826 20.173913,30.4347826 C19.2133151,30.4347826 18.4347826,29.6562501 18.4347826,28.6956522 C18.4347826,27.7350543 19.2133151,26.9565217 20.173913,26.9565217 C21.134511,26.9565217 21.9130435,27.7350543 21.9130435,28.6956522 Z" id="Path" fill="#703DB5" fill-rule="nonzero"></path>
            <path d="M14.9565217,28.6956522 C14.9565217,29.6562501 14.1779892,30.4347826 13.2173913,30.4347826 C12.2567934,30.4347826 11.4782609,29.6562501 11.4782609,28.6956522 C11.4782609,27.7350543 12.2567934,26.9565217 13.2173913,26.9565217 C14.1779892,26.9565217 14.9565217,27.7350543 14.9565217,28.6956522 Z" id="Path" fill="#703DB5" fill-rule="nonzero"></path>
            <path d="M75.826087,44.3478261 L13.2173913,44.3478261 C12.2567934,44.3478261 11.4782609,45.1263586 11.4782609,46.0869565 L11.4782609,56.5217391 C11.4782609,57.482337 12.2567934,58.2608696 13.2173913,58.2608696 L75.826087,58.2608696 C76.7866849,58.2608696 77.5652174,57.482337 77.5652174,56.5217391 L77.5652174,46.0869565 C77.5652174,45.1263586 76.7866849,44.3478261 75.826087,44.3478261 Z M74.0869565,54.7826087 L14.9565217,54.7826087 L14.9565217,47.826087 L74.0869565,47.826087 L74.0869565,54.7826087 Z" id="Shape" fill="#703DB5" fill-rule="nonzero"></path>
            <path d="M44.5217391,65.2173913 L13.2173913,65.2173913 C12.2567934,65.2173913 11.4782609,65.9959238 11.4782609,66.9565217 L11.4782609,87.826087 C11.4782609,88.7866849 12.2567934,89.5652174 13.2173913,89.5652174 L44.5217391,89.5652174 C45.482337,89.5652174 46.2608696,88.7866849 46.2608696,87.826087 L46.2608696,66.9565217 C46.2608696,65.9959238 45.482337,65.2173913 44.5217391,65.2173913 Z M42.7826087,86.0869565 L14.9565217,86.0869565 L14.9565217,68.6956522 L42.7826087,68.6956522 L42.7826087,86.0869565 Z" id="Shape" fill="#703DB5" fill-rule="nonzero"></path>
            <path d="M75.826087,65.2173913 L54.9565217,65.2173913 C53.9959238,65.2173913 53.2173913,65.9959238 53.2173913,66.9565217 L53.2173913,87.826087 C53.2173913,88.7866849 53.9959238,89.5652174 54.9565217,89.5652174 L75.826087,89.5652174 C76.7866849,89.5652174 77.5652174,88.7866849 77.5652174,87.826087 L77.5652174,66.9565217 C77.5652174,65.9959238 76.7866849,65.2173913 75.826087,65.2173913 Z M74.0869565,86.0869565 L56.6956522,86.0869565 L56.6956522,68.6956522 L74.0869565,68.6956522 L74.0869565,86.0869565 Z" id="Shape" fill="#703DB5" fill-rule="nonzero"></path>
            <path d="M46.2608696,21.7391304 C46.2608696,22.6997283 45.482337,23.4782609 44.5217391,23.4782609 C43.5611412,23.4782609 42.7826087,22.6997283 42.7826087,21.7391304 C42.7826087,20.7785325 43.5611412,20 44.5217391,20 C45.482337,20 46.2608696,20.7785325 46.2608696,21.7391304 Z" id="Path" fill="#703DB5" fill-rule="nonzero"></path>
            <path d="M83.826087,20 L52.3478261,20 C51.3872282,20 50.6086957,20.7785325 50.6086957,21.7391304 C50.6086957,22.6997283 51.3872282,23.4782609 52.3478261,23.4782609 L83.826087,23.4782609 C84.7853261,23.4782609 85.5652174,24.2581522 85.5652174,25.2173913 L85.5652174,33.9130435 L3.47826087,33.9130435 L3.47826087,25.2173913 C3.47826087,24.2581522 4.25815217,23.4782609 5.2173913,23.4782609 L60.6956522,23.4782609 C61.6562501,23.4782609 62.4347826,22.6997283 62.4347826,21.7391304 C62.4347826,20.7785325 61.6562501,20 60.6956522,20 L5.2173913,20 C2.34035322,20 -7.17648163e-13,22.3403532 -7.17648163e-13,25.2173913 L-7.17648163e-13,94.7826087 C-7.17648163e-13,97.6596468 2.34035322,100 5.2173913,100 L83.826087,100 C86.703125,100 89.0434783,97.6596468 89.0434783,94.7826087 L89.0434783,25.2173913 C89.0434783,22.3403532 86.703125,20 83.826087,20 Z M83.826087,96.5217391 L5.2173913,96.5217391 C4.25815217,96.5217391 3.47826087,95.7418478 3.47826087,94.7826087 L3.47826087,37.3913043 L85.5652174,37.3913043 L85.5652174,94.7826087 C85.5652174,95.7418478 84.7853261,96.5217391 83.826087,96.5217391 Z" id="Shape" fill="#703DB5" fill-rule="nonzero"></path>
        </g>
    </g>
</svg>