<?xml version="1.0" encoding="utf-8"?>
<!-- Generator: Adobe Illustrator 22.0.0, SVG Export Plug-In . SVG Version: 6.00 Build 0)  -->
<svg version="1.1" id="Layer_1" xmlns="http://www.w3.org/2000/svg" xmlns:xlink="http://www.w3.org/1999/xlink" x="0px" y="0px"
	 viewBox="0 0 174 100" style="enable-background:new 0 0 174 100;" xml:space="preserve">
<style type="text/css">
	.st0{fill:none;}
	.st1{fill:#1E86FF;}
	.st2{fill:#FFFFFF;}
	.st3{fill:#B74896;}
	@keyframes TomoPlus1 {
		0% {
			transform: translateY(0px);
		}
		50% {
			transform: translateY(-15px);
		}
		100% {
			transform: translateY(0px);
		}
	}
	.plus1 {
		animation-name: TomoPlus1;
		animation-iteration-count: infinite;
		animation-duration: 3s;
	}
	@keyframes TomoPlus2 {
		0% {
			transform: translateY(0px);
		}
		50% {
			transform: translateY(15px);
		}
		100% {
			transform: translateY(0px);
		}
	}
	.plus2 {
		animation-name: TomoPlus2;
		animation-iteration-count: infinite;
		animation-duration: 3s;
	}
</style>
<title>DApp Browser Integration</title>
<desc>Created with Sketch.</desc>
<g id="Page-1">
	<g id="ld-game-1-copy" transform="translate(-953.000000, -1518.000000)">
		<g id="Group-16" transform="translate(953.000000, 1506.000000)">
			<g id="_x23_019" transform="translate(33.293461, 0.000000)">
				<rect id="矩形" x="0" y="12" class="st0" width="99.9" height="100"/>
				<path id="路径" class="st1" d="M47.4,80.8c0-1.4,1.1-2.5,2.5-2.5c1.4,0,2.5,1.1,2.5,2.5v16.7c0,1.4-1.1,2.5-2.5,2.5
					c-1.4,0-2.5-1.1-2.5-2.5V80.8z"/>
				<path id="路径_1_" class="st1" d="M66.6,94.9c1.4,0,2.5,1.1,2.5,2.5c0,1.4-1.1,2.5-2.5,2.5H33.3c-1.4,0-2.5-1.1-2.5-2.5
					c0-1.4,1.1-2.5,2.5-2.5H66.6z"/>
				<path id="路径-copy" class="st1" d="M73.2,44.1c1.4,0,2.5,1.1,2.5,2.5c0,1.4-1.1,2.5-2.5,2.5h-25c-1.4,0-2.5-1.1-2.5-2.5
					c0-1.4,1.1-2.5,2.5-2.5H73.2z"/>
				<path id="路径_2_" class="st2" d="M10.8,64.1c0,1.4-1.1,2.5-2.5,2.5s-2.5-1.1-2.5-2.5V30.8c0-3.7,3-6.7,6.7-6.7h74.9
					c3.7,0,6.7,3,6.7,6.7v45.8c0,3.7-3,6.7-6.7,6.7H16.6c-1.4,0-2.5-1.1-2.5-2.5s1.1-2.5,2.5-2.5h70.7c0.9,0,1.7-0.7,1.7-1.7V30.8
					c0-0.9-0.7-1.7-1.7-1.7H12.5c-0.9,0-1.7,0.7-1.7,1.7V64.1z"/>
				<ellipse id="椭圆形" class="st1" cx="49.9" cy="64.1" rx="4.2" ry="4.2"/>
			</g>
			<g id="Group-10" transform="translate(0.000000, 55.833333)">
				<g class="plus1">
					<ellipse id="Oval" class="st3" cx="12.5" cy="24.5" rx="12.5" ry="12.5"/>
					<path id="global---anticon" class="st2" d="M16.7,17.3c1.3,0.7,2.3,1.7,3,3c0.7,1.3,1.1,2.7,1.1,4.2c0,1.5-0.4,2.9-1.1,4.2
					s-1.8,2.3-3,3s-2.7,1.1-4.2,1.1s-2.9-0.4-4.2-1.1s-2.3-1.8-3-3S4.2,26,4.2,24.5c0-1.5,0.4-2.9,1.1-4.2C6,19,7,18,8.3,17.3
					s2.7-1.1,4.2-1.1S15.4,16.5,16.7,17.3z M10.6,17.6c-0.8,0.2-1.6,0.6-2.3,1.1h0c0.3,0.2,0.6,0.4,1,0.6
					C9.6,18.6,10.1,18,10.6,17.6z M7.4,19.5c-1.1,1.2-1.8,2.6-2,4.2h2.7c0.1-1.2,0.3-2.3,0.7-3.3C8.3,20.1,7.8,19.8,7.4,19.5z
					 M5.3,24.9c0.1,0.9,0.3,1.7,0.6,2.5c0.4,0.8,0.8,1.5,1.4,2.1c0.4-0.3,0.9-0.6,1.4-0.9c-0.4-1.2-0.7-2.4-0.7-3.8H5.3z M8.3,30.3
					c0.7,0.5,1.5,0.9,2.3,1.1c-0.5-0.4-0.9-1-1.3-1.7C8.9,29.9,8.6,30.1,8.3,30.3L8.3,30.3z M12,30.9v-2c-0.6,0-1.1,0.2-1.7,0.3
					C10.8,30.2,11.3,30.7,12,30.9z M12,27.8v-2.9H9.3c0,1.2,0.2,2.3,0.6,3.3C10.5,28,11.3,27.8,12,27.8z M12,23.7v-2.5
					c-0.7,0-1.5-0.2-2.1-0.4c-0.3,0.9-0.5,1.8-0.5,2.9H12z M12,20v-2c-0.6,0.2-1.2,0.7-1.7,1.6C10.8,19.9,11.4,20,12,20z M19.6,23.7
					c-0.2-1.6-0.9-3-2-4.2c-0.4,0.3-0.9,0.6-1.4,0.9c0.4,1,0.6,2.1,0.7,3.3H19.6z M16.7,18.7c-0.7-0.5-1.5-0.9-2.3-1.1
					c0.5,0.4,0.9,1,1.3,1.7C16,19.1,16.4,18.9,16.7,18.7L16.7,18.7z M13.2,18.2V20c0.5,0,1-0.1,1.5-0.3
					C14.2,18.9,13.7,18.4,13.2,18.2z M13.2,21.2v2.5h2.5c-0.1-1.1-0.2-2-0.5-2.9C14.5,21,13.8,21.2,13.2,21.2z M13.2,24.9v2.9
					c0.7,0.1,1.3,0.2,2,0.4c0.3-1,0.5-2.1,0.6-3.3H13.2z M13.2,30.8c0.6-0.2,1.1-0.8,1.5-1.6c-0.5-0.2-1-0.3-1.5-0.3V30.8z
					 M14.4,31.4c0.8-0.2,1.6-0.6,2.3-1.1h0c-0.3-0.2-0.6-0.4-1-0.6C15.3,30.4,14.9,31,14.4,31.4z M17.6,29.5
					c0.6-0.6,1.1-1.3,1.4-2.1c0.4-0.8,0.6-1.6,0.6-2.5h-2.7c0,1.4-0.3,2.6-0.7,3.8C16.7,28.9,17.2,29.2,17.6,29.5z"/>
				</g>
			</g>
			<g id="Group-11" transform="translate(143.994219, 18.333333)">
				<g class="plus2">
					<ellipse id="Oval-Copy-8" class="st1" cx="15" cy="27" rx="15" ry="15"/>
					<path id="setting---anticon" class="st2" d="M25,25.6c0.1,0.6,0.1,1.1,0.1,1.6c0,0.5,0,1-0.1,1.6l-0.1,0.5l-1.6,0.5
					c-0.1,0.4-0.3,0.9-0.5,1.3l0.7,1.5L23.2,33c-0.3,0.5-0.7,0.9-1,1.2c-0.3,0.4-0.7,0.7-1.2,1l-0.4,0.3L19,34.8
					c-0.4,0.2-0.8,0.4-1.2,0.5l-0.5,1.6L16.7,37c-0.6,0.1-1.1,0.1-1.6,0.1c-0.5,0-1,0-1.6-0.1L13,36.9l-0.5-1.6
					c-0.4-0.1-0.8-0.3-1.2-0.5l-1.5,0.7l-0.4-0.3c-0.5-0.4-0.9-0.7-1.2-1c-0.4-0.4-0.7-0.8-1-1.2l-0.3-0.4l0.7-1.5
					c-0.2-0.4-0.4-0.8-0.5-1.2l-1.6-0.5l-0.1-0.5c-0.1-0.6-0.1-1.1-0.1-1.6c0-0.5,0-1,0.1-1.6l0.1-0.5L7,24.5
					c0.1-0.4,0.3-0.8,0.5-1.2l-0.7-1.5l0.3-0.4c0.6-0.9,1.4-1.6,2.2-2.2l0.4-0.3l1.5,0.8c0.4-0.2,0.8-0.4,1.2-0.5l0.5-1.6l0.5-0.1
					c0.6-0.1,1.1-0.1,1.6-0.1c0.5,0,1,0,1.6,0.1l0.5,0.1l0.5,1.6c0.4,0.1,0.9,0.3,1.3,0.5l1.5-0.8l0.4,0.3c0.9,0.6,1.6,1.4,2.2,2.3
					l0.3,0.4l-0.7,1.5c0.2,0.4,0.4,0.8,0.5,1.3l1.6,0.5L25,25.6z M23.6,27.1c0-0.3,0-0.6,0-0.9L22.7,26L22,25.8l-0.2-0.7
					c-0.1-0.4-0.3-0.8-0.5-1.2L21,23.3l0.7-1.4c-0.4-0.5-0.8-0.9-1.3-1.3L19,21.3l-0.6-0.4c-0.4-0.2-0.8-0.4-1.2-0.5l-0.7-0.2
					l-0.5-1.5c-0.3,0-0.6,0-0.9,0c-0.3,0-0.6,0-0.9,0L14,19.6l-0.2,0.7l-0.7,0.2c-0.4,0.1-0.8,0.3-1.2,0.5l-0.7,0.3l-1.4-0.7
					C9.4,21,9,21.4,8.6,21.9l0.4,0.7l0.3,0.6l-0.3,0.7c-0.2,0.4-0.4,0.8-0.5,1.2l-0.2,0.7l-1.4,0.5c0,0.3-0.1,0.6-0.1,0.9
					c0,0.3,0,0.6,0.1,0.9l1.4,0.5l0.2,0.7c0.1,0.4,0.3,0.8,0.5,1.2l0.3,0.6l-0.7,1.4c0.2,0.2,0.4,0.5,0.6,0.7
					c0.2,0.2,0.4,0.4,0.7,0.6l0.7-0.4l0.7-0.3l0.6,0.3c0.4,0.2,0.8,0.4,1.2,0.5l0.7,0.2l0.2,0.7l0.2,0.8c0.3,0,0.6,0.1,0.9,0.1
					c0.3,0,0.6,0,0.9-0.1l0.3-0.8l0.2-0.7l0.7-0.2c0.4-0.1,0.8-0.3,1.2-0.5L19,33l1.4,0.7c0.3-0.2,0.5-0.4,0.7-0.6v0
					c0.2-0.2,0.4-0.4,0.6-0.7L21,31l0.4-0.6c0.2-0.4,0.3-0.7,0.5-1.1l0.2-0.7l0.7-0.2l0.8-0.2C23.5,27.8,23.6,27.4,23.6,27.1
					L23.6,27.1z M17.8,24.5c0.7,0.7,1.1,1.6,1.1,2.7c0,1.1-0.4,2-1.1,2.7c-0.7,0.7-1.6,1.1-2.7,1.1s-1.9-0.4-2.7-1.1
					c-0.7-0.7-1.1-1.6-1.1-2.7c0-1.1,0.4-2,1.1-2.7c0.7-0.7,1.6-1.1,2.7-1.1S17.1,23.7,17.8,24.5z M17.4,27.2c0-0.6-0.2-1.1-0.6-1.6
					s-1-0.7-1.6-0.7c-0.6,0-1.1,0.2-1.6,0.7s-0.7,1-0.7,1.6c0,0.6,0.2,1.1,0.7,1.6c0.4,0.4,1,0.7,1.6,0.7c0.6,0,1.1-0.2,1.6-0.7
					C17.2,28.3,17.4,27.8,17.4,27.2z"/>
				</g>
			</g>
		</g>
	</g>
</g>
</svg>
