<?xml version="1.0" encoding="UTF-8"?>
<svg width="108px" height="16px" viewBox="0 0 108 16" version="1.1" xmlns="http://www.w3.org/2000/svg" xmlns:xlink="http://www.w3.org/1999/xlink">
    <!-- Generator: Sketch 50.2 (55047) - http://www.bohemiancoding.com/sketch -->
    <title>Group 30 Copy</title>
    <desc>Created with Sketch.</desc>
    <defs></defs>
    <g id="Page-1" stroke="none" stroke-width="1" fill="none" fill-rule="evenodd">
        <g id="Home" transform="translate(-737.000000, -2296.000000)" fill="#6B6CED">
            <g id="Group-30-Copy" transform="translate(737.000000, 2295.000000)">
                <path d="M26.688,13.853 C26.1653307,13.6616657 25.6660024,13.3513355 25.19,12.922 C24.993999,12.7539992 24.896,12.5626677 24.896,12.348 C24.896,12.1799992 24.9613327,12.028334 25.092,11.893 C25.2226673,11.757666 25.3766658,11.69 25.554,11.69 C25.7126675,11.69 25.8479994,11.7413328 25.96,11.844 C26.3333352,12.1893351 26.7183313,12.4436659 27.115,12.607 C27.5116686,12.7703342 27.9619975,12.852 28.466,12.852 C29.0540029,12.852 29.550998,12.716668 29.957,12.446 C30.363002,12.175332 30.566,11.8346687 30.566,11.424 C30.5566666,10.9386642 30.3536686,10.5630013 29.957,10.297 C29.5603313,10.0309987 28.9560041,9.80933422 28.144,9.632 C27.1826619,9.43599902 26.4430026,9.11400224 25.925,8.666 C25.4069974,8.21799776 25.148,7.5973373 25.148,6.804 C25.148,6.25333058 25.2926652,5.77033541 25.582,5.355 C25.8713348,4.93966459 26.2726641,4.62000112 26.786,4.396 C27.2993359,4.17199888 27.8779968,4.06 28.522,4.06 C29.1006696,4.06 29.6466641,4.1533324 30.16,4.34 C30.6733359,4.5266676 31.0886651,4.77399846 31.406,5.082 C31.6206677,5.2686676 31.728,5.46933226 31.728,5.684 C31.728,5.85200084 31.6650006,6.00133268 31.539,6.132 C31.4129994,6.26266732 31.2613342,6.328 31.084,6.328 C30.9533327,6.328 30.8460004,6.29066704 30.762,6.216 C30.5193321,5.97333212 30.1833355,5.76800084 29.754,5.6 C29.3246645,5.43199916 28.914002,5.348 28.522,5.348 C27.8966635,5.348 27.3996685,5.47633205 27.031,5.733 C26.6623315,5.98966795 26.478,6.3279979 26.478,6.748 C26.478,7.20533562 26.6623315,7.55533212 27.031,7.798 C27.3996685,8.04066788 27.9479964,8.24599916 28.676,8.414 C29.4040036,8.57266746 29.9989977,8.75933226 30.461,8.974 C30.9230023,9.18866774 31.2799987,9.48733142 31.532,9.87 C31.7840013,10.2526686 31.91,10.7519969 31.91,11.368 C31.91,11.909336 31.7583348,12.3899979 31.455,12.81 C31.1516651,13.2300021 30.7386693,13.5566655 30.216,13.79 C29.6933307,14.0233345 29.1193365,14.14 28.494,14.14 C27.8126633,14.14 27.2106693,14.0443343 26.688,13.853 Z M39.96,12.292 C39.6333317,12.8706696 39.1876695,13.3233317 38.623,13.65 C38.0583305,13.9766683 37.4353367,14.14 36.754,14.14 C36.0726633,14.14 35.4496695,13.9766683 34.885,13.65 C34.3203305,13.3233317 33.8746683,12.8706696 33.548,12.292 C33.2213317,11.7133304 33.058,11.0600036 33.058,10.332 C33.058,9.60399636 33.2213317,8.94600294 33.548,8.358 C33.8746683,7.76999706 34.3203305,7.3126683 34.885,6.986 C35.4496695,6.6593317 36.0726633,6.496 36.754,6.496 C37.4353367,6.496 38.0583305,6.6593317 38.623,6.986 C39.1876695,7.3126683 39.6333317,7.76999706 39.96,8.358 C40.2866683,8.94600294 40.45,9.60399636 40.45,10.332 C40.45,11.0600036 40.2866683,11.7133304 39.96,12.292 Z M38.805,8.981 C38.5949989,8.58433135 38.3103351,8.27633443 37.951,8.057 C37.5916649,7.83766557 37.1926689,7.728 36.754,7.728 C36.3153311,7.728 35.9163351,7.83766557 35.557,8.057 C35.1976649,8.27633443 34.913001,8.58433135 34.703,8.981 C34.4929989,9.37766865 34.388,9.82799748 34.388,10.332 C34.388,10.8266691 34.4929989,11.269998 34.703,11.662 C34.913001,12.054002 35.1976649,12.3596656 35.557,12.579 C35.9163351,12.7983344 36.3153311,12.908 36.754,12.908 C37.1926689,12.908 37.5916649,12.7983344 37.951,12.579 C38.3103351,12.3596656 38.5949989,12.054002 38.805,11.662 C39.015001,11.269998 39.12,10.8266691 39.12,10.332 C39.12,9.82799748 39.015001,9.37766865 38.805,8.981 Z M47.933,6.86 C48.0590006,6.99066732 48.122,7.1493324 48.122,7.336 L48.122,11.06 C48.122,12.0306715 47.8536693,12.7843306 47.317,13.321 C46.7803306,13.8576694 46.0220049,14.126 45.042,14.126 C44.0713285,14.126 43.3200027,13.8576694 42.788,13.321 C42.2559973,12.7843306 41.99,12.0306715 41.99,11.06 L41.99,7.336 C41.99,7.1493324 42.0529994,6.99066732 42.179,6.86 C42.3050006,6.72933268 42.4613324,6.664 42.648,6.664 C42.844001,6.664 43.0049994,6.72933268 43.131,6.86 C43.2570006,6.99066732 43.32,7.1493324 43.32,7.336 L43.32,11.06 C43.32,12.2826728 43.8939943,12.894 45.042,12.894 C45.6113362,12.894 46.0453318,12.7400015 46.344,12.432 C46.6426682,12.1239985 46.792,11.6666697 46.792,11.06 L46.792,7.336 C46.792,7.1493324 46.8549994,6.99066732 46.981,6.86 C47.1070006,6.72933268 47.2633324,6.664 47.45,6.664 C47.646001,6.664 47.8069994,6.72933268 47.933,6.86 Z M54.394,6.685 C54.5713342,6.81100063 54.66,6.9673324 54.66,7.154 C54.66,7.37800112 54.6016672,7.54833275 54.485,7.665 C54.3683327,7.78166725 54.2260008,7.84 54.058,7.84 C53.9739996,7.84 53.8480008,7.81200028 53.68,7.756 C53.483999,7.69066634 53.3300006,7.658 53.218,7.658 C52.9286652,7.658 52.6463347,7.75833233 52.371,7.959 C52.0956653,8.15966767 51.8716675,8.43499825 51.699,8.785 C51.5263325,9.13500175 51.44,9.52466452 51.44,9.954 L51.44,13.328 C51.44,13.5146676 51.3770006,13.6733327 51.251,13.804 C51.1249994,13.9346673 50.964001,14 50.768,14 C50.571999,14 50.4133339,13.9370006 50.292,13.811 C50.1706661,13.6849994 50.11,13.524001 50.11,13.328 L50.11,7.336 C50.11,7.1493324 50.1729994,6.99066732 50.299,6.86 C50.4250006,6.72933268 50.5813324,6.664 50.768,6.664 C50.964001,6.664 51.1249994,6.72933268 51.251,6.86 C51.3770006,6.99066732 51.44,7.1493324 51.44,7.336 L51.44,8.05 C51.6453344,7.59266438 51.9533313,7.22166809 52.364,6.937 C52.7746687,6.65233191 53.2413307,6.50533338 53.764,6.496 C54.0066679,6.496 54.2166658,6.55899937 54.394,6.685 Z M60.617,6.846 C61.1070024,7.0793345 61.352,7.37799818 61.352,7.742 C61.352,7.90066746 61.3006672,8.04299937 61.198,8.169 C61.0953328,8.29500063 60.9646675,8.358 60.806,8.358 C60.6846661,8.358 60.5890003,8.33933352 60.519,8.302 C60.4489996,8.26466648 60.3533339,8.20400042 60.232,8.12 C60.1759997,8.06399972 60.0873339,7.99866704 59.966,7.924 C59.8539994,7.86799972 59.6953344,7.82133352 59.49,7.784 C59.2846656,7.74666648 59.0980008,7.728 58.93,7.728 C58.4446642,7.728 58.0153352,7.83999888 57.642,8.064 C57.2686648,8.28800112 56.9793344,8.59833135 56.774,8.995 C56.5686656,9.39166865 56.466,9.83266424 56.466,10.318 C56.466,10.8126691 56.5663323,11.255998 56.767,11.648 C56.9676677,12.040002 57.2499982,12.3479989 57.614,12.572 C57.9780018,12.7960011 58.393331,12.908 58.86,12.908 C59.3453358,12.908 59.7373318,12.8333341 60.036,12.684 C60.1013337,12.6466665 60.1899994,12.5860004 60.302,12.502 C60.3953338,12.427333 60.4769996,12.3713335 60.547,12.334 C60.6170003,12.2966665 60.7033328,12.278 60.806,12.278 C60.9926676,12.278 61.1396661,12.3363328 61.247,12.453 C61.3543339,12.5696673 61.408,12.7213324 61.408,12.908 C61.408,13.104001 61.2843346,13.2976657 61.037,13.489 C60.7896654,13.6803343 60.4583354,13.8366661 60.043,13.958 C59.6276646,14.0793339 59.1820024,14.14 58.706,14.14 C57.9966631,14.14 57.371336,13.974335 56.83,13.643 C56.288664,13.311665 55.8710015,12.8543362 55.577,12.271 C55.2829985,11.6876638 55.136,11.0366703 55.136,10.318 C55.136,9.59932974 55.2899985,8.94833625 55.598,8.365 C55.9060015,7.78166375 56.3353306,7.32433499 56.886,6.993 C57.4366694,6.66166501 58.0666631,6.496 58.776,6.496 C59.513337,6.496 60.1269975,6.6126655 60.617,6.846 Z M69.01,10.479 C68.8793327,10.5956672 68.7253342,10.654 68.548,10.654 L63.62,10.654 C63.6853337,11.3353367 63.9443311,11.8813313 64.397,12.292 C64.8496689,12.7026687 65.4026634,12.908 66.056,12.908 C66.5040022,12.908 66.8679986,12.8426673 67.148,12.712 C67.4280014,12.5813327 67.6753323,12.4133344 67.89,12.208 C68.0300007,12.1239996 68.1653327,12.082 68.296,12.082 C68.4546675,12.082 68.5876661,12.1379994 68.695,12.25 C68.8023339,12.3620006 68.856,12.4926659 68.856,12.642 C68.856,12.838001 68.7626676,13.0153325 68.576,13.174 C68.305332,13.444668 67.9460022,13.6733324 67.498,13.86 C67.0499978,14.0466676 66.592669,14.14 66.126,14.14 C65.3699962,14.14 64.7050029,13.9813349 64.131,13.664 C63.5569971,13.3466651 63.1136682,12.9033362 62.801,12.334 C62.4883318,11.7646638 62.332,11.1206703 62.332,10.402 C62.332,9.61799608 62.4929984,8.92966963 62.815,8.337 C63.1370016,7.74433037 63.561664,7.28933492 64.089,6.972 C64.616336,6.65466508 65.1833303,6.496 65.79,6.496 C66.3873363,6.496 66.9473307,6.64999846 67.47,6.958 C67.9926693,7.26600154 68.4126651,7.69066396 68.73,8.232 C69.0473349,8.77333604 69.2106666,9.37999664 69.22,10.052 C69.2106666,10.2200008 69.1406673,10.3623328 69.01,10.479 Z M64.432,8.169 C64.0493314,8.46300147 63.7973339,8.91799692 63.676,9.534 L67.806,9.534 L67.806,9.422 C67.7593331,8.92733086 67.5376687,8.52133492 67.141,8.204 C66.7443313,7.88666508 66.2940025,7.728 65.79,7.728 C65.2673307,7.728 64.8146686,7.87499853 64.432,8.169 Z M82.128,5.334 C82.128,5.50200084 82.0720006,5.6559993 81.96,5.796 C81.8479994,5.94533408 81.694001,6.02 81.498,6.02 C81.3673327,6.02 81.2413339,5.98733366 81.12,5.922 C80.5413304,5.5953317 79.9160034,5.432 79.244,5.432 C78.5439965,5.432 77.9256693,5.58599846 77.389,5.894 C76.8523306,6.20200154 76.4346682,6.63366389 76.136,7.189 C75.8373318,7.74433611 75.688,8.38132974 75.688,9.1 C75.688,9.87467054 75.8419985,10.5419972 76.15,11.102 C76.4580015,11.6620028 76.882664,12.0889985 77.424,12.383 C77.965336,12.6770015 78.5719966,12.824 79.244,12.824 C79.9346701,12.824 80.5599972,12.6560017 81.12,12.32 C81.2320006,12.2639997 81.3533327,12.236 81.484,12.236 C81.6893344,12.236 81.8526661,12.3153325 81.974,12.474 C82.0860006,12.6140007 82.142,12.7633325 82.142,12.922 C82.142,13.0340006 82.111667,13.1389995 82.051,13.237 C81.990333,13.3350005 81.9086672,13.4119997 81.806,13.468 C81.4419982,13.6733344 81.0336689,13.8366661 80.581,13.958 C80.1283311,14.0793339 79.6826689,14.14 79.244,14.14 C78.3386621,14.14 77.5056705,13.9393353 76.745,13.538 C75.9843295,13.1366647 75.3776689,12.5533372 74.925,11.788 C74.4723311,11.0226628 74.246,10.1266718 74.246,9.1 C74.246,8.15732862 74.4629978,7.30567047 74.897,6.545 C75.3310022,5.78432953 75.9283295,5.18700217 76.689,4.753 C77.4496705,4.31899783 78.3013286,4.102 79.244,4.102 C80.1493379,4.102 80.9986627,4.32599776 81.792,4.774 C82.0160011,4.89533394 82.128,5.08199874 82.128,5.334 Z M90.024,12.292 C89.6973317,12.8706696 89.2516695,13.3233317 88.687,13.65 C88.1223305,13.9766683 87.4993367,14.14 86.818,14.14 C86.1366633,14.14 85.5136695,13.9766683 84.949,13.65 C84.3843305,13.3233317 83.9386683,12.8706696 83.612,12.292 C83.2853317,11.7133304 83.122,11.0600036 83.122,10.332 C83.122,9.60399636 83.2853317,8.94600294 83.612,8.358 C83.9386683,7.76999706 84.3843305,7.3126683 84.949,6.986 C85.5136695,6.6593317 86.1366633,6.496 86.818,6.496 C87.4993367,6.496 88.1223305,6.6593317 88.687,6.986 C89.2516695,7.3126683 89.6973317,7.76999706 90.024,8.358 C90.3506683,8.94600294 90.514,9.60399636 90.514,10.332 C90.514,11.0600036 90.3506683,11.7133304 90.024,12.292 Z M88.869,8.981 C88.6589989,8.58433135 88.3743351,8.27633443 88.015,8.057 C87.6556649,7.83766557 87.2566689,7.728 86.818,7.728 C86.3793311,7.728 85.9803351,7.83766557 85.621,8.057 C85.2616649,8.27633443 84.977001,8.58433135 84.767,8.981 C84.5569989,9.37766865 84.452,9.82799748 84.452,10.332 C84.452,10.8266691 84.5569989,11.269998 84.767,11.662 C84.977001,12.054002 85.2616649,12.3596656 85.621,12.579 C85.9803351,12.7983344 86.3793311,12.908 86.818,12.908 C87.2566689,12.908 87.6556649,12.7983344 88.015,12.579 C88.3743351,12.3596656 88.6589989,12.054002 88.869,11.662 C89.0790011,11.269998 89.184,10.8266691 89.184,10.332 C89.184,9.82799748 89.0790011,9.37766865 88.869,8.981 Z M98.487,3.829 C98.6130006,3.95500063 98.676,4.11599902 98.676,4.312 L98.676,13.328 C98.676,13.5146676 98.6130006,13.6733327 98.487,13.804 C98.3609994,13.9346673 98.200001,14 98.004,14 C97.807999,14 97.6493339,13.9370006 97.528,13.811 C97.4066661,13.6849994 97.346,13.524001 97.346,13.328 L97.346,12.936 C97.1126655,13.2720017 96.7836688,13.5566655 96.359,13.79 C95.9343312,14.0233345 95.4793358,14.14 94.994,14.14 C94.3593302,14.14 93.7853359,13.9766683 93.272,13.65 C92.7586641,13.3233317 92.3526682,12.8683363 92.054,12.285 C91.7553318,11.7016637 91.606,11.0460036 91.606,10.318 C91.606,9.58999636 91.7529985,8.93433625 92.047,8.351 C92.3410015,7.76766375 92.7446641,7.3126683 93.258,6.986 C93.7713359,6.6593317 94.3359969,6.496 94.952,6.496 C95.4466691,6.496 95.9039979,6.59866564 96.324,6.804 C96.7440021,7.00933436 97.0846654,7.2753317 97.346,7.602 L97.346,4.312 C97.346,4.11599902 97.4066661,3.95500063 97.528,3.829 C97.6493339,3.70299937 97.807999,3.64 98.004,3.64 C98.200001,3.64 98.3609994,3.70299937 98.487,3.829 Z M96.317,12.572 C96.6576684,12.3479989 96.9236657,12.040002 97.115,11.648 C97.3063343,11.255998 97.402,10.8126691 97.402,10.318 C97.402,9.83266424 97.3063343,9.39166865 97.115,8.995 C96.9236657,8.59833135 96.6576684,8.28800112 96.317,8.064 C95.9763316,7.83999888 95.5866689,7.728 95.148,7.728 C94.7093311,7.728 94.3196684,7.83999888 93.979,8.064 C93.6383316,8.28800112 93.3723343,8.59833135 93.181,8.995 C92.9896657,9.39166865 92.894,9.83266424 92.894,10.318 C92.894,10.8126691 92.9896657,11.255998 93.181,11.648 C93.3723343,12.040002 93.6383316,12.3479989 93.979,12.572 C94.3196684,12.7960011 94.7093311,12.908 95.148,12.908 C95.5866689,12.908 95.9763316,12.7960011 96.317,12.572 Z M106.88,10.479 C106.749333,10.5956672 106.595334,10.654 106.418,10.654 L101.49,10.654 C101.555334,11.3353367 101.814331,11.8813313 102.267,12.292 C102.719669,12.7026687 103.272663,12.908 103.926,12.908 C104.374002,12.908 104.737999,12.8426673 105.018,12.712 C105.298001,12.5813327 105.545332,12.4133344 105.76,12.208 C105.900001,12.1239996 106.035333,12.082 106.166,12.082 C106.324667,12.082 106.457666,12.1379994 106.565,12.25 C106.672334,12.3620006 106.726,12.4926659 106.726,12.642 C106.726,12.838001 106.632668,13.0153325 106.446,13.174 C106.175332,13.444668 105.816002,13.6733324 105.368,13.86 C104.919998,14.0466676 104.462669,14.14 103.996,14.14 C103.239996,14.14 102.575003,13.9813349 102.001,13.664 C101.426997,13.3466651 100.983668,12.9033362 100.671,12.334 C100.358332,11.7646638 100.202,11.1206703 100.202,10.402 C100.202,9.61799608 100.362998,8.92966963 100.685,8.337 C101.007002,7.74433037 101.431664,7.28933492 101.959,6.972 C102.486336,6.65466508 103.05333,6.496 103.66,6.496 C104.257336,6.496 104.817331,6.64999846 105.34,6.958 C105.862669,7.26600154 106.282665,7.69066396 106.6,8.232 C106.917335,8.77333604 107.080667,9.37999664 107.09,10.052 C107.080667,10.2200008 107.010667,10.3623328 106.88,10.479 Z M102.302,8.169 C101.919331,8.46300147 101.667334,8.91799692 101.546,9.534 L105.676,9.534 L105.676,9.422 C105.629333,8.92733086 105.407669,8.52133492 105.011,8.204 C104.614331,7.88666508 104.164003,7.728 103.66,7.728 C103.137331,7.728 102.684669,7.87499853 102.302,8.169 Z" id="Source-Code"></path>
                <g id="Group-2-Copy" transform="translate(0.000000, 1.000000)">
                    <path d="M4.00025,12.00025 C3.74425,12.00025 3.48825,11.90225 3.29325,11.70725 L0.29325,8.70725 C-0.09775,8.31625 -0.09775,7.68425 0.29325,7.29325 L3.29325,4.29325 C3.68425,3.90225 4.31625,3.90225 4.70725,4.29325 C5.09825,4.68425 5.09825,5.31625 4.70725,5.70725 L2.41425,8.00025 L4.70725,10.29325 C5.09825,10.68425 5.09825,11.31625 4.70725,11.70725 C4.51225,11.90225 4.25625,12.00025 4.00025,12.00025" id="Fill-4"></path>
                    <path d="M6.0014534,16.0008874 C5.9094534,16.0008874 5.8174534,15.9878874 5.7264534,15.9618874 C5.1944534,15.8098874 4.8874534,15.2568874 5.0384534,14.7258874 L9.0384534,0.725887417 C9.1904534,0.193887417 9.7494534,-0.113112583 10.2744534,0.0388874171 C10.8064534,0.190887417 11.1134534,0.743887417 10.9624534,1.27488742 L6.9624534,15.2748874 C6.8364534,15.7138874 6.4364534,16.0008874 6.0014534,16.0008874" id="Fill-1"></path>
                    <path d="M12.00025,12.00025 C11.74425,12.00025 11.48825,11.90225 11.29325,11.70725 C10.90225,11.31625 10.90225,10.68425 11.29325,10.29325 L13.58625,8.00025 L11.29325,5.70725 C10.90225,5.31625 10.90225,4.68425 11.29325,4.29325 C11.68425,3.90225 12.31625,3.90225 12.70725,4.29325 L15.70725,7.29325 C16.09825,7.68425 16.09825,8.31625 15.70725,8.70725 L12.70725,11.70725 C12.51225,11.90225 12.25625,12.00025 12.00025,12.00025" id="Fill-7"></path>
                </g>
            </g>
        </g>
    </g>
</svg>