<?xml version="1.0" encoding="UTF-8"?>
<svg width="64px" height="120px" viewBox="0 0 64 120" version="1.1" xmlns="http://www.w3.org/2000/svg" xmlns:xlink="http://www.w3.org/1999/xlink">
    <!-- Generator: Sketch 55.1 (78136) - https://sketchapp.com -->
    <title>touch copy</title>
    <desc>Created with Sketch.</desc>
    <g id="Page-1" stroke="none" stroke-width="1" fill="none" fill-rule="evenodd">
        <g id="touch-copy">
            <rect id="Rectangle-Copy-11" fill="#161B28" x="0" y="0" width="64" height="120"></rect>
            <path d="M16.0180664,71.6791534 C18.6238862,69.0733338 18.6238862,64.8326112 16.0180664,62.2267914 C14.7553253,60.9647369 13.0771637,60.269165 11.2918853,60.269165 C10.2598573,60.269165 9.26422119,60.5026245 8.36402889,60.9427642 C5.18966684,56.4012909 3.51768498,51.0866547 3.51768498,45.4966737 C3.51768498,31.1904145 14.6935273,19.338913 28.9599609,18.5149384 C29.930191,18.4586334 30.6703949,17.6271056 30.6147765,16.6575623 C30.5584717,15.6873321 29.7269439,14.9491883 28.7574005,15.0027466 C12.6315308,15.9345245 5.22248911e-13,29.3289185 5.22248911e-13,45.4966737 C5.22248911e-13,51.9470215 1.9713593,58.0739594 5.70877066,63.2780457 C4.00108342,65.8708192 4.28672795,69.4001769 6.56570426,71.6791534 C7.82844539,72.9412079 9.50660701,73.6367798 11.2918853,73.6367798 C13.0771637,73.6367798 14.7553253,72.9412079 16.0180664,71.6791534 Z M9.05273438,64.714508 C9.67002873,64.0972138 10.480957,63.7882232 11.2918853,63.7882232 C12.102127,63.7882232 12.9130555,64.0972138 13.5303497,64.714508 C14.7649384,65.9484101 14.7649384,67.9575347 13.5303497,69.1914367 C12.2957612,70.4260254 10.2873231,70.4260254 9.05273438,69.1914367 C7.81883244,67.9575347 7.81883244,65.9490967 9.05273438,64.714508 Z" id="Shape" fill="#703DB5" fill-rule="nonzero"></path>
            <path d="M57.6638031,75.9377289 C56.552124,75.9377289 55.5070496,76.2274932 54.5999908,76.7356109 C53.7959289,74.1860962 51.4091493,72.3321533 48.5973359,72.3321533 C46.8182373,72.3321533 45.2094268,73.0744171 44.0641021,74.2650605 C43.7461854,73.9354706 43.3925629,73.6408996 43.0101014,73.3861542 C47.0640565,71.5713501 50.712204,68.8755799 53.6640929,65.4608917 C58.4527588,59.9196625 61.0901641,52.8293609 61.0901641,45.4966737 C61.0901641,39.0497589 59.1188048,32.9193878 55.3820801,27.7146148 C57.0897675,25.1218414 56.804123,21.5931701 54.5244599,19.313507 C51.9186401,16.7076874 47.6786041,16.7076874 45.0720977,19.313507 C42.4662782,21.9193267 42.4662782,26.1600494 45.0720977,28.7658691 C46.375351,30.0691222 48.0864716,30.7207489 49.7982788,30.7207489 C50.8014679,30.7207489 51.8032837,30.4948426 52.7240753,30.0471496 C55.8998107,34.5899962 57.5724793,39.9087524 57.5724793,45.4966737 C57.5724793,58.2202148 48.9351654,68.9751435 36.7561339,71.8082428 L36.7561339,62.3407745 C43.7310791,59.7658539 48.4963989,53.0236816 48.4963989,45.4966737 C48.4963989,35.5986786 40.4434204,27.5457001 30.5447388,27.5457001 C20.6467437,27.5457001 12.5937652,35.597992 12.5937652,45.4966737 C12.5937652,49.4029999 13.8276671,53.117752 16.1608887,56.2378692 C18.196106,58.9590454 21.0120391,61.0725402 24.1712951,62.2782899 L24.1712951,88.1504058 L21.9616699,84.5256043 C20.1049805,81.4775849 16.2288666,80.4888154 13.1382752,82.2727203 C10.1987457,83.970108 9.05204777,87.6944732 10.5358887,90.7665253 L17.0967865,104.020844 C17.403717,104.640884 18.0271912,105 18.6746978,105 C18.9369965,105 19.2027284,104.941635 19.4533539,104.817352 C20.3240204,104.386139 20.6803895,103.330765 20.2498627,102.460785 L13.6958312,89.2215728 C13.0167388,87.8146362 13.5440826,86.100769 14.8974609,85.3193664 C16.2961578,84.5118712 18.1178283,84.9767304 18.9582824,86.3562012 L24.4281006,95.3313446 C24.8387147,96.0042572 25.6468964,96.322174 26.4056396,96.109314 C27.1643829,95.8964539 27.6889801,95.2043153 27.6889801,94.4153595 L27.6889801,54.0598297 C27.6889801,52.5299835 28.9338683,51.2857818 30.4637147,51.2857818 C31.9935607,51.2857818 33.2384491,52.5299835 33.2384491,54.0598297 L33.2384491,61.016922 C33.2377625,61.0292817 33.2384491,61.0416412 33.2384491,61.0546875 L33.2384491,87.4644471 C33.2384491,88.4360504 34.0253448,89.2229462 34.9969482,89.2229462 C35.9685517,89.2229462 36.7561339,88.4360504 36.7561339,87.4644471 L36.7561339,78.6245728 C36.7561339,77.0947266 38.0003358,75.8498383 39.5301818,75.8498383 C41.0600282,75.8498383 42.3049164,77.0947266 42.3049164,78.6245728 L42.3049164,88.1044005 C42.3049164,89.076004 43.0924989,89.8635864 44.0634155,89.8635864 C45.035019,89.8635864 45.8226014,89.076004 45.8226014,88.1044005 L45.8226014,78.6245728 C45.8226014,77.0947266 47.0674897,75.8498383 48.5973359,75.8498383 C50.1271821,75.8498383 51.3713837,77.0947266 51.3713837,78.6245728 L51.3713837,88.2231904 C51.3713837,89.1947938 52.158966,89.9823761 53.1305694,89.9823761 C54.1021729,89.9823761 54.8890685,89.1947938 54.8890685,88.2231904 L54.8890685,82.2301484 C54.8890685,80.7003022 56.133957,79.4554139 57.6638031,79.4554139 C59.1936493,79.4554139 60.4385376,80.7003022 60.4385376,82.2301484 L60.4385376,103.240128 C60.4385376,104.211731 61.2254334,105 62.1970367,105 C63.1686401,105 63.9562226,104.211731 63.9562226,103.240128 L63.9562226,82.2301484 C63.9562226,78.7605285 61.1334229,75.9377289 57.6638031,75.9377289 L57.6638031,75.9377289 Z M47.5598145,26.278839 C46.3252257,25.0442505 46.3252257,23.0358124 47.5598145,21.8012237 C48.1771088,21.1839295 48.9873505,20.8756256 49.7982788,20.8756256 C50.6092071,20.8756256 51.4201356,21.1839295 52.0374298,21.8012237 C53.2713319,23.0358124 53.2713319,25.0442505 52.0374298,26.278839 C50.8028412,27.5127411 48.7937164,27.5127411 47.5598145,26.278839 Z M16.1114502,45.4966737 C16.1114502,37.5377655 22.5865174,31.0626983 30.5454254,31.0626983 C38.5036469,31.0626983 44.9787139,37.5377655 44.9787139,45.4966737 C44.9787139,51.1010742 41.6944884,56.1650849 36.7561339,58.527832 L36.7561339,54.0598297 C36.7561339,53.0724335 36.5267944,52.1372222 36.1189269,51.3043213 C37.6789855,49.8005675 38.6011505,47.7042388 38.6011505,45.4966737 C38.6011505,41.0540771 34.9873351,37.4402618 30.5454254,37.4402618 C26.102829,37.4402618 22.4890137,41.0540771 22.4890137,45.4966737 C22.4890137,47.6396943 23.3617402,49.6989442 24.8620605,51.1999512 C24.4219208,52.058258 24.1712951,53.030548 24.1712951,54.0598297 L24.1712951,58.4536743 C19.2734527,56.0600282 16.1114502,51.0962677 16.1114502,45.4966737 Z M27.2721864,48.6401367 C26.4612579,47.8010558 26.0066987,46.6893769 26.0066987,45.4966737 C26.0066987,42.9938507 28.0426025,40.9579468 30.5447388,40.9579468 C33.0475616,40.9579468 35.0834657,42.9938507 35.0834657,45.4966737 C35.0834657,46.706543 34.5918273,47.8587342 33.7554932,48.7005615 C32.796936,48.1093598 31.669464,47.7680968 30.4637147,47.7680968 C29.2991639,47.7680968 28.2087707,48.0867004 27.2721864,48.6401367 Z" id="Shape" fill="#703DB5" fill-rule="nonzero"></path>
            <path d="M36.7733002,19.1445923 C37.2360992,19.1445923 37.6899718,18.9564513 38.0168153,18.6289215 C38.3443451,18.3020782 38.5324859,17.8482056 38.5324859,17.3854064 C38.5324859,16.923294 38.3443451,16.4694214 38.0168153,16.1418915 C37.6899718,15.8150483 37.2360992,15.6269073 36.7733002,15.6269073 C36.3111877,15.6269073 35.857315,15.8150483 35.5304718,16.1418915 C35.2029419,16.4694214 35.0148009,16.923294 35.0148009,17.3854064 C35.0148009,17.8482056 35.2029419,18.3020782 35.5304718,18.6289215 C35.857315,18.9564513 36.3111877,19.1445923 36.7733002,19.1445923 Z" id="Path" fill="#703DB5" fill-rule="nonzero"></path>
        </g>
    </g>
</svg>