<?xml version="1.0" encoding="utf-8"?>
<!-- Generator: Adobe Illustrator 22.0.0, SVG Export Plug-In . SVG Version: 6.00 Build 0)  -->
<svg version="1.1" id="Layer_1" xmlns="http://www.w3.org/2000/svg" xmlns:xlink="http://www.w3.org/1999/xlink" x="0px" y="0px"
	 viewBox="0 0 165 100" style="enable-background:new 0 0 165 100;" xml:space="preserve">
<style type="text/css">
	.st0{fill:none;}
	.st1{fill:#FFFFFF;}
	.st2{fill:#1E86FF;}
	.st3{filter:url(#Adobe_OpacityMaskFilter);}
	.st4{mask:url(#mask-2_1_);fill:#FFFFFF;}
	.st5{fill:#B74896;}
	.st6{filter:url(#Adobe_OpacityMaskFilter_1_);}
	.st7{mask:url(#mask-4_1_);fill:#FFFFFF;}
	@keyframes TomoPlus1 {
		0% {
			transform: translateY(0px);
		}
		50% {
			transform: translateY(-15px);
		}
		100% {
			transform: translateY(0px);
		}
	}
	.plus1 {
		animation-name: TomoPlus1;
		animation-iteration-count: infinite;
		animation-duration: 3s;
	}
	@keyframes TomoPlus2 {
		0% {
			transform: translateY(0px);
		}
		50% {
			transform: translateY(15px);
		}
		100% {
			transform: translateY(0px);
		}
	}
	.plus2 {
		animation-name: TomoPlus2;
		animation-iteration-count: infinite;
		animation-duration: 3s;
	}
</style>
<title>Intuitive, Safe, and Secure Store</title>
<desc>Created with Sketch.</desc>
<g id="Page-1">
	<g id="ld-game-1-copy" transform="translate(-325.000000, -1108.000000)">
		<g id="Group-13" transform="translate(325.000000, 1103.000000)">
			<g id="_x23_017" transform="translate(32.582487, 0.000000)">
				<rect id="矩形" x="0" y="5" class="st0" width="100.3" height="100"/>
				<path id="路径" class="st1" d="M25.5,80c0,1.4-1.1,2.5-2.5,2.5s-2.5-1.1-2.5-2.5V17.5c0-3.7,3-6.7,6.7-6.7h45.9
					c3.7,0,6.7,3,6.7,6.7v75c0,3.7-3,6.7-6.7,6.7H31.3c-1.4,0-2.5-1.1-2.5-2.5c0-1.4,1.1-2.5,2.5-2.5h41.8c0.9,0,1.7-0.7,1.7-1.7
					v-75c0-0.9-0.7-1.7-1.7-1.7H27.2c-0.9,0-1.7,0.7-1.7,1.7V80z"/>
				<ellipse id="椭圆形" class="st2" cx="50" cy="83" rx="4.2" ry="4.2"/>
			</g>
			<g id="Group-9" transform="translate(0.000000, 42.500000)">
				<g class="plus1">
					<ellipse id="Oval" class="st2" cx="16.7" cy="21.7" rx="16.7" ry="16.7"/>
					<g id="Group-8-Copy" transform="translate(4.050659, 4.040404)">
						<path id="Fill-1" class="st1" d="M11.9,22.8c0.5,0.2,1,0.3,1.5,0.3c0.8,0,1.6-0.3,2.2-0.8c0.1-0.1,0.2-0.1,0.3-0.2
							c0.3-0.3,0.3-0.7,0-1c-0.3-0.3-0.7-0.3-1,0c-0.1,0.1-0.1,0.1-0.2,0.2c-0.7,0.5-1.5,0.6-2.3,0.3c-0.8-0.4-1.2-1.1-1.2-1.9V16
							h4.3c0.3,0,0.6-0.3,0.6-0.6c0-0.3-0.3-0.6-0.6-0.6h-4.3v-1.1c0-0.4-0.3-0.7-0.7-0.7c-0.4,0-0.7,0.3-0.7,0.7v1.1H8.7
							c-0.3,0-0.6,0.3-0.6,0.6c0,0.3,0.3,0.6,0.6,0.6h1.2v3.7C9.9,21.1,10.7,22.3,11.9,22.8"/>
						<path id="Fill-3" class="st1" d="M21.3,19.6c0.1-0.3-0.2-0.6-0.5-0.6h-0.2c-0.2,0-0.4,0.2-0.5,0.4c-0.8,3.6-3.8,6.4-7.5,6.6
							c-5.7,0.2-10.1-5.7-7.7-11.9c0.7-1.9,2.2-3.4,4-4.1c4.1-1.8,8-0.1,10,3c0.2,0.2,0.5,0.3,0.7,0.2l0.1-0.1
							c0.3-0.2,0.3-0.5,0.2-0.8C17.7,8.9,13.4,7,9,8.6c-2.5,0.9-4.5,2.9-5.4,5.5c-2.3,6.8,2.4,13.1,8.6,13.1
							C16.7,27.2,20.4,24,21.3,19.6"/>
						<g id="Group-7">
							<g id="Clip-6">
							</g>
							<defs>
								<filter id="Adobe_OpacityMaskFilter" filterUnits="userSpaceOnUse" x="0" y="5" width="25.3" height="25.3">
									<feColorMatrix  type="matrix" values="1 0 0 0 0  0 1 0 0 0  0 0 1 0 0  0 0 0 1 0"/>
								</filter>
							</defs>
							<mask maskUnits="userSpaceOnUse" x="0" y="5" width="25.3" height="25.3" id="mask-2_1_">
								<g class="st3">
									<polygon id="path-1_1_" class="st1" points="0,5 25.3,5 25.3,31.3 0,31.3 								"/>
								</g>
							</mask>
							<path id="Fill-5" class="st4" d="M12.1,5C5.6,5.3,0.3,10.6,0,17.1c-0.1,1.4,0.1,2.8,0.5,4.1c0.1,0.4,0.5,0.5,0.8,0.4
								c0,0,0,0,0,0c0.3-0.1,0.4-0.4,0.3-0.7c-0.3-1.2-0.5-2.4-0.4-3.7c0.2-5.9,5-10.7,10.9-10.9c6.5-0.3,12,4.9,12,11.4
								C24.1,23.9,19,29,12.7,29c-0.8,0-1.7-0.1-2.5-0.3c-0.2,0-0.4,0-0.6,0.2c-0.3,0.4-0.1,0.9,0.3,1c1,0.2,2.1,0.3,3.2,0.3
								C19.7,30,25,24.7,25.3,18.2C25.6,10.8,19.5,4.7,12.1,5"/>
						</g>
					</g>
				</g>
			</g>
			<g id="Group-4" transform="translate(131.165398, 13.333333)">
				<g class="plus2">
					<ellipse id="Oval-Copy-9" class="st5" cx="16.7" cy="21.7" rx="16.7" ry="16.7"/>
					<g id="Group-8-Copy-2" transform="translate(4.050659, 4.040404)">
						<path id="Fill-1_1_" class="st1" d="M11.9,22.8c0.5,0.2,1,0.3,1.5,0.3c0.8,0,1.6-0.3,2.2-0.8c0.1-0.1,0.2-0.1,0.3-0.2
							c0.3-0.3,0.3-0.7,0-1c-0.3-0.3-0.7-0.3-1,0c-0.1,0.1-0.1,0.1-0.2,0.2c-0.7,0.5-1.5,0.6-2.3,0.3c-0.8-0.4-1.2-1.1-1.2-1.9V16
							h4.3c0.3,0,0.6-0.3,0.6-0.6c0-0.3-0.3-0.6-0.6-0.6h-4.3v-1.1c0-0.4-0.3-0.7-0.7-0.7c-0.4,0-0.7,0.3-0.7,0.7v1.1H8.7
							c-0.3,0-0.6,0.3-0.6,0.6c0,0.3,0.3,0.6,0.6,0.6h1.2v3.7C9.9,21.1,10.7,22.3,11.9,22.8"/>
						<path id="Fill-3_1_" class="st1" d="M21.3,19.6c0.1-0.3-0.2-0.6-0.5-0.6h-0.2c-0.2,0-0.4,0.2-0.5,0.4c-0.8,3.6-3.8,6.4-7.5,6.6
							c-5.7,0.2-10.1-5.7-7.7-11.9c0.7-1.9,2.2-3.4,4-4.1c4.1-1.8,8-0.1,10,3c0.2,0.2,0.5,0.3,0.7,0.2l0.1-0.1
							c0.3-0.2,0.3-0.5,0.2-0.8C17.7,8.9,13.4,7,9,8.6c-2.5,0.9-4.5,2.9-5.4,5.5c-2.3,6.8,2.4,13.1,8.6,13.1
							C16.7,27.2,20.4,24,21.3,19.6"/>
						<g id="Group-7_1_">
							<g id="Clip-6_1_">
							</g>
							<defs>
								<filter id="Adobe_OpacityMaskFilter_1_" filterUnits="userSpaceOnUse" x="0" y="5" width="25.3" height="25.3">
									<feColorMatrix  type="matrix" values="1 0 0 0 0  0 1 0 0 0  0 0 1 0 0  0 0 0 1 0"/>
								</filter>
							</defs>
							<mask maskUnits="userSpaceOnUse" x="0" y="5" width="25.3" height="25.3" id="mask-4_1_">
								<g class="st6">
									<polygon id="path-3_1_" class="st1" points="0,5 25.3,5 25.3,31.3 0,31.3 								"/>
								</g>
							</mask>
							<path id="Fill-5_1_" class="st7" d="M12.1,5C5.6,5.3,0.3,10.6,0,17.1c-0.1,1.4,0.1,2.8,0.5,4.1c0.1,0.4,0.5,0.5,0.8,0.4
								c0,0,0,0,0,0c0.3-0.1,0.4-0.4,0.3-0.7c-0.3-1.2-0.5-2.4-0.4-3.7c0.2-5.9,5-10.7,10.9-10.9c6.5-0.3,12,4.9,12,11.4
								C24.1,23.9,19,29,12.7,29c-0.8,0-1.7-0.1-2.5-0.3c-0.2,0-0.4,0-0.6,0.2c-0.3,0.4-0.1,0.9,0.3,1c1,0.2,2.1,0.3,3.2,0.3
								C19.7,30,25,24.7,25.3,18.2C25.6,10.8,19.5,4.7,12.1,5"/>
						</g>
					</g>
				</g>
			</g>
			<path id="swap---anticon" class="st1" d="M68.4,43.3C68.3,43.3,68.3,43.3,68.4,43.3C68.3,43.3,68.3,43.3,68.4,43.3l-0.3,0l0,0
				h-0.1l0,0h0l0,0h-0.1v0h0l0,0h0v0h0l-0.1-0.1h0c0-0.1-0.1-0.1-0.1-0.1c0,0,0,0,0,0v0l0,0v0h0v0l0,0v0c0,0,0,0,0,0h0v0l0,0v-0.1
				c0,0,0,0,0,0h0v0c0,0,0,0,0,0s0,0,0,0V42l0,0v-0.7l0,0v-0.1c0,0,0-0.1,0-0.1V41l0,0v0l0,0v0c0,0,0,0,0,0l0,0v0c0,0,0,0,0,0
				s0,0,0,0v0l0,0c0,0,0,0,0,0v0h0l8.3-8.4c0.3-0.3,0.7-0.5,1.2-0.5s0.8,0.2,1.2,0.5c0.3,0.3,0.5,0.7,0.5,1.2c0,0.5-0.2,0.8-0.5,1.2
				L72.5,40h25.3c0.5,0,0.9,0.2,1.2,0.5c0.3,0.3,0.5,0.7,0.5,1.2c0,0.5-0.2,0.9-0.5,1.2c-0.3,0.3-0.7,0.5-1.2,0.5H68.4z M97.9,51.7
				C97.9,51.7,97.9,51.7,97.9,51.7C97.9,51.7,97.9,51.7,97.9,51.7l0.3,0l0,0h0.1v0h0.1l0,0h0.1v0h0l0,0h0v0h0l0.1,0.1h0
				c0,0.1,0.1,0.1,0.1,0.1c0,0,0,0,0,0v0l0,0v0h0v0h0c0,0,0,0,0,0v0c0,0,0,0,0,0s0,0,0,0v0l0,0v0.1c0,0,0,0,0,0h0v0.1l0,0
				c0,0,0,0,0,0V53l0,0v0.7l0,0v0.1l0,0V54l0,0v0l0,0v0c0,0,0,0,0,0l0,0v0c0,0,0,0,0,0s0,0,0,0v0l0,0c0,0,0,0,0,0h0v0h0l0,0
				c0,0,0,0,0,0.1l-8.2,8.3c-0.3,0.3-0.7,0.5-1.2,0.5c-0.5,0-0.8-0.2-1.2-0.5c-0.3-0.3-0.5-0.7-0.5-1.2c0-0.5,0.2-0.9,0.5-1.2
				l5.4-5.4H68.5c-0.4,0-0.8-0.2-1.2-0.5c-0.3-0.3-0.5-0.7-0.5-1.2c0-0.5,0.2-0.9,0.5-1.2c0.3-0.3,0.7-0.5,1.2-0.5H97.9z"/>
		</g>
	</g>
</g>
</svg>
