<?xml version="1.0" encoding="utf-8"?>
<!-- Generator: Adobe Illustrator 22.0.0, SVG Export Plug-In . SVG Version: 6.00 Build 0)  -->
<svg version="1.1" id="Layer_1" xmlns="http://www.w3.org/2000/svg" xmlns:xlink="http://www.w3.org/1999/xlink" x="0px" y="0px"
	 viewBox="0 0 170 100" style="enable-background:new 0 0 170 100;" xml:space="preserve">
<style type="text/css">
	.st0{fill:#B74896;}
	.st1{fill:#1E86FF;}
	.st2{fill:#FFFFFF;}
	@keyframes TomoPlus1 {
		0% {
			transform: translateY(0px);
		}
		50% {
			transform: translateY(-15px);
		}
		100% {
			transform: translateY(0px);
		}
	}
	.plus1 {
		animation-name: TomoPlus1;
		animation-iteration-count: infinite;
		animation-duration: 3s;
	}
	@keyframes TomoPlus2 {
		0% {
			transform: translateY(0px);
		}
		50% {
			transform: translateY(15px);
		}
		100% {
			transform: translateY(0px);
		}
	}
	.plus2 {
		animation-name: TomoPlus2;
		animation-iteration-count: infinite;
		animation-duration: 3s;
	}
</style>
<title>Built in governance</title>
<desc>Created with Sketch.</desc>
<g id="Page-1">
	<g id="ld-game-1-copy" transform="translate(-948.000000, -1108.000000)">
		<g id="Group-14" transform="translate(948.000000, 1106.000000)">
			<g class="plus2">
				<g id="Group-10-Copy" transform="translate(0.000000, 23.940435)">
					<ellipse id="Oval" class="st0" cx="12.6" cy="12.6" rx="12.6" ry="12.6"/>
				</g>
				<path id="contacts---anticon" class="st2" d="
					M7.8,39.8c-0.1,0.1-0.2,0.1-0.4,0.1H5.7c-0.1,0-0.3-0.1-0.4-0.2s-0.2-0.2-0.2-0.4
					c0-0.1,0.1-0.3,0.2-0.4c0.1-0.1,0.2-0.2,0.4-0.2h1.8c0.1,0,0.3,0.1,0.4,0.2C7.9,39.1,8,39.2,8,39.4C8,39.5,7.9,39.7,7.8,39.8z
					 M5.7,34.6c-0.1,0-0.3-0.1-0.4-0.2s-0.2-0.2-0.2-0.4s0.1-0.3,0.2-0.4c0.1-0.1,0.2-0.2,0.4-0.2h1.8c0.1,0,0.3,0.1,0.4,0.2
					C7.9,33.8,8,34,8,34.1s-0.1,0.3-0.2,0.4c-0.1,0.1-0.2,0.2-0.4,0.2H5.7z M17.3,30.1c0.3,0,0.5,0.1,0.8,0.3
					c0.2,0.2,0.3,0.5,0.3,0.8v11.1c0,0.3-0.1,0.5-0.3,0.8s-0.5,0.3-0.8,0.3H7.2c-0.3,0-0.5-0.1-0.8-0.3s-0.3-0.5-0.3-0.8v-0.8
					c0-0.1,0.1-0.3,0.2-0.4c0.1-0.1,0.2-0.2,0.4-0.2c0.1,0,0.3,0.1,0.4,0.2c0.1,0.1,0.2,0.2,0.2,0.4v0.8h10.2V31.2H7.2V32
					c0,0.1-0.1,0.3-0.2,0.4c-0.1,0.1-0.2,0.2-0.4,0.2c-0.1,0-0.3-0.1-0.4-0.2c-0.1-0.1-0.2-0.2-0.2-0.4v-0.8c0-0.3,0.1-0.5,0.3-0.8
					c0.2-0.2,0.5-0.3,0.8-0.3H17.3z M5.7,37.3c-0.1,0-0.3-0.1-0.4-0.2s-0.2-0.2-0.2-0.4s0.1-0.3,0.2-0.4s0.2-0.2,0.4-0.2h1.8
					c0.1,0,0.3,0.1,0.4,0.2C7.9,36.5,8,36.6,8,36.7S7.9,37,7.8,37.1c-0.1,0.1-0.2,0.2-0.4,0.2H5.7z M14.4,37.1
					c-0.5,0.5-1,0.7-1.7,0.7s-1.2-0.2-1.7-0.7c-0.5-0.5-0.7-1-0.7-1.7c0-0.7,0.2-1.2,0.7-1.7c0.5-0.5,1-0.7,1.7-0.7s1.2,0.2,1.7,0.7
					s0.7,1,0.7,1.7C15.1,36,14.9,36.6,14.4,37.1z M13.7,34.4c-0.3-0.3-0.6-0.4-1-0.4c-0.4,0-0.7,0.1-1,0.4c-0.3,0.3-0.4,0.6-0.4,1
					c0,0.4,0.1,0.7,0.4,1c0.3,0.3,0.6,0.4,1,0.4c0.4,0,0.7-0.1,1-0.4c0.3-0.3,0.4-0.6,0.4-1C14.1,35,13.9,34.7,13.7,34.4z M15.5,40.5
					c-0.1,0-0.2,0-0.3-0.1C15,40.3,15,40.2,15,40.1c-0.1-0.5-0.4-1-0.8-1.3s-0.9-0.5-1.5-0.5s-1,0.2-1.5,0.5s-0.7,0.8-0.8,1.3
					c0,0.1-0.1,0.2-0.2,0.3c-0.1,0.1-0.2,0.1-0.3,0.1c0,0-0.1,0-0.1,0c-0.1,0-0.2-0.1-0.3-0.2c-0.1-0.1-0.1-0.3-0.1-0.4
					c0.1-0.8,0.5-1.4,1.2-2s1.3-0.8,2.1-0.8s1.5,0.3,2.1,0.8c0.6,0.5,1,1.2,1.2,2c0,0.1,0,0.3-0.1,0.4c-0.1,0.1-0.2,0.2-0.3,0.2
					C15.6,40.5,15.5,40.5,15.5,40.5z"
				/>
			</g>
			<g class="plus1">
				<g id="Group-11-Copy" transform="translate(142.358854, 65.941199)">
					<ellipse id="Oval-Copy-8" class="st1" cx="13.8" cy="13.7" rx="13.8" ry="13.7"/>
				</g>
				<path id="like-o---anticon" class="st2" d="M164.2,78.6L164.2,78.6l0,0.8l-0.1,0.1c-0.1,0.3-0.2,0.5-0.3,0.8
					c0.1,0.2,0.1,0.3,0.1,0.5c0,0.5-0.1,0.9-0.4,1.3c0,0.1,0.1,0.3,0.1,0.4c0,0.5-0.1,1-0.4,1.4c0.1,0.3,0.1,0.5,0.1,0.8
					c0,0.5-0.2,0.9-0.5,1.3c-0.3,0.4-0.7,0.6-1.1,0.8c-0.3,0.1-0.8,0.2-1.2,0.2h-10.3c-0.3,0-0.6-0.1-0.9-0.4s-0.4-0.5-0.4-0.9v-6.3
					c0-0.3,0.1-0.6,0.4-0.9c0.2-0.2,0.5-0.4,0.9-0.4h1.9l0.3-0.1c0.2,0,0.4-0.1,0.6-0.3c0.2-0.1,0.4-0.3,0.6-0.5
					c0.2-0.3,0.5-0.8,0.9-1.5c0-0.1,0.1-0.2,0.2-0.3c0.1-0.1,0.1-0.3,0.2-0.3c0,0,0-0.1,0-0.2c0-0.2,0-0.6,0-1.1c0-0.1,0-0.4,0-0.6
					c0-0.7,0.3-1.1,0.9-1.4c0.4-0.2,0.7-0.3,1.1-0.3c0.3,0,0.7,0.1,1,0.2c0.4,0.2,0.7,0.5,0.9,1l0.2,0.4c0.2,0.5,0.3,0.9,0.4,1.1
					c0.2,0.6,0.2,1.3,0.1,2c0,0.2-0.1,0.4-0.1,0.7h3c0.3,0,0.6,0,0.9,0.1c0.6,0.2,1,0.7,1.1,1.3C164.2,78.5,164.2,78.5,164.2,78.6
					L164.2,78.6z M152,85.7v-6.3h-1.9v6.3H152z M163,79.1v-0.2c0,0,0,0,0-0.1c0,0,0,0,0,0c-0.1-0.2-0.2-0.4-0.3-0.5
					c-0.1,0-0.3-0.1-0.4-0.1h-4.5l0.2-1.4c0-0.3,0.1-0.5,0.1-0.7c0.1-0.5,0.1-1,0-1.4c-0.1-0.3-0.2-0.6-0.4-1.1c0,0-0.1-0.2-0.2-0.4
					c-0.1-0.1-0.1-0.2-0.3-0.3c-0.2-0.1-0.4-0.1-0.5-0.1c-0.2,0-0.4,0-0.6,0.1c-0.1,0-0.1,0.1-0.2,0.1c0,0,0,0.1,0,0.2v0.7
					c0,0.4,0,0.7,0,1c0,0.3,0,0.6-0.2,0.9c0,0,0,0.1-0.1,0.1c0,0.1-0.1,0.1-0.1,0.1c-0.1,0.2-0.2,0.4-0.2,0.4l0,0
					c-0.4,0.7-0.7,1.2-0.9,1.6v0c-0.3,0.5-0.7,0.8-1.2,1.1l0,6.7h7.2c0.4,0,0.6,0,0.9-0.1c0.2-0.1,0.4-0.2,0.5-0.4
					c0.1-0.1,0.2-0.3,0.2-0.6v0c0-0.1,0-0.3,0-0.4v-0.1l-0.1-0.4l0.3-0.4c0.1-0.2,0.2-0.5,0.2-0.7c0,0,0-0.1,0-0.2l-0.2-0.5l0.3-0.5
					c0.1-0.2,0.2-0.4,0.2-0.6c0-0.1,0-0.2,0-0.2l-0.2-0.5l0.3-0.5c0.1-0.1,0.1-0.2,0.2-0.4L163,79.1z"
				/>
			</g>
			<g id="_x23_035-copy" transform="translate(42.923336, 0.114548)">
				<path id="Combined-Shape" class="st2" d="M23.9,22.6l4.8,4.8H6.7c-0.9,0-1.6,0.7-1.6,1.6v51.7c0,1.3-1.1,2.4-2.4,2.4
					s-2.4-1.1-2.4-2.4V28.9c0-3.5,2.8-6.4,6.4-6.4H23.9z M53.1,22.6h17.2c3.5,0,6.4,2.8,6.4,6.4v63.6c0,3.5-2.8,6.4-6.4,6.4H10.7
					c-1.3,0-2.4-1.1-2.4-2.4s1.1-2.4,2.4-2.4h59.6c0.9,0,1.6-0.7,1.6-1.6V28.9c0-0.9-0.7-1.6-1.6-1.6H48.4L53.1,22.6z"/>
				<path id="直线" class="st1" d="M53.1,39.6c1.3,0,2.4,1.2,2.4,2.6c0,1.4-1.1,2.6-2.4,2.6H24.9c-1.3,0-2.4-1.2-2.4-2.6
					c0-1.4,1.1-2.6,2.4-2.6H53.1z"/>
				<path id="椭圆形" class="st1" d="M58.1,84.4c2.3,0,4.1-1.8,4.1-4.1c0-2.3-1.8-4.1-4.1-4.1c-2.3,0-4.1,1.8-4.1,4.1
					C54,82.6,55.8,84.4,58.1,84.4z"/>
				<path id="Rectangle-Copy-5" class="st1" d="M38,7.6L23.5,22.1L38,36.5l14.5-14.5L38,7.6z M40.8,3.7l15.6,15.6
					c1.5,1.5,1.5,4,0,5.6L40.8,40.4c-1.5,1.5-4,1.5-5.6,0L19.6,24.8c-1.5-1.5-1.5-4,0-5.6L35.2,3.7C36.8,2.2,39.2,2.2,40.8,3.7z"/>
			</g>
		</g>
	</g>
</g>
</svg>
