<?xml version="1.0" encoding="UTF-8"?>
<svg width="80px" height="80px" viewBox="0 0 80 80" version="1.1" xmlns="http://www.w3.org/2000/svg" xmlns:xlink="http://www.w3.org/1999/xlink">
    <!-- Generator: Sketch 55.1 (78136) - https://sketchapp.com -->
    <title>logo-coin-tomoz-white</title>
    <desc>Created with Sketch.</desc>
    <g id="Page-1" stroke="none" stroke-width="1" fill="none" fill-rule="evenodd">
        <g id="TomoZ-1-Copy-5" transform="translate(-670.000000, -2008.000000)" fill="#FFFFFF">
            <g id="Group-7" transform="translate(0.000000, 1746.000000)">
                <g id="logo-coin-tomoz-white" transform="translate(670.000000, 262.000000)">
                    <path d="M69.9617653,46.3124649 C70.1886451,45.2681001 69.3767342,44.2832989 68.2969687,44.2832989 L67.7855407,44.2832989 C67.0022112,44.2832989 66.3132252,44.8161176 66.1455314,45.5731757 C63.6250668,56.9598303 53.5482668,65.6501067 41.4171553,66.1383779 C22.7335945,66.8904307 8.06684249,48.3421314 16.156105,29.0342714 C18.6097956,23.1777699 23.3388601,18.5052823 29.259486,16.0819455 C42.6471623,10.6023463 55.6690993,15.7185576 62.2754231,25.4414362 C62.7835629,26.189735 63.8013602,26.4002097 64.5728019,25.9209481 L64.8737907,25.7342488 C65.7476698,25.1916696 65.998831,24.0379381 65.4193644,23.1932864 C58.1541535,12.6024813 44.2315266,6.82856802 29.6492538,11.8153912 C21.4143026,14.6313971 14.9238216,20.9263666 11.9781787,29.039527 C4.31207101,50.1543158 20.0178666,70 40.3196845,70 C54.8501064,70 67.0239633,59.833648 69.9617653,46.3124649" id="Fill-10"></path>
                    <path d="M38.1638512,0.0413318935 C17.5953492,0.966330433 0.947097635,17.6360541 0.0395975472,38.2050216 C-0.160402472,42.7410145 0.402597582,47.1200076 1.6065977,51.2280011 C1.93284773,52.3409993 3.19484785,52.8847484 4.24234795,52.3869992 C4.25434795,52.3812492 4.26609795,52.3759993 4.27784796,52.3699993 C5.12609804,51.9674999 5.54759808,51.0107514 5.28384805,50.1092528 C4.21534795,46.4550086 3.7025979,42.5662647 3.86509792,38.5352711 C4.61784799,19.8690506 19.7168494,4.69032455 38.3801012,3.87107585 C59.0548532,2.96382728 76.1643549,19.5215511 76.1643549,40.0000188 C76.1643549,59.9412373 59.9411033,76.1644617 40.0001014,76.1644617 C37.3201011,76.1644617 34.7081009,75.8692122 32.1928506,75.312963 C31.5141006,75.1627133 30.8103505,75.4214629 30.3791005,75.966712 C29.4881004,77.0919602 30.0718504,78.7769576 31.4738506,79.0829571 C34.6751009,79.781706 38.0178512,80.0969555 41.4523515,79.9739557 C62.1886035,79.2322068 79.0726052,62.4824833 79.9623552,41.752266 C80.9693553,18.2873031 61.6386035,-1.01416644 38.1638512,0.0413318935" id="Fill-12"></path>
                    <path d="M31.8400769,52.3076923 C31.3088811,52.3076923 30.8818211,52.1250119 30.5340173,51.7492686 C30.1785188,51.3658622 30.0038474,50.9886358 30,50.5955886 C30.0307791,50.2173733 30.0913113,49.9024412 30.1800577,49.6594441 C30.2688041,49.4179302 30.4380891,49.1304371 30.6832959,48.8058642 L44.3279256,31.2391261 L32.6457198,31.2391261 C32.1060596,31.2391261 31.6659186,31.0673225 31.3004168,30.7143216 C30.9336326,30.3615679 30.7553703,29.9371264 30.7553703,29.4167714 C30.7553703,28.8998772 30.9236294,28.4932341 31.2693812,28.1738523 C31.6194934,27.8497738 32.0696377,27.6923077 32.6457198,27.6923077 L48.109394,27.6923077 C48.639564,27.6923077 49.0668804,27.8749881 49.4157102,28.2509786 C49.7676178,28.6314186 49.9263867,29.0837937 49.9002244,29.6328238 C49.8694453,29.9232832 49.8160949,30.1796291 49.7419686,30.395187 C49.6745111,30.5894858 49.5221545,30.8166622 49.2890029,31.0695473 L49.2787432,31.0806712 L35.5202308,48.7606267 L48.109394,48.7606267 C48.6511061,48.7606267 49.0932991,48.9260031 49.4608528,49.2663969 C49.8235332,49.603577 50,50.0181305 50,50.5340359 C50,51.0506828 49.8235332,51.4654836 49.4605963,51.8019221 C49.0938121,52.1423158 48.6516191,52.3076923 48.109394,52.3076923 L31.8400769,52.3076923 Z" id="Fill-15"></path>
                    <path d="M47.3486598,42.3076923 L32.6510958,42.3076923 C31.6159356,42.3076923 30.7692308,41.2691633 30.7692308,39.9998501 C30.7692308,38.7305369 31.6159356,37.6923077 32.6510958,37.6923077 L47.3486598,37.6923077 C48.38382,37.6923077 49.2307692,38.7305369 49.2307692,39.9998501 C49.2307692,41.2691633 48.38382,42.3076923 47.3486598,42.3076923" id="Fill-17"></path>
                </g>
            </g>
        </g>
    </g>
</svg>