<?xml version="1.0" encoding="UTF-8"?>
<svg width="176px" height="176px" viewBox="0 0 176 176" version="1.1" xmlns="http://www.w3.org/2000/svg" xmlns:xlink="http://www.w3.org/1999/xlink">
    <!-- Generator: Sketch 55.1 (78136) - https://sketchapp.com -->
    <title>logo-issuer</title>
    <desc>Created with Sketch.</desc>
    <defs>
        <linearGradient x1="50%" y1="0%" x2="50%" y2="100%" id="linearGradient-1">
            <stop stop-color="#A8CCFF" offset="0%"></stop>
            <stop stop-color="#968EFF" offset="100%"></stop>
        </linearGradient>
        <circle id="path-2" cx="40.1595971" cy="40.7938524" r="40"></circle>
        <filter x="-93.8%" y="-93.8%" width="287.5%" height="287.5%" filterUnits="objectBoundingBox" id="filter-3">
            <feOffset dx="0" dy="0" in="SourceAlpha" result="shadowOffsetOuter1"></feOffset>
            <feGaussianBlur stdDeviation="25" in="shadowOffsetOuter1" result="shadowBlurOuter1"></feGaussianBlur>
            <feColorMatrix values="0 0 0 0 0.639215686   0 0 0 0 0.764705882   0 0 0 0 0.97254902  0 0 0 0.4 0" type="matrix" in="shadowBlurOuter1"></feColorMatrix>
        </filter>
        <linearGradient x1="50%" y1="0%" x2="50%" y2="100%" id="linearGradient-4">
            <stop stop-color="#91AAF1" offset="0%"></stop>
            <stop stop-color="#8785F1" offset="100%"></stop>
        </linearGradient>
        <circle id="path-5" cx="40.1595971" cy="40.7938524" r="30"></circle>
        <filter x="-1.7%" y="-1.7%" width="103.3%" height="103.3%" filterUnits="objectBoundingBox" id="filter-6">
            <feGaussianBlur stdDeviation="1" in="SourceAlpha" result="shadowBlurInner1"></feGaussianBlur>
            <feOffset dx="0" dy="0" in="shadowBlurInner1" result="shadowOffsetInner1"></feOffset>
            <feComposite in="shadowOffsetInner1" in2="SourceAlpha" operator="arithmetic" k2="-1" k3="1" result="shadowInnerInner1"></feComposite>
            <feColorMatrix values="0 0 0 0 0   0 0 0 0 0   0 0 0 0 0  0 0 0 0.05 0" type="matrix" in="shadowInnerInner1"></feColorMatrix>
        </filter>
    </defs>
    <g id="Page-1" stroke="none" stroke-width="1" fill="none" fill-rule="evenodd">
        <g id="TomoZ-1-Copy-5" transform="translate(-125.000000, -521.000000)">
            <g id="logo-issuer" transform="translate(213.219371, 608.607444) rotate(340.000000) translate(-213.219371, -608.607444) translate(172.719371, 568.107444)">
                <g id="Oval-Copy-2">
                    <use fill="black" fill-opacity="1" filter="url(#filter-3)" xlink:href="#path-2"></use>
                    <use fill="url(#linearGradient-1)" fill-rule="evenodd" xlink:href="#path-2"></use>
                </g>
                <g id="Oval-Copy">
                    <use fill="url(#linearGradient-4)" fill-rule="evenodd" xlink:href="#path-5"></use>
                    <use fill="black" fill-opacity="1" filter="url(#filter-6)" xlink:href="#path-5"></use>
                </g>
                <path d="M53.0823686,43.8332723 C51.7942207,49.7406571 46.4563764,54.1824409 40.0854928,54.1824409 C31.1837726,54.1824409 24.2975485,45.5116697 27.6587688,36.2866978 C28.9503323,32.7419623 31.7961308,29.9917253 35.4067671,28.761371 C41.8005837,26.5827337 47.9051362,29.1052608 51.0907,33.7324196 C51.3447514,34.1014858 51.2345595,34.6055743 50.8514493,34.8425849 L50.7194629,34.9242077 C50.3812428,35.1334761 49.9350264,35.0415103 49.7122028,34.7146986 C46.8154965,30.4667087 41.1059272,28.2314647 35.23599,30.6254641 C32.6399327,31.6841542 30.5664537,33.7256043 29.4906388,36.2842925 C25.9438406,44.7200576 32.3745775,52.8237192 40.5666779,52.4951436 C45.8856553,52.2818661 50.3039051,48.4851264 51.4090775,43.5103093 C51.482593,43.1794085 51.7846247,42.9466474 52.1282121,42.9466474 L52.3524181,42.9466474 C52.8257962,42.9466474 53.181826,43.3769708 53.0823686,43.8332723 Z M39.0006412,23.9331164 C49.5642244,23.4719354 58.2631703,31.9049476 57.8099421,42.1567332 C57.4095932,51.2138375 49.8117923,58.5317817 40.4804388,58.8559219 C38.9349751,58.9095848 37.4306765,58.7719834 35.9901467,58.4666653 C35.3591415,58.3329084 35.0965595,57.596845 35.4974858,57.1051482 C35.6915968,56.8670289 36.0082956,56.7538561 36.3136926,56.8194531 C37.4455257,57.0625382 38.6208337,57.1914895 39.8269124,57.1914895 C48.8004021,57.1914895 56.1008906,50.103495 56.1008906,41.3911952 C56.1008906,32.44406 48.4016206,25.2100543 39.0979855,25.6063591 C30.6994044,25.9641388 23.9049409,32.595838 23.5662159,40.7511645 C23.4930428,42.5123504 23.7237816,44.2113834 24.2046457,45.8079763 C24.3232737,46.2017982 24.1336999,46.6198086 23.7519125,46.795775 C23.7466328,46.7982579 23.7413531,46.8006607 23.7359909,46.8031436 C23.2645313,47.0205186 22.6967173,46.78304 22.549876,46.2967896 C22.008048,44.5019643 21.7547055,42.58876 21.8447077,40.6069953 C22.2531411,31.6202136 29.7447708,24.3371904 39.0006412,23.9331164 Z M39.8268877,43.002432 C40.487257,43.002432 41.147707,43.098573 41.7836031,43.2909335 C41.3874301,42.0561566 41.3874301,40.7261796 41.7836031,39.4914027 C40.5118108,39.8760452 39.1419647,39.8760452 37.8701724,39.4914027 C38.2663454,40.7261796 38.2663454,42.0561566 37.8701724,43.2909335 C38.5060685,43.098573 39.1665185,43.002432 39.8268877,43.002432 Z M43.9274608,46.0962751 C43.7366839,46.0962751 43.545907,46.0256201 43.4002801,45.88431 C42.4503531,44.9619522 41.181307,44.4539575 39.8268877,44.4539575 C38.4724685,44.4539575 37.2034224,44.9619522 36.2534954,45.88431 C35.9622416,46.1669301 35.490307,46.1669301 35.1991339,45.88431 C35.053507,45.7429216 34.9807339,45.5576188 34.9807339,45.3723944 C34.9807339,45.18717 35.053507,45.0018672 35.1991339,44.8605572 C36.1490608,43.9382778 36.6722031,42.7060887 36.6722031,41.3911681 C36.6722031,40.0761691 36.1490608,38.8440584 35.1991339,37.921779 C35.053507,37.7803905 34.9807339,37.5951662 34.9807339,37.4099418 C34.9807339,37.2247174 35.053507,37.0394146 35.1991339,36.8980261 C35.490307,36.615406 35.9622416,36.615406 36.2534954,36.8980261 C37.2034224,37.820384 38.4724685,38.3283003 39.8268877,38.3283003 C41.181307,38.3283003 42.4503531,37.820384 43.4002801,36.8980261 C43.6915339,36.615406 44.1634685,36.615406 44.4546416,36.8980261 C44.6002685,37.0394146 44.6730416,37.2247174 44.6730416,37.4099418 C44.6730416,37.5951662 44.6002685,37.7803905 44.4546416,37.921779 C43.5047147,38.8440584 42.9815724,40.0761691 42.9815724,41.3911681 C42.9815724,42.7060887 43.5047147,43.9382778 44.4546416,44.8605572 C44.6002685,45.0018672 44.6730416,45.18717 44.6730416,45.3723944 C44.6730416,45.5576188 44.6002685,45.7429216 44.4546416,45.88431 C44.3090954,46.0256201 44.1183185,46.0962751 43.9274608,46.0962751 Z" id="Combined-Shape" fill="#D0D7F9"></path>
            </g>
        </g>
    </g>
</svg>