<?xml version="1.0" encoding="UTF-8"?>
<svg width="176px" height="176px" viewBox="0 0 176 176" version="1.1" xmlns="http://www.w3.org/2000/svg" xmlns:xlink="http://www.w3.org/1999/xlink">
    <!-- Generator: Sketch 55.1 (78136) - https://sketchapp.com -->
    <title>logo-tomo</title>
    <desc>Created with Sketch.</desc>
    <defs>
        <linearGradient x1="50%" y1="0%" x2="50%" y2="100%" id="linearGradient-1">
            <stop stop-color="#F9A79D" offset="0%"></stop>
            <stop stop-color="#F57189" offset="100%"></stop>
        </linearGradient>
        <circle id="path-2" cx="40" cy="40" r="40"></circle>
        <filter x="-93.8%" y="-93.8%" width="287.5%" height="287.5%" filterUnits="objectBoundingBox" id="filter-3">
            <feOffset dx="0" dy="0" in="SourceAlpha" result="shadowOffsetOuter1"></feOffset>
            <feGaussianBlur stdDeviation="25" in="shadowOffsetOuter1" result="shadowBlurOuter1"></feGaussianBlur>
            <feColorMatrix values="0 0 0 0 0.976470588   0 0 0 0 0.654901961   0 0 0 0 0.615686275  0 0 0 0.3 0" type="matrix" in="shadowBlurOuter1"></feColorMatrix>
        </filter>
        <linearGradient x1="50%" y1="0%" x2="50%" y2="100%" id="linearGradient-4">
            <stop stop-color="#EB888C" offset="0%"></stop>
            <stop stop-color="#E76980" offset="100%"></stop>
        </linearGradient>
        <circle id="path-5" cx="40" cy="40" r="30"></circle>
        <filter x="-1.7%" y="-1.7%" width="103.3%" height="103.3%" filterUnits="objectBoundingBox" id="filter-6">
            <feGaussianBlur stdDeviation="1" in="SourceAlpha" result="shadowBlurInner1"></feGaussianBlur>
            <feOffset dx="0" dy="0" in="shadowBlurInner1" result="shadowOffsetInner1"></feOffset>
            <feComposite in="shadowOffsetInner1" in2="SourceAlpha" operator="arithmetic" k2="-1" k3="1" result="shadowInnerInner1"></feComposite>
            <feColorMatrix values="0 0 0 0 0   0 0 0 0 0   0 0 0 0 0  0 0 0 0.05 0" type="matrix" in="shadowInnerInner1"></feColorMatrix>
        </filter>
    </defs>
    <g id="Page-1" stroke="none" stroke-width="1" fill="none" fill-rule="evenodd">
        <g id="TomoZ-1-Copy-5" transform="translate(-1150.000000, -404.000000)">
            <g id="logo-tomo" transform="translate(1238.556439, 491.865047) rotate(20.000000) translate(-1238.556439, -491.865047) translate(1198.056439, 451.365047)">
                <g id="Group-6" transform="translate(0.023275, 0.817128)">
                    <g id="Oval-Copy-2">
                        <use fill="black" fill-opacity="1" filter="url(#filter-3)" xlink:href="#path-2"></use>
                        <use fill="url(#linearGradient-1)" fill-rule="evenodd" xlink:href="#path-2"></use>
                    </g>
                    <g id="Oval-Copy">
                        <use fill="url(#linearGradient-4)" fill-rule="evenodd" xlink:href="#path-5"></use>
                        <use fill="black" fill-opacity="1" filter="url(#filter-6)" xlink:href="#path-5"></use>
                    </g>
                    <path d="M38.8267068,46.4947975 C37.148177,45.7197113 36.1054245,44.1215264 36.1054245,42.3244035 L36.1054245,37.4536555 L34.5617631,37.4536555 C34.1060975,37.4536555 33.7368252,37.0958591 33.7368252,36.6543543 C33.7368252,36.2128495 34.1060975,35.8548444 34.5617631,35.8548444 L36.1054245,35.8548444 L36.1054245,34.4407765 C36.1054245,33.9362294 36.5276962,33.5270807 37.0482106,33.5270807 C37.569156,33.5270807 37.9912122,33.9362294 37.9912122,34.4407765 L37.9912122,35.8548444 L43.6371566,35.8548444 C44.0928222,35.8548444 44.4620945,36.2128495 44.4620945,36.6543543 C44.4620945,37.0958591 44.0928222,37.4536555 43.6371566,37.4536555 L37.9912122,37.4536555 L37.9912122,42.3244035 C37.9912122,43.4268087 38.6067377,44.3691031 39.6382871,44.8454691 C40.6519545,45.3134851 41.7742061,45.1867742 42.6400784,44.5066689 C42.7243173,44.4404954 42.809418,44.3691031 42.8936569,44.2943709 C43.2777948,43.953692 43.8741458,43.9787419 44.2261825,44.3507332 C44.5777883,44.7227245 44.5517195,45.3005426 44.167797,45.641639 C44.0557657,45.7414212 43.9409337,45.8370284 43.8273943,45.9261643 C42.9679853,46.6012597 41.9286799,46.9479923 40.8745089,46.948201 C40.1829314,46.948201 39.4848904,46.7989453 38.8267068,46.4947975 Z M48.1248436,49.5141493 C45.8773637,51.3214373 43.0413489,52.3166492 40.1397296,52.3166492 C33.1558235,52.3166492 27.4736357,46.6974172 27.4736357,39.7903748 C27.4736357,32.8831232 33.1558235,27.2638912 40.1397296,27.2638912 C44.3343905,27.2638912 48.2505501,29.3135462 50.6150597,32.7468702 C50.8558914,33.0966071 50.7644685,33.5729693 50.4108396,33.8113597 C50.0572107,34.0495408 49.5753358,33.959124 49.3345041,33.6093871 C47.2586538,30.5954963 43.8214064,28.7961617 40.1397296,28.7961617 C34.0101621,28.7961617 29.0231694,33.7280591 29.0231694,39.7903748 C29.0231694,45.8524813 34.0101621,50.7843787 40.1397296,50.7843787 C42.6866618,50.7843787 45.175185,49.9109783 47.1475496,48.3253368 C49.0921911,46.7614624 50.4586673,44.5755544 50.995142,42.1700928 C51.0874114,41.7569386 51.5011424,41.495944 51.9186827,41.5869886 C52.3364346,41.6782425 52.600122,42.0870015 52.5080642,42.500365 C51.8964619,45.2419591 50.3399445,47.7330236 48.1248436,49.5141493 Z M54.8941511,31.7692074 C57.0790871,35.7242087 57.5835646,40.2878342 56.3149332,44.6197939 C55.0460893,48.9515425 52.1554373,52.5331755 48.1759297,54.7045404 C45.6516295,56.0818642 42.8345027,56.7903771 39.9948509,56.7903771 C38.8059074,56.7903771 37.6137764,56.6664137 36.4365205,56.4153193 C36.0164059,56.3255673 35.7486545,55.9146087 35.8389675,55.4971035 C35.9292804,55.0798094 36.34217,54.8143547 36.7627096,54.9036843 C40.3864904,55.6766075 44.1741095,55.1245798 47.4270759,53.3493908 C54.8903261,49.2769727 57.6279774,39.9300932 53.5303192,32.5134099 C51.5453467,28.9205843 48.2713427,26.3110183 44.3113852,25.1653604 C40.3514277,24.0197024 36.1796067,24.4754314 32.5643259,26.4480749 C29.4632978,28.1400586 27.023573,30.861973 25.6943788,34.1124738 C24.3836722,37.3173596 24.1975212,40.8996261 25.1701386,44.199121 C25.2908392,44.6088125 25.0547506,45.038355 24.6424985,45.158306 C24.2304589,45.2784681 23.7980192,45.0436346 23.6773186,44.6337319 C22.6063132,41.0007819 22.8107392,37.0573955 24.252984,33.5302473 C25.7162664,29.951782 28.4020674,26.9553321 31.8156847,25.0927141 C35.7949797,22.9213491 40.3873404,22.4200049 44.7461624,23.6809678 C49.1051969,24.9419307 52.7092151,27.8144172 54.8941511,31.7692074 Z" id="Combined-Shape" fill="#F6C9CE"></path>
                </g>
            </g>
        </g>
    </g>
</svg>