<?xml version="1.0" encoding="UTF-8"?>
<svg width="185px" height="60px" viewBox="0 0 185 60" version="1.1" xmlns="http://www.w3.org/2000/svg" xmlns:xlink="http://www.w3.org/1999/xlink">
    <!-- Generator: Sketch 55.1 (78136) - https://sketchapp.com -->
    <title>logo-tomoz</title>
    <desc>Created with Sketch.</desc>
    <defs>
        <linearGradient x1="0%" y1="50%" x2="100%" y2="50%" id="linearGradient-1">
            <stop stop-color="#FF7A4E" offset="0%"></stop>
            <stop stop-color="#FFC94E" offset="100%"></stop>
        </linearGradient>
    </defs>
    <g id="Page-1" stroke="none" stroke-width="1" fill="none" fill-rule="evenodd">
        <g id="TomoZ-1-Copy-5" transform="translate(-617.000000, -140.000000)">
            <g id="logo-tomoz" transform="translate(617.000000, 140.000000)">
                <polygon id="Fill-1" fill="#FFFFFF" points="87.4501125 42.90375 87.4501125 22.7986875 80.1333 22.7986875 80.1333 19.123875 99.035175 19.123875 99.035175 22.7986875 91.7018625 22.7986875 91.7018625 42.90375"></polygon>
                <g id="Group-19">
                    <path d="M110.7534,33.8894813 C110.7534,30.1321688 109.121963,27.9402938 106.287525,27.9402938 C103.436588,27.9402938 101.804963,30.1321688 101.804963,33.8894813 C101.804963,37.6632938 103.436588,39.8386688 106.287525,39.8386688 C109.138463,39.8386688 110.7534,37.6632938 110.7534,33.8894813 M97.6192125,33.8894813 C97.6192125,28.0722938 100.931587,24.5126063 106.287525,24.5126063 C111.659775,24.5126063 114.95565,28.0557937 114.95565,33.8894813 C114.95565,39.7396687 111.676275,43.2663563 106.287525,43.2663563 C100.882275,43.2663563 97.6192125,39.7396687 97.6192125,33.8894813" id="Fill-2" fill="#FFFFFF"></path>
                    <path d="M117.725588,24.8751937 L121.664213,24.8751937 L121.664213,27.7921312 L121.944338,27.7921312 C122.7189,25.7320687 124.56465,24.5125687 126.95415,24.5125687 C129.442463,24.5125687 131.1729,25.7650688 131.930963,27.7921312 L132.211087,27.7921312 C133.100963,25.8145687 135.177338,24.5125687 137.682338,24.5125687 C141.291337,24.5125687 143.466525,26.7702562 143.466525,30.5112562 L143.466525,42.9036938 L139.396088,42.9036938 L139.396088,31.5494438 C139.396088,29.2257562 138.292088,28.0722563 136.100213,28.0722563 C133.974337,28.0722563 132.573525,29.6211938 132.573525,31.6812563 L132.573525,42.9036938 L128.602088,42.9036938 L128.602088,31.2528188 C128.602088,29.2752563 127.349587,28.0722563 125.339025,28.0722563 C123.31215,28.0722563 121.812525,29.7366938 121.812525,31.9448813 L121.812525,42.9036938 L117.725588,42.9036938 L117.725588,24.8751937 Z" id="Fill-4" fill="#FFFFFF"></path>
                    <path d="M159.205762,33.8894813 C159.205762,30.1321688 157.574325,27.9402938 154.739887,27.9402938 C151.88895,27.9402938 150.257325,30.1321688 150.257325,33.8894813 C150.257325,37.6632938 151.88895,39.8386688 154.739887,39.8386688 C157.590825,39.8386688 159.205762,37.6632938 159.205762,33.8894813 M146.071575,33.8894813 C146.071575,28.0722938 149.38395,24.5126063 154.739887,24.5126063 C160.112137,24.5126063 163.408012,28.0557937 163.408012,33.8894813 C163.408012,39.7396687 160.128637,43.2663563 154.739887,43.2663563 C149.334637,43.2663563 146.071575,39.7396687 146.071575,33.8894813" id="Fill-6" fill="#FFFFFF"></path>
                    <polygon id="Fill-8" fill="#FFFFFF" points="165.947231 40.0033687 178.455169 23.0788687 178.455169 22.7987437 166.293356 22.7987437 166.293356 19.1239312 183.712106 19.1239312 183.712106 22.0241812 171.253669 38.9486812 171.253669 39.2288062 184.025231 39.2288062 184.025231 42.9038063 165.947231 42.9038063"></polygon>
                    <path d="M27.0625047,31.49025 L24.6033938,31.49025 C23.8093313,31.49025 23.1598313,30.8405625 23.1598313,30.0465 C23.1598313,29.2524375 23.8093313,28.6029375 24.6033938,28.6029375 L29.2239159,28.6029375 L33.1524938,23.3549625 L24.6126188,23.3549625 C24.2181188,23.3549625 23.8963688,23.22465 23.6291813,22.9569 C23.3610563,22.6893375 23.2307438,22.3674 23.2307438,21.9727125 C23.2307438,21.58065 23.3537438,21.2722125 23.6064938,21.0299625 C23.8624313,20.78415 24.1914938,20.6647125 24.6126188,20.6647125 L35.9168063,20.6647125 C36.3043688,20.6647125 36.6167438,20.803275 36.8717438,21.0884625 C37.1289938,21.377025 37.2450563,21.72015 37.2259313,22.1365875 C37.2034313,22.3569 37.1644313,22.5513375 37.1102438,22.7148375 C37.0609313,22.8622125 36.9495563,23.034525 36.7791188,23.2263375 L36.7716188,23.234775 L32.7454781,28.6029375 L35.8777688,28.6029375 C36.6718313,28.6029375 37.3215188,29.2524375 37.3215188,30.0465 C37.3215188,30.8405625 36.6718313,31.49025 35.8777688,31.49025 L30.5799836,31.49025 L26.7139313,36.6449625 L35.9168063,36.6449625 C36.3128063,36.6449625 36.6360563,36.7704 36.9047438,37.0285875 C37.1698688,37.2843375 37.2988688,37.598775 37.2988688,37.9900875 C37.2988688,38.3819625 37.1698688,38.6965875 36.9045563,38.951775 C36.6364313,39.2099625 36.3131813,39.3354 35.9168063,39.3354 L24.0236813,39.3354 C23.6353688,39.3354 23.3231813,39.1968375 23.0689313,38.9118375 C22.8090563,38.621025 22.6813688,38.3349 22.6785563,38.036775 C22.7010563,37.7499 22.7453063,37.511025 22.8101813,37.3267125 C22.8750563,37.143525 22.9988063,36.9254625 23.1780563,36.679275 L27.0625047,31.49025 Z M52.2108188,34.7292 C50.0330063,44.8592625 41.0084438,52.4758875 30.2369438,52.4758875 C15.1870688,52.4758875 3.54425625,37.6075125 9.22719375,21.788325 C11.4108188,15.70995 16.2222563,10.9937625 22.3268813,8.8840125 C33.1368188,5.1478875 43.4577563,9.4737 48.8435063,17.408325 C49.2730688,18.0411375 49.0868813,18.9055125 48.4390688,19.3120125 L48.2159438,19.4518875 C47.6440688,19.81095 46.8895688,19.6532625 46.5128813,19.0926375 C41.6155688,11.8082625 31.9623188,7.9752 22.0379438,12.0805125 C17.6489438,13.896075 14.1432563,17.3967 12.3243188,21.7843875 C6.32769375,36.249825 17.2002563,50.1462 31.0505063,49.5827625 C40.0433813,49.21695 47.5133813,42.7062 49.3818188,34.175325 C49.5061313,33.6081375 50.0168813,33.20895 50.5975688,33.20895 L50.9766938,33.20895 C51.7771313,33.20895 52.3790063,33.9467625 52.2108188,34.7292 Z M28.6228875,0.03088125 C46.22895,-0.76074375 60.7270125,13.7153812 59.9717625,31.3141312 C59.30445,46.8618187 46.64145,59.4241312 31.0892625,59.9804437 C28.5133875,60.0726937 26.006325,59.8362562 23.6053875,59.3121937 C22.5538875,59.0826937 22.116075,57.8189437 22.784325,56.9750062 C23.1077625,56.5660687 23.635575,56.3720062 24.1446375,56.4846937 C26.031075,56.9018812 27.990075,57.1233187 30.000075,57.1233187 C44.955825,57.1233187 57.1232625,44.9558812 57.1232625,29.9999437 C57.1232625,14.6410687 44.2911375,2.22275625 28.785075,2.90319375 C14.7876375,3.51763125 3.4633875,14.9016937 2.898825,28.9013812 C2.77695,31.9246312 3.1615125,34.8411937 3.9628875,37.5818812 C4.1607,38.2580062 3.844575,38.9755687 3.2083875,39.2774437 C3.199575,39.2819437 3.1907625,39.2858812 3.1817625,39.2901937 C2.3961375,39.6635062 1.4496375,39.2556937 1.20495,38.4209437 C0.30195,35.3399437 -0.1203,32.0556937 0.0297,28.6536937 C0.710325,13.2269437 13.1965125,0.72463125 28.6228875,0.03088125 Z" id="Combined-Shape" fill="url(#linearGradient-1)"></path>
                </g>
            </g>
        </g>
    </g>
</svg>