<svg xmlns="http://www.w3.org/2000/svg" viewBox="0 0 263.86 69.26"><defs><style>.cls-1{fill:#231f20;}.cls-2{fill:#00e8b4;}</style></defs><title>Asset 86</title><g id="Layer_2" data-name="Layer 2"><g id="Layer_1-2" data-name="Layer 1"><path class="cls-1" d="M89.3,22.69h19.64v3.67h-7.71V47H97V26.36H89.3Z"/><path class="cls-1" d="M115.5,47.43a9.48,9.48,0,0,1-3.76-.7A7.78,7.78,0,0,1,109,44.81a8.23,8.23,0,0,1-1.74-2.92,11.42,11.42,0,0,1-.59-3.74,11.3,11.3,0,0,1,.59-3.7A8.23,8.23,0,0,1,109,31.53a7.78,7.78,0,0,1,2.78-1.92,10.42,10.42,0,0,1,7.51,0A7.9,7.9,0,0,1,122,31.53a8.21,8.21,0,0,1,1.73,2.92,11,11,0,0,1,.6,3.7,11.16,11.16,0,0,1-.6,3.74A8.21,8.21,0,0,1,122,44.81a7.9,7.9,0,0,1-2.79,1.92A9.46,9.46,0,0,1,115.5,47.43Zm0-3.06a4.45,4.45,0,0,0,2.24-.54,4.76,4.76,0,0,0,1.56-1.43,6.11,6.11,0,0,0,.9-2,8.87,8.87,0,0,0,0-4.5,5.93,5.93,0,0,0-.9-2,4.7,4.7,0,0,0-1.56-1.41A4.45,4.45,0,0,0,115.5,32a4.51,4.51,0,0,0-2.25.54,4.8,4.8,0,0,0-1.56,1.41,5.93,5.93,0,0,0-.9,2,8.87,8.87,0,0,0,0,4.5,6.11,6.11,0,0,0,.9,2,4.86,4.86,0,0,0,1.56,1.43A4.51,4.51,0,0,0,115.5,44.37Z"/><path class="cls-1" d="M127.59,29.39h3.67v2.44h.11a10.12,10.12,0,0,1,.95-1.19,5,5,0,0,1,1.14-.91,5.72,5.72,0,0,1,1.44-.6,7.06,7.06,0,0,1,1.87-.22,6.44,6.44,0,0,1,3,.71,4.1,4.1,0,0,1,2,2.21A7.79,7.79,0,0,1,144,29.69a6.16,6.16,0,0,1,3.23-.78,6.31,6.31,0,0,1,4.33,1.36c1,.91,1.55,2.42,1.55,4.55V47h-3.87V36.69c0-.7,0-1.34-.07-1.92a4.07,4.07,0,0,0-.39-1.49,2.22,2.22,0,0,0-1-1A3.79,3.79,0,0,0,146,32a3.29,3.29,0,0,0-2.85,1.22,5.85,5.85,0,0,0-.89,3.47V47H138.4V35.67a4.82,4.82,0,0,0-.66-2.77,2.79,2.79,0,0,0-2.43-.93,3.54,3.54,0,0,0-2.67,1.19,4.51,4.51,0,0,0-.85,1.42,5.37,5.37,0,0,0-.32,1.94V47h-3.88Z"/><path class="cls-1" d="M165.21,47.43a9.43,9.43,0,0,1-3.75-.7,7.9,7.9,0,0,1-2.79-1.92,8.06,8.06,0,0,1-1.73-2.92,11.16,11.16,0,0,1-.6-3.74,11,11,0,0,1,.6-3.7,8.06,8.06,0,0,1,1.73-2.92,7.9,7.9,0,0,1,2.79-1.92,10.42,10.42,0,0,1,7.51,0,8,8,0,0,1,2.78,1.92,8.23,8.23,0,0,1,1.74,2.92,11.3,11.3,0,0,1,.59,3.7,11.42,11.42,0,0,1-.59,3.74,8.23,8.23,0,0,1-1.74,2.92A8,8,0,0,1,169,46.73,9.48,9.48,0,0,1,165.21,47.43Zm0-3.06a4.45,4.45,0,0,0,2.24-.54A4.79,4.79,0,0,0,169,42.4a6.56,6.56,0,0,0,.9-2,8.87,8.87,0,0,0,0-4.5,6.35,6.35,0,0,0-.9-2,4.74,4.74,0,0,0-1.57-1.41,4.92,4.92,0,0,0-4.48,0,4.74,4.74,0,0,0-1.57,1.41,6.35,6.35,0,0,0-.9,2,9.18,9.18,0,0,0,0,4.5,6.56,6.56,0,0,0,.9,2A4.79,4.79,0,0,0,163,43.83,4.45,4.45,0,0,0,165.21,44.37Z"/><path class="cls-1" d="M194.23,30.4a8.42,8.42,0,0,0-.75-1.93,5.35,5.35,0,0,0-1.22-1.53,5.3,5.3,0,0,0-1.75-1,6.91,6.91,0,0,0-2.33-.36,6.83,6.83,0,0,0-3.35.78,6.57,6.57,0,0,0-2.29,2.09,9.52,9.52,0,0,0-1.31,3,14,14,0,0,0,0,6.8,9.52,9.52,0,0,0,1.31,3,6.48,6.48,0,0,0,2.29,2.09,6.83,6.83,0,0,0,3.35.78,6.06,6.06,0,0,0,2.52-.49,5.59,5.59,0,0,0,1.86-1.36,6.26,6.26,0,0,0,1.23-2,9.88,9.88,0,0,0,.58-2.48h4.14a11.56,11.56,0,0,1-.93,4,10.08,10.08,0,0,1-2.16,3.11,9.63,9.63,0,0,1-3.2,2,11.17,11.17,0,0,1-4,.71,11.44,11.44,0,0,1-4.88-1,10.8,10.8,0,0,1-3.65-2.74,12.07,12.07,0,0,1-2.29-4,15.47,15.47,0,0,1,0-9.82,12.07,12.07,0,0,1,2.29-4,11,11,0,0,1,3.65-2.76,11.3,11.3,0,0,1,4.88-1,13,13,0,0,1,3.84.56,10,10,0,0,1,3.18,1.64,8.37,8.37,0,0,1,2.22,2.59,9.08,9.08,0,0,1,1.06,3.5Z"/><path class="cls-1" d="M201.84,22.69h3.87v9h.07a5.63,5.63,0,0,1,2.13-2,6.27,6.27,0,0,1,3.14-.8,6.58,6.58,0,0,1,4.55,1.49,5.75,5.75,0,0,1,1.67,4.49V47h-3.88v-11a4.79,4.79,0,0,0-.88-3A3.21,3.21,0,0,0,210,32a4.32,4.32,0,0,0-1.76.35,3.77,3.77,0,0,0-1.33,1,4.59,4.59,0,0,0-.85,1.48,5.36,5.36,0,0,0-.31,1.8V47h-3.87Z"/><path class="cls-1" d="M240.34,22.69h3.87v3.67h-3.87Zm0,6.7h3.87V47h-3.87Z"/><path class="cls-1" d="M248.43,29.39h3.67V32l.07.07a6.52,6.52,0,0,1,2.31-2.3,6.19,6.19,0,0,1,3.16-.83,6.6,6.6,0,0,1,4.55,1.49,5.75,5.75,0,0,1,1.67,4.49V47H260v-11a4.79,4.79,0,0,0-.88-3,3.22,3.22,0,0,0-2.55-.93,4.33,4.33,0,0,0-1.77.35,3.83,3.83,0,0,0-1.32,1,4.59,4.59,0,0,0-.85,1.48,5.12,5.12,0,0,0-.31,1.8V47h-3.87Z"/><path class="cls-1" d="M233.42,31.82a7,7,0,0,0-5.18-2.37,7.12,7.12,0,0,0-5.56,2.48,8.88,8.88,0,0,0-2.23,6.19,9.19,9.19,0,0,0,2.23,6.32,7.32,7.32,0,0,0,10.74.27v2.21H237v-17h-3.59Zm-1.19,10.6a4.8,4.8,0,0,1-3.76,1.6,4.55,4.55,0,0,1-3.6-1.66,6.27,6.27,0,0,1-1.39-4.23A6,6,0,0,1,224.91,34a4.59,4.59,0,0,1,3.6-1.63A4.74,4.74,0,0,1,232.23,34a6.2,6.2,0,0,1,1.43,4.2A6.2,6.2,0,0,1,232.23,42.42Z"/><path class="cls-2" d="M51.28,54.8a26.11,26.11,0,0,0,9-14.54,1.84,1.84,0,0,0-1.39-2.18,1.79,1.79,0,0,0-1.37.25,1.76,1.76,0,0,0-.8,1.14,22.34,22.34,0,1,1-3.34-17.38,1.83,1.83,0,0,0,2.53.48A1.81,1.81,0,0,0,56.38,20a26,26,0,1,0-5.1,34.76Z"/><path class="cls-2" d="M65,18A34.62,34.62,0,0,0,2.55,21.59,34.72,34.72,0,0,0,1.38,44.34a1.81,1.81,0,0,0,.88,1.09,1.75,1.75,0,0,0,1.38.15,1.79,1.79,0,0,0,1.09-.87,1.82,1.82,0,0,0,.15-1.39A31,31,0,0,1,19.71,7.49a31,31,0,1,1,8.43,57.44,1.82,1.82,0,0,0-1.92,2.77,1.8,1.8,0,0,0,1.15.79A34.61,34.61,0,0,0,65,18Z"/><path class="cls-2" d="M33,47.74a9.77,9.77,0,0,0,4.2,1,9.62,9.62,0,0,0,6-2.16c.23-.19.47-.39.69-.6a2.13,2.13,0,1,0-2.88-3.14l-.49.43a5.3,5.3,0,0,1-5.72.66,5.39,5.39,0,0,1-3.15-5V29.15h11a1.9,1.9,0,0,0,0-3.79h-11V22.7a2.13,2.13,0,0,0-4.26,0v2.66H24.62a1.9,1.9,0,0,0,0,3.79h2.83v9.78A9.7,9.7,0,0,0,33,47.74Z"/></g></g></svg>