<?xml version="1.0" encoding="UTF-8"?>
<svg width="226px" height="78px" viewBox="0 0 226 78" version="1.1" xmlns="http://www.w3.org/2000/svg" xmlns:xlink="http://www.w3.org/1999/xlink">
    <!-- Generator: Sketch 57.1 (83088) - https://sketch.com -->
    <title>privacy-logo-tomochain-white</title>
    <desc>Created with Sketch.</desc>
    <defs>
        <polygon id="path-1" points="0.567880597 0.758089552 23.4268657 0.758089552 23.4268657 30.2207761 0.567880597 30.2207761"></polygon>
        <polygon id="path-3" points="0 0.191641791 77.6125096 0.191641791 77.6125096 77.8054925 0 77.8054925"></polygon>
    </defs>
    <g id="Page-1" stroke="none" stroke-width="1" fill="none" fill-rule="evenodd">
        <g id="Home-2-Copy-7" transform="translate(-607.000000, -122.000000)">
            <g id="privacy-logo-tomochain-white" transform="translate(607.000000, 122.000000)">
                <polygon id="Fill-1" fill="#FFFFFF" points="124.921075 26.0294925 100.306149 26.0294925 100.306149 30.4593433 109.91809 30.4593433 109.91809 55.4921791 115.309134 55.4921791 115.309134 30.4593433 124.921075 30.4593433"></polygon>
                <g id="Group-20" transform="translate(0.000000, 0.002866)">
                    <path d="M136.162866,50.0983881 C135.270925,51.2136119 133.975403,51.7688358 132.276299,51.7688358 C130.604657,51.7688358 129.322269,51.2136119 128.431522,50.0983881 C127.539582,48.9831642 127.094209,47.3389851 127.094209,45.1670448 C127.094209,43.0213731 127.546746,41.3843582 128.453015,40.256 C129.35809,39.1276418 130.646448,38.5640597 132.31809,38.5640597 C133.990925,38.5640597 135.270925,39.1276418 136.162866,40.256 C137.054806,41.3843582 137.500179,43.0213731 137.500179,45.1670448 C137.500179,47.3389851 137.054806,48.9831642 136.162866,50.0983881 M137.814209,35.8464478 C136.239284,34.9843582 134.407642,34.5509254 132.31809,34.5509254 C130.228537,34.5509254 128.396896,34.9843582 126.823164,35.8464478 C125.248239,36.7109254 124.029134,37.9431642 123.165851,39.5455522 C122.302567,41.1479403 121.870328,43.0213731 121.870328,45.1670448 C121.870328,47.3127164 122.302567,49.1921194 123.165851,50.8088358 C124.029134,52.4243582 125.248239,53.6637612 126.823164,54.5282388 C128.396896,55.3927164 130.228537,55.8237612 132.31809,55.8237612 C134.407642,55.8237612 136.239284,55.3927164 137.814209,54.5282388 C139.386746,53.6637612 140.599881,52.4243582 141.45003,50.8088358 C142.300179,49.1921194 142.72406,47.3127164 142.72406,45.1670448 C142.72406,43.0213731 142.300179,41.1479403 141.45003,39.5455522 C140.599881,37.9431642 139.386746,36.7109254 137.814209,35.8464478" id="Fill-2" fill="#FFFFFF"></path>
                    <path d="M169.428896,34.5515224 C167.951881,34.5515224 166.614567,34.8930149 165.416955,35.574806 C164.218149,36.2589851 163.298746,37.1986866 162.658746,38.3962985 C161.654567,35.8327164 159.606806,34.5515224 156.515463,34.5515224 C155.12203,34.5515224 153.881433,34.8368955 152.794866,35.4088358 C151.708299,35.9795821 150.858149,36.8225672 150.246806,37.936597 L150.246806,35.0530149 L145.148299,35.0530149 L145.148299,55.4888358 L150.372179,55.4888358 L150.372179,44.0798806 C150.372179,42.3819701 150.761433,41.056597 151.542328,40.1097313 C152.32203,39.1628657 153.394269,38.6888358 154.760239,38.6888358 C155.957851,38.6888358 156.815164,39.0446567 157.329791,39.7539104 C157.845612,40.4655522 158.103522,41.5998806 158.103522,43.1604776 L158.103522,55.4888358 L163.327403,55.4888358 L163.327403,44.0798806 C163.327403,42.3819701 163.716657,41.056597 164.497552,40.1097313 C165.27606,39.1628657 166.363821,38.6888358 167.757254,38.6888358 C168.927403,38.6888358 169.776358,39.0446567 170.305313,39.7539104 C170.835463,40.4655522 171.099343,41.5998806 171.099343,43.1604776 L171.099343,55.4888358 L176.323224,55.4888358 L176.323224,42.9515224 C176.323224,40.1097313 175.752478,37.9998806 174.610985,36.6195821 C173.468299,35.2416716 171.741731,34.5515224 169.428896,34.5515224" id="Fill-4" fill="#FFFFFF"></path>
                    <path d="M192.914269,50.0983881 C192.022328,51.2136119 190.726806,51.7688358 189.027701,51.7688358 C187.35606,51.7688358 186.073672,51.2136119 185.182925,50.0983881 C184.290985,48.9831642 183.845612,47.3389851 183.845612,45.1670448 C183.845612,43.0213731 184.298149,41.3843582 185.204418,40.256 C186.109493,39.1276418 187.397851,38.5640597 189.069493,38.5640597 C190.742328,38.5640597 192.022328,39.1276418 192.914269,40.256 C193.806209,41.3843582 194.251582,43.0213731 194.251582,45.1670448 C194.251582,47.3389851 193.806209,48.9831642 192.914269,50.0983881 M194.565612,35.8464478 C192.990687,34.9843582 191.159045,34.5509254 189.069493,34.5509254 C186.97994,34.5509254 185.148299,34.9843582 183.574567,35.8464478 C181.999642,36.7109254 180.780537,37.9431642 179.917254,39.5455522 C179.05397,41.1479403 178.621731,43.0213731 178.621731,45.1670448 C178.621731,47.3127164 179.05397,49.1921194 179.917254,50.8088358 C180.780537,52.4243582 181.999642,53.6637612 183.574567,54.5282388 C185.148299,55.3927164 186.97994,55.8237612 189.069493,55.8237612 C191.159045,55.8237612 192.990687,55.3927164 194.565612,54.5282388 C196.138149,53.6637612 197.351284,52.4243582 198.201433,50.8088358 C199.051582,49.1921194 199.475463,47.3127164 199.475463,45.1670448 C199.475463,43.0213731 199.051582,41.1479403 198.201433,39.5455522 C197.351284,37.9431642 196.138149,36.7109254 194.565612,35.8464478" id="Fill-6" fill="#FFFFFF"></path>
                    <g id="Group-10" transform="translate(201.791045, 25.268657)">
                        <mask id="mask-2" fill="white">
                            <use xlink:href="#path-1"></use>
                        </mask>
                        <g id="Clip-9"></g>
                        <path d="M12.7708657,14.6327164 L5.95892537,14.6327164 L5.95892537,4.93719403 L12.7708657,4.93719403 C14.6371343,4.93719403 16.0305672,5.33361194 16.9499701,6.12764179 C17.8705672,6.92167164 18.3290746,8.14077612 18.3290746,9.78376119 C18.3290746,13.016 16.4771343,14.6327164 12.7708657,14.6327164 M20.7947463,3.11868657 C19.0395224,1.54495522 16.5869851,0.758089552 13.4407164,0.758089552 L0.567880597,0.758089552 L0.567880597,30.2207761 L5.95892537,30.2207761 L5.95892537,18.7700299 L13.4407164,18.7700299 C16.5869851,18.7700299 19.0395224,17.976 20.7947463,16.3879403 C22.5499701,14.7998806 23.4275821,12.5849552 23.4275821,9.74197015 C23.4275821,6.9001791 22.5499701,4.69361194 20.7947463,3.11868657" id="Fill-8" fill="#FFFFFF" mask="url(#mask-2)"></path>
                    </g>
                    <g id="Group-13">
                        <mask id="mask-4" fill="white">
                            <use xlink:href="#path-3"></use>
                        </mask>
                        <g id="Clip-12"></g>
                        <path d="M49.64,1.75414925 C39.6925373,-1.1401791 29.2089552,0.00967164179 20.1235821,4.99713433 C12.3325373,9.27414925 6.20119403,16.1577313 2.86029851,24.3774328 C-0.432835821,32.4789254 -0.898507463,41.5368358 1.54686567,49.8831045 C1.90746269,51.1225075 3.21014925,51.8365373 4.45552239,51.4747463 C5.6961194,51.1117612 6.41014925,49.8054925 6.04716418,48.5637015 C3.89910448,41.2323582 4.30985075,33.2705672 7.20537313,26.144597 C10.1426866,18.9195224 15.5313433,12.8693731 22.3802985,9.10937313 C30.3659701,4.72370149 39.5802985,3.71116418 48.3289552,6.25802985 C57.0764179,8.80370149 64.3074627,14.6054925 68.6931343,22.5899701 C77.7438806,39.0759403 71.6961194,59.8508657 55.2113433,68.902806 C48.0256716,72.8478806 39.6626866,74.0753433 31.6543284,72.3571343 C30.3922388,72.0908657 29.1408955,72.8956418 28.8686567,74.1577313 C28.598806,75.422209 29.4059701,76.6711642 30.6704478,76.944597 C33.3367164,77.5153433 36.0698507,77.8054925 38.7934328,77.8054925 C45.3044776,77.8042985 51.7629851,76.1481791 57.4692537,73.0150448 C66.5534328,68.025194 73.1516418,59.7983284 76.0483582,49.8496716 C78.9450746,39.8998209 77.7928358,29.4174328 72.8041791,20.3344478 C67.8179104,11.2490746 59.5910448,4.6520597 49.64,1.75414925" id="Fill-11" fill="#00E8B4" mask="url(#mask-4)"></path>
                    </g>
                    <path d="M57.5096119,61.6586269 C62.6117015,57.5093731 66.1985672,51.7063881 67.6087164,45.3171343 C67.8857313,44.0562388 67.0857313,42.8025075 65.8224478,42.5231045 C64.5543881,42.2401194 63.3066269,43.0448955 63.0272239,44.3081791 C61.8463284,49.665791 58.8349851,54.5350448 54.5496119,58.0192239 C50.2057313,61.5511642 44.7227463,63.4974328 39.110806,63.4974328 C25.6051343,63.4974328 14.6188657,52.5111642 14.6188657,39.0054925 C14.6188657,25.5010149 25.6051343,14.5147463 39.110806,14.5147463 C47.2230448,14.5147463 54.7967761,18.5231045 59.3699104,25.2371343 C60.0970746,26.3069851 61.5597612,26.584 62.6272239,25.8556418 C63.1454328,25.503403 63.4952836,24.9696716 63.6111045,24.3547463 C63.7281194,23.7386269 63.5991642,23.1153433 63.2457313,22.5971343 C57.7973731,14.5983284 48.7764776,9.82340299 39.110806,9.82340299 C23.0200597,9.82340299 9.92871642,22.9147463 9.92871642,39.0054925 C9.92871642,55.0974328 23.0200597,68.1887761 39.110806,68.1887761 C45.7961791,68.1887761 52.3311045,65.8687761 57.5096119,61.6586269" id="Fill-14" fill="#00E8B4"></path>
                    <path d="M47.8617313,43.1930746 C46.409791,47.127403 43.4653134,49.8677015 38.8623284,51.5644179 C34.1817313,49.8844179 31.1990448,47.1477015 29.7423284,43.1978507 C28.4157612,39.5906866 28.4933731,35.5250149 28.5626269,31.9524776 C28.5769552,31.6241194 28.5853134,31.2778507 28.5900896,30.9041194 C28.5924776,30.7632239 28.7071045,30.6450149 28.8515821,30.6366567 C31.0223284,30.5160597 32.9387463,30.0921791 34.7094925,29.3435224 C36.209194,28.7082985 37.5536716,27.8653134 38.806209,26.7727761 C40.0671045,27.8688955 41.4115821,28.7130746 42.9041194,29.3447164 C44.6736716,30.0921791 46.5900896,30.5160597 48.7608358,30.6366567 C48.9017313,30.6450149 49.0187463,30.7644179 49.0199403,30.9041194 C49.0259104,31.2850149 49.0342687,31.6312836 49.049791,31.9238209 C49.1178507,35.5094925 49.1942687,39.5763582 47.8617313,43.1930746 M40.9709851,23.0271045 C39.768597,21.928597 37.8557612,21.9094925 36.5936716,23.0724776 C34.4384478,25.1739701 31.9035224,26.2390448 28.6163582,26.4229254 C26.2688955,26.5530746 24.4038209,28.4933731 24.3703881,30.8384478 C24.3644179,31.1775522 24.3548657,31.4844179 24.3405373,31.8629254 C24.2677015,35.6229254 24.1781493,40.3035224 25.7841194,44.6581493 C26.6832239,47.0987463 28.048,49.2265075 29.8426269,50.9769552 C31.8665075,52.9530746 34.5017313,54.5148657 37.6754627,55.6205373 C37.8211343,55.6706866 37.9739701,55.7124776 38.1315821,55.7459104 C38.3548657,55.7912836 38.5817313,55.8115821 38.8050149,55.8115821 C39.0306866,55.8115821 39.2599403,55.7912836 39.4820299,55.7459104 C39.6384478,55.7124776 39.7912836,55.6706866 39.9429254,55.6181493 C43.1094925,54.5112836 45.7399403,52.9494925 47.7626269,50.9745672 C49.5560597,49.2229254 50.9220299,47.0963582 51.8211343,44.6533731 C53.4318806,40.2856119 53.3411343,35.5751642 53.2682985,31.7745672 C53.2563582,31.4856119 53.246806,31.1775522 53.2408358,30.8408358 C53.207403,28.4933731 51.3423284,26.5530746 48.9960597,26.4229254 L48.9972537,26.4229254 C45.7077015,26.2390448 43.1620299,25.1632239 40.9709851,23.0271045" id="Fill-16" fill="#00E8B4"></path>
                    <path d="M41.5254925,34.4558806 L37.1720597,38.8093134 L36.4819104,38.1203582 C35.6425075,37.2761791 34.1654925,37.2773731 33.3284776,38.1191642 C32.4604179,38.9896119 32.4604179,40.4021493 33.3284776,41.272597 L35.5959403,43.5412537 C36.0198209,43.9615522 36.5774328,44.192 37.1720597,44.192 C37.7654925,44.192 38.3242985,43.9603582 38.7481791,43.5388657 L44.6789254,37.6093134 C45.5481791,36.7400597 45.5481791,35.3251343 44.6801194,34.4570746 C43.8395224,33.6128955 42.3625075,33.6140896 41.5254925,34.4558806" id="Fill-18" fill="#00E8B4"></path>
                </g>
            </g>
        </g>
    </g>
</svg>