<?xml version="1.0" encoding="UTF-8"?>
<svg width="499px" height="316px" viewBox="0 0 499 316" version="1.1" xmlns="http://www.w3.org/2000/svg" xmlns:xlink="http://www.w3.org/1999/xlink">
    <!-- Generator: Sketch 55.1 (78136) - https://sketchapp.com -->
    <title>staking_visual</title>
    <desc>Created with Sketch.</desc>
    <defs>
        <polygon id="path-1" points="0.437532374 0.0698435412 121.732302 0.0698435412 121.732302 37.6416512 0.437532374 37.6416512"></polygon>
        <polygon id="path-3" points="0.346251799 0.024744186 121.641263 0.024744186 121.641263 37.5974023 0.346251799 37.5974023"></polygon>
    </defs>
    <g id="Page-1" stroke="none" stroke-width="1" fill="none" fill-rule="evenodd">
        <g id="Staking-Copy" transform="translate(-806.000000, -266.000000)">
            <g id="staking_visual" transform="translate(806.000000, 266.000000)">
                <g id="Group-3" transform="translate(12.000000, 14.000000)" fill="#2F364C" opacity="0.5">
                    <path d="M462.837005,228.504559 C451.460444,214.671344 433.163611,210.873582 415.590931,209.176181 C396.360066,207.318749 376.641108,207.588276 358.692153,199.920938 C336.308207,190.36026 322.840833,170.500363 307.539116,153.462523 C300.514127,145.640472 292.001784,138.293197 281.553044,134.874901 C271.427332,131.560781 261.193796,134.174042 252.783066,140.001237 C244.565355,145.694112 238.566691,153.790566 232.898156,161.638328 C227.793591,168.704993 222.425455,175.568627 217.178899,182.540426 C211.308027,190.340754 205.372816,198.114042 198.569243,205.22947 C192.118872,211.974742 184.571622,218.586137 175.372844,221.77303 C171.068751,223.264739 166.497538,223.752813 162.005307,222.812128 C156.539109,221.667967 151.498439,218.96649 146.804759,216.187877 C140.883303,212.683138 139.675495,212.707519 134.034027,208.785633 C133.858314,204.936005 127.863644,148.891644 130.313427,143.834463 C132.180161,139.981289 136.20826,144.719292 136.364006,140.343466 C136.453637,137.802906 135.877244,134.682065 138.634082,133.156222 C140.452007,132.148599 142.794853,132.249228 144.716608,131.458822 C147.901194,130.14931 151.129263,126.755396 152.047322,123.575596 C152.910359,120.584642 151.92663,117.219986 152.12941,114.160764 C152.499474,108.582261 155.602858,104.188259 158.23856,99.3646978 C163.663492,89.4369662 165.745431,77.8814324 166.249941,66.8308187 C166.875144,53.141676 163.622226,38.1266192 153.953991,27.4027186 C150.070545,23.0956036 144.535127,20.2500528 138.45615,21.7364419 C130.386197,23.7100191 124.872077,31.1707792 122.968958,38.3952598 C120.668709,47.1216449 122.17736,56.3267955 121.9555,65.2008 C121.829039,70.2526611 120.587952,75.0194795 119.261226,79.8949067 C117.780086,85.3364296 116.154292,90.7411585 114.747697,96.1999701 C112.317881,105.633864 110.776838,115.26547 111.594172,124.985737 C112.013488,129.975093 113.055345,134.988387 114.708649,139.745452 C116.168048,143.945288 122.170261,139.912577 123.845751,144.032175 C125.744433,148.699694 123.860394,200.489693 123.845751,203.603441 C121.392418,201.913134 121.494474,199.241357 118.991,197.629514 C114.573758,194.786623 109.880522,192.332507 104.759539,190.813314 C99.4237945,189.230285 93.753041,189.008191 88.2105229,189.369038 C86.1649694,189.502472 84.1207471,189.691761 82.0822931,189.935134 C81.1589099,185.914835 74.6082578,153.010356 77.4835694,139.674967 C82.6422689,141.600668 88.7336699,141.456595 91.9093806,135.921979 C94.6018792,131.227419 93.2409871,124.72153 92.6889982,119.698926 C92.2612513,115.801422 91.9098243,111.922979 92.5634252,108.025031 C93.3545796,103.3021 95.428975,98.8713035 97.5401992,94.5593122 C99.5848652,90.3829711 101.671241,86.2248053 103.007285,81.7886896 C104.595806,76.5173944 104.44006,71.2593982 104.029174,65.849793 C103.789565,62.6872819 103.678191,59.5221109 104.228848,56.3813215 C104.754214,53.3837185 105.953592,50.5390543 107.248813,47.7719679 C109.291261,43.4085536 108.378527,39.9370615 109.30546,35.2048206 C110.424968,29.4840179 115.271894,12.1503069 107.232558,4.62349487 C103.076224,0.729979951 90.9860121,-0.928758563 85.7860465,1.5661409 C79.643174,4.51232103 76.507546,13.3340414 72.844186,18.2719741 C71.170027,20.5288207 49.0339582,-0.445466246 41.8687527,28.7406017 C39.0906159,40.054093 58.8841192,51.2208516 52.8401964,62.0897118 C50.3043313,66.6486219 48.9003982,67.4944407 46.4262103,72.0928046 C43.9094252,76.7665297 42.4411527,81.8578446 42.0635461,87.0786035 C41.3300754,97.1894185 49.1067285,124.782705 54.0404615,133.544111 C56.7444968,138.346394 64.473228,134.172712 67.4741127,138.812746 C70.8366299,144.010454 70.0011033,189.112367 70.2571303,192.088691 C64.5153815,193.539616 58.9644327,195.599637 53.7999647,198.449621 C44.0651713,203.818886 36.3115917,211.905587 30.9474494,221.171913 C25.8566392,229.964794 5.74410056,277.435709 5.74410056,277.435709 C5.74410056,277.435709 -0.651249209,292.066423 0.172296837,292.741128 C0.522392651,293.027944 9.8769173,300.752025 27.8107861,301.283986 C52.4057936,302.014547 75.116762,300.011712 128.134757,301.437812 C144.207217,301.87003 143.010058,292.892293 150.219635,292.75753 C287.679942,290.189929 471.092433,286.63155 474.443413,281.951618 C479.346973,275.103501 474.996289,259.998454 473.500506,252.21231 C471.888024,243.813968 468.415021,235.284409 462.837005,228.504559 Z" id="Fill-1"></path>
                </g>
                <path d="M99.9276801,82.5635934 C99.7930058,81.933215 91.7608326,88.2423183 90.1097428,90.7514192 C90.7086892,84.4378829 97.7613723,29.7261835 97.3484891,30 C92.5826119,33.1724292 87.9624843,60.2724925 87.4481523,63.8087289 C85.769153,56.3332927 76.1567713,39.5099039 76.0327291,40.1699836 C74.3537298,49.1499938 83.0982594,61.4503513 86.2772829,70.9406045 C86.3499362,71.1573801 82.4501391,98.3319185 81.1676317,112.013611 C80.4304669,109.385262 68.1502926,91.4035195 68.0492868,92.072022 C67.2128882,97.6270651 77.2541014,114.51429 80.5288146,118.616182 C80.437555,125.142061 80.5443199,142.601591 81.0621959,142.81482 C84.1078741,144.07336 84.332479,138.601659 84.7861189,135.917009 C86.4137293,126.303518 88.8932436,103.121375 89.4709256,97.3539898 C90.8765892,95.2611513 100.947041,87.317586 99.9276801,82.5635934" id="Fill-4" fill="#FFFFFF"></path>
                <path d="M147.748953,107.945925 C150.220534,105.942387 159.859225,90.1166253 158.938192,86.227851 C158.781791,85.5677721 149.381613,98.6393955 148.379338,101.537828 C149.409417,89.9853265 151.098556,48.3757096 150.747521,49.0071089 C145.789587,57.9148131 140.790814,140.527294 141.034105,140.659041 C140.875966,141.331667 141.281307,142.212669 141.969475,141.953656 C145.352531,140.675622 146.608089,128.219265 146.645886,127.971455 C147.354907,128.166835 155.366151,122.395962 154.52636,118.35886 C154.407321,117.792438 147.950971,121.523475 146.803591,122.764764 C147.053834,119.461681 147.715934,108.571499 147.748953,107.945925" id="Fill-6" fill="#FFFFFF"></path>
                <g id="Group-10" transform="translate(320.000000, 16.000000)">
                    <mask id="mask-2" fill="white">
                        <use xlink:href="#path-1"></use>
                    </mask>
                    <g id="Clip-9"></g>
                    <path d="M0.437406411,35.8303326 C0.428799281,36.2364023 0.761446763,36.6106581 1.14324532,36.6981465 C8.54531007,38.4169837 16.1597777,37.3781698 23.6303029,36.7772395 C31.8872453,36.1117977 40.1898281,36.5660302 48.4581806,36.8337977 C65.5658281,37.3878907 82.6932237,38.0639372 99.7934108,36.9491233 C99.9255043,36.9681233 100.07208,36.9566349 100.230943,36.8956581 C105.029756,35.0703326 109.624504,37.9534721 114.471591,37.3812628 C117.118288,37.0688674 121.463771,35.591286 121.721375,32.3285884 C121.927634,29.7251465 119.300245,27.7738907 117.316209,26.633007 C115.582317,25.6361698 113.680785,24.7891233 111.718691,24.2416581 C113.437224,23.2832628 114.991627,21.9006814 114.083648,20.0996581 C112.972044,17.8956581 109.354173,17.2430302 107.213907,16.829007 C103.428396,16.097286 99.8228137,16.230286 95.9828856,16.3208674 C89.7200727,16.4688907 83.4607705,16.3416349 77.3146914,15.068193 C77.8189288,13.6074023 78.0927705,11.9491 77.1106266,10.6783093 C76.1025906,9.37482093 74.2537201,9.16405349 72.7256482,9.22414651 C68.1800511,9.40442558 63.8894252,11.1502163 59.4763604,12.0701698 C58.9370151,12.1815186 58.1053964,12.4431 57.5849216,12.246914 C56.6150655,11.8819372 55.9567921,10.0539605 55.6276554,8.97007674 C54.7609288,6.1183093 53.987677,2.76547209 51.1312094,1.24237907 C43.6615619,-2.74320233 34.1591662,4.18605349 30.7181518,10.7158674 C28.7222669,14.5021698 27.0976482,19.1165186 23.0659432,21.1649837 C19.8750727,22.7857279 16.3673532,24.7542163 12.8675331,25.5632628 C10.0163317,26.2220767 6.76797194,26.3864488 4.21343237,27.9559372 C1.38724532,29.6915651 0.500770504,32.6378907 0.437406411,35.8303326" id="Fill-8" fill="#2F364C" opacity="0.5" mask="url(#mask-2)"></path>
                </g>
                <path d="M365.008495,39.9824998 C365.008495,39.9824998 399.663051,43.4612041 410.37655,43.4612041 C391.644513,62.1992254 300.037063,143.975248 300.037063,143.975248 L282.589036,103.930775 L185.045419,204.793178 L166.224478,175.927362 C166.224478,175.927362 28.6430171,299.398897 28.0131755,299.981721 C26.4589176,301.419206 162.934175,217.593511 162.934175,217.593511 L188.282645,250.793136 C188.282645,250.793136 227.849877,208.581091 242.573308,194.632906 C249.833294,187.753355 277.360555,163.516321 277.360555,163.516321 L295.836055,207.26551 L443.77673,62.321574 L452.544532,108.800694 L486,4 L365.008495,39.9824998 Z" id="Fill-11" fill="#FFD858"></path>
                <path d="M489.769725,96.9897821 C489.079542,95.1277215 488.274106,93.3107702 487.573689,91.4513121 C486.922665,89.7163384 486.253842,87.8829049 485.095973,86.3986348 C484.507248,85.644355 483.625274,84.4038488 482.623152,84.1071683 C481.510672,83.7783907 480.074237,84.2897743 478.993352,84.520092 C471.144137,86.1930405 463.677615,89.6022639 456.91774,93.7774782 C443.45584,102.091906 431.254157,114.814902 429.257923,130.800517 C427.687991,143.363462 433.436843,155.526495 442.367389,164.329752 C442.488872,164.448597 442.62148,164.515394 442.755422,164.544889 C442.816831,164.77564 442.991268,164.973427 443.307657,165.050633 C447.404254,166.032629 451.705548,166.239524 455.890253,165.732912 C460.28811,165.199407 464.427871,163.703426 468.489759,162.024405 C472.62507,160.314589 476.580605,158.158016 480.039973,155.352564 C483.092174,152.875889 485.570335,149.639295 487.542984,146.301206 C491.491399,139.617653 493.12363,131.8762 493.792008,124.267907 C494.604564,115.031774 492.989242,105.682868 489.769725,96.9897821" id="Fill-13" fill="#F46FA1"></path>
                <path d="M480.224145,84.4893721 C480.080657,84.7835524 479.937625,85.0781704 479.794593,85.3719129 C479.792765,85.3741018 479.792765,85.3771662 479.790937,85.3789172 C479.752552,85.4406426 479.723763,85.5010546 479.703656,85.5579645 C466.837206,111.982971 454.076315,138.448691 441.092424,164.82423 C440.592041,165.837664 442.263181,166.511827 442.762649,165.497956 C455.777615,139.059815 468.568208,112.531495 481.46619,86.0456383 C481.648064,85.7466426 481.777844,85.4817928 481.88843,85.175355 C481.889801,85.1727284 481.891172,85.1683507 481.893914,85.1644108 C481.892086,85.163973 481.892086,85.1630975 481.892086,85.1630975 C481.916762,85.0943679 481.940525,85.0273893 481.96383,84.9538442 C482.260404,83.9920673 480.648213,83.6199643 480.224145,84.4893721" id="Fill-15" fill="#F34684"></path>
                <path d="M495,125 C495,125 469.550707,135.354983 457.610237,139.340521 C456.57184,139.686893 456.961733,141.300281 458.006716,140.950744 C470.092079,136.917274 494.719874,126.89555 494.719874,126.89555 L495,125 Z" id="Fill-17" fill="#F34684"></path>
                <path d="M467.952378,118.97107 C464.017013,110.551002 456.389948,93 456.389948,93 L455,93.9410049 C455,93.9410049 462.386303,111.174376 466.370013,119.695249 C466.71327,120.428938 468.292251,119.698577 467.952378,118.97107" id="Fill-19" fill="#F34684"></path>
                <path d="M475.811553,145.879533 C471.672221,146.873878 467.535107,148.397291 464.168379,151.085904 C462.487898,152.429096 460.902773,154.037267 459.782008,155.892575 C458.514441,157.995466 457.643819,160.311144 457.034872,162.689275 C456.435239,165.023689 455.944711,167.384422 456.005029,169.805379 C456.061799,172.109458 456.522611,174.417552 457.393676,176.549439 C457.460647,176.713602 457.584388,176.791669 457.715669,176.806836 C457.744054,176.875088 457.790623,176.942449 457.866021,176.997764 C463.437465,181.09336 470.604679,183.18956 477.403331,181.297672 C486.054992,178.891883 492.086806,171.240912 495.587032,163.274998 C497.345128,159.275312 498.623784,154.957561 498.912512,150.576464 C498.953759,149.974236 499.118747,149.154314 498.847759,148.580636 C498.604712,148.063613 497.849849,147.690231 497.385931,147.434173 C496.475393,146.931424 495.410512,146.723544 494.401514,146.513879 C493.320223,146.291278 492.25268,146.005777 491.171389,145.787637 C486.121963,144.770541 480.83703,144.673738 475.811553,145.879533" id="Fill-21" fill="#7F66C4"></path>
                <path d="M498.798207,148.823073 C498.649157,148.922055 498.357729,149.167741 498.207788,149.265839 C498.206454,149.26849 498.204674,149.26849 498.203784,149.269816 C498.173529,149.294119 498.141939,149.31312 498.112129,149.32947 C484.645504,158.19009 471.14818,166.999009 457.717594,175.917516 C457.201478,176.260416 456.700935,175.445144 457.217051,175.101359 C470.679671,166.162085 484.209475,157.331513 497.708135,148.449683 C497.856741,148.332142 497.991999,148.241114 498.150393,148.159808 C498.152172,148.15804 498.154397,148.156273 498.156622,148.155389 C498.156622,148.155389 498.157067,148.155831 498.156622,148.157157 C498.192661,148.137272 498.343936,148.063478 498.382645,148.045802 C498.886748,147.812489 499.2418,148.531873 498.798207,148.823073" id="Fill-23" fill="#6750C3"></path>
                <path d="M470,147 C470,147 466.83433,162.508136 465.790236,169.578035 C465.699497,170.193184 464.91623,170.11079 465.007362,169.493053 C466.064026,162.336447 469.096533,147.396439 469.096533,147.396439 L470,147 Z" id="Fill-25" fill="#6750C3"></path>
                <path d="M486,144.073801 C486,144.073801 482.916957,154.053844 481.948569,158.735676 C481.865307,159.142495 480.921519,159.054571 481.005253,158.643652 C481.986415,153.906241 485.117238,144 485.117238,144 L486,144.073801 Z" id="Fill-27" fill="#6750C3"></path>
                <path d="M473.568964,163.012682 C479.5331,164.483076 492,167.275196 492,167.275196 L491.525134,168 C491.525134,168 479.306146,165.348863 473.268885,163.861299 C472.749877,163.732967 473.054861,162.887062 473.568964,163.012682" id="Fill-29" fill="#6750C3"></path>
                <path d="M396.318599,99.1415426 C395.037971,98.5517891 393.721061,98.0376562 392.436849,97.4526834 C391.238192,96.9068246 389.981752,96.320548 388.659018,96.1401886 C387.985782,96.0476186 386.924191,95.8550904 386.277382,96.1866909 C385.558904,96.5552325 385.103808,97.4917974 384.684547,98.1215342 C381.633705,102.690494 379.647589,107.934388 378.399211,113.220005 C375.911415,123.744301 376.274686,135.847067 383.343896,144.693369 C388.89866,151.646115 397.883662,154.911706 406.753547,155 C406.873143,155.001669 406.972584,154.970812 407.054555,154.923006 C407.200579,155.007318 407.387366,155.02166 407.582663,154.908229 C410.110324,153.439713 412.349072,151.490962 414.169454,149.244945 C416.083006,146.884627 417.382447,144.172283 418.550645,141.406048 C419.740791,138.590268 420.616044,135.638894 420.9175,132.603206 C421.18357,129.925195 420.780434,127.145053 420.07629,124.556135 C418.665763,119.37265 415.570127,114.770661 412.067325,110.694974 C407.813346,105.746173 402.298,101.89952 396.318599,99.1415426" id="Fill-31" fill="#5C149F"></path>
                <path d="M385.035685,96.7590623 C385.111969,96.9694712 385.217628,97.4347233 385.294351,97.6446966 C385.294351,97.6468747 385.295666,97.6486173 385.295666,97.651231 C385.307503,97.6978434 385.324163,97.7409707 385.342577,97.7797417 C392.178379,116.727437 399.084329,135.647687 405.841655,154.628055 C406.100759,155.357298 407.220477,154.910342 406.961372,154.180228 C400.188264,135.156297 393.265216,116.190742 386.41363,97.197741 C386.354005,96.9664218 386.286051,96.7747449 386.187845,96.5747911 C386.186968,96.5717417 386.186092,96.5686923 386.185215,96.5665142 L386.184338,96.5669498 C386.161979,96.5212087 386.065088,96.3338881 386.040537,96.2872758 C385.709532,95.6778304 384.810777,96.1348056 385.035685,96.7590623" id="Fill-33" fill="#3A0E72"></path>
                <path d="M414.250671,116 C414.250671,116 405.533527,135.514659 401.087602,144.058336 C400.701791,144.801621 401.692251,145.405369 402.081702,144.657524 C406.580403,136.010334 415,117.225737 415,117.225737 L414.250671,116 Z" id="Fill-35" fill="#3A0E72"></path>
                <path d="M400.320268,102 C400.320268,102 396.950478,113.309914 395.024739,118.295306 C394.85724,118.729809 395.589,119.275734 395.757842,118.839988 C397.707749,113.794122 401,102.520244 401,102.520244 L400.320268,102 Z" id="Fill-37" fill="#3A0E72"></path>
                <path d="M398.673127,131.758803 C391.611442,128.377789 377.058271,121 377.058271,121 L377,122.202478 C377,122.202478 391.199605,129.532029 398.347163,132.953898 C398.962289,133.247749 399.282558,132.052163 398.673127,131.758803" id="Fill-39" fill="#3A0E72"></path>
                <path d="M488.215207,187.762527 C488.695442,187.030958 489.131025,186.271015 489.608071,185.536135 C490.052311,184.851383 490.527989,184.134474 490.761272,183.337172 C490.880192,182.931428 491.095706,182.295384 490.952637,181.863631 C490.794078,181.384588 490.261901,181.011473 489.914255,180.690377 C487.399628,178.356639 484.372872,176.613547 481.252711,175.321124 C475.037905,172.745737 467.594263,171.772518 461.524348,175.255865 C456.753437,177.99251 453.921235,183.209491 453.047335,188.66954 C453.035489,188.743311 453.045513,188.807152 453.066928,188.862481 C453.002684,188.944292 452.975801,189.05826 453.026376,189.191143 C453.692964,190.894039 454.678494,192.466416 455.88546,193.811803 C457.153937,195.224341 458.693969,196.294503 460.279565,197.289475 C461.893865,198.300998 463.620251,199.133294 465.451431,199.61943 C467.066187,200.047873 468.806242,200.074355 470.456537,199.896547 C473.759861,199.539511 476.864074,198.086776 479.683063,196.32997 C483.107129,194.19674 485.973047,191.176831 488.215207,187.762527" id="Fill-41" fill="#5C149F"></path>
                <path d="M490.584087,183.005272 C490.448348,183.025441 490.155462,183.040742 490.018813,183.060912 C490.017902,183.060216 490.016991,183.060912 490.016991,183.060912 C489.985106,183.062998 489.957776,183.067867 489.932268,183.072735 C477.715778,184.864324 465.508853,186.69034 453.280064,188.442634 C452.809989,188.510096 452.976701,189.060579 453.446777,188.994507 C465.704717,187.237345 477.940794,185.406461 490.186436,183.611742 C490.333563,183.600962 490.456547,183.582879 490.587731,183.552625 C490.589553,183.551929 490.591831,183.551582 490.591831,183.551582 L490.593653,183.551234 C490.622805,183.543931 490.74579,183.51333 490.777219,183.504984 C491.181247,183.396139 490.986749,182.946503 490.584087,183.005272" id="Fill-43" fill="#3A0E72"></path>
                <path d="M476,198.631297 C476,198.631297 465.252698,190.897764 460.605841,187.097405 C460.201887,186.766649 459.753563,187.357394 460.16029,187.690201 C464.863072,191.535687 475.204571,199 475.204571,199 L476,198.631297 Z" id="Fill-45" fill="#3A0E72"></path>
                <path d="M485,190.616163 C485,190.616163 479.034361,187.622951 476.452094,186.028055 C476.227911,185.889228 475.843031,186.303556 476.068404,186.442742 C478.682414,188.05701 484.635753,191 484.635753,191 L485,190.616163 Z" id="Fill-47" fill="#3A0E72"></path>
                <path d="M469.543134,186.840288 C471.592879,182.679798 476,174.142012 476,174.142012 L475.470068,174 C475.470068,174 471.112347,182.31814 469.037527,186.529755 C468.859012,186.891886 469.365741,187.198633 469.543134,186.840288" id="Fill-49" fill="#3A0E72"></path>
                <path d="M406.754187,117.118636 C405.325713,122.14633 404.475724,127.484744 405.360732,132.684515 C405.803236,135.280834 406.591829,137.93154 407.932529,140.22873 C409.451504,142.832627 411.443454,145.134721 413.66143,147.191626 C415.837566,149.214205 418.108752,151.136034 420.779692,152.501063 C423.321019,153.801006 426.111113,154.670309 428.958509,154.995741 C429.178169,155.020705 429.338252,154.933329 429.434666,154.801819 C429.525623,154.812964 429.62704,154.801373 429.732095,154.753673 C437.56664,151.196662 444.191918,144.747324 446.255268,136.335588 C448.882094,125.634688 444.214202,114.642682 437.668512,106.182801 C434.38225,101.933914 430.459747,98.0117961 425.868713,95.1132269 C425.237475,94.7124558 424.446152,94.0517853 423.657104,94.0023019 C422.946733,93.9586139 422.083555,94.5470653 421.524172,94.893895 C420.425871,95.5741806 419.553143,96.5928257 418.713614,97.5517341 C417.815872,98.5797409 416.858554,99.5564812 415.96536,100.588054 C411.797275,105.403995 408.488729,111.016127 406.754187,117.118636" id="Fill-51" fill="#7F66C4"></path>
                <path d="M423.924985,94.5055869 C423.939992,94.7233567 424.018029,95.1806732 424.032661,95.3988873 C424.033411,95.4015539 424.032286,95.4028872 424.033411,95.4042205 C424.04129,95.4517743 424.042791,95.4966615 424.04204,95.5384377 C425.358167,115.162159 426.612013,134.789435 427.997923,154.4096 C428.051198,155.16335 427.062603,155.212682 427.008952,154.457598 C425.620041,134.791213 424.362818,115.116827 423.043315,95.4464411 C423.010299,95.2175607 422.995292,95.0193458 423.001295,94.8024649 C423.00092,94.7989095 423.00017,94.7962429 423.000545,94.7931319 C423.000545,94.7931319 423.001295,94.7931319 423.002046,94.7935763 C423.002421,94.743356 423.01105,94.5380302 423.014051,94.4860321 C423.054195,93.8109459 423.88259,93.8593886 423.924985,94.5055869" id="Fill-53" fill="#6750C3"></path>
                <path d="M407.165621,121 C407.165621,121 421.811783,133.688394 428.749576,139.010855 C429.353658,139.475396 428.750883,140.330951 428.144186,139.86556 C421.121839,134.476796 407,122.27377 407,122.27377 L407.165621,121 Z" id="Fill-55" fill="#6750C3"></path>
                <path d="M413.579526,102 C413.579526,102 422.448176,111.188679 426.879095,115.001332 C427.265597,115.333208 426.635658,116.261908 426.247794,115.929108 C421.762828,112.069836 413,102.875156 413,102.875156 L413.579526,102 Z" id="Fill-57" fill="#6750C3"></path>
                <path d="M426.136518,128.099479 C431.209925,122.939641 441.518113,112 441.518113,112 L442,112.870626 C442,112.870626 431.987364,123.640236 426.852438,128.863574 C426.411117,129.313091 425.7001,128.545236 426.136518,128.099479" id="Fill-59" fill="#6750C3"></path>
                <polygon id="Fill-61" fill="#FFAF00" points="354 289 460 289 460 273 354 273"></polygon>
                <polygon id="Fill-63" fill="#FFDE00" points="441 289 449 289 449 273 441 273"></polygon>
                <polygon id="Fill-64" fill="#FF9A00" points="369 289 396 289 396 273 369 273"></polygon>
                <polygon id="Fill-65" fill="#FE9100" points="354 289 460 289 460 287 354 287"></polygon>
                <polygon id="Fill-66" fill="#FFAF00" points="356 272 462 272 462 256 356 256"></polygon>
                <polygon id="Fill-67" fill="#FFDE00" points="445 272 453 272 453 256 445 256"></polygon>
                <polygon id="Fill-68" fill="#FF9A00" points="372 272 399 272 399 256 372 256"></polygon>
                <polygon id="Fill-69" fill="#FE9100" points="356 273 462 273 462 271 356 271"></polygon>
                <polygon id="Fill-70" fill="#FFAF00" points="351 255 457 255 457 239 351 239"></polygon>
                <polygon id="Fill-71" fill="#FFDE00" points="441 255 449 255 449 239 441 239"></polygon>
                <polygon id="Fill-72" fill="#FF9A00" points="367 255 394 255 394 239 367 239"></polygon>
                <polygon id="Fill-73" fill="#FE9100" points="351 256 457 256 457 254 351 254"></polygon>
                <polygon id="Fill-74" fill="#FFAF00" points="351 237 457 237 457 221 351 221"></polygon>
                <polygon id="Fill-75" fill="#FFDE00" points="440 237 448 237 448 221 440 221"></polygon>
                <polygon id="Fill-76" fill="#FF9A00" points="367 237 394 237 394 221 367 221"></polygon>
                <polygon id="Fill-77" fill="#FE9100" points="351 240 457 240 457 238 351 238"></polygon>
                <polygon id="Fill-78" fill="#FFAF00" points="354 222 460 222 460 206 354 206"></polygon>
                <polygon id="Fill-79" fill="#FFDE00" points="442 222 450 222 450 206 442 206"></polygon>
                <polygon id="Fill-80" fill="#FF9A00" points="370 222 397 222 397 206 370 206"></polygon>
                <polygon id="Fill-81" fill="#FE9100" points="354 222 460 222 460 220 354 220"></polygon>
                <polygon id="Fill-82" fill="#FFAF00" points="351 204 457 204 457 188 351 188"></polygon>
                <polygon id="Fill-83" fill="#FFDE00" points="440 204 448 204 448 188 440 188"></polygon>
                <polygon id="Fill-84" fill="#FF9A00" points="367 204 394 204 394 188 367 188"></polygon>
                <polygon id="Fill-85" fill="#FE9100" points="351 205 457 205 457 203 351 203"></polygon>
                <polygon id="Fill-86" fill="#FFAF00" points="361 188 467 188 467 172 361 172"></polygon>
                <polygon id="Fill-87" fill="#FFDE00" points="449 188 457 188 457 172 449 172"></polygon>
                <polygon id="Fill-88" fill="#FF9A00" points="377 188 404 188 404 172 377 172"></polygon>
                <polygon id="Fill-89" fill="#FE9100" points="361 189 467 189 467 187 361 187"></polygon>
                <polygon id="Fill-90" fill="#FFAF00" points="357 171 463 171 463 155 357 155"></polygon>
                <polygon id="Fill-91" fill="#FFDE00" points="445 171 453 171 453 155 445 155"></polygon>
                <polygon id="Fill-92" fill="#FF9A00" points="372 171 399 171 399 155 372 155"></polygon>
                <polygon id="Fill-93" fill="#FE9100" points="357 172 463 172 463 170 357 170"></polygon>
                <polygon id="Fill-94" fill="#FFAF00" points="359 155 465 155 465 139 359 139"></polygon>
                <polygon id="Fill-95" fill="#FFDE00" points="448 155 456 155 456 139 448 139"></polygon>
                <polygon id="Fill-96" fill="#FF9A00" points="375 155 402 155 402 139 375 139"></polygon>
                <polygon id="Fill-97" fill="#FE9100" points="359 155 465 155 465 153 359 153"></polygon>
                <path d="M164.485473,119.966383 C163.267423,118.976529 161.989601,118.062715 160.766569,117.078642 C159.626401,116.159937 158.434161,115.181645 157.055363,114.628465 C156.354871,114.347873 155.260889,113.852946 154.469383,114.041934 C153.589579,114.251378 152.833391,115.154964 152.203084,115.730822 C147.620677,119.90813 143.999127,125.109976 141.162291,130.554617 C135.511712,141.395873 132.496018,154.728217 137.643075,166.297412 C141.687547,175.391082 150.475625,181.37245 160.033022,183.849308 C160.161619,183.881325 160.277538,183.875544 160.378967,183.843082 C160.513903,183.975152 160.71178,184.042298 160.954937,183.97115 C164.099229,183.043551 167.06602,181.512079 169.665585,179.544822 C172.397823,177.477068 174.56541,174.859247 176.605758,172.147154 C178.684142,169.387926 180.460957,166.394796 181.640519,163.156205 C182.682428,160.298702 183.029731,157.149935 182.998034,154.130125 C182.93283,148.084279 180.885237,142.222086 178.247183,136.824581 C175.044027,130.272691 170.169107,124.58659 164.485473,119.966383" id="Fill-98" fill="#5C149F"></path>
                <path d="M155.002497,114.695283 C155.020987,114.946177 155.010565,115.480826 155.030064,115.730833 C155.029055,115.733941 155.030064,115.736161 155.030064,115.738826 C155.030064,115.793445 155.034098,115.844512 155.041158,115.889806 C156.692174,138.405912 158.407065,160.90692 159.986473,183.433683 C160.047323,184.300046 161.057902,184.118869 160.997388,183.253395 C159.41361,160.6729 157.694684,138.116829 156.040643,115.550988 C156.039971,115.281443 156.023834,115.05586 155.984836,114.810294 C155.985508,114.806298 155.984836,114.802301 155.984836,114.799637 L155.984163,114.799637 C155.975423,114.744573 155.934408,114.514994 155.923986,114.456378 C155.780434,113.701919 154.948707,113.953701 155.002497,114.695283" id="Fill-99" fill="#3A0E72"></path>
                <path d="M168.196463,126 C168.196463,126 160.220125,137.235662 156.085698,142.03906 C155.72534,142.456784 156.595398,143.307089 156.956637,142.885969 C161.141726,138.024413 169,126.801911 169,126.801911 L168.196463,126 Z" id="Fill-100" fill="#3A0E72"></path>
                <path d="M218.873555,142.375199 C217.952866,140.412643 216.914584,138.510711 215.982759,136.553132 C215.115074,134.725847 214.218437,132.792698 212.846979,131.292958 C212.14811,130.530194 211.092012,129.267517 210.010969,129.049456 C208.807881,128.806964 207.356692,129.515891 206.246698,129.882343 C198.193,132.536634 190.725925,137.047164 184.080656,142.321362 C170.847132,152.823613 159.403318,168.011477 159.009564,185.689859 C158.698213,199.582925 166.020526,212.27077 176.321829,220.950713 C176.461246,221.067435 176.607345,221.125796 176.751662,221.144344 C176.840301,221.390003 177.044751,221.588611 177.384163,221.638829 C181.784499,222.280346 186.317571,222.055046 190.65243,221.060196 C195.207774,220.013319 199.389852,217.943542 203.47082,215.681491 C207.625728,213.377365 211.545007,210.604543 214.8741,207.174369 C217.811221,204.147744 220.066844,200.34976 221.779942,196.494773 C225.211037,188.77575 226.099656,180.142858 225.991419,171.759696 C225.861355,161.581371 223.173671,151.535149 218.873555,142.375199" id="Fill-101" fill="#F46FA1"></path>
                <path d="M210.179263,130.61885 C210.064848,130.948044 209.951313,131.278583 209.838658,131.608673 C209.836458,131.611813 209.836898,131.614952 209.834698,131.617643 C209.803453,131.687159 209.78057,131.754433 209.766489,131.819016 C199.53471,161.487688 189.413826,191.191792 179.058392,220.820099 C178.66014,221.959719 180.415089,222.513158 180.814221,221.373091 C191.193419,191.675266 201.337186,161.900301 211.594048,132.161216 C211.747188,131.823053 211.851041,131.525702 211.930252,131.186193 C211.930252,131.181708 211.932012,131.176775 211.934212,131.173187 C211.934212,131.173187 211.932452,131.17229 211.931572,131.17229 C211.950054,131.096046 211.966776,131.021148 211.983499,130.939523 C212.182845,129.877044 210.516787,129.641137 210.179263,130.61885" id="Fill-102" fill="#F34684"></path>
                <path d="M226,173 C226,173 200.57299,185.423357 188.554921,190.415151 C187.510459,190.84967 188.076482,192.357854 189.128351,191.921678 C201.292392,186.870236 225.898473,174.847846 225.898473,174.847846 L226,173 Z" id="Fill-103" fill="#F34684"></path>
                <path d="M194.931322,170.821838 C190.316235,162.469087 181.25133,145 181.25133,145 L180,146.119203 C180,146.119203 188.801631,163.28078 193.474184,171.73399 C193.87689,172.461731 195.330464,171.542033 194.931322,170.821838" id="Fill-104" fill="#F34684"></path>
                <polygon id="Fill-105" fill="#FFAF00" points="356 289 363 289 363 273 356 273"></polygon>
                <polygon id="Fill-106" fill="#FFAF00" points="359 272 366 272 366 256 359 256"></polygon>
                <polygon id="Fill-107" fill="#FFAF00" points="354 257 361 257 361 241 354 241"></polygon>
                <polygon id="Fill-108" fill="#FFAF00" points="354 237 361 237 361 221 354 221"></polygon>
                <polygon id="Fill-109" fill="#FFAF00" points="359 222 366 222 366 206 359 206"></polygon>
                <polygon id="Fill-110" fill="#FFAF00" points="354 204 361 204 361 188 354 188"></polygon>
                <path d="M6.49904891,263.744485 C7.8892286,268.606144 9.90134256,273.436201 13.2333889,277.286161 C14.8978461,279.208433 16.8679012,281.002944 19.1010479,282.229984 C21.6321862,283.619545 24.3901738,284.525604 27.2067754,285.118357 C29.971922,285.70163 32.7621249,286.154885 35.592597,285.949927 C38.286154,285.753998 40.9609188,285.079532 43.4092816,283.927433 C43.5976516,283.838949 43.6831117,283.687262 43.6925078,283.529706 C43.7712563,283.492236 43.8477676,283.433548 43.9077239,283.341452 C48.3950467,276.497479 50.4532465,267.868475 47.8657315,259.897234 C44.5730593,249.753617 35.2865516,243.01122 25.7700625,239.294889 C20.9928019,237.427694 15.8678846,236.147835 10.7232801,236.045356 C10.0145435,236.030007 9.04808454,235.87832 8.3916978,236.232256 C7.79929422,236.550528 7.40420936,237.466519 7.13037931,238.031733 C6.59301021,239.141396 6.40642993,240.418095 6.21761247,241.628431 C6.01581941,242.924091 5.74154193,244.207561 5.54556552,245.505027 C4.63279868,251.558963 4.80998283,257.84043 6.49904891,263.744485" id="Fill-111" fill="#5C149F"></path>
                <path d="M7.95136104,235.223195 C8.07542874,235.397051 8.38028081,235.732836 8.50301921,235.90761 C8.50434851,235.909445 8.50479161,235.910821 8.50656401,235.912197 C8.53669473,235.94706 8.56150827,235.983758 8.58189082,236.01908 C19.6819622,251.718432 30.7231014,267.458151 41.8896376,283.11209 C42.3181142,283.713476 41.3902651,284.361652 40.9613453,283.760266 C29.7695525,268.06963 18.7013842,252.291836 7.57428385,236.555786 C7.42717501,236.383306 7.31462788,236.226423 7.21005653,236.039722 C7.20872723,236.03697 7.20651174,236.035594 7.20562554,236.032841 C7.20562554,236.032841 7.20562554,236.032383 7.20651174,236.031924 C7.1825844,235.99018 7.08820432,235.811737 7.06427698,235.766323 C6.7651852,235.173194 7.58669062,234.705296 7.95136104,235.223195" id="Fill-112" fill="#3A0E72"></path>
                <path d="M8,269 C8,269 26.2076891,272.102472 34.4840677,273.022125 C35.204369,273.102584 35.155404,274.076848 34.431237,273.995139 C26.0539218,273.065064 8.51327377,270.09808 8.51327377,270.09808 L8,269 Z" id="Fill-113" fill="#3A0E72"></path>
                <path d="M4.03851219,250 C4.03851219,250 15.3829786,253.029012 20.6788426,253.892216 C21.1405513,253.966867 21.0884723,255.071031 20.625013,254.996381 C15.2639409,254.122782 4,251.032349 4,251.032349 L4.03851219,250 Z" id="Fill-114" fill="#3A0E72"></path>
                <path d="M30.0099434,265.373069 C31.4430835,258.451702 34.0990889,244 34.0990889,244 L35,244.506377 C35,244.506377 32.5014671,258.667406 31.0510377,265.671634 C30.9258073,266.275341 29.8879839,265.9702 30.0099434,265.373069" id="Fill-115" fill="#3A0E72"></path>
                <path d="M348,46 L368,139 L348,46 Z" id="Fill-116" fill="#010644"></path>
                <path d="M320.543821,96.453376 C320.251272,92.7695947 319.443447,89.1478459 317.504315,85.9013292 C316.068968,83.4994101 313.74139,82.0839392 310.977641,83.6750968 C309.609023,84.4619997 308.553725,85.7547067 307.614209,86.9359287 C306.237196,88.6654666 304.939727,90.4496626 303.674518,92.2516443 C301.187851,95.7931411 298.82492,99.4261685 296.53137,103.076548 C295.564897,104.613915 294.747792,106.227196 293.627091,107.680841 C292.577096,109.04122 291.232784,109.819447 289.668839,110.580756 C288.327179,111.233182 286.916579,111.900792 286.11008,113.141877 C285.802506,113.615581 286.190067,114.031156 286.649661,114.103599 C286.83836,114.426342 287.269671,114.631527 287.701424,114.372118 C290.774957,112.522419 293.925385,115.044499 296.229099,116.830864 C299.016712,118.990726 301.733176,121.218694 304.350652,123.556845 C309.009342,127.716933 313.161595,132.284787 319.10759,134.926594 C319.643636,135.164747 320.181449,134.79125 320.196032,134.268962 C320.251272,132.2349 320.074947,130.209949 319.985679,128.179791 C319.88669,125.948787 320.121348,123.738171 320.304302,121.515843 C320.662254,117.186576 320.964968,112.851669 320.996786,108.509822 C321.02551,104.505466 320.860675,100.444718 320.543821,96.453376" id="Fill-117" fill="#C62B5F"></path>
                <path d="M321.607686,77.1013654 C321.54421,76.8979428 327.1462,76.2382788 326.997075,76.1664297 C323.275892,72.9390607 309.963719,77.2136295 307.811181,79.2936592 C303.097422,83.846643 298.030197,91.6153205 292.256038,94.7654518 C287.307504,97.4660776 282.957647,98.1957944 281.010319,98.7791188 C276.199172,100.221937 271.074122,103.520257 268.165957,107.564909 C267.797273,108.077732 268.065091,108.75446 268.749416,108.755358 C277.369134,108.767482 279.833401,118.773359 283.285897,124.685188 C283.645015,125.29815 284.710198,124.942947 284.633244,124.246011 C284.055871,119.003725 287.592277,115.455281 291.503454,112.398553 C295.851572,108.999196 300.330991,105.721981 304.108693,101.700231 C308.257253,97.2851078 310.897167,91.7760827 314.063585,86.7057858 C315.461365,84.4654429 317.097833,82.4779188 319.256024,80.897689 C320.475114,80.007659 322.137234,78.7785914 321.607686,77.1013654" id="Fill-118" fill="#F34684"></path>
                <path d="M354.253911,60.0265061 C353.454754,60.2177014 350.954591,63.947417 350.096628,64.9474438 C348.207352,67.151814 344.291879,73.260225 341.489783,74.7073115 C339.30823,75.8333961 330.93003,77.4487158 326.039419,76.2528075 C325.643571,76.2064145 328.359212,79.2130554 328.371938,79.701822 C328.181475,80.0059539 328.238526,80.3803782 328.423723,80.6334309 C328.499207,82.8748217 326.558147,88.6439546 329.325134,87.9410305 C330.979182,87.5211504 342.401726,83.2872039 344.271253,81.5701945 C346.609039,79.4234641 346.39005,79.6137222 347.462175,78.3358061 C348.537811,77.0532038 353.13,67.1232284 353.914675,64.9811842 C354.317106,63.8832166 355.929024,59.6258393 354.253911,60.0265061" id="Fill-119" fill="#FF9E1E"></path>
                <path d="M335.218269,112.775521 C334.355002,110.890092 329.905244,112.977133 328.005967,113.437005 C325.473599,114.049423 323.350333,115.850996 321.128104,117.071819 C320.648315,117.336324 320.603694,117.788166 320.794549,118.149908 C320.696912,118.291304 313.997534,117.545964 314.072639,117.748469 C315.756762,122.249501 322.269702,131.126674 321.965747,139.051989 C321.903896,140.672914 316.627981,142.358515 315.399349,146.665965 C311.996203,158.597203 311.696224,173.665916 312.182641,172.977224 C315.952035,167.648333 326.066488,148.127652 329.31854,142.488314 C330.74863,140.010984 333.067612,128.391085 333.958712,124.758946 C334.67442,121.843155 337.287637,117.297518 335.218269,112.775521" id="Fill-120" fill="#010644"></path>
                <path d="M347.032144,47.3742611 C351.814786,68.2397179 356.597428,89.1056148 361.379632,109.971072 C363.537525,119.384443 365.694979,128.797815 367.852433,138.211187 C368.169667,139.593358 370.28456,139.006783 369.967765,137.626372 C365.185562,116.760915 360.403358,95.895018 355.620716,75.0295612 C353.462823,65.6161894 351.305369,56.2023775 349.147915,46.7894457 C348.831119,45.4063946 346.715788,45.9929702 347.032144,47.3742611" id="Fill-121" fill="#091A33"></path>
                <path d="M382.561402,52.7167455 C379.402916,53.1899414 376.249295,53.7029053 373.046592,53.6595626 C369.566642,53.6126451 366.535947,52.4508801 363.601204,50.7810662 C359.33904,48.3552114 354.453846,45.3431121 349.519569,48.0960485 C349.296711,48.220268 349.29848,48.4378755 349.412562,48.5929264 C349.293616,48.6045441 349.179976,48.6679943 349.112322,48.8033846 C348.528204,49.9785547 350.381818,51.8159308 351.008386,52.643465 C351.880363,53.7953997 352.53921,54.7891557 352.792136,56.244043 C353.107852,58.0541623 352.499856,60.0050339 352.305297,61.8097913 C352.276114,62.082806 352.529924,62.3571613 352.834144,62.2374102 C354.024047,61.7660016 355.938683,62.1654701 357.177669,62.3692258 C358.788969,62.6315166 360.325984,63.3763867 361.936842,63.7106176 C364.84417,64.3142886 367.692687,63.8987342 370.531035,63.1511831 C373.109823,62.4697632 375.600176,61.375023 377.654982,59.7150395 C379.798667,57.9840096 381.493981,55.5233018 382.953172,53.2600941 C383.110146,53.0165703 382.845281,52.6738496 382.561402,52.7167455" id="Fill-122" fill="#F34684"></path>
                <path d="M325.271304,68.4420811 C324.09445,66.7823918 323.355061,65.3375005 321.707091,64.376321 C320.344689,63.5820678 318.392924,62.5846724 316.672512,63.1820274 C314.996032,63.7652289 314.640826,64.9295507 314.581002,66.3582073 C314.50482,68.2048042 313.379377,68.4841249 314.480516,70.0701335 C315.052117,70.8910282 317.360957,72.9807298 318.139139,73.6738281 C318.717751,74.1900094 320.27505,74.6828792 320.185313,75.5183436 C320.182042,75.5412387 320.183911,75.56122 320.186248,75.5803686 C319.889931,77.287097 319.000047,79.4733745 319.788511,81.0377368 C320.293745,82.0376299 322.243172,82.2199584 323.238216,81.7616394 C325.279717,80.82169 323.234945,77.3949123 323.158295,75.7527066 C324.659508,75.5741245 324.868426,75.8188943 325.771864,74.9738556 C327.838603,73.0381758 327.039857,70.9364022 325.271304,68.4420811" id="Fill-123" fill="#FBCBAD"></path>
                <path d="M353.780188,61.6521382 C353.839802,61.5191827 353.860029,61.3750761 353.821173,61.217245 C353.677459,60.6438206 352.496342,61.3720738 352.343579,61.5033138 C351.717625,62.042856 352.091281,62.9182181 352.33666,63.501078 C352.662944,64.2777956 352.915774,65.1184177 353.696088,65.7145732 C354.343334,66.2082242 355.410544,65.9783398 356.08121,65.649811 C356.949349,65.2256399 357.104773,64.4291934 356.944026,63.7232424 C356.638501,62.3765315 355.20828,61.3051672 353.780188,61.6521382" id="Fill-124" fill="#FBCBAD"></path>
                <path d="M324.983412,59.4400995 C324.59184,57.957891 321.115022,60.6746793 319.759479,60.9182995 C317.878416,61.2550031 318.428045,59.4467801 315.778127,59.5959808 C314.086376,59.6904003 312.672788,61.0247442 311.247146,61.5431608 C310.205931,61.9217297 311.805705,63.6894236 310.828338,64.6590053 C310.122437,65.3577988 310.174677,66.1924318 310.401047,67.0738292 C310.641705,68.0108985 309.625047,68.5965668 310.155478,69.440998 C310.448822,69.9090873 311.376181,70.2729588 311.91822,70.2039256 C312.828614,70.0863466 312.867458,70.2680597 313.333594,70.7281322 C313.959573,71.3458675 315.05258,72.2165759 315.627213,72.8730588 C316.144249,73.4631809 317.861003,74.7093405 318.196763,73.4711976 C318.371788,72.8213953 318.076211,72.2522059 317.682407,71.7217641 C317.460948,71.4255896 317.166711,71.2109188 316.871581,70.9873405 C316.753261,70.8982655 313.853755,68.7622463 315.343245,68.5693989 C315.458886,68.5547015 315.512019,68.3101906 315.539255,68.2611993 C317.59043,64.5881906 318.410186,63.9539764 322.766143,63.953531 C322.898304,63.953531 323.086276,63.5259709 323.099671,63.4213078 C323.177806,62.7817491 325.202639,60.2676065 324.983412,59.4400995" id="Fill-125" fill="#010644"></path>
                <path d="M315.996879,174.444745 C315.93906,173.820825 314.782318,173.428615 314.346084,173.265477 C313.831277,173.072197 313.280888,172.924129 312.866522,172.517979 C312.799067,172.452045 313.289784,171.767844 313.322399,171.697766 C313.566646,171.182731 313.765675,170.648858 314.062922,170.165094 C314.342378,169.710341 314.638142,169.294771 314.772311,168.760898 C314.791213,168.688183 314.751556,168.618105 314.675576,168.604918 C313.5748,168.405987 312.60745,167.948597 311.834683,167.05906 C311.792802,167.012718 311.739431,167.011587 311.698661,167.03344 C311.652703,166.992373 311.583024,166.98107 311.541884,167.04625 C310.814333,168.217229 310.11421,169.40667 309.41631,170.598371 C309.046049,171.23171 308.716928,171.767844 309.384436,172.375186 C310.219099,173.13474 311.144196,173.982833 312.074111,174.604869 C313.023299,175.239338 314.224147,174.917582 315.242272,174.924364 C315.631065,174.926248 316.039872,174.918713 315.996879,174.444745" id="Fill-126" fill="#C62B5F"></path>
                <path d="M351.505579,100.847621 C349.821345,98.5090977 346.002265,96.0382136 336.17638,100.40113 C332.06356,102.226983 327.914299,104.050115 324.31697,106.736312 C321.951488,108.503237 311.301261,113.920053 312.03628,117.263067 C312.807739,120.775612 318.660787,125.708767 325.795453,124.833464 C332.927896,123.958614 341.032219,114.427284 344.221599,108.119753 C344.069173,112.073349 342.951091,114.313962 345.62098,118.784762 C349.626702,125.495268 358.849108,137.283529 360.983064,135.886035 C361.42212,135.598196 353.193813,103.191131 351.505579,100.847621" id="Fill-127" fill="#350D98"></path>
                <path d="M368.667344,135.769174 C367.913205,135.519851 366.635724,136.235254 366.137688,136.497467 C365.547031,136.807509 364.981679,137.166397 364.221467,137.297673 C364.098477,137.318365 363.665732,136.61246 363.61107,136.554455 C363.196547,136.121278 362.728373,135.713882 362.387745,135.254246 C362.067363,134.820731 361.803667,134.394678 361.29146,134.037824 C361.221614,133.988299 361.111277,133.986264 361.042949,134.038503 C360.027645,134.802413 358.808875,135.340068 357.238849,135.522565 C357.154831,135.533081 357.116365,135.573447 357.112822,135.616188 C357.032347,135.63247 356.970092,135.681656 357.015138,135.744411 C357.831532,136.864497 358.690946,137.971692 359.55441,139.078209 C360.013473,139.665728 360.390036,140.174889 361.563254,139.942527 C363.031041,139.651481 364.661297,139.331263 366.040511,138.9008 C367.44655,138.461178 367.939524,137.373318 368.675948,136.58227 C368.956346,136.282066 369.241299,135.959473 368.667344,135.769174" id="Fill-128" fill="#C62B5F"></path>
                <path d="M313.5741,100.1946 C313.05927,99.740228 311.86772,99.1086599 308.903642,97.1054952 C307.325208,96.0391939 304.558706,95.1487497 307.281689,93.5722841 C311.153574,91.3321141 312.259826,91.1000183 314.222968,89.7226195 C313.948798,91.6574944 313.475312,94.9376319 313.5741,100.1946 M329.593874,103.587215 C329.593874,103.587215 331.919528,93.5401478 331.996557,87.2574951 C332.023539,85.0454443 331.907343,81.4519776 331.091797,79.3988231 C330.539541,78.0058024 326.654166,78.3999188 325.257642,78.191479 C324.68058,78.1053358 324.158352,78 324.158352,78 C324.158352,78 324.637932,80.8989649 322.75356,81.2627303 C320.744288,81.650598 320.000548,78.3673361 320.000548,78.3673361 C320.000548,78.3673361 319.33906,78.6913775 318.431689,78.8538445 C316.789718,79.1453031 312.465236,79.6715356 309.754003,81.4475142 C306.48007,83.593507 298.71106,92.6269404 299.008295,94.855952 C299.532699,98.795777 310.560845,103.057858 311.336353,103.66577 C311.082203,106.631686 308.474545,114.119005 308.877966,117.100542 C309.448065,121.310848 312.335114,119.795977 312.929584,119.456314 C317.035165,117.110361 317.472531,112.072099 324.189686,107.459196 C328.958932,104.183522 329.593874,103.587215 329.593874,103.587215" id="Fill-129" fill="#FFBD00"></path>
                <path d="M327.992778,78.2351638 L326.599898,78 C326.599898,78 326.795225,78.3958742 326.887055,79.3596826 C326.971358,80.2490375 326.330053,82.1657586 324.804698,80.9418173 C324.472379,80.6744207 324.154361,80.2839943 323.89656,79.9353345 C323.558219,79.4790804 323.347085,78.4253832 323.347085,78.4253832 C323.347085,78.4253832 322.02082,78.7863006 322.004261,79.1104453 C321.883828,79.174457 324.340655,83.6389372 326.313118,82.9220962 C328.206169,82.2347642 327.992778,78.2351638 327.992778,78.2351638" id="Fill-130" fill="#F34684"></path>
                <path d="M320.294973,100.036096 C320.195258,99.9526541 320.020149,100.021947 320.033004,100.161259 C320.154608,101.466942 318.884023,101.329444 318.095683,101.79962 C317.308733,102.269797 316.471057,104.523814 315.293934,104.008652 C315.19804,103.966931 315.082691,103.46628 315.082691,103.46628 L315,104.430214 C315,104.430214 315.316517,105.012493 315.865471,104.999795 C316.220206,104.991088 316.546799,104.758177 316.833437,104.578596 C317.565143,104.122205 318.298587,103.802224 319.103257,103.492038 C320.630947,102.903955 321.81224,101.309491 320.294973,100.036096" id="Fill-131" fill="#FF9E1E"></path>
                <path d="M316.260985,88.7232522 C316.239807,88.4596818 315.321293,87.7072385 315.130087,88.1224456 C314.9649,88.4821642 313.679101,91.8774867 313.016537,94.9475317 C312.70129,96.4103235 312,98.127597 312,98.127597 C312,98.127597 314.810604,99.5870404 315.434443,99.9912454 C315.562721,100.074 315.857395,99.5459023 315.919719,99.4239233 C318.128872,95.108257 316.266431,88.7801757 316.260985,88.7232522" id="Fill-132" fill="#FF9E1E"></path>
                <path d="M320.979781,99.0409573 C320.868398,98.0606062 319.767154,98.1888991 319.077766,98.2929857 C318.329911,98.4051411 317.715641,98.7383798 317.222375,99.2567959 C317.405546,98.9505875 317.633492,98.6645509 317.785949,98.3317156 C317.823323,98.2494146 317.798161,98.1404867 317.713791,98.100143 C316.456019,97.5070911 316.241394,99.7042072 316.249165,100.594995 C316.213641,100.62485 316.188848,100.666807 316.184778,100.724095 C316.141113,101.440599 315.85137,102.179695 316.098928,102.882078 C316.134082,102.98092 316.260637,103.039015 316.349817,102.969624 C316.888968,102.550856 317.283432,102.012672 317.691959,101.466015 C318.257753,100.707958 318.724746,100.440076 319.635789,100.418694 C320.627131,100.396505 321.107445,100.170177 320.979781,99.0409573" id="Fill-133" fill="#FBCBAD"></path>
                <path d="M325.991888,75.553523 C325.991888,75.553523 324.77092,76.1517456 323.070158,75.8066815 C321.54171,75.4962908 321.029243,75 321.029243,75 C321.029243,75 320.871251,77.4200444 321.289728,78.0972224 C321.707758,78.7756536 324.135372,80.6012352 324.881469,79.80082 C326.167782,78.4222344 325.991888,75.553523 325.991888,75.553523" id="Fill-134" fill="#F1AE92"></path>
                <g id="Group-137" transform="translate(189.000000, 0.000000)">
                    <mask id="mask-4" fill="white">
                        <use xlink:href="#path-3"></use>
                    </mask>
                    <g id="Clip-136"></g>
                    <path d="M117.865253,27.9104698 C115.311153,26.3414233 112.062354,26.1770512 109.211153,25.5177953 C105.711771,24.708307 102.203613,22.7411442 99.0127424,21.1195163 C94.9810374,19.071493 93.3564187,14.4580279 91.3605338,10.6708419 C87.9199583,4.14058605 78.4171237,-2.78822791 70.9479151,1.19691163 C68.0910086,2.72044651 67.3177568,6.07372558 66.4514691,8.92549302 C66.1223324,10.0089349 65.464059,11.8364698 64.4942029,12.2023302 C63.9732892,12.3989581 63.1421094,12.1378186 62.6023252,12.0247023 C58.1896993,11.1047488 53.8986345,9.36028372 49.3534763,9.17956279 C47.8249655,9.11991163 45.9765338,9.32979535 44.9684978,10.6337256 C43.9859151,11.9040744 44.259318,13.5623767 44.7644331,15.0222837 C38.618354,16.297493 32.3581741,16.4229814 26.0962388,16.2758419 C22.2563108,16.1852605 18.6507281,16.0522605 14.8652173,16.7835395 C12.7249511,17.1975628 9.10708058,17.8510744 7.99547626,20.0550744 C7.08662014,21.855214 8.64146187,23.2391209 10.3599942,24.1975163 C8.39833957,24.7436558 6.49724604,25.5907023 4.76291511,26.5879814 C2.77931799,27.7284233 0.151929496,29.6796791 0.357310791,32.2840047 C0.614476259,35.5467023 4.96127482,37.0234 7.60753381,37.3357953 C12.4546201,37.9080047 17.0489295,35.0261907 21.8477424,36.8510744 C22.0066058,36.9116093 22.1531813,36.9230977 22.2852748,36.9045395 C39.3859007,38.0184698 56.5128576,37.3441907 73.6209439,36.789214 C81.8892964,36.5210047 90.1910014,36.0667721 98.4488216,36.7313302 C105.918908,37.333586 113.534253,38.3728419 120.93544,36.6535628 C121.317239,36.5651907 121.649447,36.1918186 121.641263,35.785307 C121.577915,32.5941907 120.691001,29.6478651 117.865253,27.9104698" id="Fill-135" fill="#2F364C" opacity="0.5" mask="url(#mask-4)"></path>
                </g>
                <path d="M4.74962518,275.117915 C4.05831355,275.410774 3.38639291,275.745034 2.69463032,276.041379 C2.05202166,276.318113 1.37018005,276.603127 0.833545445,277.054618 C0.561620516,277.284721 0.111118022,277.631619 0.0236330531,277.997257 C-0.074223845,278.405167 0.156213367,278.907211 0.269853636,279.288973 C1.1023137,282.062415 2.58549959,284.655871 4.34376708,286.976079 C7.84271488,291.598192 12.9889956,295.6603 19.1237663,295.981486 C23.9440077,296.234251 28.4327983,293.873513 31.5610624,290.454213 C31.603452,290.408453 31.6255488,290.359208 31.632764,290.310398 C31.719798,290.282507 31.7910487,290.215393 31.8122435,290.099906 C32.0837175,288.606413 32.0562093,287.058882 31.7594819,285.571055 C31.4456183,284.007398 30.7741486,282.560536 30.0327812,281.145488 C29.2796889,279.703856 28.3601948,278.338925 27.2066559,277.167926 C26.188403,276.134205 24.8946176,275.326228 23.5751278,274.700417 C20.9338935,273.44923 17.945425,273.055701 15.0327167,273.003405 C11.4967907,272.94065 7.97800092,273.749062 4.74962518,275.117915" id="Fill-138" fill="#7F66C4"></path>
                <path d="M0.195674593,278.600039 C0.310286673,278.644917 0.540413289,278.770391 0.655025369,278.814353 C0.655927826,278.815268 0.656379055,278.815268 0.657281512,278.815726 C0.68164786,278.828549 0.704209293,278.837249 0.727221955,278.84366 C11.0102719,282.885855 21.3073099,286.888667 31.5754693,290.974824 C31.9702944,291.132812 32.1855305,290.501777 31.7898029,290.345163 C21.4972772,286.248474 11.1758728,282.236503 0.868005297,278.184234 C0.750685845,278.12516 0.647805711,278.083946 0.529583802,278.052348 C0.529583802,278.052348 0.525973972,278.050975 0.525071515,278.050059 L0.525071515,278.050975 C0.498449024,278.043648 0.386544316,278.015713 0.357665682,278.008844 C-0.0114393619,277.924584 -0.143198131,278.46678 0.195674593,278.600039" id="Fill-139" fill="#6750C3"></path>
                <path d="M18,273 C18,273 21.9468557,283.101945 23.4938001,287.773403 C23.6279239,288.178757 24.1124272,287.993607 23.9760429,287.585107 C22.4110144,282.858373 18.6201341,273.122235 18.6201341,273.122235 L18,273 Z" id="Fill-140" fill="#6750C3"></path>
                <path d="M8,274.145448 C8,274.145448 11.2129744,279.38312 12.4327907,281.896176 C12.5385801,282.114736 13.0934346,281.953344 12.9863498,281.733617 C11.7518526,279.190616 8.51901563,274 8.51901563,274 L8,274.145448 Z" id="Fill-141" fill="#6750C3"></path>
                <path d="M17.5084396,285.025356 C13.4744279,286.574454 5,289.657407 5,289.657407 L5.44999963,290 C5.44999963,290 13.7713598,287.027179 17.8542951,285.459027 C18.2045101,285.324124 17.8572014,284.891596 17.5084396,285.025356" id="Fill-142" fill="#6750C3"></path>
                <path d="M91.2362944,173.768253 C88.3612213,173.136068 85.6043697,172.852763 85.0878814,172.57803 C84.4522727,172.238579 79.364706,161.914456 78.2373322,159.945466 C77.0267988,157.829467 74.5760642,154.419094 71.6686264,155.084711 C67.2715087,156.09235 66.8700953,160.596081 67.0269747,163.371697 C68.5112604,167.13395 75.3932754,175.767245 79.1156769,177.353494 C84.1785205,179.510211 101.789467,178.9286 101.789467,178.9286 C101.789467,178.9286 101.745864,179.062323 101.880268,178.58272 C102.091089,177.827526 103,177.048759 103,177.048759 C103,177.048759 92.802391,174.11199 91.2362944,173.768253" id="Fill-143" fill="#C62B5F"></path>
                <path d="M160.781366,155.85988 C154.397212,150.803771 141.333559,140 141.333559,140 L141,141.112966 C141,141.112966 153.716385,151.776266 160.178632,156.893318 C160.735257,157.33375 161.33176,156.29599 160.781366,155.85988" id="Fill-144" fill="#5C149F"></path>
                <path d="M168,178.000444 C168,198.98703 150.987474,216 130,216 C109.012526,216 92,198.98703 92,178.000444 C92,157.01297 109.012526,140 130,140 C150.987474,140 168,157.01297 168,178.000444" id="Fill-145" fill="#FFAF00"></path>
                <path d="M128,142.064661 C108.185216,142.064661 92.064661,158.185216 92.064661,178.000438 C92.064661,197.815222 108.185216,213.935339 128,213.935339 C147.814784,213.935339 163.935339,197.815222 163.935339,178.000438 C163.935339,158.185216 147.814784,142.064661 128,142.064661 M128,217 C106.495274,217 89,199.504726 89,178.000438 C89,156.495712 106.495274,139 128,139 C149.504726,139 167,156.495712 167,178.000438 C167,199.504726 149.504726,217 128,217" id="Fill-146" fill="#FF9A00"></path>
                <path d="M162,176.999553 C162,195.225549 147.226443,210 129.000447,210 C110.774898,210 96,195.225549 96,176.999553 C96,158.774004 110.774898,144 129.000447,144 C147.226443,144 162,158.774004 162,176.999553" id="Fill-147" fill="#FFDE00"></path>
                <path d="M147,210.329721 C147,210.329721 144.922843,211.61209 141.642445,213.003918 C138.399329,214.379284 134.972021,215 134.972021,215 L97,156.944101 C99.2986312,153.820941 99.1042307,154.152435 100.724679,152.357029 C103.365065,149.431875 105.737817,148 105.737817,148 L147,210.329721 Z" id="Fill-148" fill="#FFFFFF" opacity="0.400000006"></path>
                <path d="M155,203.176068 C155,203.176068 153.198107,205.122435 152.374523,205.855195 C151.72158,206.433714 149.708817,208 149.708817,208 L109,145.931042 C109,145.931042 110.905339,144.872561 112.145798,144.328515 C113.843804,143.581612 115.551093,143 115.551093,143 L155,203.176068 Z" id="Fill-151" fill="#FFFFFF" opacity="0.400000006"></path>
                <path d="M163,194.549683 C163,194.549683 162.099653,196.236969 161.793322,196.792613 C160.942254,198.340879 158.82635,201 158.82635,201 L120,143.184478 C120,143.184478 121.693256,142.7462 123.798505,142.4019 C124.971886,142.210045 127.678698,142 127.678698,142 L163,194.549683 Z" id="Fill-154" fill="#FFFFFF" opacity="0.400000006"></path>
                <path d="M78.7218325,142.886592 C78.1004354,140.77575 77.037742,138.449582 77.037742,138.449582 C77.037742,138.449582 74.2625996,137.7295 71.89343,137.163221 C68.9680378,136.463647 67.8366872,138.06414 66.2943886,140.981754 C65.2371678,142.983535 67.225738,149.543506 69.1143074,151.88925 C69.1655515,151.951703 69.2237609,151.996446 69.2844578,152.026741 C68.3411681,154.140846 66.9436466,156.23491 66.9406615,158.54663 C66.9361838,160.78471 69.3411746,162.32741 71.3939242,163.189178 C71.6516373,163.295909 73.4591118,165.218924 73.4347335,164.979363 C72.9033868,159.660077 73.8640895,154.995157 74.3989189,151.851964 C77.7939658,152.160504 77.6213279,150.473787 78.2631231,149.301149 C79.0581531,147.847002 79.2079053,144.538819 78.7218325,142.886592" id="Fill-157" fill="#FBCBAD"></path>
                <path d="M74.9916562,157.403837 C75.2315129,153.825841 70.2374203,153.257564 68.085168,154.820876 C63.5970808,158.085506 51.4893931,186.13592 49.0050315,188.449025 C48.8763392,188.569449 51.2338535,192.141731 54.0660072,192.499927 C62.0518504,193.510784 67.6068385,197 67.6068385,197 C67.6068385,197 72.9233537,188.211694 74.9916562,157.403837" id="Fill-158" fill="#F34684"></path>
                <path d="M69.5128059,152.286778 C71.7881614,147.66524 68.9488888,143.847118 69.7879835,140.761929 C72.5441342,141.266015 75.0281696,144.485033 72.1416487,147.497508 C74.9778589,146.968886 73.5118493,144.196856 73.3561049,141.731738 C74.657183,140.726241 75.8843263,139.977249 78,139.681042 C77.8639424,137.444325 76.1905652,136.340687 74.7376801,135.389168 C72.8718099,134.195419 70.690076,134.755714 68.1771666,134.774003 C68.138668,132.462342 62.3437519,130.88183 57.4273041,140.198065 C55.8987342,143.095449 58.5866373,148.352225 56.9976946,149.6343 C53.0568366,152.812277 49.1986632,164.517348 51.9040657,167.956736 C53.7725608,170.333527 59.0210591,170.910327 60.3107626,168.210564 C60.7521842,167.287148 63.6452674,161.272011 63.6452674,161.272011 C63.6452674,161.272011 60.9031163,157.736267 62.3306273,155.283194 C63.6452674,153.022387 64.865411,151.328567 63.4514619,148.245609 C60.8886793,142.660506 66.2093625,135.655932 66.723844,136.009685 C63.3175918,140.882374 64.0648148,144.27403 69.1811929,149.698092 L69.5128059,152.286778 Z" id="Fill-159" fill="#3A0E72"></path>
                <path d="M70.7504312,176.455033 C69.941454,173.858894 68.5506259,166.876026 68.5234048,167.001674 C67.6102219,171.362573 68.0253437,177.849855 68.7526575,182.175293 C68.8738765,182.902913 69.0763334,191.847113 70.2919257,190.934744 C71.2561482,190.211502 71.9077533,187.014268 72.211864,185.885626 C72.614226,184.389235 73,183.604264 73,183.604264 C73,183.604264 71.6568088,179.357192 70.7504312,176.455033" id="Fill-160" fill="#C62B5F"></path>
                <path d="M79.6258328,253.620843 C83.1654846,253.829807 79.6166989,254.381294 83,253.576323 L82.0285837,245 L78,245.76406 L79.6258328,253.620843 Z" id="Fill-161" fill="#FBCBAD"></path>
                <path d="M91.3206049,256.793373 C92.4014804,256.207267 91.8686976,255.336698 91.8686976,255.336698 C90.6832048,254.076537 86.0596296,254.399479 85.5646111,254.077225 C84.029033,253.056522 84.3372714,252.663495 83.8509284,251 C83.8509284,251 82.8466022,251.220219 80.4541827,251 C80.0959322,252.136824 77.4896852,255.285852 80.2628096,256.370112 C82.179603,257.118376 90.7230104,257.117689 91.3206049,256.793373" id="Fill-162" fill="#F34684"></path>
                <path d="M42.0121073,254 L43,249.90201 L41.1345168,248 L38,252.159129 C38,252.159129 41.1300602,253.879397 42.0121073,254" id="Fill-163" fill="#F3AF9D"></path>
                <path d="M49.9948464,254.692946 C49.8845009,253.753078 45.438003,253.776596 44.6130164,253.168446 C43.8765903,252.62466 43.6686861,249.819085 43.6686861,249.819085 L40.8499029,248 C40.8499029,248 37.3889372,250.369473 37.0929461,251.194229 C36.2130235,253.642506 41.8704805,256.573093 41.8704805,256.573093 C41.8704805,256.573093 45.2220478,257.07067 47.4081203,256.991454 C48.2222144,256.961748 50.1113485,255.675722 49.9948464,254.692946" id="Fill-164" fill="#F34684"></path>
                <path d="M48.9414814,191.501515 C47.6077135,192.587851 45.1065659,199.87884 55.9998913,223.981336 C48.184526,227.25857 43.8726309,242.870897 41.0085351,248.028712 C40.8394846,248.332087 43.2376934,250 43.2376934,250 C43.2376934,250 59.3467348,236.30905 66.5524537,226.023802 C67.9141749,224.081593 73.4360451,200.359293 69.7550941,198.849361 C65.472927,197.092041 52.1192745,188.914362 48.9414814,191.501515" id="Fill-165" fill="#3A0E72"></path>
                <path d="M86.8604406,217.833911 C85.7376828,214.021395 80.1765949,207.80102 77.2977524,204.640208 C71.440623,198.210262 51.71354,184.940513 51.628302,185 C43.7552496,190.50653 45.2175843,199.150238 49.4822308,205.474514 C54.0782053,212.292653 63.9296027,214.312761 77.7193593,220.6335 C71.7490377,229.172864 79.688539,249.939428 79.688539,249.939428 L82.8015567,250 C82.8015567,250 87.898877,221.357272 86.8604406,217.833911" id="Fill-166" fill="#5C149F"></path>
                <path d="M106.005458,189.420645 C104.936683,188.375291 103.260594,189.529471 102.302062,190.171856 C102.192794,190.243371 102.160112,190.364634 102.176209,190.478435 C102.015234,190.574202 101.918162,190.857772 102.092795,191.051794 C102.846938,191.890688 104.309369,191.333498 105.237657,191.636968 C105.630826,191.766315 106.850332,192.43171 106.984478,191.553016 C107.111794,190.720962 106.426432,189.832319 106.005458,189.420645" id="Fill-167" fill="#F1AE92"></path>
                <path d="M105.668924,189.448654 L102.958859,188.942578 C102.958859,188.942578 98.9426462,188.673963 97.7495454,188.188097 C96.7555494,187.783489 95.6648016,187.374671 94.6280312,187.023113 C94.5007263,186.978905 94.3993917,187.002904 94.3250457,187.05469 C94.2033423,187 94.0495581,186.991957 93.9141057,187.079531 C91.94801,188.34514 93.5052026,189.518123 95.2818687,190.099983 C96.3176208,190.437648 97.3701771,190.386282 98.3163065,190.870885 C98.8530236,191.146658 101.338523,191.989555 101.338523,191.989555 C101.338523,191.989555 103.272538,192.075445 104.795613,191.754622 C106.832999,191.324753 105.668924,189.448654 105.668924,189.448654" id="Fill-168" fill="#FBCBAD"></path>
                <path d="M88.4118268,183.677333 C85.4448635,182.607718 80.6464022,181.528821 80.1381807,181.160644 C79.5118419,180.706278 77.7183587,172.304053 77.0463117,169.32239 C76.1267159,165.246361 74.974506,161.695415 74.4626641,158.807012 C73.9349827,155.833305 71.6943732,162.017184 69.4419973,162.256742 C64.6272439,162.769008 64.2271836,166.415424 64,169.457639 C65.040881,173.748918 71.1218887,184.058328 74.8496002,186.278443 C79.9232162,189.299001 98.6441394,192 98.6441394,192 C98.6441394,192 98.4409413,191.269391 98.8636295,190.638672 C99.3451501,189.920438 100,189.819665 100,189.819665 C100,189.819665 90.0260975,184.259434 88.4118268,183.677333" id="Fill-169" fill="#F34684"></path>
                <polygon id="Fill-170" fill="#FAE750" points="26 308 58 308 58 292 26 292"></polygon>
                <polygon id="Fill-171" fill="#FFAF00" points="152 295 258 295 258 279 152 279"></polygon>
                <polygon id="Fill-172" fill="#FFDE00" points="241 295 249 295 249 279 241 279"></polygon>
                <polygon id="Fill-173" fill="#FF9A00" points="167 295 194 295 194 279 167 279"></polygon>
                <polygon id="Fill-174" fill="#FE9100" points="152 298 258 298 258 296 152 296"></polygon>
                <polygon id="Fill-175" fill="#FFAF00" points="159 279 265 279 265 263 159 263"></polygon>
                <polygon id="Fill-176" fill="#FFDE00" points="247 279 255 279 255 263 247 263"></polygon>
                <polygon id="Fill-177" fill="#FF9A00" points="174 279 201 279 201 263 174 263"></polygon>
                <polygon id="Fill-178" fill="#FE9100" points="159 279 265 279 265 277 159 277"></polygon>
                <polygon id="Fill-179" fill="#FFAF00" points="153 229 259 229 259 213 153 213"></polygon>
                <polygon id="Fill-180" fill="#FFDE00" points="241 229 249 229 249 213 241 213"></polygon>
                <polygon id="Fill-181" fill="#FF9A00" points="168 229 195 229 195 213 168 213"></polygon>
                <polygon id="Fill-182" fill="#FE9100" points="153 231 259 231 259 229 153 229"></polygon>
                <polygon id="Fill-183" fill="#FFAF00" points="154 262 260 262 260 246 154 246"></polygon>
                <polygon id="Fill-184" fill="#FFDE00" points="242 262 250 262 250 246 242 246"></polygon>
                <polygon id="Fill-185" fill="#FF9A00" points="169 262 196 262 196 246 169 246"></polygon>
                <polygon id="Fill-186" fill="#FE9100" points="154 265 260 265 260 263 154 263"></polygon>
                <polygon id="Fill-187" fill="#FFAF00" points="152 247 258 247 258 231 152 231"></polygon>
                <polygon id="Fill-188" fill="#FFDE00" points="237 247 245 247 245 231 237 231"></polygon>
                <polygon id="Fill-189" fill="#FF9A00" points="165 247 192 247 192 231 165 231"></polygon>
                <polygon id="Fill-190" fill="#FE9100" points="152 247 258 247 258 245 152 245"></polygon>
                <path d="M203.046508,168.713171 C203.046508,168.713171 206.511878,171.358604 206.570781,171.622973 L205.704203,173.280269 C207.509928,173.709328 206.906763,174.828783 206.89027,176.713177 C206.89027,178.292895 206.924198,179.839676 206.89027,181.449298 C206.824299,184.606568 207.258295,187.917692 206.640051,191.01342 C205.052031,191.533925 199.903925,192.192683 197.998301,191.946949 C198.216005,189.356991 199.703655,185.648012 199.402544,182.951872 L191.145311,182.874728 C190.710373,179.333906 191.261703,174.920229 192.666418,172.115742 C194.403815,168.621292 198.355959,167.578548 203.153004,168.145426 L203.046508,168.713171 Z" id="Fill-191" fill="#7F66C4"></path>
                <path d="M219.986745,184.822692 C220.101821,182.865439 219.446027,175.17372 218.85632,173.535239 C217.67552,170.257849 211.991044,170.242833 208.138541,170 L207.626938,172.746246 L207.954142,174.202387 C206.757167,175.568002 207.069582,176.281485 207.085295,178.450252 C207.085295,181.833613 206.78998,189.480713 207.298347,192 C209.593859,191.558524 211.708669,191.104177 213.988005,190.709466 C216.741048,190.2238 216.379645,188.858185 218.133513,187.113733 C218.133513,187.113733 218.495379,187.615274 219.3975,187.007762 L219.986745,184.822692 Z" id="Fill-192" fill="#7F66C4"></path>
                <path d="M207.761564,169.822673 L207.229951,171.640245 C206.274778,172.312831 206.463027,172.140487 205.934296,173 L205.150564,171.796239 L201.608401,168.905711 L201.576706,168.812026 C202.003148,167.45183 202.304732,165.333759 203.075498,163.211711 C205.786386,155.748306 198.867739,158.334358 200.163394,155.537073 C200.640741,155.271044 201.763515,154.842392 202.650496,154.762848 C203.502421,154.685072 203.342985,155.154822 203.956236,155.404058 L203.770388,155.561378 C204.589657,156.528275 203.188351,153.894496 204.381238,154.348337 C204.993529,154.582991 211.391608,153.624048 211.315252,154.171574 C211.673022,155.7978 213.447465,163.789286 209.314622,163.587775 L207.761564,169.822673 Z" id="Fill-193" fill="#F1AE92"></path>
                <path d="M213.656218,155.025063 C212.901333,155.262216 206.390623,155.988861 206.390623,155.988861 C206.390623,155.988861 206.328122,159.951687 207.300208,161.682771 C207.607392,162.22809 212.341044,159.956153 212.304696,160.586775 C212.153985,163.211539 212.304696,165.500447 210.748827,165.818438 C207.745248,166.432982 206.509862,165.379861 206.027144,164.26868 C205.216851,162.40361 205.216851,157.02501 204.70931,156.478799 C204.410991,156.157235 203.213283,155.966976 202.963724,156.541772 C201.741636,159.356347 206.876001,158.163435 203.699991,165.445067 C203.024894,158.512243 199.394978,157.67841 200.087362,154.077343 C201.32851,147.555406 208.566622,152.48203 209.615393,151.802726 C216.583555,147.299495 217.536136,152.526245 216.785242,153.556142 C216.389404,154.099227 214.725378,154.694567 213.656218,155.025063" id="Fill-194" fill="#010644"></path>
                <path d="M258,219.545238 L258.316248,216.585814 C259.81823,215.936894 260.355152,215.471044 261.43016,213.962615 C262.615118,212.312198 262.915048,211.550006 264.448111,211 C265.048749,211.762191 265.175015,211.254463 264.74843,213.242701 L263.695178,219.835996 C261.655885,220.075303 259.327152,220.110002 258,219.545238" id="Fill-195" fill="#5C149F"></path>
                <path d="M222.292811,246.607508 C221.054696,253.029717 222.950148,252.210781 223,257.97048 C221.647937,257.774027 222.355126,258.937101 220.422641,255.306176 C219.500375,253.548684 219.111528,252.518112 218.000536,251.288787 C217.962435,248.087114 219.964713,247.479353 220.710004,245 C221.580637,246.521933 221.118079,245.513906 222.292811,246.607508" id="Fill-196" fill="#5C149F"></path>
                <path d="M257,216.356395 L256.694642,220 C254.60622,219.704878 252.432372,219.567383 251,218.404572 C251.273885,217.570275 251.315474,217.519697 251.650806,216.721246 C252.077182,215.662538 252.031472,214.811054 253.037467,215.036447 L257,216.356395 Z" id="Fill-197" fill="#FBCBAD"></path>
                <path d="M207.371753,190.835469 L205.880165,191 C206.460153,188.000663 206.052834,184.794402 206.11526,181.736724 C206.147137,180.177874 206.11526,178.679465 206.11526,177.150415 C206.131198,175.325462 206.697462,174.241318 205,173.825793 L205.031877,172.178382 L205.769923,172.148162 L206.493359,173.291486 C206.979486,172.475126 206.806375,172.638818 207.686541,172 L208,173.424958 C206.853306,174.760515 207.152597,175.458514 207.167651,177.580631 C207.167651,180.890563 206.88474,188.371697 207.371753,190.835469" id="Fill-198" fill="#3A0E72"></path>
                <path d="M217,196.345067 C214.327006,196.585979 201.256837,199.082231 198,198.997912 L206.438955,195.733953 C209.57927,194.910033 214.180427,193.482628 217,193 L216.351103,195.601049 C216.731548,196.268376 215.1793,196.379597 216.318576,196.421757 L217,196.345067 Z" id="Fill-199" fill="#7F66C4"></path>
                <path d="M224,246.167625 L223.120172,249 C221.546972,247.898109 222.166428,248.914241 221,247.380308 L221.835002,244 C223.543157,244.373632 222.985217,244.947988 224,246.167625" id="Fill-200" fill="#FBCBAD"></path>
                <path d="M235,212.699478 L222.868725,245 C222.132239,244.630565 221.539252,243.260741 220.864581,242.965715 C219.924545,241.820859 219.922338,227.198379 220.091005,225.091861 C220.584646,218.995534 222.868725,218.438989 223.683806,215.550087 L218.326617,215.512665 C218.326617,215.512665 201.318547,214.829929 203.135921,214.84864 C205.203205,214.84864 211.794052,212.259985 213.54961,211.631642 C214.253864,211.391879 214.744414,211.274391 215.449109,211.016352 L218.060369,210.342319 L228.478032,207 L235,212.699478 Z" id="Fill-201" fill="#010644"></path>
                <path d="M232.037598,196.632293 C232.037598,196.632293 251.587191,214.042088 254,215.504288 C254,215.504288 253.680166,219.058733 252.858499,218.999262 C249.256906,218.739401 239.571324,215.420685 234.198375,212.525588 C230.421475,210.490661 229.896893,207.177546 229.896893,207.177546 L222.766417,209.52491 L214.257575,208.884524 C214.620233,207.909724 212.969317,208.214403 216.143572,208.168723 L212.951474,206.644466 C209.920854,205.791193 211.917477,207.63478 210.084117,205.287847 C208.83199,205.242598 207.362625,205.364556 206.220233,205.013766 C205.947682,204.921974 205.003346,204.358727 204.985503,204.343644 L198,202.149266 C198.381392,201.249882 198.526366,201.615324 198.471945,201.036132 L198.14542,200.320762 C198.127131,200.18329 198.035686,200.122096 198,200.031166 C198,200.031166 216.792608,196.442677 220.113175,196.183247 C223.959662,195.863485 228.5899,195.931575 232.037598,196.632293" id="Fill-202" fill="#350D98"></path>
                <path d="M221,209.87148 C221,209.87148 204.935018,215.061289 202.860929,214.999452 C199.204112,214.889221 194.663469,211.345705 193.359237,209.221746 C191.345903,205.94126 191.974737,203.770699 191,200.094548 L196.379237,200 C196.410723,200.094548 196.488773,200.158177 196.505181,200.301118 L196.787225,201.044952 C196.83512,201.647188 198.689249,200.967432 198.359311,201.902153 L203.086653,202.754873 C203.103505,202.770557 204.742997,202.728884 204.978477,202.823431 C205.969179,203.187283 209.735532,203.526489 210.820692,203.573987 C212.409629,206.014747 210.827788,204.426707 213.454434,205.314378 L215.514775,206.98666 C212.761741,207.033261 215.482402,205.68988 215.167098,206.704362 L221,209.87148 Z" id="Fill-203" fill="#350D98"></path>
                <path d="M228.165761,195.288005 C224.114142,195.703365 221.080393,195.732255 217.600056,195.991322 C216.723045,196.056208 217.069416,195.749779 217.058332,195.321158 L217.92426,192.149834 C221.954634,190.072561 221.10487,192.927036 221.973569,187.852256 L218.844221,187.734326 L219.238623,185.540543 L220.140111,181 L231,181.437146 L228.165761,195.288005 Z" id="Fill-204" fill="#010644"></path>
                <path d="M227.351282,188.200986 C227.631828,187.943723 228.847907,187.94949 229.233659,188.127356 C231.119995,188.999832 229.109223,192.212071 227.648797,192.989183 C227.342797,193.151968 226.153302,191.437177 226.016423,190.559822 C225.876149,189.670047 226.661227,188.831724 227.351282,188.200986" id="Fill-205" fill="#F1AE92"></path>
                <path d="M213.263218,190.722311 C215.878134,190.2276 215.53536,188.836987 217.200954,187.059609 L218.400884,186.951664 L218.026509,188.975961 L221,189.08478 C220.174445,193.767498 220.549258,191.340701 216.719051,193.257491 C213.713521,193.782794 198.057378,202.124718 192.35442,199.48509 C191.418703,199.051999 191,184 191,184 L198.691137,184.077353 C198.971589,186.796957 197.586008,190.536576 197.382801,193.148671 C199.158118,193.396027 211.099043,191.124374 213.263218,190.722311" id="Fill-206" fill="#F1AE92"></path>
                <path d="M228.126554,196.382534 C223.907517,196.788486 222.886061,196.734791 219.261431,196.987991 C218.34818,197.050943 218.01058,196.865788 218,196.446876 L218.872373,192.832189 C221.483242,191.307901 220.560854,193.734819 221.579905,189.167973 L219.967409,189.110575 L221.206718,183 L231,183.204596 L228.126554,196.382534 Z" id="Fill-207" fill="#3A0E72"></path>
                <path d="M162.95184,270.976823 C163.202865,269.659932 163.374179,268.329765 163.619479,267.010661 C163.848044,265.781385 164.101711,264.487504 163.958142,263.23212 C163.886358,262.595357 163.815455,261.574501 163.351719,261.064736 C162.835576,260.497446 161.848651,260.31071 161.159433,260.080165 C156.148621,258.406616 150.756866,257.872513 145.500754,258.024735 C135.031687,258.32431 123.757579,261.617866 117.123911,270.252887 C111.911838,277.039126 110.968072,286.06178 112.981557,294.200312 C113.009302,294.310495 113.060829,294.394128 113.126007,294.456964 C113.081087,294.610955 113.111034,294.785744 113.263851,294.936638 C115.240343,296.890735 117.599098,298.462066 120.137093,299.578504 C122.806326,300.751139 125.658323,301.276834 128.5319,301.668449 C131.456562,302.068916 134.434512,302.146354 137.35477,301.67907 C139.931961,301.267541 142.445735,300.218807 144.710245,298.939528 C149.242348,296.380086 152.830686,292.421889 155.828013,288.217217 C159.467877,283.113377 161.775546,277.12453 162.95184,270.976823" id="Fill-208" fill="#5C149F"></path>
                <path d="M162.128409,264.098928 C161.947469,264.222016 161.531531,264.436083 161.351038,264.56051 C161.348804,264.56051 161.347017,264.561848 161.344783,264.563186 C161.303234,264.586376 161.266599,264.611351 161.234432,264.639001 C144.907401,275.743736 128.6246,286.908677 112.247531,297.946961 C111.617146,298.371527 112.316333,299.317437 112.946272,298.89287 C129.361316,287.827827 145.683879,276.635236 162.049778,265.504635 C162.254843,265.391358 162.419253,265.280757 162.585896,265.138491 C162.587683,265.137599 162.590811,265.135369 162.593045,265.134032 C162.592151,265.133586 162.592598,265.133586 162.592598,265.133586 C162.629679,265.101476 162.785154,264.96367 162.822682,264.928884 C163.320825,264.467302 162.666314,263.732784 162.128409,264.098928" id="Fill-209" fill="#3A0E72"></path>
                <path d="M151,297.083816 C151,297.083816 131.450732,293.937069 122.744792,292.019073 C121.988445,291.851612 121.677424,292.837395 122.439956,293.004856 C131.249717,294.946475 150.074889,298 150.074889,298 L151,297.083816 Z" id="Fill-210" fill="#3A0E72"></path>
                <path d="M162,277.814847 C162,277.814847 149.977342,276.325921 144.540112,275.00739 C144.067121,274.891978 143.763799,276.164779 144.23896,276.28128 C149.742583,277.615053 161.706659,279 161.706659,279 L162,277.814847 Z" id="Fill-211" fill="#3A0E72"></path>
                <path d="M132.12661,282.565063 C133.275101,275.547679 136,261 136,261 L134.940599,261.197631 C134.940599,261.197631 132.168616,275.417758 131.006276,282.521051 C130.906568,283.132141 132.02644,283.171075 132.12661,282.565063" id="Fill-212" fill="#3A0E72"></path>
                <path d="M140.77374,248.584949 C140.306094,247.749867 139.790685,246.94728 139.319131,246.115314 C138.881011,245.338545 138.425089,244.516373 137.776811,243.90208 C137.447244,243.588702 136.943558,243.067888 136.462886,243.007795 C135.930542,242.942359 135.318738,243.304703 134.84675,243.50457 C131.412569,244.949048 128.2971,247.193442 125.564606,249.745873 C120.124801,254.829812 115.619854,261.91955 116.025408,269.732195 C116.344119,275.872006 119.959366,281.219468 124.745248,284.697343 C124.81038,284.744083 124.876814,284.765005 124.939775,284.768566 C124.987104,284.874064 125.082631,284.953744 125.232434,284.965762 C127.177702,285.097969 129.15076,284.844239 131.01266,284.257545 C132.969653,283.641027 134.729513,282.585601 136.439439,281.448269 C138.179325,280.291797 139.801974,278.934121 141.144557,277.307136 C142.329521,275.872006 143.190563,274.119491 143.814525,272.360299 C145.061147,268.838355 145.16666,265.000361 144.845344,261.305258 C144.455856,256.819586 142.952615,252.47992 140.77374,248.584949" id="Fill-213" fill="#F46FA1"></path>
                <path d="M135.092423,243.308597 C135.048213,243.458551 135.003517,243.609839 134.960278,243.761572 C134.960278,243.762907 134.960764,243.763352 134.960764,243.763352 C134.945704,243.796725 134.936473,243.826982 134.931615,243.85635 C130.962409,257.406889 127.050044,270.967662 123.018167,284.504852 C122.862702,285.025017 123.751765,285.210568 123.907716,284.690848 C127.948824,271.12162 131.871391,257.52792 135.850313,243.946678 C135.912499,243.790495 135.952823,243.653446 135.980029,243.500823 C135.980515,243.498598 135.981001,243.495483 135.981972,243.494593 C135.981001,243.495483 135.981001,243.494593 135.981001,243.494593 C135.986831,243.459441 135.992661,243.426068 135.997033,243.389581 C136.055818,242.909908 135.223111,242.861852 135.092423,243.308597" id="Fill-214" fill="#F34684"></path>
                <path d="M143.979231,260 C143.979231,260 132.627113,267.889493 127.230308,271.130231 C126.760746,271.411834 127.080409,272.224447 127.553132,271.940799 C133.016308,268.660197 144,261.025731 144,261.025731 L143.979231,260 Z" id="Fill-215" fill="#F34684"></path>
                <path d="M128.968159,261.418163 C127.10515,257.731468 123.418538,250 123.418538,250 L123,250.562624 C123,250.562624 126.584729,258.16291 128.471522,261.893818 C128.634465,262.214485 129.129326,261.7364 128.968159,261.418163" id="Fill-216" fill="#F34684"></path>
                <polygon id="Fill-217" fill="#FFAF00" points="24 308 130 308 130 292 24 292"></polygon>
                <polygon id="Fill-218" fill="#FFDE00" points="114 308 122 308 122 292 114 292"></polygon>
                <polygon id="Fill-219" fill="#FF9A00" points="41 308 68 308 68 292 41 292"></polygon>
                <polygon id="Fill-220" fill="#FE9100" points="24 310 130 310 130 308 24 308"></polygon>
                <polygon id="Fill-221" fill="#FFAF00" points="21 290 127 290 127 274 21 274"></polygon>
                <polygon id="Fill-222" fill="#FFDE00" points="109 290 117 290 117 274 109 274"></polygon>
                <polygon id="Fill-223" fill="#FF9A00" points="37 290 64 290 64 274 37 274"></polygon>
                <polygon id="Fill-224" fill="#FE9100" points="21 293 127 293 127 291 21 291"></polygon>
                <polygon id="Fill-225" fill="#FFAF00" points="27 274 133 274 133 258 27 258"></polygon>
                <polygon id="Fill-226" fill="#FFDE00" points="115 274 123 274 123 258 115 258"></polygon>
                <polygon id="Fill-227" fill="#FF9A00" points="42 274 69 274 69 258 42 258"></polygon>
                <polygon id="Fill-228" fill="#FE9100" points="27 275 133 275 133 273 27 273"></polygon>
                <polygon id="Fill-229" fill="#FFAF00" points="277 291 383 291 383 275 277 275"></polygon>
                <polygon id="Fill-230" fill="#FFDE00" points="363 291 371 291 371 275 363 275"></polygon>
                <polygon id="Fill-231" fill="#FF9A00" points="288 291 315 291 315 275 288 275"></polygon>
                <polygon id="Fill-232" fill="#FE9100" points="277 294 383 294 383 292 277 292"></polygon>
                <polygon id="Fill-233" fill="#FFAF00" points="271 274 377 274 377 258 271 258"></polygon>
                <polygon id="Fill-234" fill="#FFDE00" points="360 274 368 274 368 258 360 258"></polygon>
                <polygon id="Fill-235" fill="#FF9A00" points="286 274 313 274 313 258 286 258"></polygon>
                <polygon id="Fill-236" fill="#FE9100" points="271 277 377 277 377 275 271 275"></polygon>
                <polygon id="Fill-237" fill="#FFAF00" points="272 259 378 259 378 243 272 243"></polygon>
                <polygon id="Fill-238" fill="#FFDE00" points="361 259 369 259 369 243 361 243"></polygon>
                <polygon id="Fill-239" fill="#FF9A00" points="286 259 313 259 313 243 286 243"></polygon>
                <polygon id="Fill-240" fill="#FE9100" points="272 259 378 259 378 257 272 257"></polygon>
                <polygon id="Fill-241" fill="#FFAF00" points="277 242 383 242 383 226 277 226"></polygon>
                <polygon id="Fill-242" fill="#FFDE00" points="363 242 371 242 371 226 363 226"></polygon>
                <polygon id="Fill-243" fill="#FF9A00" points="290 242 317 242 317 226 290 226"></polygon>
                <polygon id="Fill-244" fill="#FE9100" points="277 244 383 244 383 242 277 242"></polygon>
                <polygon id="Fill-245" fill="#FFAF00" points="271 225 377 225 377 209 271 209"></polygon>
                <polygon id="Fill-246" fill="#FFDE00" points="360 225 368 225 368 209 360 209"></polygon>
                <polygon id="Fill-247" fill="#FF9A00" points="286 225 313 225 313 209 286 209"></polygon>
                <polygon id="Fill-248" fill="#FE9100" points="271 225 377 225 377 223 271 223"></polygon>
                <polygon id="Fill-249" fill="#FFAF00" points="277 210 383 210 383 194 277 194"></polygon>
                <polygon id="Fill-250" fill="#FFDE00" points="365 210 373 210 373 194 365 194"></polygon>
                <polygon id="Fill-251" fill="#FF9A00" points="292 210 319 210 319 194 292 194"></polygon>
                <polygon id="Fill-252" fill="#FE9100" points="277 210 383 210 383 208 277 208"></polygon>
                <polygon id="Fill-253" fill="#FFAF00" points="278 194 384 194 384 178 278 178"></polygon>
                <polygon id="Fill-254" fill="#FFDE00" points="368 194 376 194 376 178 368 178"></polygon>
                <polygon id="Fill-255" fill="#FF9A00" points="295 194 322 194 322 178 295 178"></polygon>
                <polygon id="Fill-256" fill="#FE9100" points="278 195 384 195 384 193 278 193"></polygon>
                <path d="M375.666762,227.334762 C377.163822,231.681987 383.597386,257.945346 383.597386,257.945346 C383.597386,257.945346 385.796193,258.611235 386.291388,255.294423 C386.900893,251.218786 388.327778,239.422268 388.102248,235.292494 C387.755347,228.983243 387.04389,230.135014 385.361022,228.144115 C391.738092,228.450442 398.271842,226.164494 403.260425,221.168523 C403.426372,221.32101 403.685004,221.334093 403.830649,221.054835 C404.989194,218.804528 407.129301,217.23229 407.857971,214.619263 C408.538091,212.183085 406.638961,211.297489 405.062458,210.904993 C402.517632,210.269782 400.784891,209.70495 398.204757,210.171884 C394.604662,210.822885 390.11613,212.876042 386.779521,214.599413 C383.481752,216.302482 380.330069,218.227063 377.374347,220.749862 C376.557407,221.445526 375.258954,222.43669 375.049754,223.773881 C374.853795,225.028062 375.273519,226.195623 375.666762,227.334762" id="Fill-257" fill="#00388A"></path>
                <path d="M383.126083,175.553861 C384.343394,176.343465 385.911784,176.870695 386.823863,178.374514 C387.776961,179.944796 387.929778,182.179694 388.551906,183.981599 C388.805262,184.713173 389.368273,186.3519 390.198313,185.932299 C390.804757,185.627765 391.144575,184.875856 390.940684,183.99995 C390.922587,183.922577 390.890818,183.866035 390.852613,183.826356 C390.476602,182.458932 390.18464,181.050837 389.811444,179.681429 C389.570153,178.796596 389.317602,177.516464 388.824967,176.827544 C387.560604,175.062838 385.357217,174.579255 383.686681,174.010858 C383.606653,173.984075 383.497268,174.004411 383.442174,174.099143 C383.245522,174.441867 383.119246,174.75632 383.010665,175.166002 C382.975276,175.299917 383.031577,175.492359 383.126083,175.553861" id="Fill-258" fill="#F1AE92"></path>
                <path d="M387.000595,182.853792 C389.806348,196.274573 397.834529,206.612949 398.695321,207.363768 C399.078374,207.696466 399.433881,208.004887 399.950357,208 C400.533543,207.995895 400.925634,207.253618 401.211848,206.835048 C401.948686,205.749732 402.78968,204.340709 403.424945,203.187505 C404.635219,200.991246 406.116643,196.41035 406.746743,193.952429 C407.986284,189.116613 404.351158,178.663591 402.857253,180.141851 C401.234659,181.746446 400.052791,184.046561 399.326712,186.236075 C398.038967,190.113809 397.378309,194.084159 397.566822,198.085981 C396.57605,195.314693 391.380737,186.013527 390.108056,183.978222 C389.329039,182.733751 389.171944,182.42623 389.171944,182.42623 C389.171944,182.42623 386.958416,182.649677 387.000595,182.853792" id="Fill-259" fill="#010644"></path>
                <path d="M380.125716,175.552889 C381.342945,176.342946 382.912033,176.870147 383.82405,178.373389 C384.777083,179.94408 384.929488,182.178856 385.551574,183.979671 C385.805314,184.712198 386.367885,186.350835 387.197869,185.932745 C387.804674,185.625252 388.145273,184.875367 387.94019,183.998022 C387.922094,183.921645 387.890327,183.864114 387.852125,183.825429 C387.476943,182.457088 387.184197,181.050557 386.81183,179.680232 C386.570958,178.795943 386.317218,177.515385 385.824214,176.826999 C384.561143,175.06338 382.357504,174.579328 380.685875,174.010962 C380.606254,173.984181 380.496876,174.004019 380.441785,174.097755 C380.245549,174.44046 380.119684,174.755888 380.010709,175.165547 C379.975322,175.299455 380.031217,175.491886 380.125716,175.552889" id="Fill-260" fill="#FBCBAD"></path>
                <path d="M393.757191,175.535094 C394.500537,177.098216 395.892222,177.430463 397.738413,177.899623 L398.284106,181 L403.196777,179.756638 C402.610026,177.880892 402.942789,177.978113 403.125642,175.528405 C401.432226,176.127341 401.724408,176.14072 399.87774,175.646141 L399.69632,174.629331 C398.983529,173.560789 399.080923,173.361441 399.487209,172.961407 C400.677899,171.788954 403.082196,172.584117 404.873006,172.609537 L405,172.518559 L400.336543,172.73753 C401.152934,171.92542 400.983927,170.447033 399.725443,170.160274 C398.466004,169.861029 398.723811,169.291081 397.243803,168.640858 C395.545136,167.894305 394.734951,168.638182 393,168 L393.757191,175.535094 Z" id="Fill-261" fill="#FBCBAD"></path>
                <path d="M393.728097,169.108231 C395.340208,169.813448 394.741601,170.861439 396.900845,172.340723 C398.34389,171.809597 397.810957,170.675053 398.981546,171.004548 C400.151247,171.320764 400.13261,172.401704 398.845761,174 L403.883996,173.606082 C404.156897,171.464857 407.537315,172.182861 406.926284,167.399284 C404.767928,165.200521 404.351255,166.163432 401.711884,165.286583 L400.748966,165.11495 C398.669152,164.697918 397.785221,163.978931 395.938814,163.131588 C392.947113,161.752628 393.48049,163.14585 391.335002,163.649436 C391.660264,161.638042 392.77716,161.795905 394.533931,161.22101 C392.297033,160.25859 390.971135,162.628494 390.242068,164.683165 C389.163778,167.757794 391.932721,168.089256 393.728097,169.108231" id="Fill-262" fill="#010644"></path>
                <path d="M400.48734,174.783646 L403.845022,175 L405,172.274367 C403.475332,172.24255 401.328284,171.414255 400.308995,172.800403 C399.862929,173.405982 399.880804,173.513098 400.48734,174.783646" id="Fill-263" fill="#010644"></path>
                <path d="M404.345433,175.656616 L405,175.133146 L400,175 L400.229885,175.742559 C402.570478,176.103584 402.199637,176.093818 404.345433,175.656616" id="Fill-264" fill="#010644"></path>
                <path d="M384.586058,271 L384,272.582681 C385.824038,274.100034 385.498077,272.330044 387,274 C386.990385,273.872916 386.968269,273.726438 386.952404,273.634059 L386.850962,272.489792 C386.845192,272.167744 386.90625,272.154474 386.903846,271.460361 L384.586058,271 Z" id="Fill-265" fill="#FBCBAD"></path>
                <path d="M382.511757,273.418199 C382.511757,273.418199 377.373374,272.296147 377.083079,273.727894 C376.837046,274.941435 377.135317,276.488858 378.006601,276.99783 C378.780588,277.448964 382.123367,278 382.123367,278 L384.8716,276.716002 L385,274.878339 C383.754283,273.157929 384.02464,274.981921 382.511757,273.418199" id="Fill-266" fill="#001C4B"></path>
                <path d="M383,258.106962 L383.379672,259.978336 C385.964775,260.191567 384.625706,258.746654 387,259.316803 C386.916644,259.204152 386.810702,259.080582 386.741866,259.004715 L385.97822,258.000059 C385.78462,257.702915 385.833557,257.648314 385.425383,257 L383,258.106962 Z" id="Fill-267" fill="#F1AE92"></path>
                <path d="M381.286047,260.544689 L381,262 C381.624932,261.752267 381.991753,261.57011 382.85111,261.693491 L383.764518,260.321244 L384.340257,259.739313 L385.9867,260.915317 C386.031642,260.73899 385.953298,260.587435 385.891351,260.641839 C385.871917,260.64864 384.792103,260.184262 384.714973,259.026231 L383.69164,259 C382.607575,260.033679 381.286047,260.544689 381.286047,260.544689" id="Fill-268" fill="#010644"></path>
                <path d="M383.644866,259.515739 L383.547465,259.848408 C383.598561,260.736148 383.301568,260.39491 383.301568,260.39491 C383.301568,260.39491 381.704437,260.822947 381.293677,261.012938 C381.293677,261.012938 378.801178,261.408192 379.012745,262.438611 C379.150862,263.113263 380.610276,263.957044 381.345172,263.998395 C382.407797,264.058372 385.251977,262.417749 385.251977,262.417749 L387,260.236212 L386.332167,259.086957 C384.569773,258.717407 385.563739,259.653948 383.644866,259.515739" id="Fill-269" fill="#010644"></path>
                <path d="M385,271.686198 L387.140295,272 C387.140295,272 396.373542,250.385844 397.098481,243.728984 C397.184565,242.946476 396.289206,239.977565 396.466617,239.433849 C396.775557,238.480459 407.469606,236.630937 414.125147,228.125442 C417.370548,223.979884 417.332094,217.808596 416.583122,212.117997 C416.5805,212.088703 416.573508,212.062072 416.56608,212.037216 C416.626819,211.879206 416.618954,211.686575 416.486551,211.528564 C414.97069,209.722539 412.299909,209.914726 410.378974,210.145528 C408.116326,210.417164 404.87311,210.694571 403.037385,212.386082 C401.067947,214.199653 388.039587,232.231941 387.801873,233.253239 C387.489874,234.593222 387.463219,235.966937 387.410782,237.352637 C387.345673,239.08809 387.126312,240.819104 386.986918,242.546568 C386.342819,250.542079 385,271.686198 385,271.686198" id="Fill-270" fill="#26579B"></path>
                <path d="M412.450815,211.188276 C410.490916,210.416711 409.308899,210.182353 407.230617,210.013224 C405.671225,209.886494 405.044384,210.683684 403.009192,211.844293 C402.796918,211.965432 406.323013,213.48247 407.203856,214.822458 C407.952709,215.960703 408.906578,217.993049 409.754764,219.052553 C411.537768,221.281518 413.294465,223.076245 416.258127,222.997504 C416.347934,222.995641 416.437742,222.934605 416.45906,222.840023 C417.52088,218.189668 417.414744,213.141882 412.450815,211.188276" id="Fill-271" fill="#034C8C"></path>
                <path d="M398.292578,209.04738 C398.392892,209.86987 397.907683,211.343388 398.476415,211.991331 C399.057201,212.656904 404.14436,212.169405 404.868514,212.144721 C408.717034,212.017777 413.791707,217.028091 417.639797,217 C419.844118,216.981809 419.312842,204.321368 416.454975,196.681378 C412.222851,185.370596 410.189882,183.776746 404.135319,179.001366 C404.06342,178.944947 399.832588,180.654721 399.832588,180.654721 C399.832588,180.654721 399.701276,181.815287 399.611726,182.341575 C399.413681,183.509194 399.25826,184.686069 399.111879,185.861181 C398.5862,190.117766 398.259857,194.39683 398.110463,198.683828 C397.990775,202.138199 397.877115,205.6102 398.292578,209.04738" id="Fill-272" fill="#001C4B"></path>
                <path d="M386.000595,183.827141 C388.806354,197.126848 392.168187,207.187049 396.000013,209.405077 C396.435145,209.656326 399.151812,210.82793 400.950442,208.967619 C403.572852,206.25333 405.117117,197.2596 405.746788,194.824625 C406.986332,190.033523 403.350337,179.676189 401.856858,181.140471 C400.234691,182.730823 399.053251,185.009882 398.32674,187.179353 C397.038992,191.02159 396.378763,194.955149 396.566846,198.920783 C395.576072,196.174419 390.380317,186.957952 389.108063,184.942169 C388.329474,183.708199 388.172379,183.402602 388.172379,183.402602 C388.172379,183.402602 385.958416,183.625786 386.000595,183.827141" id="Fill-273" fill="#001C4B"></path>
                <path d="M408.824032,191.008106 C408.205843,192.571118 406.488542,202.8466 404.898987,207.083948 C404.205153,208.930756 400.726466,210.358262 397.108512,210.358262 C396.906123,210.358262 397.048897,211 397.048897,211 C397.048897,211 405.305769,210.592202 407.02307,208.066157 C408.785958,205.47321 409.571969,196.830197 409.979252,193.883996 C410.178636,192.430924 408.876633,190.873878 408.824032,191.008106" id="Fill-274" fill="#010644"></path>
            </g>
        </g>
    </g>
</svg>